<svg width="41" height="41" viewBox="0 0 41 41" xmlns="http://www.w3.org/2000/svg" xmlns:xlink="http://www.w3.org/1999/xlink" xmlns:figma="http://www.figma.com/figma/ns"><title>Group 2</title><desc>Created using Figma</desc><g style="mix-blend-mode:normal" figma:type="frame"><use xlink:href="#a" fill="#2375DF" style="mix-blend-mode:normal" figma:type="vector"/><use xlink:href="#b" transform="translate(19 10)" fill="#FFF" style="mix-blend-mode:normal" figma:type="vector"/><use xlink:href="#c" transform="translate(10.5 20)" fill="#FFF" style="mix-blend-mode:normal" figma:type="vector"/></g><defs><path id="a" fill-rule="evenodd" d="M20.5 41C31.822 41 41 31.822 41 20.5S31.822 0 20.5 0 0 9.178 0 20.5 9.178 41 20.5 41z"/><path id="b" d="M2 .5v-1H0v1h2zm-2 20v1h2v-1H0zm0-20v20h2V.5H0z"/><path id="c" d="M0-1h-1v2h1v-2zm20 2h1v-2h-1v2zM0 1h20v-2H0v2z"/></defs></svg>