<svg width="46" height="50" viewBox="0 0 46 50" xmlns="http://www.w3.org/2000/svg" xmlns:xlink="http://www.w3.org/1999/xlink" xmlns:figma="http://www.figma.com/figma/ns"><title>Page 1</title><desc>Created using Figma</desc><g style="mix-blend-mode:normal" figma:type="frame" transform="translate(-3025 -560)"><use xlink:href="#a" transform="translate(3064.04 569.215)" fill="#231F20" style="mix-blend-mode:normal" figma:type="vector"/><mask id="c"><use xlink:href="#b" transform="translate(3025 560)" style="mix-blend-mode:normal" figma:type="vector"/></mask><use xlink:href="#d" transform="translate(3025 564.07)" fill="#231F20" style="mix-blend-mode:normal" mask="url(#c)" figma:type="vector-operation"/><use xlink:href="#e" transform="translate(3026.72 596.015)" fill="#231F20" style="mix-blend-mode:normal" mask="url(#c)" figma:type="vector-operation"/><use xlink:href="#f" transform="translate(3035.57 602.75)" fill="#231F20" style="mix-blend-mode:normal" mask="url(#c)" figma:type="vector-operation"/><use xlink:href="#g" transform="translate(3052.44 597.647)" fill="#231F20" style="mix-blend-mode:normal" mask="url(#c)" figma:type="vector-operation"/><use xlink:href="#h" transform="translate(3049.33 582.854)" fill="#231F20" style="mix-blend-mode:normal" mask="url(#c)" figma:type="vector-operation"/><use xlink:href="#i" transform="translate(3025 560)" fill="#231F20" style="mix-blend-mode:normal" mask="url(#c)" figma:type="vector"/></g><defs><path id="a" fill-rule="evenodd" d="M5.25 0H0v1.705h4.4V4.91H0v1.706h4.4v11.426H0v1.705h5.25c.472 0 .853-.382.853-.853V.852c0-.47-.38-.852-.852-.852z"/><path id="b" fill-rule="evenodd" d="M0 49.618h45.142V0H0v49.618z"/><path id="d" fill-rule="evenodd" d="M.852 29.828H39.04c.47 0 .85-.382.85-.852V.852c0-.47-.38-.852-.85-.852H.85C.382 0 0 .382 0 .852v28.123c0 .47.38.853.852.853zm37.334-1.705H1.706V1.705h36.48v26.418z"/><path id="e" fill-rule="evenodd" d="M0 3.433C0 5.39 2.534 6.867 5.896 6.867c3.36 0 5.894-1.477 5.894-3.434S9.256 0 5.896 0C2.534 0 0 1.476 0 3.433zm1.705 0c0-.705 1.632-1.728 4.19-1.728 2.56 0 4.19 1.023 4.19 1.728 0 .705-1.63 1.73-4.19 1.73-2.558 0-4.19-1.025-4.19-1.73z"/><path id="f" fill-rule="evenodd" d="M0 3.433C0 5.39 2.535 6.866 5.896 6.866c3.36 0 5.895-1.476 5.895-3.433C11.79 1.476 9.257 0 5.897 0 2.536 0 0 1.476 0 3.433zm1.705 0c0-.705 1.632-1.728 4.19-1.728 2.56 0 4.19 1.023 4.19 1.728 0 .704-1.63 1.728-4.19 1.728-2.558 0-4.19-1.023-4.19-1.727z"/><path id="g" fill-rule="evenodd" d="M0 3.433C0 5.39 2.534 6.866 5.895 6.866c3.36 0 5.895-1.476 5.895-3.433C11.79 1.476 9.256 0 5.895 0 2.535 0 0 1.476 0 3.433zm1.705 0c0-.705 1.632-1.728 4.19-1.728 2.558 0 4.19 1.023 4.19 1.728 0 .705-1.632 1.728-4.19 1.728-2.558 0-4.19-1.022-4.19-1.727z"/><path id="h" fill-rule="evenodd" d="M.852 5.995h8.334c.47 0 .852-.38.852-.852V.853c0-.47-.382-.853-.852-.853H.852C.382 0 0 .382 0 .852v4.29c0 .472.38.853.852.853zM8.334 4.29h-6.63V1.706h6.63V4.29z"/><path id="i" fill-rule="evenodd" d="M.852 33.044V4.922h6.685l24.11-3.1v3.1h1.705V.852c0-.244-.105-.477-.29-.638-.184-.162-.427-.24-.67-.206L.743 4.078C.32 4.13 0 4.492 0 4.92v28.122c0 .47.382.853.852.853H32.5c.47 0 .852-.382.852-.853H.852z"/></defs></svg>