<svg width="46" height="50" viewBox="0 0 46 50" xmlns="http://www.w3.org/2000/svg" xmlns:xlink="http://www.w3.org/1999/xlink"><title>Page 1</title><defs><path id="a" d="M0 49.617h45.142V0H0z"/></defs><g fill="none" fill-rule="evenodd"><path d="M44.29 9.215h-5.252v1.704h4.4v3.206h-4.4v1.705h4.4v11.427h-4.4v1.704h5.252c.47 0 .852-.38.852-.85V10.066c0-.47-.382-.852-.852-.852z" fill="#221F20"/><mask id="b" fill="#fff"><use xlink:href="#a"/></mask><path d="M1.705 32.192h36.48V5.774H1.706v26.418zm37.334 1.704H.85c-.47 0-.852-.38-.852-.852V4.92c0-.47.38-.85.852-.85H39.04c.47 0 .85.38.85.85v28.124c0 .47-.38.852-.85.852zM7.614 37.72c-2.56 0-4.19 1.023-4.19 1.728 0 .704 1.63 1.73 4.19 1.73 2.558 0 4.19-1.026 4.19-1.73 0-.705-1.632-1.73-4.19-1.73m0 5.163c-3.362 0-5.896-1.475-5.896-3.432 0-1.957 2.534-3.433 5.896-3.433 3.36 0 5.894 1.476 5.894 3.433 0 1.957-2.534 3.433-5.894 3.433M16.47 44.456c-2.56 0-4.192 1.024-4.192 1.728 0 .705 1.632 1.73 4.19 1.73 2.56 0 4.192-1.025 4.192-1.73 0-.704-1.633-1.728-4.19-1.728m0 5.16c-3.362 0-5.897-1.475-5.897-3.432 0-1.957 2.535-3.433 5.896-3.433 3.36 0 5.894 1.477 5.894 3.434s-2.535 3.433-5.895 3.433M33.332 39.352c-2.558 0-4.19 1.023-4.19 1.728 0 .704 1.632 1.728 4.19 1.728 2.558 0 4.19-1.024 4.19-1.728 0-.705-1.632-1.728-4.19-1.728m0 5.16c-3.36 0-5.895-1.475-5.895-3.432 0-1.957 2.534-3.433 5.895-3.433 3.36 0 5.895 1.476 5.895 3.433 0 1.957-2.535 3.433-5.895 3.433" fill="#221F20" mask="url(#b)"/><path d="M26.04 27.145h6.63v-2.587h-6.63v2.587zm7.482 1.704h-8.334c-.47 0-.852-.383-.852-.853v-4.29c0-.47.38-.853.852-.853h8.334c.47 0 .852.382.852.852v4.29c0 .47-.382.853-.852.853z" fill="#221F20" mask="url(#b)"/><path d="M.852 33.044V4.92h6.685l24.11-3.098v3.1h1.704V.85c0-.244-.104-.477-.288-.64-.184-.16-.427-.24-.67-.204L.74 4.075C.32 4.13 0 4.492 0 4.92v28.124c0 .47.382.852.852.852H32.5c.47 0 .85-.382.85-.852H.853z" fill="#221F20" mask="url(#b)"/></g></svg>