<svg width="32" height="27" viewBox="0 0 32 27" xmlns="http://www.w3.org/2000/svg" xmlns:xlink="http://www.w3.org/1999/xlink" xmlns:figma="http://www.figma.com/figma/ns"><title>shopping69</title><desc>Created using Figma</desc><g style="mix-blend-mode:normal" figma:type="frame"><use xlink:href="#a" transform="translate(24.1 21.85)" fill="#7A7F85" style="mix-blend-mode:normal" figma:type="vector"/><use xlink:href="#b" transform="translate(1 1.14)" fill="#7A7F85" style="mix-blend-mode:normal" figma:type="vector"/><use xlink:href="#c" transform="translate(7.9 21.85)" fill="#7A7F85" style="mix-blend-mode:normal" figma:type="vector"/></g><defs><path id="a" d="M.674 3.927L.32 4.28l.354-.353zm3.253 0l-.353-.354.353.354zm0-3.253L4.28.32l-.353.354zm-3.253 0L.32.32l.354.354zM-.5 2.3c0 .77.278 1.438.82 1.98l.708-.707C.672 3.218.5 2.803.5 2.3h-1zm.82 1.98c.543.544 1.213.82 1.98.82v-1c-.502 0-.917-.17-1.272-.527L.32 4.28zm1.98.82c.768 0 1.438-.277 1.98-.82l-.707-.707c-.355.356-.77.528-1.272.528v1zm1.98-.82c.544-.542.82-1.21.82-1.98h-1c0 .503-.17.918-.526 1.273l.707.708zM5.1 2.3c0-.767-.276-1.437-.82-1.98l-.706.708c.355.355.527.77.527 1.273h1zM4.28.32C3.74-.222 3.07-.5 2.3-.5v1c.503 0 .918.172 1.274.528L4.28.32zM2.3-.5C1.534-.5.864-.222.32.32l.708.708C1.383.672 1.798.5 2.3.5v-1zM.32.32C-.222.864-.5 1.533-.5 2.3h1c0-.502.172-.917.528-1.273L.32.32z"/><path id="b" d="M29.564 2.642l.354-.353v-.002l-.354.354zM7.17 2.3l-.494.072.062.428h.433v-.5zm-.18-.988l.493-.09-.492.09zM6.624.396l-.385.32.385-.32zm-.36-.28l.232-.443h-.002l-.23.444zM.34.342L-.01-.01.34.34zm0 1.62l-.352.353.353-.354zm4.476.34l.49-.105L5.22 1.8h-.404v.5zm3.18 14.792l.45.222.077-.156-.037-.172-.49.106zm-.367.683l-.44-.24.44.24zm-.53 1.07l-.46-.2.46.2zm.143 1.518l-.354.354.353-.354zm20.02 0l.353.354-.353-.354zm0-1.618l-.354.354.353-.355zm-17.343-.34l-.447-.225-.362.724h.81v-.5zm.28-2.023l.485-.117-.486.117zm-.082-.386l-.058-.497-.51.06.073.506.495-.07zm18.763-2.193l.06.497-.06-.497zM29.907 3.45h.5-.5zm.012-1.162c-.318-.318-.713-.488-1.163-.488v1c.174 0 .318.058.456.195l.707-.707zM28.755 1.8H7.17v1h21.585v-1zm-21.09.43c-.013-.093-.04-.256-.084-.48l-.98.185c.04.22.065.36.076.437l.99-.143zm-.084-.48l-.097-.528-.984.18c.023.132.057.31.1.533l.98-.186zm-.097-.528C7.453 1.067 7.4.87 7.328.668l-.943.335c.06.17.095.29.114.4l.983-.18zM7.328.668c-.08-.22-.2-.444-.32-.593l-.77.64c.06.067.095.136.147.288l.942-.335zm-.32-.592c-.128-.148-.325-.302-.513-.403L6.032.56c.112.056.154.087.206.155l.77-.64zm-.514-.403C6.285-.43 5.998-.497 5.75-.5v1c.137-.003.19.008.283.06l.46-.887zM5.75-.5h-4.6v1h4.6v-1zm-4.6 0C.7-.5.306-.33-.012-.012l.707.707C.832.558.975.5 1.15.5v-1zm-1.162.488C-.33.306-.5.7-.5 1.15h1C.5.976.558.832.695.695l-.707-.707zM-.5 1.15c0 .45.17.845.488 1.163l.707-.708C.558 1.468.5 1.325.5 1.15h-1zm.488 1.163C.306 2.63.7 2.8 1.15 2.8v-1c-.174 0-.317-.057-.455-.195l-.707.708zM1.15 2.8h3.666v-1H1.15v1zm3.178-.394l3.18 14.79.978-.21-3.18-14.79-.98.21zM7.55 16.87c-.02.04-.14.26-.36.666l.878.477c.222-.408.35-.643.377-.7l-.895-.444zm-.36.666c-.227.416-.413.792-.55 1.11l.918.396c.126-.293.293-.63.51-1.03l-.878-.476zm-.55 1.11c-.138.32-.24.634-.24.908h1c0-.06.032-.22.158-.512l-.918-.396zm-.24.908c0 .45.17.845.49 1.163l.706-.708c-.137-.138-.195-.282-.195-.456h-1zm.49 1.163c.317.317.712.487 1.16.487v-1c-.172 0-.316-.057-.454-.195l-.706.707zm1.16.487h1.152v-1h-1.15v1zm1.152 0h16.103v-1H9.202v1zm16.103 0h1.15v-1h-1.15v1zm1.15 0c.45 0 .844-.17 1.16-.487l-.705-.708c-.138.136-.282.194-.456.194v1zm1.16-.487c.32-.318.49-.714.49-1.163h-1c0 .174-.058.318-.195.455l.706.707zm.49-1.163c0-.45-.17-.845-.49-1.162l-.705.707c.137.136.195.28.195.454h1zm-.488-1.162c-.318-.318-.714-.488-1.163-.488v1c.174 0 .318.057.455.195l.707-.708zm-1.163-.488H9.92v1h16.534v-1zm-16.087.723c.15-.296.267-.56.345-.766.075-.198.14-.414.14-.606h-1c-.004-.035-.014.09-.076.255-.066.176-.164.392-.303.67l.894.447zm.485-1.373c0-.15-.022-.332-.056-.498l-.98.204c.027.12.037.202.036.294h1zm-.056-.498c-.03-.148-.068-.314-.11-.49l-.973.233c.04.17.075.32.104.46l.98-.204zm-.11-.492c-.04-.165-.063-.27-.073-.34l-.99.142c.015.1.046.252.09.433l.972-.236zm-.51.228L28.94 14.3l-.117-.994L10.06 15.5l.116.992zM28.94 14.3c.39-.055.797-.27 1.056-.556l-.756-.654c-.124.157-.207.2-.418.217l.12.992zm1.056-.556c.244-.293.402-.714.41-1.09h-1c.008.197-.026.286-.166.436l.756.654zm.41-1.09V3.45h-1v9.203h1zm0-9.203c0-.448-.17-.843-.488-1.16l-.708.705c.138.138.195.282.196.456h1z"/><path id="c" d="M.674 3.927l.353-.354-.353.354zm3.253 0l-.354-.354.354.354zm0-3.253L4.28.32l-.353.354zm-3.253 0L.32.32l.354.354zM-.5 2.3c0 .768.277 1.438.82 1.98l.707-.707C.672 3.218.5 2.803.5 2.3h-1zm.82 1.98c.544.543 1.213.82 1.98.82v-1c-.502 0-.917-.17-1.273-.527L.32 4.28zm1.98.82c.768 0 1.437-.277 1.98-.82l-.707-.707c-.355.356-.77.528-1.272.528v1zm1.98-.82c.543-.542.82-1.21.82-1.98h-1c0 .503-.17.918-.527 1.273l.707.708zM5.1 2.3c0-.767-.276-1.437-.82-1.98l-.707.708c.356.355.528.77.528 1.273h1zM4.28.32C3.737-.222 3.068-.5 2.3-.5v1c.502 0 .918.172 1.274.528L4.28.32zM2.3-.5C1.534-.5.864-.222.32.32l.707.708C1.383.672 1.797.5 2.3.5v-1zM.32.32C-.222.863-.5 1.533-.5 2.3h1c0-.502.172-.917.528-1.273L.32.32z"/></defs></svg>