<svg width="32" height="26" viewBox="0 0 32 26" xmlns="http://www.w3.org/2000/svg" xmlns:xlink="http://www.w3.org/1999/xlink" xmlns:figma="http://www.figma.com/figma/ns"><title>bar10</title><desc>Created using Figma</desc><g style="mix-blend-mode:normal" figma:type="frame"><use xlink:href="#a" transform="translate(1.15 1.08)" fill="#7A7F85" style="mix-blend-mode:normal" figma:type="vector-operation"/><use xlink:href="#b" transform="translate(5.11 14.94)" fill="#7A7F85" style="mix-blend-mode:normal" figma:type="vector"/><use xlink:href="#c" transform="translate(11.05 7.02)" fill="#7A7F85" style="mix-blend-mode:normal" figma:type="vector"/><use xlink:href="#d" transform="translate(16.99 10.98)" fill="#7A7F85" style="mix-blend-mode:normal" figma:type="vector"/><use xlink:href="#e" transform="translate(22.93 5.04)" fill="#7A7F85" style="mix-blend-mode:normal" figma:type="vector"/></g><defs><path id="a" d="M28.975.727l-.354.354.355-.353zm0 22.307l-.354-.354.355.354zm-28.248 0l.354-.354-.353.354zm0-22.307l.354.354L.728.728zm26.848 1.4l-.355.353.355-.353zm-25.448 0l.354.354-.353-.353zm0 19.507l.354-.353-.353.354zm27.2-21.26c-.577-.578-1.286-.874-2.1-.874v1c.547 0 1.002.19 1.394.58l.708-.707zm.875 2.1c0-.814-.296-1.523-.874-2.1l-.707.707c.393.392.582.848.582 1.395h1zm0 18.812V2.476h-1v18.81h1zm-.874 2.102c.578-.578.874-1.288.874-2.102h-1c0 .547-.19 1.003-.58 1.394l.706.708zm-2.1.873c.813 0 1.523-.295 2.1-.873l-.707-.706c-.39.392-.846.58-1.393.58v1zm-24.753 0h24.752v-1H2.475v1zm-2.102-.873c.578.578 1.288.874 2.102.874v-1c-.547 0-1.003-.188-1.394-.58l-.707.707zm-.873-2.1c0 .813.296 1.523.874 2.1l.707-.707c-.39-.39-.58-.847-.58-1.394h-1zm0-18.812v18.81h1V2.476h-1zM.374.373C-.204.95-.5 1.66-.5 2.475h1c0-.547.19-1.003.58-1.394L.375.374zm2.1-.873c-.813 0-1.523.296-2.1.873l.707.708C1.473.69 1.93.5 2.476.5v-1zm24.753 0H2.475v1h24.752v-1zm-.005 21.786c0 .003 0 .003 0 0 0 0 0-.004.002-.007l.003-.006s0 .002-.005.006l.706.708c.19-.19.294-.43.294-.702h-1zm0-18.81v18.81h1V2.476h-1zm0 .005l.005.007s0-.002-.003-.005l-.002-.008c0-.002 0-.002 0 0h1c0-.27-.105-.512-.294-.7l-.707.707zm.005 0c.003 0 .003 0 0 0l-.007-.002-.005-.003.005.005.71-.706c-.19-.19-.433-.294-.703-.294v1zm-24.752 0h24.752v-1H2.475v1zm.006 0l.007-.005s-.002 0-.005.003l-.008.002c-.002 0-.002 0 0 0v-1c-.27 0-.512.105-.7.294l.707.706zm0-.005c0-.003 0-.003 0 0 0 0 0 .004-.002.007l-.003.005.006-.006-.706-.707c-.188.19-.294.43-.294.702h1zm0 18.81V2.476h-1v18.81h1zm0-.004l-.003-.004c0-.002-.002-.002-.002-.002l.003.005.002.007c0 .002 0 .002 0 0h-1c0 .27.106.512.293.7l.708-.706zm-.005 0c-.003 0-.003 0 0 0l.007.003.005.003s-.002 0-.006-.005l-.707.707c.19.19.43.294.702.294v-1zm24.752 0H2.475v1h24.752v-1zm-.005 0l-.007.006s.002 0 .005-.003l.008-.002c.002 0 .002 0 0 0v1c.27 0 .51-.104.7-.292l-.706-.708z"/><path id="b" d="M0 0v-.5h-.5V0H0zm3.96 0h.5v-.5h-.5V0zm0 5.94v.5h.5v-.5h-.5zM0 5.94h-.5v.5H0v-.5zM0 .5h3.96v-1H0v1zM3.46 0v5.94h1V0h-1zm.5 5.44H0v1h3.96v-1zm-3.46.5V0h-1v5.94h1z"/><path id="c" d="M0 0v-.5h-.5V0H0zm3.96 0h.5v-.5h-.5V0zm0 13.86v.5h.5v-.5h-.5zm-3.96 0h-.5v.5H0v-.5zM0 .5h3.96v-1H0v1zM3.46 0v13.86h1V0h-1zm.5 13.36H0v1h3.96v-1zm-3.46.5V0h-1v13.86h1z"/><path id="d" d="M0 0v-.5h-.5V0H0zm3.96 0h.5v-.5h-.5V0zm0 9.9v.5h.5v-.5h-.5zM0 9.9h-.5v.5H0v-.5zM0 .5h3.96v-1H0v1zM3.46 0v9.9h1V0h-1zm.5 9.4H0v1h3.96v-1zM.5 9.9V0h-1v9.9h1z"/><path id="e" d="M0 0v-.5h-.5V0H0zm3.96 0h.5v-.5h-.5V0zm0 15.84v.5h.5v-.5h-.5zm-3.96 0h-.5v.5H0v-.5zM0 .5h3.96v-1H0v1zM3.46 0v15.84h1V0h-1zm.5 15.34H0v1h3.96v-1zm-3.46.5V0h-1v15.84h1z"/></defs></svg>