<svg width="191" height="99" viewBox="0 0 191 99" xmlns="http://www.w3.org/2000/svg" xmlns:xlink="http://www.w3.org/1999/xlink" xmlns:figma="http://www.figma.com/figma/ns"><title>Group 14</title><desc>Created using Figma</desc><g style="mix-blend-mode:normal" figma:type="frame"><g style="mix-blend-mode:normal" figma:type="frame"><use xlink:href="#a" transform="translate(1.62 71.1)" fill="#FFF" style="mix-blend-mode:normal" figma:type="vector-operation"/><use xlink:href="#b" transform="translate(1.62 36.1)" fill="#FFF" style="mix-blend-mode:normal" figma:type="vector-operation"/><use xlink:href="#c" transform="translate(1.62 1.09)" fill="#FFF" style="mix-blend-mode:normal" figma:type="vector-operation"/></g><use xlink:href="#d" transform="translate(140.08 43.08)" fill="#FFF" style="mix-blend-mode:normal" figma:type="vector-operation"/></g><defs><path id="a" d="M1.298 24.954l-.708.707.708-.706zm0-23.655L.59.59l.708.707zm112.34 16.203v1h1v-1h-1zm-43.705 0h-1v1h1v-1zM113.64 8.75l1 .002v-1h-1v1zm-43.707 0v-1h-1v1h1zM118.01-1H4.37v2h113.64v-2zm3.78 1.592C120.745-.453 119.468-1 118.01-1v2c.907 0 1.68.32 2.366 1.006L121.79.592zm1.59 3.784c0-1.46-.544-2.738-1.59-3.784l-1.414 1.414c.684.684 1.004 1.46 1.004 2.37h2zm0 17.5v-17.5h-2v17.5h2zm-1.59 3.785c1.046-1.045 1.59-2.324 1.59-3.783h-2c0 .91-.32 1.686-1.004 2.37l1.414 1.414zm-3.78 1.594c1.46 0 2.735-.548 3.78-1.593l-1.414-1.413c-.686.685-1.46 1.007-2.367 1.007v2zm-113.64 0h113.64v-2H4.37v2zM.59 25.66c1.046 1.046 2.322 1.594 3.78 1.594v-2c-.906 0-1.68-.322-2.366-1.008L.59 25.662zM-1 21.878c0 1.46.544 2.738 1.59 3.784l1.415-1.413C1.32 23.563 1 22.787 1 21.877h-2zm0-17.5v17.5h2v-17.5h-2zM.59.59C-.456 1.638-1 2.917-1 4.376h2c0-.91.32-1.686 1.005-2.37L.59.592zM4.37-1C2.91-1 1.637-.453.59.592l1.415 1.414C2.69 1.32 3.463 1 4.37 1v-2zm109.27 17.503H69.932v2h43.706v-2zm-1-7.752v8.753h2v-8.75l-2-.002zm-42.707 1h43.707v-2H69.933v2zm1 7.753V8.75h-2v8.753h2z"/><path id="b" d="M121.083 24.953l-.707-.707.707.707zm-119.785 0l-.708.707.708-.707zm0-23.654L.59.59l.708.707zM113.638 17.5v1h1v-1h-1zm-69.93 0h-1v1h1v-1zm69.93-8.75h1v-1h-1v1zm-69.93 0v-1h-1v1h1zM118.008-1H4.372v2h113.64v-2zM121.79.592C120.745-.454 119.468-1 118.01-1v2c.907 0 1.68.32 2.365 1.006L121.79.592zm1.59 3.783c0-1.46-.544-2.736-1.59-3.783l-1.415 1.414c.685.685 1.005 1.46 1.005 2.37h2zm0 17.502V4.375h-2v17.502h2zm-1.59 3.783c1.046-1.046 1.59-2.324 1.59-3.783h-2c0 .91-.32 1.685-1.004 2.37l1.414 1.413zm-3.78 1.593c1.458 0 2.735-.547 3.78-1.593l-1.415-1.414c-.685.686-1.458 1.007-2.366 1.007v2zm-113.64 0h113.64v-2H4.37v2zM.59 25.66c1.046 1.046 2.322 1.593 3.78 1.593v-2c-.906 0-1.68-.32-2.365-1.007L.59 25.66zM-1 21.877c0 1.46.544 2.737 1.59 3.783l1.415-1.414C1.32 23.562 1 22.786 1 21.876h-2zm0-17.502v17.502h2V4.375h-2zM.59.592C-.455 1.64-1 2.916-1 4.375h2c0-.91.32-1.684 1.005-2.37L.59.593zM4.37-1C2.913-1 1.637-.454.59.592l1.415 1.414C2.69 1.32 3.462 1 4.37 1v-2zM113.64 16.502h-69.93v2h69.93v-2zm-1-7.75v8.75h2v-8.75h-2zm-68.93 1h69.93v-2h-69.93v2zm1 7.75v-8.75h-2v8.75h2z"/><path id="c" d="M121.083 1.3l.708-.707-.707.706zm0 23.655l-.708-.707.708.707zm-119.785 0l-.708.706v.002l.708-.707zm0-23.656L.59.59l.708.707zm112.34 16.203v1h1v-1h-1zm-26.224 0h-1v1h1v-1zm26.224-8.752h1v-1h-1v1zm-26.224 0v-1h-1v1h1zM121.79.593C120.745-.453 119.468-1 118.01-1v2c.907 0 1.68.32 2.366 1.006L121.79.592zm1.59 3.784c0-1.46-.544-2.736-1.59-3.783l-1.415 1.412c.685.687 1.005 1.46 1.005 2.37h2zm0 17.5v-17.5h-2v17.5h2zm-1.59 3.785c1.046-1.045 1.59-2.322 1.59-3.783h-2c0 .912-.32 1.686-1.005 2.37l1.415 1.414zm-3.78 1.594c1.458 0 2.735-.546 3.78-1.593l-1.415-1.412c-.684.685-1.457 1.006-2.366 1.006v2zm-113.64 0h113.64v-2H4.37v2zM.59 25.662c1.047 1.046 2.323 1.592 3.78 1.592v-2c-.907 0-1.68-.32-2.365-1.006L.59 25.662zM-1 21.877c0 1.46.545 2.738 1.59 3.784l1.415-1.412C1.32 23.563 1 22.788 1 21.878h-2zm0-17.5v17.5h2v-17.5h-2zM.59.59C-.456 1.64-1 2.917-1 4.376h2c0-.91.32-1.685 1.005-2.37L.59.592zM4.37-1C2.91-1 1.637-.453.59.592l1.415 1.414C2.69 1.32 3.463 1 4.37 1v-2zm113.64 0H4.37v2h113.64v-2zm-4.372 17.503H87.414v2h26.224v-2zm-1-7.752v8.753h2V8.75h-2zm-25.224 1h26.224v-2H87.414v2zm1 7.753V8.75h-2v8.753h2z"/><path id="d" d="M48.735 43.313l-.707.707.707-.707zM38.46 33.04l-.82-.57-.477.686.59.59.708-.707zm11.383 12.968h-1 1zm-1.138 2.696l-.707-.707.707.707zm-5.392 0l.726-.688-.01-.01-.01-.01-.707.708zM33.04 38.46l.705-.708-.59-.59-.685.476.57.822zm-20.145 2.052l-.39.92.39-.92zm-6.74-4.493l-.707.706.708-.707zm-4.492-6.74l.92-.392-.92.392zm0-16.385l.92.392-.92-.392zm4.493-6.74l-.708-.707.708.708zm6.74-4.492l.39.92-.39-.92zm16.384 0l-.39.92.39-.92zm6.74 4.493l.707-.708-.707.708zm4.492 6.74l-.92.39.92-.39zm-9.944 17.67l.707.71v-.002l-.707-.707zm0-18.96l.707-.706-.707.707zm-18.96 0l.707.708-.708-.707zm0 18.96l-.708.71v-.002l.707-.707zm37.834 12.04L39.168 32.332l-1.414 1.414L48.028 44.02l1.414-1.414zm1.4 3.402c0-1.32-.47-2.473-1.4-3.403l-1.414 1.415c.548.548.815 1.192.815 1.988h2zm-1.43 3.403c.94-.938 1.43-2.09 1.43-3.402h-2c0 .764-.266 1.41-.844 1.99l1.414 1.413zm-3.403 1.432c1.312 0 2.463-.492 3.402-1.43l-1.415-1.415c-.577.578-1.225.845-1.988.845v2zm-3.423-1.45c.914.965 2.078 1.45 3.422 1.45v-2c-.815 0-1.447-.273-1.97-.826l-1.453 1.376zM32.333 39.168l10.274 10.244 1.412-1.416-10.275-10.244-1.412 1.416zm-11.245 4.007c4.543-.01 8.815-1.34 12.52-3.893l-1.138-1.644c-3.443 2.4-7.14 3.548-11.382 3.537v2zm-8.584-1.743c2.7 1.144 5.628 1.738 8.584 1.743v-2c-2.756.005-5.29-.51-7.8-1.583l-.784 1.84zm-7.056-4.706c1.96 1.954 4.366 3.558 7.056 4.706l.783-1.84c-2.523-1.068-4.61-2.46-6.424-4.28l-1.415 1.414zM.742 29.67c1.15 2.69 2.753 5.096 4.706 7.056l1.415-1.414c-1.82-1.814-3.212-3.9-4.28-6.423l-1.84.78zM-1 21.09c.005 2.955.6 5.882 1.742 8.583l1.84-.782C1.51 26.378.996 23.843 1 21.088h-2zm1.742-8.584C-.4 15.204-.995 18.132-1 21.088h2c-.005-2.756.51-5.29 1.583-7.8l-1.84-.784zm4.706-7.056C3.495 7.408 1.89 9.814.742 12.504l1.84.783c1.07-2.523 2.46-4.61 4.28-6.424L5.45 5.448zM12.504.742c-2.69 1.15-5.095 2.753-7.056 4.706l1.415 1.415c1.814-1.82 3.9-3.212 6.424-4.28l-.783-1.84zM21.088-1c-2.956.005-5.883.6-8.584 1.742l.783 1.84C15.797 1.51 18.332.996 21.087 1v-2zM29.672.742C26.972-.4 24.042-.995 21.088-1v2c2.755-.005 5.29.51 7.8 1.583l.784-1.84zm7.055 4.706c-1.96-1.953-4.365-3.557-7.055-4.706l-.783 1.84c2.52 1.07 4.608 2.46 6.422 4.28l1.415-1.414zm4.706 7.056c-1.148-2.69-2.753-5.095-4.706-7.056l-1.415 1.415c1.82 1.814 3.213 3.9 4.28 6.423l1.84-.782zm1.742 8.584c-.005-2.956-.6-5.884-1.742-8.584l-1.84.783c1.073 2.51 1.587 5.045 1.582 7.8h2zm-3.892 12.52c2.553-3.705 3.88-7.977 3.892-12.52h-2c.012 4.242-1.137 7.94-3.536 11.382l1.643 1.14zM29.86 29.86c-2.44 2.44-5.345 3.646-8.772 3.646v2c3.96 0 7.375-1.42 10.187-4.232L29.86 29.86zm3.647-8.773c0 3.428-1.207 6.333-3.646 8.773l1.415 1.414c2.812-2.812 4.232-6.225 4.232-10.187h-2zm-3.646-8.773c2.44 2.44 3.647 5.346 3.647 8.773h2c0-3.96-1.42-7.375-4.232-10.187l-1.414 1.414zM21.09 8.668c3.427 0 6.333 1.207 8.773 3.646l1.415-1.414c-2.813-2.812-6.226-4.232-10.187-4.232v2zm-8.773 3.646c2.44-2.44 5.345-3.646 8.773-3.646v-2c-3.96 0-7.376 1.42-10.188 4.232l1.415 1.414zm-3.647 8.773c0-3.427 1.207-6.334 3.647-8.773L10.9 10.9c-2.812 2.812-4.232 6.226-4.232 10.187h2zm3.647 8.773c-2.44-2.44-3.647-5.345-3.647-8.773h-2c0 3.962 1.42 7.375 4.232 10.188l1.415-1.415zm8.773 3.646c-3.428 0-6.334-1.206-8.774-3.646L10.9 31.275c2.813 2.812 6.227 4.23 10.188 4.23v-2z"/></defs></svg>