<svg width="107" height="54" viewBox="0 0 107 54" xmlns="http://www.w3.org/2000/svg" xmlns:xlink="http://www.w3.org/1999/xlink"><title>The_Economist</title><defs><path id="a" d="M.016 53.984H106.75V.258H.015z"/></defs><g fill="none" fill-rule="evenodd"><g><mask id="b" fill="#fff"><use xlink:href="#a"/></mask><path fill="#2375DF" mask="url(#b)" d="M.397 53.603h105.955V.655H.397"/><path d="M106.352.258H0V54h106.75V.258h-.398zm0 52.948H.397l.398.397V.655l-.398.397h105.955l-.398-.397v52.948l.398-.397z" fill="#FFF" mask="url(#b)"/></g><path d="M50.248 8.943l.067 2.58-.6.032c-.05-1.58-.382-1.797-2.78-1.797h-.516v9.103c0 1.25.315 1.582 1.547 1.615l.033.433c-1.165-.017-2.047-.017-2.63-.017-.6 0-1.515 0-2.714.018l.033-.433c1.23-.033 1.548-.366 1.548-1.614V9.76h-.6c-2.464 0-2.797.216-2.83 1.797l-.617-.033.068-2.58c2.265.017 3.946.034 5.078.034 1.083 0 2.73-.017 4.912-.033M50.694 20.508c1.115 0 1.265-.216 1.282-1.78V11.12c-.017-1.563-.167-1.78-1.282-1.78l-.033-.4c1.516-.083 1.866-.132 3.23-.382v5.16c.884-.983 1.633-1.366 2.615-1.366 1.63 0 2.53 1.032 2.53 2.93v3.443c.018 1.565.167 1.78 1.283 1.78l.033.4c-.964-.033-1.697-.066-2.18-.066-.466 0-1.15.034-2.065.068l.034-.4c.88-.133.964-.3.98-1.78v-2.53c0-2.097-.365-2.796-1.464-2.796-.616 0-1.25.383-1.515.966-.1.2-.166.416-.232.632-.017.083-.017.15-.017.183v3.544c0 1.48.1 1.648.984 1.78l.033.4c-.933-.033-1.616-.066-2.082-.066-.483 0-1.215.034-2.164.068l.034-.4M68.74 19.277c-1.03 1.28-2.047 1.813-3.38 1.813-2.313 0-3.878-1.697-3.878-4.21 0-2.68 1.615-4.526 3.946-4.526 1.282 0 2.18.466 2.797 1.48.417.7.533 1.183.55 2.38H63.48c.066 2.53.982 3.96 2.514 3.96.916 0 1.682-.415 2.498-1.363l.25.467zm-5.31-3.695c1.53-.033 1.998-.066 3.546-.232-.2-1.615-.815-2.414-1.864-2.414-1 0-1.516.832-1.682 2.646zM6.406 36.917c1.348-.037 1.7-.406 1.7-1.79v-8.73c0-1.383-.352-1.752-1.7-1.79l-.055-.48 2.863.038 4.506-.056 1.18.018.074 2.713-.738.056c-.13-1.68-.444-1.864-3.102-1.864h-.407l-.184.02v5.02c.35 0 .627.017.794.017.295.017.572.036.85.036 1.476 0 1.81-.314 1.827-1.716h.628c-.056 1.125-.056 1.697-.056 2.25 0 .444 0 1.07.02 1.902h-.592c-.074-1.33-.37-1.587-1.79-1.606l-.998-.018-.702.037v3.894c0 1.568.093 1.64 1.644 1.64 2.086 0 2.695-.46 2.88-2.25l.738.037-.424 3.1-1.422.018-4.524-.037-3.065.02.056-.48M25.31 36.087c-1.05 1.09-1.92 1.513-3.138 1.513-2.437 0-4.025-1.9-4.025-4.798 0-2.99 1.68-4.89 4.34-4.89.7 0 1.42.13 2.53.423l.036 2.215-.83.056c-.333-1.66-.666-2.05-1.737-2.05-1.385 0-2.105 1.238-2.105 3.618 0 2.805.87 4.374 2.44 4.374.81 0 1.494-.35 2.214-1.126l.277.665M27.285 33.115v-.276c0-3.12 1.68-4.93 4.56-4.93 2.678 0 4.56 1.994 4.56 4.855 0 2.897-1.827 4.835-4.615 4.835-2.64 0-4.413-1.772-4.505-4.485m2.29-.203c.184 2.64 1.052 4.06 2.473 4.06 1.33 0 2.124-1.383 2.124-3.71 0-2.73-1.09-4.65-2.604-4.65-1.347 0-2.03 1.163-2.03 3.47 0 .277 0 .554.036.83M38.656 36.954c1.237 0 1.422-.24 1.422-1.975v-4.282c0-1.716-.185-1.956-1.422-1.975l-.037-.424c1.643-.093 2.012-.15 3.415-.444l.093 1.66c1.052-1.18 1.865-1.605 2.99-1.605 1.792 0 2.807 1.164 2.807 3.25v3.82c-.018.147-.018.295-.018.442 0 1.182.314 1.532 1.44 1.532l.037.443c-1.07-.037-1.883-.074-2.42-.074-.516 0-1.29.037-2.307.074l.037-.443c.98-.148 1.09-.332 1.09-1.975l.018-1.163v-1.643c0-2.325-.425-3.1-1.625-3.1-.72 0-1.33.387-1.7 1.07-.146.277-.276.72-.276.905v3.93c.02 1.642.112 1.826 1.09 1.974l.056.443c-1.034-.037-1.81-.074-2.326-.074-.536 0-1.33.037-2.4.074l.036-.443M51.01 33.115v-.276c0-3.12 1.68-4.93 4.56-4.93 2.678 0 4.56 1.994 4.56 4.855 0 2.897-1.826 4.835-4.615 4.835-2.64 0-4.413-1.772-4.505-4.485m2.29-.203c.184 2.64 1.052 4.06 2.474 4.06 1.33 0 2.124-1.383 2.124-3.71 0-2.73-1.09-4.65-2.605-4.65-1.347 0-2.03 1.163-2.03 3.47 0 .277 0 .554.037.83M62.38 36.954c1.24 0 1.423-.24 1.423-1.975v-4.282c0-1.716-.184-1.956-1.422-1.975l-.035-.424c1.643-.093 2.012-.15 3.415-.444l.093 1.66c1.052-1.162 1.865-1.605 2.954-1.605 1.256 0 1.994.518 2.548 1.755 1.127-1.293 1.958-1.754 3.084-1.754 1.753 0 2.75 1.183 2.75 3.25v3.82c0 .147-.018.295-.018.442 0 1.182.332 1.532 1.44 1.532l.037.443c-1.072-.037-1.884-.074-2.42-.074-.517 0-1.274.037-2.29.074l.037-.443c.98-.148 1.07-.332 1.09-1.975v-2.806c0-2.288-.406-3.1-1.55-3.1-.684 0-1.386.443-1.682 1.07-.092.222-.184.443-.24.702-.018.092-.036.166-.036.203v3.93c0 1.642.11 1.826 1.088 1.974l.037.443c-.98-.037-1.718-.074-2.216-.074-.48 0-1.2.037-2.162.074l.038-.443c.978-.148 1.07-.332 1.09-1.975v-2.806c0-2.288-.407-3.1-1.552-3.1-.702 0-1.33.406-1.68 1.07-.148.296-.277.72-.277.905v3.93c.018 1.642.11 1.826 1.09 1.974l.036.443c-1.015-.037-1.79-.074-2.308-.074-.535 0-1.33.037-2.4.074l.036-.443M84 27.856v5.96l.02 1.163c0 1.734.166 1.974 1.422 1.974l.036.443c-1.144-.037-1.975-.074-2.548-.074-.554 0-1.385.037-2.51.074l.036-.443c1.237 0 1.422-.24 1.422-1.975l.018-1.163V31.88l-.018-1.182c0-1.716-.185-1.956-1.422-1.975l-.037-.424c1.698-.112 2.086-.167 3.58-.444m-2.38-3.082c0-.7.553-1.255 1.236-1.255.683 0 1.238.57 1.238 1.254 0 .702-.536 1.255-1.238 1.255-.7 0-1.237-.536-1.237-1.256M87.747 37.065l-.074-1.882.942-.037c.425 1.42.7 1.697 1.68 1.697.85 0 1.404-.443 1.404-1.107 0-.628-.39-1.107-1.553-1.9-.59-.407-.997-.683-1.218-.85-.48-.37-.832-.812-1.017-1.31-.11-.277-.166-.61-.166-.996 0-1.68 1.145-2.77 2.88-2.77.647 0 1.016.057 2.512.407l.036 1.864-.942.038c-.222-1.236-.61-1.66-1.477-1.66-.83 0-1.422.48-1.422 1.162 0 .646.296 1.033 1.256 1.642.868.572 1.552 1.09 2.013 1.495.517.498.813 1.126.813 1.845 0 1.643-1.385 2.898-3.158 2.898-.683 0-1.33-.148-2.51-.535M95.374 28.447c1.458-.112 2.03-.74 2.455-2.658h.83v2.49h2.327l-.26 1.015H98.66v4.54c0 2.27.296 2.805 1.55 2.805.296 0 .573-.036 1.017-.166v.535c-.628.35-1.496.553-2.382.553-.813 0-1.588-.46-1.92-1.144-.278-.573-.37-1.145-.37-2.4v-4.725h-1.18v-.848" fill="#FFF"/></g></svg>