<svg id="Слой_1" xmlns="http://www.w3.org/2000/svg" viewBox="0 0 100 21" enable-background="new 0 0 100 21"><style>.st0{fill:#2375DF;} .st1{fill:#3E71B8;} .st2{filter:url(#Adobe_OpacityMaskFilter);} .st3{fill:#FFFFFF;} .st4{mask:url(#mask-2);fill:#2375DF;}</style><path id="Fill-1" class="st0" d="M97.3 18.1v.9c.2.5.5.8 1.2.9.4-.1.6-.2 1-.4.6-.9.4-1.6-.5-2.1-.8-.5-1.5 0-1.7.7"/><path id="Fill-3" class="st1" d="M97.3 15.6v.5c.1 0 .1-.1.1-.1 0-.2 0-.3-.1-.4"/><path id="Fill-5" class="st0" d="M97.3 16v-.4c-.1-.2-.2-.2-.4.1-.4.9-1 1.7-1.8 2.2-1.7.8-3.2.5-4.7-.5-1.4-1.1-2-3-2.1-4.7 0-.5.1-.9.1-1.4.3-1.7.9-3 2.4-3.8 1.2-.4 3.6-.2 3.6 1.5-.1.2-.2.5-.2.8 0 1.1.6 2 1.9 1.6.6-.4.8-1 .8-1.7-.9-2-3-3.2-5.1-3.3-2.4 0-4.2 1-5.6 3-.6 1-1 1.9-1.2 3.2-.1 2.4.5 4.2 2.2 5.9.9.9 1.9 1.3 3.2 1.5.3.1.5.1.9.1.7 0 1.3-.1 2-.2 1.9-.7 3.3-2 4-3.9"/><path id="Fill-7" class="st1" d="M97.3 18.9V18c0 .3-.1.6 0 .9"/><path id="Fill-9" class="st0" d="M51.4 18.3v1.8h.6c1.7-.1 3.1-.5 4.4-1.7.6-.7 1-1.4 1.4-2.2.2-.5-.2-.8-.5-.4-.5.8-.9 1.4-1.6 2-1.4.9-2.9 1-4.3.5"/><path id="Fill-11" class="st0" d="M51.4 11.9v1l6.4-.1c.4-.2-.3-2.1-.5-2.5-1.2-2.3-3.1-3.6-5.7-3.9h-.2v1c.2 0 .4.1.7.1 1.9.4 2.5 2.6 2.4 4.4 0 0-.1 0-.1.1h-3z"/><path id="Fill-13" class="st0" d="M61.2 19.8s-.8.2-.2-.4c.5-.2 1-.2 1.4-.6.3-.5.3-1.1.4-1.6V2.6c-.1-.9-.2-1.7-1-2-.4-.1-.8-.1-.9-.4 0-.1 0-.1.1-.2h7.1c.3.1.3.2.1.4-.5.1-.6.1-1.2.3-.6.3-.6 2-.6 2 0 2 0 12.5.1 14.5.2 1.5.4 1.7 1.8 2 .3.2.2.4-.1.5h-7z"/><path id="Fill-15" class="st0" d="M69.7 19.8c-.3 0-1-.1-.3-.5 1-.3 1.2-.3 1.5-1.3v-7.6c-.2-1.1-.7-1.4-1.8-1.6-.3-.2-.2-.4.2-.5 1.1 0 2-.1 3.1-.6.4-.3 1.1-.8 1.5-1.2.4-.3.3.1.3.4 0 .5-.1 1.3.1 1.8.8-1.1 1.6-1.8 2.8-2.1 1.3-.3 2.3-.2 3.6.4 1 .6 1.6 1.1 2 2.3.1.5.2 1.1.2 1.6V18c.3 1 .5 1.1 1.5 1.4.4.3.1.4-.2.4h-6c-.5-.1-.5-.3-.1-.5.8-.2 1.3-.3 1.5-1.2V10c-.1-1-.5-1.6-1.3-2-.5-.2-.8-.2-1.3-.1-1.3.4-2.4 1.6-2.6 2.9v5.7c.1.9 0 2.1.9 2.6.1 0 1.4.3.8.6-.1 0-.2 0-.3.1h-6.1z"/><defs><filter id="Adobe_OpacityMaskFilter" filterUnits="userSpaceOnUse" x="44.6" y="6.4" width="6.8" height="13.7"><feColorMatrix values="1 0 0 0 0 0 1 0 0 0 0 0 1 0 0 0 0 0 1 0"/></filter></defs><mask maskUnits="userSpaceOnUse" x="44.6" y="6.4" width="6.8" height="13.7" id="mask-2"><g class="st2"><path id="path-1" class="st3" d="M44.6 20.1h6.8V6.4h-6.8z"/></g></mask><path id="Fill-17" class="st4" d="M51.4 7.4v-1c-2.5.1-4.3 1.1-5.7 3.1-1.3 2.2-1.5 4.6-.3 6.9 1.2 2.1 2.9 3.3 5.3 3.7.3 0 .3 0 .5.1h.3v-1.8c-.6-.2-1.1-.5-1.6-.9-.8-.9-1.2-1.8-1.5-2.9-.1-.4-.3-1.3-.2-1.6 0-.1.1-.1.1-.1h3.1v-1h-3.1c-.3 0 .1-1.7.2-1.9.4-1.5 1.4-2.6 2.9-2.6"/><path id="Fill-20" class="st0" d="M17.1 8.1v11.7l4.2-.1c.5-.3-.6-.5-.7-.5-1-.5-.8-1.6-.9-2.6V7.5c0-.3.1-.6-.1-.9-.3 0-.6.3-.8.5-.5.5-1.1.8-1.7 1"/><path id="Fill-22" class="st0" d="M17.1.1v2.3c.8.6 1.5 1.4 1.9 2.7.1.3.1 1 .4 1.1.2-.1.2-.2.2-.4V.1h-2.5z"/><path id="Fill-24" class="st0" d="M22 19.8c-.8-.3.7-.6.9-.8.5-.4.5-1.1.6-1.7v-6.8c-.1-1.2-.8-1.5-1.8-1.7-.4-.2-.1-.4.2-.5 1.6 0 3-.6 4.2-1.7.2-.1.2-.2.5-.2.4.4 0 1.7.2 2.3.1-.1.3-.4.4-.5.3-.4.6-.6 1-1 .7-.5 1.3-.7 2.1-.8 1.3 0 2.7.3 3.7 1.5 0 .1.5 1 .6 1.1 0-.1 0-.1.1-.1.9-1.5 1.9-2.3 3.7-2.5 2 0 3.9.9 4.5 3V18c.2 1 .5 1.1 1.5 1.3.5.3.1.4-.3.5h-5.9c-.4-.1-.6-.2-.2-.5.9-.2 1.2-.2 1.4-1.2.1-.3.1-.7.2-1.1v-6.9c-.3-1.1-.5-1.6-1.5-2.1-1.8-.4-2.9.7-3.3 2.4l-.1 6.7c.1.6.1 1.5.6 1.9.2.1 1.7.5.9.8h-6.4c-.8-.3.8-.7.9-.8.6-.4.6-1.4.6-2l-.1-7.1C31 8 29.5 7.5 27.9 8.3c-.3.2-.6.5-.8.8-.3.6-.5 1-.5 1.7v6.4c.1.8.1 1.5.9 1.9.2.1 1.5.3.6.6H22z"/><path id="Fill-26" class="st0" d="M17.1 2.3V.1H0V6c.4.6.5-.3.6-.6.2-.8.6-2 1.3-2.4C3.2 1.5 5.8.7 7.8 1v.1l.1 14.2c-.1 1 .2 3.2-.9 3.8-.3.1-.5.2-.8.2-.2.1-.4.2-.2.4l7.7.1c.8-.3-.8-.7-.9-.8-.9-.5-.9-1.8-.9-2.7V1.1 1c.8-.1 1.5 0 2.3.1 1.1.2 2.1.6 2.9 1.2"/><path id="Fill-28" class="st0" d="M17.1 19.8V8.1c-.4.1-.9.2-1.3.2-.3 0-.6.1-1 .1-.2.1-.5.2-.1.4 1.2.1 1.6 1 1.7 2.1v7c-.2 1-.4 1.1-1.5 1.3-.4.2-.4.4.1.5l2.1.1z"/></svg>