<svg id="Слой_1" xmlns="http://www.w3.org/2000/svg" viewBox="0 0 100 46" enable-background="new 0 0 100 46"><style>.st0{fill:#2375DF;} .st1{filter:url(#Adobe_OpacityMaskFilter);} .st2{fill:#FFFFFF;} .st3{mask:url(#mask-2);fill:#2375DF;}</style><path id="Fill-5" class="st0" d="M70.9 18.7c-.6 1-.9 4.2-.7 6.3.1.7.2 1.3.4 1.6.3.5.7.8 1.2.8.3 0 .5 0 6.3-1.9l2.6-.8c.6-.2 1.1-.8 1.1-1.5 0-.8-.4-1.5-1-1.7l-1.8-.8c-6.3-2.6-6.5-2.7-6.9-2.7-.5 0-.9.2-1.2.7"/><path id="Fill-7" class="st0" d="M84.9 38c.1-.3.1-.5.1-6.6v-2.7c0-.7-.4-1.3-1.1-1.5-.7-.3-1.5-.1-1.9.4l-1.3 1.5c-4.4 5.2-4.6 5.4-4.7 5.7v.5c0 .3.1.5.4.8 1 1.2 5.9 3 7.5 2.7.5-.1.8-.4 1-.8"/><defs><filter id="Adobe_OpacityMaskFilter" filterUnits="userSpaceOnUse" x="88.2" y="25.1" width="11.6" height="10.8"><feColorMatrix values="1 0 0 0 0 0 1 0 0 0 0 0 1 0 0 0 0 0 1 0"/></filter></defs><mask maskUnits="userSpaceOnUse" x="88.2" y="25.1" width="11.6" height="10.8" id="mask-2"><g class="st1"><path id="path-1" class="st2" d="M99.7 36V25.1H88.2V36z"/></g></mask><path id="Fill-9" class="st3" d="M94.8 35.8c1.5-.6 4.7-4.7 4.9-6.2.1-.5-.1-1-.5-1.3-.2-.2-.4-.3-6.2-2.2 0 0-2.6-.8-2.6-.9-.6-.2-1.3 0-1.8.6s-.6 1.4-.2 2l1 1.7c3.5 5.6 3.7 6 4 6.2.4.3.9.3 1.4.1"/><path id="Fill-12" class="st0" d="M91.8 21.4c6.6-1.6 6.9-1.7 7.1-1.9.4-.3.6-.7.6-1.3v-.1c-.2-1.6-3-5.9-4.4-6.5-.5-.2-1-.2-1.4.1-.3.2-.4.4-4 5.3l-1.6 2.2c-.4.5-.4 1.2 0 1.9s1.2 1 1.8.8v.1c.3-.2.8-.4 1.9-.6"/><path id="Fill-14" class="st0" d="M85.2 15.9c-.2-2.6-1-14.3-1-14.9-.1-.5-.5-.8-1.1-1-1.7-.4-8.2 1.4-9.3 2.6-.4.4-.5.9-.4 1.3.2.4 8.2 13 8.2 13 1.2 1.9 2.1 1.6 2.5 1.5.2 0 1.2-.3 1.1-2.5"/><path id="Fill-16" class="st0" d="M3.1 43.6c.8.8 2.4 1 4.3.6 1.8-.4 2.9-1.2 4-4.6l5.3-16.8c.3-.9.3-1.7-.1-2.2-.3-.5-.7-.8-1.3-.9-1-.3-2.1-.2-2.9 2.3l-2.8 9.5-5.7-10.8c-.4-.7-1.4-1.2-2.5-.8-1.4.5-1.9 1.8-1.3 3.4l7 14.2s.2.5.2.6l.1.4c0 .5-.2 1-.5 1.3-.3.3-.8.5-1.3.4H4.4c-1 .1-1.7.8-1.9 1.8 0 .6.2 1.2.6 1.6"/><path id="Fill-18" class="st0" d="M30.5 27.7h-7.4c-.2-.1-.3-.4-.1-1.1.1-.4.2-.7.5-1.2.1-.1.2-.3.3-.4.5-.7 1.3-1.1 2.1-1.3 2.6-.6 4.4.7 4.7 3 .1.8 0 1-.1 1m4.6-1.3c-.2-2.4-1.2-4.3-2.7-5.5-1.6-1.2-4-1.6-6.7-1.1-3.4.6-5.5 3.1-6 7.1-.6 4.9.2 8.5 2.3 10.6 1.6 1.6 3.9 2.2 6.8 1.8 4.1-.6 5.9-2.8 5.9-4.2 0-1-.6-1.9-1.5-2-.5-.1-1 0-2 .9-1.4 1.2-3.1 1.7-4.5 1.4-1.1-.3-2-1-2.4-2.1 0 0-.2-.7-.2-.6-.1-.6-.2-1.2.2-1.5l.1-.1h8.9c.8 0 1.2-.1 1.5-.4.6-.6.5-2.2.3-4.3"/><path id="Fill-20" class="st0" d="M43.2 13.5c-.7-.3-1.5-.2-2.2.2-.7.4-1 1-1 2.1v21.3l.1.8c.2.5.5 1 1.1 1.2.6.3 1.3.3 1.9 0 .8-.3 1.2-1.1 1.2-2.1V15.7l-.1-1c0-.5-.4-1-1-1.2"/><path id="Fill-22" class="st0" d="M60.1 35.1c-2.9 0-3.4-2.6-3.5-4.6v-1.2-.9c.2-3.4.9-4.8 2.7-5.1 1.2-.3 2.1-.1 2.8.4 1 .8 1.5 2.6 1.5 5.6-.1 3.5-.7 5.8-3.5 5.8m.2-15.6c-2-.4-3.7-.1-5.3 1 0 0-.2.1-.3.2l-.1.1-.5.2-.1-.5-.1-.2v-.1s-.1-.1-.1-.2c-.5-.7-1.7-1.1-2.9-.4-.6.3-.9.8-.9 2.1v20.9c0 1.1.4 1.9 1.1 2.2.7.3 1.4.4 2 .1.5-.2.9-.7 1.1-1.2l.1-.9v-4.5l.2-.7.7.4s.2.1.2.2l.2.1.2.1.2.1c1.8.8 4.1.7 6-.2 2.4-1.2 3.5-3.4 3.8-7.1.7-7.3-1-10.8-5.5-11.7"/><path id="Fill-25" class="st0" d="M69.4 36.8h.2c.2 0 .4 0 .4-.2s-.2-.2-.3-.2h-.3v.4zm-.2-.7h.5c.3 0 .5.1.5.4 0 .3-.2.4-.4.4l.4.6H70l-.3-.5h-.3v.6h-.2v-1.5zm.5 1.8c.6 0 1-.5 1-1.1 0-.6-.5-1-1-1-.6 0-1 .5-1 1.1 0 .5.4 1 1 1zm0-2.3c.7 0 1.2.5 1.2 1.2s-.6 1.2-1.2 1.2c-.7 0-1.2-.5-1.2-1.2s.5-1.2 1.2-1.2z"/></svg>