<svg id="Слой_1" xmlns="http://www.w3.org/2000/svg" viewBox="0 0 100 18" enable-background="new 0 0 100 18"><style>.st0{filter:url(#Adobe_OpacityMaskFilter);} .st1{fill:#FFFFFF;} .st2{mask:url(#mask-2);fill:#2375DF;} .st3{fill:#2375DF;} .st4{filter:url(#Adobe_OpacityMaskFilter_1_);} .st5{mask:url(#mask-4);fill:#2375DF;}</style><g id="BuzzFeed" transform="translate(916 174)"><defs><filter id="Adobe_OpacityMaskFilter" filterUnits="userSpaceOnUse" x="-916" y="-173.9" width="13.1" height="17.3"><feColorMatrix values="1 0 0 0 0 0 1 0 0 0 0 0 1 0 0 0 0 0 1 0"/></filter></defs><mask maskUnits="userSpaceOnUse" x="-916" y="-173.9" width="13.1" height="17.3" id="mask-2"><g class="st0"><path id="path-1" class="st1" d="M-909.5-173.9h-6.5v17.3h13.1v-17.3z"/></g></mask><path id="Fill-1" class="st2" d="M-906.7-161.8c0-1.1-.8-2-2.2-2h-3.4v3.9h3.4c1.4.1 2.2-.7 2.2-1.9zm-.3-7.1c0-1.1-.8-1.8-2-1.8h-3.2v3.6h3.2c1.2.1 2-.6 2-1.8zm-9 12.3v-17.3h7.8c3.3 0 5 2.1 5 4.4 0 2.2-1.4 3.6-3 4 1.9.3 3.3 2.1 3.3 4.2 0 2.6-1.7 4.7-5.1 4.7h-8z"/><path id="Fill-4" class="st3" d="M-889.3-156.6v-2.5l5.7-7.2h-5.7v-2.8h10.2v2.3l-5.8 7.3h5.9v2.9z"/><path id="Fill-6" class="st3" d="M-878.1-156.6v-2.5l5.7-7.2h-5.7v-2.8h10.2v2.3l-5.8 7.3h5.9v2.9z"/><path id="Fill-8" class="st3" d="M-865.9-156.6v-17.3h12.1v3.2h-8.4v3.7h6.3v3.2h-6.3v7.2z"/><path id="Fill-10" class="st3" d="M-848.6-166.8c-2.1 0-2.9 1.4-3.1 2.7h6.2c-.1-1.2-.9-2.7-3.1-2.7m-6.5 3.9c0-3.6 2.7-6.6 6.5-6.6s6.3 2.8 6.3 6.9v.8h-9.4c.2 1.5 1.5 2.8 3.6 2.8 1.1 0 2.5-.4 3.3-1.2l1.5 2.2c-1.3 1.1-3.2 1.7-5.2 1.7-3.7 0-6.6-2.6-6.6-6.6"/><path id="Fill-12" class="st3" d="M-835.1-166.8c-2.1 0-2.9 1.4-3.1 2.7h6.2c-.1-1.2-.9-2.7-3.1-2.7m-6.5 3.9c0-3.6 2.7-6.6 6.5-6.6s6.3 2.8 6.3 6.9v.8h-9.4c.2 1.5 1.5 2.8 3.6 2.8 1.1 0 2.5-.4 3.3-1.2l1.5 2.2c-1.3 1.1-3.2 1.7-5.2 1.7-3.7 0-6.6-2.6-6.6-6.6"/><path id="Fill-14" class="st3" d="M-819.3-162.9c0-1.9-1.2-3.6-3.5-3.6h-2.1v7.2h2c2.3 0 3.6-1.7 3.6-3.6zm-8.7 6.3v-12.6h5.1c4 0 6.8 2.4 6.8 6.3s-2.9 6.3-6.8 6.3h-5.1z"/><defs><filter id="Adobe_OpacityMaskFilter_1_" filterUnits="userSpaceOnUse" x="-902.2" y="-169.1" width="12" height="12.9"><feColorMatrix values="1 0 0 0 0 0 1 0 0 0 0 0 1 0 0 0 0 0 1 0"/></filter></defs><mask maskUnits="userSpaceOnUse" x="-902.2" y="-169.1" width="12" height="12.9" id="mask-4"><g class="st4"><path id="path-3" class="st1" d="M-902.2-156.3h11.9v-12.8h-11.9z"/></g></mask><path id="Fill-16" class="st5" d="M-902.2-161.6v-7.5h3.3v7.4c0 1.5.9 2.6 2.7 2.6 1.7 0 2.7-1.1 2.7-2.6v-7.4h3.3v7.5c0 3.1-1.9 5.4-6 5.4-4.1-.1-6-2.3-6-5.4"/></g></svg>