<svg width="32" height="30" viewBox="0 0 32 30" xmlns="http://www.w3.org/2000/svg" xmlns:xlink="http://www.w3.org/1999/xlink" xmlns:figma="http://www.figma.com/figma/ns"><title>group41</title><desc>Created using Figma</desc><g style="mix-blend-mode:normal" figma:type="frame"><use xlink:href="#a" transform="translate(3.13 1.19)" fill="#7A7F85" style="mix-blend-mode:normal" figma:type="vector"/><use xlink:href="#b" transform="translate(10.06 5.15)" fill="#7A7F85" style="mix-blend-mode:normal" figma:type="vector"/><use xlink:href="#c" transform="translate(20.95 1.19)" fill="#7A7F85" style="mix-blend-mode:normal" figma:type="vector"/><use xlink:href="#d" transform="translate(21.68 9.11)" fill="#7A7F85" style="mix-blend-mode:normal" figma:type="vector"/><use xlink:href="#e" transform="translate(5.11 16.04)" fill="#7A7F85" style="mix-blend-mode:normal" figma:type="vector"/><use xlink:href="#f" transform="translate(1.15 9.11)" fill="#7A7F85" style="mix-blend-mode:normal" figma:type="vector"/></g><defs><path id="a" d="M6.76 6.76l-.353-.353.353.353zm0-5.6l-.354.354.354-.354zm-5.6 0L.807.807l.353.353zm0 5.6l-.353.354.353-.354zm2.8 1.66c1.226 0 2.287-.44 3.154-1.306l-.708-.707c-.68.68-1.485 1.014-2.446 1.014v1zm3.154-1.306C7.98 6.247 8.42 5.186 8.42 3.96h-1c0 .96-.334 1.767-1.013 2.447l.707.707zM8.42 3.96c0-1.225-.44-2.286-1.306-3.153l-.707.707C7.087 2.194 7.42 3 7.42 3.96h1zM7.114.807C6.247-.06 5.186-.5 3.96-.5v1c.96 0 1.767.334 2.446 1.014l.708-.707zM3.96-.5C2.734-.5 1.674-.06.807.807l.707.707C2.194.834 3 .5 3.96.5v-1zM.807.807C-.06 1.674-.5 2.734-.5 3.96h1c0-.96.334-1.766 1.014-2.446L.807.807zM-.5 3.96c0 1.226.44 2.287 1.307 3.154l.707-.707C.834 5.727.5 4.92.5 3.96h-1zM.807 7.114C1.674 7.98 2.734 8.42 3.96 8.42v-1c-.96 0-1.766-.333-2.446-1.013l-.707.707z"/><path id="b" d="M1.74 10.14l-.353.354.353-.353zm8.4 0l.354.354-.354-.353zm-8.753.354c1.254 1.254 2.78 1.887 4.553 1.887v-1c-1.507 0-2.78-.527-3.846-1.593l-.707.707zM5.94 12.38c1.773 0 3.3-.632 4.554-1.886l-.707-.707C8.72 10.853 7.447 11.38 5.94 11.38v1zm4.554-1.886c1.254-1.254 1.887-2.78 1.887-4.554h-1c0 1.507-.527 2.78-1.593 3.847l.707.707zM12.38 5.94c0-1.772-.632-3.3-1.886-4.553l-.707.707c1.066 1.067 1.594 2.34 1.594 3.846h1zm-1.886-4.553C9.24.133 7.714-.5 5.94-.5v1c1.508 0 2.78.527 3.847 1.594l.707-.707zM5.94-.5c-1.772 0-3.3.633-4.553 1.887l.707.707C3.16 1.027 4.434.5 5.94.5v-1zM1.387 1.387C.133 2.64-.5 4.167-.5 5.94h1c0-1.507.527-2.78 1.594-3.846l-.707-.707zM-.5 5.94c0 1.773.633 3.3 1.887 4.554l.707-.707C1.027 8.72.5 7.447.5 5.94h-1z"/><path id="c" d="M6.76 6.76l.354.354-.354-.354zm0-5.6l.354-.353-.354.353zm-5.6 0L.806.807l.354.353zm0 5.6l-.354.354.354-.354zm2.8 1.66c1.226 0 2.286-.44 3.154-1.306l-.707-.707c-.68.68-1.487 1.014-2.447 1.014v1zm3.154-1.306C7.98 6.247 8.42 5.186 8.42 3.96h-1c0 .96-.334 1.767-1.014 2.447l.708.707zM8.42 3.96c0-1.225-.44-2.286-1.306-3.153l-.708.707C7.086 2.194 7.42 3 7.42 3.96h1zM7.114.807C6.246-.06 5.186-.5 3.96-.5v1c.96 0 1.767.334 2.447 1.014l.707-.707zM3.96-.5C2.734-.5 1.674-.06.806.807l.707.707C2.193.834 3 .5 3.96.5v-1zM.806.807C-.06 1.674-.5 2.734-.5 3.96h1c0-.96.334-1.766 1.014-2.446L.806.807zM-.5 3.96c0 1.226.44 2.287 1.306 3.154l.708-.707C.834 5.727.5 4.92.5 3.96h-1zM.806 7.114C1.674 7.98 2.734 8.42 3.96 8.42v-1c-.96 0-1.767-.333-2.447-1.013l-.707.707z"/><path id="d" d="M7.255 0v.5V0zm-.672.325L6.338-.11l.245.435zm-1.51.657l.17.47-.17-.47zM1.177.96L1.34.486.573.22l.11.806.494-.067zM0 5.94l-.41-.284-.525.756.92.028.015-.5zm4.1 1.98l-.384.322.15.18H4.1v-.5zm5.074-2.46h-.5.5zM7.254-.5c-.116 0-.22.04-.253.053-.047.018-.113.047-.177.078-.12.06-.287.148-.485.26l.49.87c.187-.105.327-.18.43-.23.05-.022.074-.034.098-.042.007-.003-.006 0-.004 0-.003 0-.04.012-.097.012v-1zm-.916.39c-.364.204-.83.406-1.432.622l.337.94c.634-.227 1.175-.463 1.584-.69l-.49-.873zM4.906.51c-.58.21-1.11.305-1.672.303v1c.653-.002 1.35-.128 2.01-.362l-.338-.94zM3.234.815C2.584.817 1.982.712 1.34.487l-.329.944c.722.25 1.49.383 2.224.385v-1zm-2.553.21c.05.368.074.675.073.955h1c0-.318-.028-.692-.08-1.088l-.992.134zm.073.955C.76 3.337.387 4.513-.41 5.656l.82.57C1.286 4.953 1.748 3.49 1.754 1.98h-1zm-.768 4.46c1.53.047 2.76.643 3.73 1.802l.768-.642C3.328 6.22 1.827 5.496.015 5.44l-.03 1zM4.1 8.42h2.073v-1H4.1v1zm2.073 0C7.09 8.416 7.95 8.16 8.6 7.7l-.586-.81c-.504.372-1.067.536-1.84.53v1zM8.6 7.7c.726-.526 1.074-1.298 1.074-2.24h-1c0 .668-.23 1.118-.66 1.43l.586.81zm1.074-2.24c0-1.835-.16-3.27-.508-4.26C8.99.7 8.756.28 8.44-.023 8.11-.334 7.707-.5 7.254-.5v1c.187 0 .345.06.496.204.162.154.328.415.472.827.29.83.452 2.126.452 3.93h1z"/><path id="e" d="M21.51 5.577l.493-.088v-.002l-.492.09zm-.41-1.68l-.475.154.476-.152zm-.664-1.507l.435-.247-.434.247zM18.154.31l.184-.466-.184.465zm-2.39.023l.272.42-.272-.42zM8.802 1.817l.153-.476-.153.477zM6.018.333l-.273.42.273-.42zM3.628.31l-.184-.466.184.465zm-1.323.827l.346.36-.345-.36zm-.96 1.253l-.434-.247.436.247zM.682 3.898l.477.153L.68 3.9zM.055 7.263l.5.035-.5-.035zm1.075 4.533l-.346.362.345-.362zm19.522 0l.345.362-.345-.362zm1.076-4.533l.498-.034v-.002l-.498.035zm.275-1.774c-.11-.62-.256-1.212-.426-1.744l-.952.305c.16.5.29 1.027.394 1.615l.983-.176zm-.426-1.744c-.174-.54-.416-1.09-.706-1.603l-.87.494c.267.468.468.923.625 1.414l.952-.304zm-.707-1.603c-.296-.52-.66-.994-1.048-1.367l-.69.722c.333.318.608.68.87 1.14l.87-.495zM19.822.776c-.4-.38-.922-.707-1.484-.932l-.37.93c.48.188.84.412 1.163.724l.692-.722zm-1.484-.932c-.568-.222-1.236-.342-1.91-.344v1c.586-.002 1.068.084 1.542.274l.368-.93zM16.428-.5c-.18 0-.358.082-.466.136-.127.064-.292.16-.47.278l.545.838c.16-.106.277-.174.372-.222.042-.02.06-.03.08-.036.02-.006-.007.006-.06.006v-1zm-.937.414c-.34.222-.718.47-1.13.744l.55.834c.413-.273.787-.52 1.126-.74l-.545-.838zm-1.13.744c-.38.252-.868.47-1.534.683l.306.954c.718-.23 1.33-.508 1.778-.802l-.55-.834zm-1.534.683c-.654.213-1.274.312-1.935.31v1c.74 0 1.514-.124 2.242-.356l-.306-.953zm-1.935.31c-.66.002-1.28-.097-1.935-.31l-.305.954c.727.232 1.5.355 2.24.356v-1zm-1.935-.31C8.29 1.13 7.8.91 7.423.66l-.552.834c.448.294 1.062.57 1.78.802l.305-.953zM7.423.66C7.01.385 6.633.136 6.29-.086l-.545.838c.34.22.714.467 1.126.74l.553-.834zM6.29-.086c-.18-.117-.344-.214-.47-.278C5.71-.418 5.535-.5 5.353-.5v1C5.3.5 5.273.488 5.29.494c.023.007.04.015.083.036.095.048.21.116.372.222l.546-.838zM5.354-.5c-.674.002-1.34.122-1.91.344l.37.93c.472-.19.955-.276 1.54-.274v-1zm-1.91.344C2.882.07 2.36.397 1.96.776l.69.722c.323-.312.682-.536 1.162-.724l-.368-.93zM1.96.776c-.39.373-.753.848-1.05 1.367l.87.494c.26-.46.536-.82.87-1.14l-.69-.72zM.91 2.143C.62 2.655.38 3.205.205 3.746l.953.305c.156-.49.357-.945.624-1.413l-.87-.494zM.205 3.746C.034 4.278-.11 4.87-.22 5.488l.983.177c.105-.588.234-1.116.394-1.614l-.953-.304zM-.22 5.488c-.112.616-.187 1.205-.225 1.74l.998.07c.035-.507.104-1.042.21-1.633l-.984-.177zm-.225 1.74C-.48 7.758-.5 8.308-.5 8.864h1c0-.538.017-1.054.053-1.566l-.998-.07zM-.5 8.864c0 1.346.414 2.465 1.284 3.294l.69-.725C.84 10.83.5 9.993.5 8.863h-1zm1.284 3.294c.865.822 1.998 1.213 3.346 1.213v-1c-1.146 0-2.014-.326-2.656-.937l-.69.725zM4.13 13.37h13.52v-1H4.13v1zm13.52 0c1.35 0 2.483-.39 3.347-1.212l-.69-.725c-.642.61-1.51.938-2.656.938v1zm3.347-1.212c.87-.83 1.284-1.948 1.284-3.294h-1c0 1.13-.338 1.965-.973 2.57l.69.724zm1.284-3.294c0-.555-.018-1.105-.054-1.635l-.997.067c.034.513.05 1.03.05 1.567h1zm-.054-1.636c-.037-.535-.113-1.124-.223-1.74l-.984.177c.105.59.174 1.126.21 1.633l.996-.07z"/><path id="f" d="M9.173 5.94l.016.5.918-.028-.524-.756-.41.284zM7.92 1.98h.5-.5zM8 .96l.495.066.11-.807-.77.267.165.472zM4.1.98l-.17.47.17-.47zM2.59.325l.246-.436-.245.435zM.867 7.295l-.293.404.293-.406zm4.208.625v.5h.233l.15-.18-.383-.32zm4.51-2.264c-.797-1.143-1.17-2.32-1.163-3.676h-1c.006 1.51.47 2.974 1.342 4.245l.822-.57zM8.42 1.98c0-.28.024-.587.073-.954l-.99-.134c-.054.396-.082.77-.082 1.088h1zM7.834.487c-.64.225-1.244.33-1.893.328v1c.734-.002 1.502-.135 2.222-.384l-.33-.943zM5.94.815C5.376.817 4.848.72 4.268.512l-.337.94c.66.235 1.357.36 2.01.363v-1zM4.268.512C3.665.296 3.2.094 2.836-.11l-.49.87c.41.23.95.465 1.585.693l.338-.94zM2.836-.11c-.198-.112-.365-.2-.486-.26-.063-.03-.13-.06-.178-.077C2.14-.46 2.035-.5 1.918-.5v1c-.055 0-.093-.01-.096-.01L1.818.487c.023.01.05.02.098.044.103.05.242.123.43.23l.49-.873zM1.918-.5C.962-.5.356.21.008 1.2-.34 2.19-.5 3.624-.5 5.46h1c0-1.804.16-3.1.45-3.93C1.244.7 1.597.5 1.92.5v-1zM-.5 5.46c0 .942.348 1.714 1.073 2.24l.586-.81C.73 6.577.5 6.127.5 5.46h-1zM.573 7.7c.65.46 1.51.715 2.428.72v-1c-.773.005-1.336-.158-1.84-.53l-.587.81zM3 8.42h2.074v-1H3v1zm2.457-.18c.97-1.157 2.202-1.753 3.732-1.8l-.032-1c-1.812.056-3.312.78-4.467 2.16l.767.64z"/></defs></svg>