<svg width="20" height="32" viewBox="0 0 20 32" xmlns="http://www.w3.org/2000/svg" xmlns:xlink="http://www.w3.org/1999/xlink" xmlns:figma="http://www.figma.com/figma/ns"><title>mobile29</title><desc>Created using Figma</desc><use xlink:href="#a" transform="translate(1 1)" fill="#7A7F85" style="mix-blend-mode:normal" figma:type="vector-operation"/><defs><path id="a" d="M16.833.876l-.354.354.353-.354zm0 27.763l.354.352-.354-.353zM.876.875l.354.354L.876.876zm9.28 26.99l.354.354-.353-.354zm5.12-4.473l-.352-.355.352.355zM2.433 6.123l-.353-.355h-.002l.355.354zm0 17.27l-.354.353.353-.353zM17.187.523C16.512-.152 15.694-.5 14.757-.5v1c.662 0 1.23.236 1.722.73l.707-.707zM18.21 2.95c0-.935-.35-1.753-1.023-2.427l-.708.707c.493.494.73 1.06.73 1.72h1zm0 23.613V2.95h-1v23.613h1zm-1.023 2.43c.674-.675 1.022-1.493 1.022-2.43h-1c0 .662-.237 1.228-.73 1.722l.707.707zm-2.43 1.022c.937 0 1.755-.35 2.43-1.023l-.707-.707c-.494.494-1.06.73-1.722.73v1zm-11.806 0H14.76v-1H2.95v1zM.523 28.992c.675.675 1.493 1.023 2.43 1.023v-1c-.662 0-1.23-.236-1.722-.73l-.708.707zM-.5 26.562c0 .938.348 1.756 1.022 2.43l.708-.707C.736 27.79.5 27.225.5 26.563h-1zm0-23.61v23.61h1V2.953h-1zM.522.52C-.152 1.198-.5 2.016-.5 2.953h1c0-.662.236-1.23.73-1.722L.522.523zM2.952-.5C2.014-.5 1.196-.152.52.523l.708.707C1.723.736 2.29.5 2.95.5v-1zm11.806 0H2.95v1H14.76v-1zM7.01 3.45h3.69v-1H7.01v1zm.13-.13c0-.045.012.012-.054.077-.065.066-.122.054-.076.054v-1c-.2 0-.442.052-.63.24-.19.188-.24.43-.24.63h1zm-.13-.13c-.046 0 .01-.012.076.054.066.065.055.122.055.076h-1c0 .2.05.442.24.63.188.19.43.24.63.24v-1zm3.69 0H7.01v1h3.69v-1zm-.132.13c0 .046-.01-.01.055-.076s.122-.055.076-.055v1c.2 0 .44-.05.63-.24.188-.188.238-.43.238-.63h-1zm.13.13c.047 0-.01.013-.075-.053-.066-.065-.055-.122-.055-.077h1c0-.2-.05-.442-.24-.63-.187-.188-.43-.24-.63-.24v1zM8.855 28.91c.642 0 1.203-.235 1.657-.688l-.706-.708c-.27.27-.576.396-.95.396v1zm-1.656-.688c.455.454 1.016.688 1.656.688v-1c-.373 0-.68-.127-.95-.395l-.706.707zm-.688-1.657c0 .64.234 1.202.688 1.657l.707-.707c-.268-.27-.395-.576-.395-.95h-1zm.688-1.656c-.454.454-.688 1.015-.688 1.656h1c0-.373.127-.68.395-.95l-.707-.706zm1.656-.69c-.64 0-1.202.236-1.656.69l.707.707c.27-.268.577-.396.95-.396v-1zm1.657.69c-.453-.454-1.014-.69-1.656-.69v1c.374 0 .68.13.95.397l.707-.707zm.69 1.656c0-.64-.235-1.202-.69-1.656l-.706.707c.268.268.395.576.395.95h1zm-.69 1.657c.455-.454.69-1.015.69-1.657h-1c0 .374-.128.68-.396.95l.707.707zm4.485-5.346c0 .064-.017.11-.07.164l.704.71c.238-.238.365-.538.365-.874h-1zm0-16.233v16.234h1V6.64h-1zm-.072-.164c.055.055.072.1.072.165h1c0-.335-.127-.634-.366-.872l-.707.708zm-.165-.073c.062 0 .108.017.165.073l.706-.708c-.237-.235-.534-.365-.872-.365v1zm-11.807 0H14.76v-1H2.95v1zm-.165.074c.057-.057.105-.074.166-.074v-1c-.336 0-.634.13-.87.365l.705.71zm-.07.164c0-.06.016-.11.072-.165l-.71-.706c-.234.235-.363.533-.363.87h1zm0 16.234V6.64h-1v16.234h1zm.07.166c-.054-.056-.07-.104-.07-.166h-1c0 .338.128.636.364.872l.706-.706zm.166.072c-.06 0-.108-.017-.165-.074l-.705.71c.236.234.534.364.87.364v-1zm11.808 0H2.95v1H14.76v-1zm.165-.073c-.056.055-.103.072-.165.072v1c.337 0 .635-.13.872-.365l-.707-.708z"/></defs></svg>