<svg width="82" height="82" viewBox="0 0 82 82" xmlns="http://www.w3.org/2000/svg" xmlns:xlink="http://www.w3.org/1999/xlink" xmlns:figma="http://www.figma.com/figma/ns"><title>paste2</title><desc>Created using Figma</desc><use xlink:href="#a" transform="translate(1 1)" fill="#212934" style="mix-blend-mode:normal" figma:type="vector-operation"/><defs><path id="a" d="M79.107 41.786l.923-.385-.923.386zm-2.143-3.393l.708-.707-.708.707zM78.75 78.75l-.707-.708.707.707zm-48.93 0l.71-.708h-.002l-.707.707zm-1.25-10.18h1v-1h-1v1zM55.894 1.25l-.708.707.708-.707zm1.25 17.68h-1v.555l.473.294.527-.85zm1.607 1.25l-.708.705.708-.706zm-1.607 6.47l.707-.706-1.707-1.707v2.414h1zM70.49 40v1h2.415l-1.707-1.708-.707.707zm-13.347 0h-1v1h1v-1zm17.142 34.286v1h1v-1h-1zm-40 0h-1v1h1v-1zm40-28.573h1v-1h-1v1zm-21.607-1.25l.708-.706-.708.706zm-1.25-21.607h1v-1h-1v1zm-17.143 0v-1h-1v1h1zM80.03 41.4c-.63-1.504-1.45-2.798-2.358-3.714L76.257 39.1c.76.75 1.367 1.718 1.927 3.07l1.846-.77zm.97 4.313c-.006-1.3-.345-2.803-.97-4.312l-1.846.77c.566 1.348.822 2.465.816 3.543h2zm0 30v-30h-2v30h2zm-1.543 3.743C80.48 78.433 81 77.166 81 75.713h-2c0 .93-.313 1.686-.957 2.33l1.414 1.413zM75.715 81c1.452 0 2.72-.52 3.742-1.544l-1.414-1.414c-.643.644-1.4.957-2.328.957v2zm-42.858 0h42.858v-2H32.857v2zm-3.743-1.544C30.137 80.48 31.404 81 32.857 81v-2c-.928 0-1.685-.314-2.328-.958l-1.416 1.414zm-1.543-3.743c0 1.453.52 2.72 1.544 3.743l1.414-1.414c-.643-.644-.957-1.4-.957-2.33h-2zm0-7.143v7.143h2V68.57h-2zm-23.284 1H28.57v-2H4.287v2zM.543 68.028c1.023 1.023 2.29 1.542 3.743 1.542v-2c-.93 0-1.685-.313-2.33-.956L.544 68.028zM-1 64.286c0 1.452.52 2.72 1.543 3.742l1.414-1.415C1.313 65.97 1 65.213 1 64.287h-2zm0-60v60h2v-60h-2zM.543.543C-.48 1.566-1 2.833-1 4.286h2c0-.93.313-1.685.957-2.33L.543.544zM4.286-1C2.833-1 1.566-.48.543.543l1.414 1.414C2.6 1.313 3.357 1 4.287 1v-2zm48.57 0H4.287v2h48.57v-2zM56.6.543C55.577-.48 54.31-1 52.857-1v2c.93 0 1.685.313 2.328.957L56.6.543zm1.543 3.743c0-1.453-.52-2.72-1.544-3.743l-1.414 1.414c.643.643.957 1.4.957 2.33h2zm0 14.643V4.285h-2V18.93h2zm1.315.542c-.492-.49-1.12-.977-1.79-1.393l-1.052 1.7c.58.357 1.027.702 1.426 1.105l1.416-1.413zM77.67 37.686L59.458 19.472l-1.414 1.414L76.257 39.1l1.414-1.414zM56.436 27.358l13.35 13.35 1.413-1.416L57.85 25.944l-1.415 1.415zm1.708 12.64V26.652h-2V40h2zm12.348-.998H57.144v2H70.49v-2zM11.146 11.71c.463.464 1.05.718 1.712.718v-2c-.11 0-.195-.03-.297-.13l-1.415 1.413zM10.43 10c0 .66.252 1.248.715 1.71l1.415-1.413c-.102-.102-.13-.185-.13-.297h-2zm0-2.857V10h2V7.143h-2zm.715-1.712c-.463.465-.716 1.05-.716 1.713h2c0-.113.028-.196.13-.298L11.145 5.43zm1.712-.716c-.662 0-1.25.254-1.712.717l1.415 1.415c.102-.102.186-.13.297-.13v-2zm31.43 0h-31.43v2h31.43v-2zm1.71.717c-.463-.462-1.05-.716-1.71-.716v2c.11 0 .193.03.296.13l1.414-1.413zm.717 1.713c0-.662-.254-1.25-.717-1.712l-1.414 1.415c.102.103.13.186.13.298h2zm0 2.857V7.143h-2V10h2zm-.716 1.71c.46-.462.716-1.047.716-1.71h-2c0 .11-.028.194-.132.297l1.416 1.413zm-1.713.718c.662 0 1.25-.254 1.713-.718l-1.416-1.413c-.1.102-.184.13-.297.13v2zm-31.428 0h31.428v-2H12.857v2zm61.428 60.858h-40v2h40v-2zm-1-27.573v28.573h2V45.713h-2zm-17.572 1h18.572v-2H55.713v2zM51.97 45.17c1.024 1.024 2.29 1.543 3.743 1.543v-2c-.928 0-1.684-.313-2.328-.956l-1.414 1.413zm-1.54-3.74c0 1.45.518 2.718 1.54 3.74l1.415-1.414c-.643-.642-.956-1.4-.956-2.327h-2zm0-18.574V41.43h2V22.855h-2zm-16.145 1H51.43v-2H34.284v2zm1 50.43v-51.43h-2v51.43h2z"/></defs></svg>