<svg width="80" height="73" viewBox="0 0 80 73" xmlns="http://www.w3.org/2000/svg" xmlns:xlink="http://www.w3.org/1999/xlink"><title>vox</title><defs><path id="a" d="M22.347 21.893V.193H.05v21.7h22.297z"/><path id="c" d="M0 72.6h79.192V0H0z"/></defs><g fill="none" fill-rule="evenodd"><path d="M6.592 38.347l4.77 13.94 3.098-9.243c.547-1.606 1.033-3.18 1.458-4.515h6.41l-6.38 15.607c-1.032 2.545-1.64 4.03-2.217 5.788l-4.8.273-6.348-15.396C1.822 42.892.852 40.468 0 38.62l6.592-.273zM44.563 49.287c0-4.06-2.066-6.545-4.952-6.545-3.067 0-5.072 2.88-5.072 6.364 0 4.06 2.096 6.546 4.982 6.546 3.068 0 5.043-2.88 5.043-6.365m-15.92.456c0-6.76 4.498-11.73 11.21-11.73 6.41 0 10.633 4.7 10.633 10.638 0 6.76-4.526 11.73-11.21 11.73-6.41 0-10.632-4.728-10.632-10.637" fill="#2375DF"/><g transform="translate(56.845 38.184)"><mask id="b" fill="#fff"><use xlink:href="#a"/></mask><path d="M.05 21.65l7.382-10.91-2.886-4.213L.384.437 7.098.193l4.374 6.818 1.488-2.545c.76-1.243 1.824-2.94 2.583-4.122h6.622l-7.048 10.547 2.612 3.82c1.215 1.817 3.28 4.97 4.617 6.938l-6.774.243-4.496-7.243-1.397 2.273c-.67 1.12-2.127 3.455-2.947 4.727H.05z" fill="#2375DF" mask="url(#b)"/></g><path fill="#2375DF" d="M55.662 0v18.302l-16.278-9.15M23.105 0v18.302l16.278-9.15"/><path fill="#2375DF" d="M39.384 9.15v18.3l16.278-9.15M39.383 9.15v18.3L23.105 18.3M29.29 72.327l-.096-4.702-2.203 3.86h-.072l-2.204-3.868-.096 4.71h-.458l.2-5.953.105-.016 2.51 4.452 2.47-4.452.103.016.2 5.953"/><path fill="#2375DF" d="M29.974 72.544h-.896l-.085-4.13-1.876 3.287h-.325l-1.877-3.292-.084 4.136h-.895l.215-6.357.43-.066 2.393 4.246 2.354-4.245.432.067M32.668 72.327v-5.88h3.33v.4h-2.88v2.295h2.598v.4h-2.598v2.376h2.88v.41h-3.33"/><path fill="#2375DF" d="M36.215 72.544H32.45V66.23h3.765v.834h-2.88v1.86h2.597v.835h-2.597V71.7h2.88"/><path d="M40.243 66.783c-.378 0-.756.024-.99.064v5.08c.25.038.596.063 1.03.063 1.874 0 2.823-1.163 2.823-2.656 0-1.404-1.005-2.55-2.863-2.55m.024 5.6c-.563 0-1.102-.05-1.464-.098v-5.8c.362-.048.877-.097 1.432-.097 2.196 0 3.354 1.436 3.354 2.944 0 1.62-1.135 3.05-3.323 3.05" fill="#F3A01F"/><path d="M39.47 71.736c.226.024.503.037.813.037 1.608 0 2.606-.934 2.606-2.44 0-.648-.238-1.233-.67-1.645-.47-.45-1.154-.69-1.977-.69-.28 0-.558.015-.772.038v4.7zm.797.864c-.686 0-1.273-.07-1.493-.1l-.188-.025v-6.18l.19-.024c.335-.044.862-.097 1.46-.097 2.343 0 3.57 1.59 3.57 3.16 0 1.626-1.094 3.267-3.54 3.267z" fill="#2375DF"/><mask id="d" fill="#fff"><use xlink:href="#c"/></mask><path fill="#2375DF" mask="url(#d)" d="M46.395 72.327h.45v-5.88h-.45"/><path fill="#2375DF" mask="url(#d)" d="M46.178 72.544h.885V66.23h-.885"/><path d="M51.976 67.264l-1.214 2.88h2.43l-1.216-2.88zm2.148 5.063l-.765-1.797h-2.767l-.756 1.797h-.475l2.582-5.978h.08l2.582 5.977h-.482z" fill="#F3A01F" mask="url(#d)"/><path d="M51.088 69.928h1.776l-.888-2.105-.888 2.105zm3.847 2.616h-.955l-.764-1.798h-2.48l-.755 1.798h-.948l2.77-6.41h.365l2.768 6.41z" fill="#2375DF" mask="url(#d)"/><path mask="url(#d)" d="M39.384 9.15v18.3l16.278-9.15M39.383 9.15v18.3L23.105 18.3"/><path fill="#2375DF" mask="url(#d)" d="M55.568 0v18.288L39.3 9.144M23.033 0v18.288L39.3 9.144"/><path fill="#2375DF" mask="url(#d)" d="M39.3 9.143V27.43l16.268-9.143M39.3 9.143V27.43l-16.266-9.143"/></g></svg>