<svg width="82" height="80" viewBox="0 0 82 80" xmlns="http://www.w3.org/2000/svg" xmlns:xlink="http://www.w3.org/1999/xlink" xmlns:figma="http://www.figma.com/figma/ns"><title>umbrella16</title><desc>Created using Figma</desc><g style="mix-blend-mode:normal" figma:type="frame"><use xlink:href="#a" transform="translate(19.53 37.57)" fill="#212934" style="mix-blend-mode:normal" figma:type="vector"/><use xlink:href="#b" transform="translate(37.93 1.48)" fill="#212934" style="mix-blend-mode:normal" figma:type="vector"/><use xlink:href="#c" transform="translate(1.12 10.69)" fill="#212934" style="mix-blend-mode:normal" figma:type="vector"/></g><defs><path id="a" d="M18.404.527l-.317-.95-.683.23v.72h1zm-1.87 32.062l-.706-.708.707.707zm-11.31-6.423l.708-.707-.707.707zM20.897 36.95l.707.707-.707-.707zM24.538.527h1v-.72l-.684-.23-.316.95zM21.47 0v-1 1zm-4.066.527v27.796h2V.527h-2zm0 27.796c0 1.304-.497 2.48-1.576 3.56l1.414 1.413c1.412-1.412 2.162-3.08 2.162-4.973h-2zm-1.577 3.56c-1.08 1.08-2.254 1.575-3.558 1.575v2c1.89 0 3.56-.75 4.972-2.162l-1.415-1.414zm-3.558 1.575c-1.304 0-2.48-.496-3.56-1.576l-1.413 1.414c1.413 1.413 3.082 2.162 4.972 2.162v-2zm-3.56-1.576c-1.078-1.08-1.575-2.255-1.575-3.56l-2 .002c0 1.89.75 3.56 2.162 4.972l1.414-1.414zm-1.575-3.56c0-1.104-.416-2.075-1.203-2.862l-1.414 1.414c.426.427.617.894.617 1.45h2zM5.93 25.462c-.786-.788-1.756-1.204-2.862-1.204v2c.556 0 1.022.192 1.45.62l1.413-1.416zM3.07 24.256c-1.106 0-2.077.416-2.865 1.204l1.415 1.414c.426-.426.893-.617 1.45-.617v-2zM.203 25.46C-.584 26.247-1 27.218-1 28.323h2c0-.555.19-1.022.618-1.45L.203 25.46zM-1 28.323c0 3.6 1.327 6.725 3.935 9.334l1.415-1.414C2.102 33.995 1 31.37 1 28.323h-2zm3.935 9.334c2.61 2.61 5.737 3.935 9.334 3.935v-2c-3.05 0-5.673-1.1-7.92-3.35l-1.415 1.415zm9.334 3.935c3.597 0 6.724-1.325 9.333-3.935l-1.414-1.414c-2.25 2.248-4.873 3.35-7.92 3.35v2zm9.333-3.935c2.608-2.61 3.935-5.735 3.935-9.333h-2c0 3.047-1.102 5.67-3.35 7.92l1.415 1.413zm3.935-9.333V.526h-2v27.796h2zM24.854-.422C23.727-.794 22.546-.996 21.47-1v2c.906-.004 1.77.146 2.752.476l.632-1.898zM21.47-1c-1.074.004-2.256.206-3.383.578l.633 1.898c.98-.33 1.846-.48 2.75-.476v-2z"/><path id="b" d="M6.135 7.764l-.048 1 1.048.05v-1.05h-1zM5.225.91l-.71.707.71-.706zM.91.91L.204.204.91.912zM0 7.765h-1v1.05l1.047-.05-.047-1zm7.135 0V3.068h-2v4.696h2zm0-4.696C7.135 1.962 6.718.99 5.93.203L4.517 1.618c.427.426.62.894.62 1.45h2zM5.93.204C5.145-.584 4.173-1 3.068-1v2c.556 0 1.023.19 1.45.617L5.93.204zM3.068-1C1.96-1 .99-.584.203.203l1.415 1.415C2.044 1.19 2.51 1 3.068 1v-2zM.203.204C-.584.992-1 1.962-1 3.068h2c0-.556.19-1.023.618-1.45L.203.203zM-1 3.068v4.696h2V3.068h-2zM.047 8.763c1.334-.063 2.333-.095 3.02-.095v-2c-.72 0-1.765.033-3.114.097l.094 1.998zm3.02-.095c.687 0 1.686.032 3.02.095l.095-1.998c-1.35-.064-2.396-.097-3.115-.097v2z"/><path id="c" d="M79.7 28.372l-.972.232.03.127.062.115.88-.473zM74.166 16.32l.81-.59-.81.59zm-9.323-8.964l-.548.836.548-.836zM53.03 1.916l-.286.96.285-.96zM.047 28.373l.89.454.054-.103.027-.112-.972-.238zm.407 1.413l.707-.707-.707.707zm2.18-.024l.642.77.022-.02.02-.02-.684-.73zm20.417 2.013l.82-.572-.007-.01-.813.583zm.84 1.342l.863-.504-.864.505zm.695 1.15l.84-.542-.008-.01-.834.553zm2.73.002l-.83-.555-.008.01.838.544zm.696-1.152l-.863-.505v.002l.863.503zm.84-1.342l-.814-.582-.008.012.82.57zm17.133-4.647l.528-.85-.528.85zm4.912 4.647l.82-.573-.008-.01-.812.583zm.84 1.342l.863-.504-.863.505zm.695 1.15l.84-.54-.005-.008-.004-.006-.83.556zm2.73.002l-.83-.556-.005.007-.004.006.84.544zm.696-1.152l-.864-.505v.002l.863.503zm.84-1.342l-.814-.582-.006.01.82.573zm4.935-4.647l-.525-.85.525.85zm11.024-.67l.462-.887v-.002l-.463.887zm4.455 3.305l-.684.73.022.02.022.018.64-.767zm2.18.025l-.706-.707h-.002l.708.707zm.456-1.078h1V28.7l-1 .007zm.923-.568c-1.082-4.504-3.01-8.7-5.7-12.41l-1.617 1.177c2.58 3.543 4.345 7.383 5.372 11.697l1.945-.465zm-5.7-12.41c-2.69-3.695-5.928-6.807-9.582-9.21l-1.096 1.673c3.504 2.293 6.48 5.156 9.063 8.714l1.617-1.176zm-9.582-9.21C61.75 4.134 57.68 2.26 53.316.96l-.57 1.916c4.23 1.255 8.035 3.007 11.55 5.316L65.39 6.52zM53.316.96C48.948-.34 44.419-.998 39.875-1v2c4.4-.003 8.642.615 12.87 1.876l.57-1.917zM39.875-1C33.71-.996 27.764.126 22.226 2.33l.74 1.858C28.325 2.048 33.898.996 39.874 1v-2zM22.226 2.33c-5.55 2.22-10.49 5.61-14.643 10.047l1.462 1.365c3.995-4.286 8.574-7.43 13.922-9.554l-.74-1.858zM7.584 12.377c-4.154 4.46-7.03 9.79-8.507 15.756l1.942.478c1.4-5.725 4.034-10.606 8.026-14.868l-1.46-1.365zm-8.427 15.54c-.15.297-.157.625-.157.79h2c0-.05.003-.068.002-.062 0 .004-.003.022-.01.05-.008.025-.023.072-.053.13l-1.783-.907zm-.157.79c0 .69.264 1.302.75 1.786l1.412-1.415c-.122-.122-.162-.23-.162-.37h-2zm.748 1.785c.484.484 1.095.75 1.786.75v-2c-.14 0-.25-.04-.372-.164l-1.414 1.414zm1.786.75c.666 0 1.253-.305 1.743-.713l-1.282-1.537c-.277.232-.425.248-.46.248v2zm1.786-.752c1.522-1.43 2.898-2.453 4.236-3.15L6.63 25.57c-1.474.774-3.07 1.956-4.68 3.464l1.37 1.458zm4.236-3.15c1.287-.68 2.683-.994 4.425-.988v-2c-1.963.006-3.826.43-5.35 1.216l.926 1.773zm4.425-.988c2.034-.01 3.814.506 5.61 1.625l1.05-1.702c-2.036-1.245-4.346-1.913-6.66-1.923v2zm5.61 1.625c1.835 1.124 3.336 2.54 4.65 4.38l1.625-1.166c-1.433-1.99-3.224-3.676-5.224-4.915l-1.05 1.702zm4.643 4.37c.21.3.467.71.795 1.273l1.727-1.01c-.343-.586-.645-1.067-.883-1.41l-1.64 1.146zm.794 1.272c.34.582.587.99.727 1.2l1.665-1.108c-.117-.173-.333-.53-.665-1.1l-1.728 1.007zm.72 1.19c.494.763 1.23 1.27 2.18 1.27v-2c-.133 0-.293-.036-.5-.357l-1.68 1.087zm2.18 1.27c.964 0 1.722-.486 2.23-1.27l-1.678-1.088c-.196.3-.364.36-.552.36v2zm2.224-1.26c.14-.21.388-.62.727-1.202l-1.728-1.006c-.332.57-.548.927-.664 1.1l1.665 1.11zm.726-1.2c.328-.56.587-.975.796-1.274l-1.64-1.144c-.238.34-.54.822-.882 1.408l1.726 1.01zm.788-1.264c1.315-1.84 2.81-3.257 4.628-4.38l-1.056-1.7c-1.984 1.24-3.764 2.925-5.197 4.915l1.624 1.166zm4.628-4.38c1.78-1.12 3.55-1.634 5.583-1.624v-2c-2.314.01-4.617.68-6.64 1.925l1.057 1.698zm5.583-1.624c2.03-.01 3.802.505 5.583 1.623l1.056-1.698c-2.023-1.247-4.326-1.915-6.64-1.925v2zm5.583 1.623c1.818 1.124 3.313 2.54 4.627 4.38l1.626-1.164c-1.432-1.99-3.213-3.674-5.196-4.913l-1.056 1.698zm4.62 4.372c.21.3.467.71.796 1.273l1.726-1.01c-.343-.586-.644-1.068-.883-1.41l-1.638 1.147zm.795 1.272c.34.582.588.99.73 1.202l1.66-1.11c-.114-.174-.33-.53-.662-1.1l-1.727 1.007zm.72 1.19c.508.784 1.267 1.27 2.23 1.27v-2c-.19 0-.357-.057-.55-.356l-1.68 1.085zm2.23 1.27c.952 0 1.686-.507 2.18-1.27l-1.68-1.087c-.207.322-.366.358-.5.358v2zm2.172-1.258c.14-.21.39-.62.73-1.204l-1.73-1.006c-.33.57-.547.926-.663 1.1l1.663 1.11zm.727-1.202c.33-.562.586-.974.796-1.273L55.88 31.2c-.24.342-.54.824-.884 1.41l1.726 1.01zm.79-1.264c1.314-1.84 2.815-3.255 4.648-4.38l-1.05-1.7c-2 1.238-3.79 2.924-5.224 4.915l1.625 1.166zm4.648-4.38c1.797-1.118 3.577-1.633 5.61-1.624v-2c-2.313.01-4.623.677-6.66 1.923l1.05 1.702zm5.61-1.624c1.742-.006 3.138.307 4.426.99l.926-1.774c-1.525-.787-3.388-1.21-5.352-1.216v2zm4.425.99c1.338.695 2.713 1.717 4.236 3.148l1.37-1.458c-1.61-1.508-3.205-2.69-4.678-3.463l-.927 1.77zm4.28 3.186c.49.41 1.077.713 1.743.713v-2c-.038 0-.185-.015-.46-.246l-1.284 1.534zm1.743.713c.69 0 1.302-.263 1.786-.748l-1.416-1.413c-.122.12-.23.16-.37.16v2zm1.785-.748c.485-.484.748-1.095.748-1.785h-2c0 .142-.04.25-.16.37l1.413 1.415zm.748-1.792c0-.146-.003-.494-.168-.8l-1.762.945c-.034-.063-.05-.115-.06-.144-.008-.03-.01-.05-.012-.053-.003-.014.002.013.003.067l2-.014z"/></defs></svg>