<svg width="110" height="24" viewBox="0 0 110 24" xmlns="http://www.w3.org/2000/svg" xmlns:xlink="http://www.w3.org/1999/xlink"><title>GD_logo_Green</title><defs><path id="a" d="M106.472.03H0v23.838h106.472V.03z"/></defs><g fill="none" fill-rule="evenodd"><path d="M108.648 7.065c.048 0 .094 0 .137-.004.043-.002.082-.012.116-.026.034-.015.06-.037.08-.068.02-.03.03-.073.03-.127 0-.048-.008-.084-.025-.112-.018-.027-.042-.048-.07-.063-.03-.015-.06-.025-.098-.03-.037-.005-.073-.008-.11-.008h-.284v.438h.225zm.095-.61c.164 0 .286.03.365.097.08.065.118.164.118.296 0 .124-.034.215-.104.272-.07.058-.156.092-.26.103l.396.608h-.23l-.377-.59h-.227v.59h-.215V6.455h.535z" fill="#2375DF"/><path d="M108.66 5.916c-.68 0-1.23.55-1.23 1.227s.55 1.226 1.23 1.226c.68 0 1.232-.55 1.232-1.227 0-.678-.55-1.227-1.23-1.227zm0 .216c.56 0 1.015.453 1.015 1.01 0 .558-.455 1.01-1.014 1.01-.558 0-1.013-.452-1.013-1.01 0-.557.455-1.01 1.014-1.01zM21.765 13.936c.3.383.856.83 1.73.83.86 0 1.414-.447 1.714-.83.384-.49.426-.788.426-2.512 0-1.745-.042-2.043-.427-2.533-.3-.383-.856-.83-1.714-.83-.875 0-1.432.447-1.73.83-.386.49-.428.79-.428 2.534 0 1.724.042 2.022.427 2.512zm3.75 1.744c-.577.746-1.63 1.257-2.74 1.257-1.413 0-2.344-.702-2.837-1.32-.62-.808-.797-1.213-.797-4.193 0-3 .2-3.404.82-4.214.494-.618 1.398-1.32 2.81-1.32 1.112 0 2.168.426 2.745 1.277V6.06h2.31v10.493c0 3.257-2.228 4.748-4.71 4.748-1.39 0-2.803-.725-3.765-1.81l1.69-1.34c.532.533 1.222.978 2.056.978 1.453 0 2.42-.83 2.42-2.34V15.68zM30.273 1.753h2.308V14.02c0 .49.275.656.81.656h.634v2.01h-.848c-1.583 0-2.903-.558-2.903-2.495V1.754M41.814 12.092h-2.5c-1.285 0-1.884.58-1.884 1.37 0 .723.523 1.397 2 1.397 1.82 0 2.384-.158 2.384-1.84v-.928zm0 3.733h.065c-.45.86-1.2 1.1-2.673 1.1-2.417 0-3.828-1.46-3.828-3.333 0-1.725 1.196-3.224 3.528-3.224h2.906v-1.05c0-1.023-.61-1.385-2.17-1.385-1.134 0-1.642.213-2.027.83L35.92 7.465c.833-1.15 2.05-1.575 3.675-1.575 2.673 0 4.528.895 4.528 3.555v7.24h-2.31v-.86zM47.38 13.51c.94.914 1.968 1.384 3.42 1.384 1.24 0 2.14-.47 2.14-1.383 0-.766-.58-1-1.325-1.064l-1.925-.17c-1.797-.15-3.123-1.213-3.123-3.065 0-2.192 1.753-3.32 4.04-3.32 1.906 0 3.187.574 4.258 1.47l-1.348 1.574c-.856-.596-1.733-1-2.91-1-1.388 0-1.86.552-1.86 1.296 0 .468.343.94 1.436 1.023l1.794.128c2.245.15 3.144 1.512 3.144 3.236 0 2.107-1.968 3.32-4.49 3.32-1.753 0-3.378-.638-4.77-1.937l1.52-1.49M57.777 13.51c.94.914 1.968 1.384 3.42 1.384 1.24 0 2.14-.47 2.14-1.383 0-.766-.578-1-1.327-1.064l-1.923-.17c-1.797-.15-3.12-1.213-3.12-3.065 0-2.192 1.75-3.32 4.037-3.32 1.906 0 3.19.574 4.257 1.47l-1.346 1.574c-.856-.596-1.733-1-2.91-1-1.39 0-1.858.552-1.858 1.296 0 .468.34.94 1.432 1.023l1.797.128c2.244.15 3.143 1.512 3.143 3.236 0 2.107-1.968 3.32-4.49 3.32-1.756 0-3.38-.638-4.77-1.937l1.52-1.49M69.368 11.4c0 1.685.105 3.366 2.158 3.366 2.033 0 2.14-1.788 2.14-3.365 0-1.55-.107-3.34-2.14-3.34-2.053 0-2.158 1.682-2.158 3.34zm4.375 4.28c-.866.746-1.728 1.257-2.84 1.257-1.328 0-2.307-.597-2.927-1.404-.598-.767-.78-1.47-.78-4.132 0-2.637.168-3.34.766-4.106.62-.808 1.616-1.404 2.942-1.404 1.113 0 1.973.51 2.84 1.277V1.753h2.02v14.933h-2.02V15.68zM83.867 8.85c-.322-.45-1.005-.79-1.753-.79-.75 0-1.434.34-1.756.79-.404.574-.533 1-.533 2.55 0 1.578.13 2.004.533 2.577.322.447 1.007.79 1.756.79.748 0 1.43-.343 1.753-.79.408-.573.534-1 .534-2.553 0-1.575-.125-2-.533-2.575zM78.82 7.273c.6-.662 1.603-1.384 3.294-1.384 1.687 0 2.694.722 3.29 1.384.835.915 1.178 1.81 1.178 4.127 0 2.343-.343 3.238-1.177 4.153-.597.66-1.604 1.384-3.29 1.384-1.692 0-2.696-.724-3.296-1.384-.834-.915-1.176-1.81-1.176-4.152 0-2.316.342-3.21 1.175-4.126zM94.45 8.85c-.318-.45-1.003-.79-1.752-.79-.748 0-1.432.34-1.755.79-.405.574-.534 1-.534 2.55 0 1.578.128 2.004.533 2.577.323.447 1.007.79 1.755.79.75 0 1.434-.343 1.753-.79.407-.573.537-1 .537-2.553 0-1.575-.13-2-.536-2.575zm-5.045-1.576c.6-.662 1.605-1.384 3.293-1.384 1.69 0 2.693.722 3.294 1.384.833.915 1.176 1.81 1.176 4.127 0 2.343-.343 3.238-1.176 4.153-.6.66-1.605 1.384-3.294 1.384-1.688 0-2.694-.724-3.293-1.384-.836-.915-1.177-1.81-1.177-4.152 0-2.316.34-3.21 1.177-4.126z" fill="#2375DF"/><g><mask id="b" fill="#fff"><use xlink:href="#a"/></mask><path d="M99.083 6.06h2.308v1.15h-.006c.683-.862 1.666-1.3 2.822-1.3.877 0 1.605.31 2.266.82l-1.582 1.868c-.513-.382-.85-.534-1.407-.534-1.072 0-2.092.68-2.092 2.252v6.37h-2.307V6.06M14.475 3.793V2.25L2.688.068C1.29-.19 0 .878 0 2.295v19.663c0 1.362 1.39 2.285 2.65 1.76l10.354-4.3c.89-.37 1.47-1.24 1.47-2.2V4.687l-2.39-.156v11.374c0 .772-.484 1.464-1.21 1.732l-6.567 2.425V4.326c0-.888.775-1.58 1.66-1.48l8.508.947" fill="#2375DF" mask="url(#b)"/></g></g></svg>