<svg width="110" height="15" viewBox="0 0 110 15" xmlns="http://www.w3.org/2000/svg" xmlns:xlink="http://www.w3.org/1999/xlink"><title>Onion</title><defs><path id="a" d="M13.23.154H0v13.973h13.23V.154z"/><path id="c" d="M.12 13h12.484V.202H.12z"/><path id="e" d="M0 14.846h109.716V.333H0z"/></defs><g fill="none" fill-rule="evenodd"><g transform="translate(0 .18)"><mask id="b" fill="#fff"><use xlink:href="#a"/></mask><path d="M5.703 10.21c.824.143 3.46-.466 4.355-3.603.914-3.226.448-2.58-2.204.16-1.434 1.49-2.563 3.37-2.15 3.442m2.31 2.043c2.87-1.022 2.833-4.75 2.367-3.71-.465 1.022-.77 1.846-1.774 2.42-.788.447-1.344.5-2.312.483-.806-.018-1.54-.68-1.774.323-.25 1.11 2.438.86 3.495.483m-2.42-4.84c2.205-3.047 5.485-4.14 5.108-4.516-.448-.448-2.42.16-2.42.16C5.22 4.134 1.886 6.142 1.67 8.65c-.072.735.143 2.115 1.075 2.69.646.393 1.757-2.42 2.85-3.927m-2.15-2.688C4.663 3.83 7.01 3.095 6.51 3.112c-1.703.053-5.162 1.452-5.324 3.603-.054.68 1.04-1.094 2.26-1.99m-3.013 8.1c-.197-.285.592-.447.735-.77.717-1.362-.555-.806-1.093-3.924C-.965 2.235 9.125 2.235 10.47 2c1.237-.214-.017-1.846.95-1.846.323 0 0 .843.323.968.34.144.538-.77.878-.483.467.393-.447.75-.196 1.002.18.18.61-.16.753.072.25.376-.43.627-1.04.735-2.222.375 2.545 10.09-5.198 11.434-2.044.376-2.994-1.416-4.517-.538-.377.215-.645 1.04-.88.7-.142-.216.235-.557 0-.7-.16-.09-.393.305-.554.16-.127-.124.053-.32-.073-.483-.107-.16-.358-.017-.484-.197" fill="#2375DF" mask="url(#b)"/></g><path d="M21.013 14.625c-2.39 0-2.83-1.807-2.83-3.6V9.09l-1.29.05V6.81l1.29.03V3.826l2.925-.3V6.86l1.902-.048V9.14l-1.902-.065v1.888c0 .848.25 1.163.864 1.163.315 0 .74-.063.928-.204l.645 2.027c-.3.204-.802.675-2.532.675M27.49 7.315s1.196-.755 3.066-.755c1.416 0 2.123 1.258 2.123 2.657v5.25h-2.925v-3.552c0-1.29 0-2.17-1.054-2.17-.55 0-1.21.41-1.21.41v5.313h-2.94V2.22l2.94-.235v5.33zM38.244 8.51c-.723 0-1.666.44-1.792.91h2.405c.268 0 .598 0 .598-.234 0-.55-.535-.676-1.21-.676m-.362 6.226c-2.642 0-4.166-1.76-4.166-4.418 0-2.374 1.996-3.915 4.512-3.915 2.216 0 3.945 1.525 3.945 3.962v.63h-5.74c0 .91 1.07 1.335 1.856 1.335.93 0 1.432-.236 1.73-.487l1.416 1.54c-.362.315-1.494 1.353-3.553 1.353" fill="#2375DF"/><g transform="translate(47.667 1.846)"><mask id="d" fill="#fff"><use xlink:href="#c"/></mask><path d="M6.363 8.786c1.147 0 2.2-.99 2.2-2.39 0-1.13-1.053-2.09-2.2-2.09-1.164 0-2.217.96-2.217 2.09 0 1.4 1.053 2.39 2.217 2.39m0 4.214C2.81 13 .12 10.25.12 6.397.12 2.78 3.17.202 6.364.202c3.176 0 6.24 2.58 6.24 6.195 0 3.852-2.687 6.603-6.24 6.603" fill="#2375DF" mask="url(#d)"/></g><path fill="#2375DF" d="M69.248 7.425V2.488l3.994-.267v12.515l-7.736-5.33v5.016h-4.01V1.876"/><mask id="f" fill="#fff"><use xlink:href="#e"/></mask><path fill="#2375DF" mask="url(#f)" d="M74.908 14.42h4.025V2.49h-4.025M86.432 10.632c1.148 0 2.2-.99 2.2-2.39 0-1.132-1.052-2.09-2.2-2.09-1.163 0-2.216.958-2.216 2.09 0 1.4 1.053 2.39 2.216 2.39m0 4.214c-3.553 0-6.24-2.752-6.24-6.604 0-3.616 3.05-6.194 6.24-6.194 3.176 0 6.242 2.578 6.242 6.194 0 3.852-2.688 6.604-6.242 6.604M101.65 7.425V2.488l3.995-.267v12.515l-7.736-5.33v5.016H93.9V1.876M108.475 3.353c.188 0 .487.03.487-.25 0-.206-.19-.237-.346-.237h-.393v.487h.252zm.644.755h-.205l-.393-.63h-.3v.63h-.172V2.755h.598c.11 0 .236 0 .33.064.11.06.157.17.157.297 0 .267-.19.362-.425.362l.41.628zm.455-.677c0-.596-.47-1.068-1.07-1.068-.58 0-1.068.472-1.068 1.07 0 .597.487 1.068 1.07 1.068.597 0 1.068-.47 1.068-1.07zm-2.28 0c0-.675.535-1.21 1.21-1.21.677 0 1.212.535 1.212 1.21 0 .678-.535 1.212-1.21 1.212-.677 0-1.212-.534-1.212-1.21z"/></g></svg>