<svg width="32" height="26" viewBox="0 0 32 26" xmlns="http://www.w3.org/2000/svg" xmlns:xlink="http://www.w3.org/1999/xlink" xmlns:figma="http://www.figma.com/figma/ns"><title>Shape</title><desc>Created using Figma</desc><use xlink:href="#a" transform="translate(1 1.13)" fill="#7A7F85" style="mix-blend-mode:normal" figma:type="vector-operation"/><defs><path id="a" d="M25.613 4.386l-.354.354.353-.354zm3.2 4.788l.46-.196-.46.196zM20.825 1.19l.197-.46-.197.46zm-11.652 0L8.977.73l.197.46zM4.387 4.385l.353.354-.353-.354zM1.19 9.174l.46.197-.46-.196zm1.17 13.912l-.42.27.002.003.42-.274zm25.28 0l.418.273.003-.005-.42-.27zM13.483 2.77l-.353-.353.354.354zm3.032 0l.353-.352-.354.353zm0 3.03l.353.355-.354-.354zm-3.032 0l-.354.354.354-.353zM5.8 16.516l.355.354-.354-.355zm0-3.03l-.353.354.354-.355zm-3.03 0l.354.354-.353-.355zm0 3.03l.355-.353-.354.353zm6.246-7.5l.353.355-.354-.355zm-3.032 0l-.353.354h.002l.352-.355zm0-3.03L5.63 5.63v.002l.354.353zm3.032 0l.353-.353-.354.353zm9.482 3.173l.484.127.003-.013-.487-.114zm-1.69 6.395l-.483-.128-.09.342.292.2.282-.414zm.92-7.7l.136-.483-.136.482zm-.802.107l.252.432-.252-.432zm-.502.662l-.483-.13v.002l.484.128zm-1.692 6.395l.042.498.352-.03.09-.34-.484-.128zm-1.79.73l.316.386-.317-.387zm-1.055 1.647l-.484-.128v.002l.484.126zm.334 2.445l-.432.25.433-.25zm1.96 1.488l.126-.484-.126.484zm2.443-.335l-.25-.432.25.433zm1.49-1.958l-.483-.13v.005l.483.125zm-.1-1.96l-.466.18v.002l.467-.18zm2.97-8.06l-.352.354.354-.355zm0-3.03l-.352-.354v.002l.354.353zm3.033 0l.353-.353-.354.353zm0 3.03l.353.355-.354-.355zm3.213 7.5l-.355-.354v.002l.354.353zm-.002-3.03l-.353.354.354-.355zm-3.03 0l.355.354-.354-.355zm0 3.03l.355-.353-.354.353zM25.26 4.74c1.307 1.303 2.32 2.82 3.093 4.63l.92-.392c-.814-1.895-1.933-3.57-3.306-4.945l-.707.707zm-4.63-3.092c1.812.773 3.328 1.785 4.63 3.092l.707-.707c-1.374-1.373-3.05-2.49-4.944-3.304l-.393.918zM15 .5c1.98-.003 3.824.374 5.63 1.148l.393-.92C19.123-.08 17.08-.496 15-.5v1zM9.37 1.648C11.176.874 13.02.498 15 .5v-1c-2.082.003-4.122.42-6.023 1.23l.393.918zM4.74 4.74c1.302-1.307 2.82-2.32 4.63-3.092l-.393-.92c-1.893.814-3.57 1.932-4.944 3.305l.707.707zM1.65 9.37c.77-1.81 1.783-3.327 3.09-4.63l-.707-.707C2.66 5.41 1.54 7.083.73 8.978l.92.393zM.5 15c-.003-1.98.374-3.824 1.15-5.63L.73 8.98C-.08 10.878-.497 12.918-.5 15h1zm2.283 7.817C1.243 20.413.495 17.854.5 15h-1c.005 2.995.832 5.826 2.44 8.355l.843-.538zm.48.255c-.223 0-.365-.078-.483-.258l-.838.545c.305.467.764.712 1.322.712v-1zm23.473 0H3.264v1h23.472v-1zm.484-.258c-.117.18-.26.258-.484.258v1c.555 0 1.017-.245 1.322-.713l-.838-.546zM29.5 15c.005 2.843-.743 5.403-2.283 7.818l.844.537c1.608-2.54 2.435-5.37 2.44-8.355h-1zm-1.147-5.63c.773 1.806 1.15 3.65 1.147 5.63h1c-.003-2.08-.42-4.122-1.228-6.022l-.92.393zM15 1.644c-.725 0-1.355.262-1.87.774l.707.708c.327-.326.704-.482 1.163-.482v-1zm1.87.774c-.515-.512-1.145-.774-1.87-.774v1c.46 0 .836.156 1.163.482l.706-.708zm.773 1.87c0-.725-.262-1.357-.774-1.87l-.708.707c.324.325.48.703.48 1.162h1zm-.774 1.867c.51-.512.773-1.144.773-1.868h-1c0 .46-.157.837-.48 1.162l.706.706zM15 6.93c.725 0 1.356-.264 1.87-.775l-.707-.708c-.327.326-.704.482-1.163.482v1zm-1.87-.775c.514.51 1.145.774 1.87.774v-1c-.46 0-.836-.157-1.163-.483l-.706.708zm-.773-1.87c0 .725.262 1.357.774 1.87l.708-.707c-.324-.325-.48-.703-.48-1.162h-1zm.774-1.867c-.51.512-.773 1.144-.773 1.868h1c0-.46.157-.837.48-1.162l-.706-.706zM5.448 16.162c-.324.325-.703.482-1.162.482v1c.725 0 1.358-.263 1.87-.775l-.708-.708zM5.927 15c0 .46-.156.837-.48 1.162l.708.707c.51-.514.773-1.146.773-1.87h-1zm-.48-1.16c.324.323.48.7.48 1.16h1c0-.724-.26-1.356-.772-1.868l-.708.707zm-1.162-.483c.46 0 .838.157 1.162.482l.708-.708c-.512-.513-1.146-.775-1.87-.775v1zm-1.16.482c.325-.326.7-.483 1.16-.483v-1c-.725 0-1.356.263-1.867.775l.707.707zM2.643 15c0-.46.156-.836.48-1.16l-.704-.71c-.516.514-.777 1.146-.777 1.87h1zm.48 1.16c-.324-.323-.48-.7-.48-1.16h-1c0 .724.26 1.357.776 1.87l.704-.71zm1.162.483c-.458 0-.835-.156-1.16-.48l-.707.706c.51.51 1.142.773 1.867.773v-1zm3.215-6.5c.725 0 1.356-.262 1.87-.773l-.707-.71c-.327.327-.704.483-1.163.483v1zM5.632 9.37c.512.51 1.143.773 1.868.773v-1c-.458 0-.836-.156-1.163-.482l-.705.71zM4.857 7.5c0 .724.262 1.356.774 1.87l.708-.708c-.324-.325-.48-.703-.48-1.162h-1zm.774-1.868c-.51.512-.773 1.144-.773 1.868h1c0-.46.157-.837.48-1.16l-.706-.708zm1.87-.775c-.725 0-1.356.263-1.87.774l.707.71c.327-.326.704-.483 1.163-.483v-1zm1.87.774c-.514-.51-1.145-.773-1.87-.773v1c.46 0 .836.157 1.163.482l.706-.71zm.773 1.87c0-.724-.262-1.356-.774-1.868l-.708.707c.324.323.48.7.48 1.16h1zM9.37 9.37c.51-.514.773-1.146.773-1.87h-1c0 .46-.157.837-.48 1.162l.706.707zm8.645-.34l-1.69 6.395.967.255 1.69-6.395-.967-.255zm-.07-.427c.083.14.105.276.066.44l.975.23c.098-.417.034-.82-.183-1.184l-.858.513zm-.352-.27c.19.044.257.094.35.27l.86-.514c-.207-.328-.572-.607-.94-.72l-.27.963zm-.414.06c.14-.085.27-.1.414-.06l.27-.963c-.415-.115-.822-.058-1.192.16l.507.862zm-.273.36c.044-.167.13-.278.27-.36l-.503-.864c-.375.217-.622.548-.733.962l.967.26zm-1.69 6.392l1.69-6.395-.967-.256-1.69 6.395.966.255zm-1.958.987c.46-.387.92-.573 1.514-.617l-.083-.996c-.744.067-1.48.366-2.066.84l.635.772zm-.89 1.39c.152-.596.42-1.014.888-1.39l-.633-.774c-.582.485-1.018 1.165-1.222 1.908l.967.256zm.284 2.066c-.38-.658-.474-1.337-.284-2.068l-.967-.252c-.258.988-.126 1.938.385 2.82l.866-.5zm1.65 1.256c-.728-.19-1.27-.6-1.65-1.257l-.866.503c.514.885 1.277 1.465 2.266 1.722l.25-.968zm2.068-.283c-.656.382-1.335.475-2.066.284l-.252.968c.987.257 1.937.126 2.82-.386l-.502-.865zm1.257-1.65c-.19.73-.6 1.27-1.257 1.65l.5.866c.888-.513 1.468-1.276 1.724-2.266l-.968-.25zm-.083-1.654c.224.56.25 1.056.083 1.65l.966.26c.194-.748.153-1.558-.116-2.27l-.933.36zm-1.02-1.29c.498.332.807.722 1.02 1.29l.933-.36c-.278-.705-.774-1.33-1.39-1.756l-.563.826zm3.33-8.466c0 .724.262 1.356.774 1.87l.708-.708c-.324-.325-.48-.703-.48-1.162h-1zm.774-1.868c-.51.512-.773 1.144-.773 1.868h1c0-.46.157-.837.48-1.16l-.706-.708zm1.87-.775c-.725 0-1.355.263-1.87.774l.707.71c.327-.326.704-.483 1.163-.483v-1zm1.87.774c-.515-.51-1.145-.773-1.87-.773v1c.46 0 .836.157 1.163.482l.706-.71zm.773 1.87c0-.724-.262-1.356-.774-1.868l-.708.707c.324.323.48.7.48 1.16h1zm-.774 1.87c.51-.514.773-1.146.773-1.87h-1c0 .46-.157.837-.48 1.162l.706.707zm-1.87.773c.725 0 1.356-.262 1.87-.773l-.707-.71c-.327.327-.704.483-1.163.483v1zm-1.87-.773c.514.51 1.145.773 1.87.773v-1c-.46 0-.836-.156-1.163-.482l-.706.71zm6.245 6.792c-.325.325-.7.482-1.16.482v1c.725 0 1.356-.263 1.867-.775l-.707-.708zM27.357 15c0 .46-.156.836-.482 1.16l.707.71c.514-.513.775-1.146.775-1.87h-1zm-.48-1.16c.324.324.48.7.48 1.16h1c0-.724-.26-1.356-.776-1.87l-.704.71zm-1.162-.483c.46 0 .835.157 1.16.482l.707-.708c-.51-.512-1.143-.775-1.867-.775v1zm-1.162.482c.324-.326.702-.483 1.162-.483v-1c-.724 0-1.358.262-1.87.775l.708.707zm-.48 1.16c0-.46.156-.837.48-1.16l-.707-.708c-.512.512-.774 1.144-.774 1.868h1zm.48 1.162c-.324-.324-.48-.703-.48-1.162h-1c0 .724.26 1.357.773 1.87l.707-.708zm1.162.482c-.46 0-.838-.157-1.162-.482l-.707.707c.51.51 1.144.773 1.87.773v-1z"/></defs></svg>