<svg id="Слой_1" xmlns="http://www.w3.org/2000/svg" viewBox="0 0 110 19"><style>.st0{fill:#2375DF;}</style><path class="st0" d="M16.7 9.3c-.8-.2-1.6-.8-1.8-1.7-.3-.9.1-1.8.7-2.4-.5-1.7-.9-3.4-1.4-5.1C9.5 1.4 4.7 2.7 0 4c.4 1.7.9 3.4 1.3 5 .8.2 1.5.8 1.8 1.6.3.9 0 1.9-.7 2.5.4 1.7.9 3.4 1.4 5.1 4.7-1.3 9.5-2.5 14.2-3.8-.4-1.7-.9-3.4-1.3-5.1zM8.6 16c-1.4.4-2.8.8-4.2 1.1-.3-1.3-.7-2.6-1-3.8.4-.6.7-1.3.7-2 0-1.3-.8-2.5-2-2.9-.5-1.3-.8-2.6-1.1-3.9C3.8 3.7 6.6 3 9.4 2.2c.3 1.1.6 2.1.9 3.2L6.1 6.6c.3 1 .6 2.1.8 3.1 1.4-.4 2.8-.8 4.2-1.1.3 1.1.6 2.1.9 3.2-1.4.4-2.8.8-4.2 1.1.2 1 .5 2.1.8 3.1z"/><path id="Fill-6" class="st0" d="M88.4 5.5c1.3-1.5 3.4-2.1 5.3-1.9 1.6.2 3 1.2 3.7 2.6-.8.4-1.5.8-2.3 1.2-.4-.7-1.1-1.2-2-1.3-.8-.1-1.8.2-2.4.9-1.2 1.3-1 3.6.5 4.7 1.1.8 2.6.6 3.7-.1v-.8h-2.4V8.4h5.2v3.8c0 .3-.1.5-.3.8-2 2.1-5.5 2.3-7.9.8-1.1-.7-1.9-1.9-2.2-3.2-.4-1.9-.1-3.8 1.1-5.1"/><path id="Fill-8" class="st0" d="M105.4 12c-1.4.6-3.1-.1-3.8-1.5-.7-1.2-.4-2.9.7-3.8.4-.3.8-.5 1.2-.7 1.5-.5 3.3.5 3.8 2.1s-.4 3.4-1.9 3.9m2.7-7.1c-1.3-1.1-3.1-1.5-4.8-1.2-1.2.2-2.4.8-3.3 1.7-2 2.1-1.9 5.8.3 7.8 2.2 2.1 6.1 2 8.2-.2 2.1-2.2 2-6.2-.4-8.1"/><path id="Fill-10" class="st0" d="M22.2 3.7h8.2v2.4h-5.3v2.1h3.8v1.7c-.1.4-.5.8-1 .7h-2.8v3.7h-2.9c0-3.5.1-7 0-10.6"/><path id="Fill-12" class="st0" d="M33.8 10.5c.5-1.3.9-2.6 1.3-3.9.4 1.3.9 2.6 1.3 3.9h-2.6m3.1-6.7h-3.5c-1.4 3.5-2.7 7.1-4 10.6h3.2c.1-.5.3-1 .5-1.5h4.2l.3.9c.2.4.6.6 1.1.6H41c-1.4-3.5-2.8-7.1-4.1-10.6"/><path id="Fill-14" class="st0" d="M41.8 3.8h2.9c1.4 1.9 2.8 3.9 4.3 5.8V4.9c0-.6.6-1.1 1.1-1.1h1.6v10.6H49c-1.5-2-2.9-4.1-4.5-6.1v6.1h-2.8V3.8z"/><path id="Fill-16" class="st0" d="M60.7 10.5c-.4.9-1.3 1.5-2.3 1.5h-2V6.2c1.1.1 2.4-.2 3.4.4 1.2.8 1.5 2.6.9 3.9m1.9-5c-1-1.1-2.6-1.7-4.1-1.7h-4.8v9.5c0 .6.6 1.2 1.2 1.2h3.4c1.4 0 2.8-.4 3.9-1.3 1-.8 1.6-2.1 1.7-3.4.1-1.5-.3-3.2-1.3-4.3"/><path id="Fill-18" class="st0" d="M67.9 10.5c.4-1.3.9-2.6 1.3-3.9.5 1.3.9 2.6 1.3 3.9h-2.6M71 3.8h-3.5c-1.3 3.5-2.7 7.1-4 10.6h3.1c.2-.5.4-1 .5-1.5h4.2c.1.3.2.5.3.8.2.4.6.7 1 .7H75c-1.3-3.5-2.7-7.1-4-10.6"/><path id="Fill-20" class="st0" d="M76 14.4V3.8h2.9c1.4 1.9 2.8 3.8 4.2 5.8V5c0-.6.5-1.2 1.1-1.2h1.7v10.6h-2.6c-1.3-1.8-2.6-3.6-4-5.4-.2-.2-.3-.5-.5-.7v6.1H76"/></svg>