<svg width="26" height="32" viewBox="0 0 26 32" xmlns="http://www.w3.org/2000/svg" xmlns:xlink="http://www.w3.org/1999/xlink" xmlns:figma="http://www.figma.com/figma/ns"><title>fork9</title><desc>Created using Figma</desc><g style="mix-blend-mode:normal" figma:type="frame"><use xlink:href="#a" transform="translate(1.1 1)" fill="#7A7F85" style="mix-blend-mode:normal" figma:type="vector"/><use xlink:href="#b" transform="translate(14 1)" fill="#7A7F85" style="mix-blend-mode:normal" figma:type="vector"/></g><defs><path id="a" d="M8.254 8.79l.353.353-.353-.354zM6.11.317l.354-.353-.353.353zM2.144 14.816h.5v-.355l-.335-.116-.165.472zm5.792 14.547l-.353-.353.353.353zm.637-14.547l-.166-.472-.334.117v.355h.5zM10.397.318l.354-.353-.353.353zM9.644-.5c-.428 0-.805.162-1.107.465l.707.707C9.364.55 9.49.5 9.644.5v-1zm-1.107.465c-.303.302-.465.68-.465 1.106h1c0-.15.05-.277.172-.398l-.707-.707zM8.072 1.07v6.966h1V1.07h-1zm0 6.966c0 .152-.05.278-.172.4l.707.707c.303-.303.465-.68.465-1.107h-1zm-.17.4c-.124.12-.25.17-.402.17v1c.428 0 .805-.16 1.107-.463L7.9 8.435zm-.402.17c-.152 0-.278-.05-.4-.17l-.707.707c.303.302.68.464 1.107.464v-1zm-.4-.17c-.12-.122-.17-.248-.17-.4h-1c0 .427.16.804.463 1.107l.707-.708zm-.17-.4V1.07h-1v6.966h1zm0-6.965c0-.426-.163-.803-.466-1.105l-.707.707c.122.12.172.247.172.4h1zM6.463-.035C6.162-.338 5.784-.5 5.357-.5v1c.153 0 .278.05.4.172l.707-.708zM5.357-.5c-.427 0-.804.162-1.107.465l.708.707c.12-.122.247-.172.4-.172v-1zM4.25-.035c-.302.302-.464.68-.464 1.106h1c0-.15.05-.277.172-.398L4.25-.035zM3.786 1.07v6.966h1V1.07h-1zm0 6.966c0 .152-.05.278-.172.4l.707.707c.304-.303.466-.68.466-1.107h-1zm-.172.4c-.122.12-.247.17-.4.17v1c.428 0 .805-.16 1.107-.463l-.706-.708zm-.4.17c-.152 0-.278-.05-.4-.17l-.707.707c.303.302.68.464 1.108.464v-1zm-.4-.17c-.12-.122-.17-.248-.17-.4h-1c0 .427.16.804.463 1.107l.708-.708zm-.17-.4V1.07h-1v6.966h1zm0-6.965c0-.426-.163-.803-.466-1.105L1.47.672c.123.12.173.247.173.4h1zM2.177-.034C1.876-.338 1.498-.5 1.072-.5v1c.152 0 .277.05.4.172l.706-.707zM1.072-.5c-.428 0-.805.162-1.107.465l.707.707C.792.55.92.5 1.072.5v-1zm-1.107.465C-.338.267-.5.645-.5 1.07h1C.5.92.55.794.672.673l-.707-.707zM-.5 1.07v10.716h1V1.07h-1zm0 10.716c.006.757.25 1.523.687 2.147l.815-.58c-.357-.49-.508-.964-.502-1.567h-1zm.687 2.147c.445.617 1.083 1.1 1.79 1.354l.33-.943c-.564-.192-.958-.49-1.305-.99l-.815.58zm1.456.883v13.04h1v-13.04h-1zm0 13.04c0 .72.268 1.347.782 1.86l.708-.706c-.334-.334-.49-.71-.49-1.153h-1zm.782 1.86c.515.516 1.143.784 1.86.784v-1c-.442 0-.82-.156-1.152-.49l-.708.707zm1.86.784H6.43v-1H4.285v1zm2.144 0c.717 0 1.345-.27 1.86-.783l-.708-.707c-.334.334-.71.49-1.153.49v1zm1.86-.783c.513-.514.782-1.143.782-1.86h-1c0 .442-.156.82-.49 1.153l.707.707zm.782-1.86V14.816h-1v13.04h1zm-.335-12.57c.707-.254 1.346-.737 1.79-1.354l-.815-.58c-.347.5-.74.8-1.306.99l.33.944zm1.79-1.354c.437-.624.682-1.39.688-2.147h-1c.005.603-.146 1.076-.503 1.568l.816.58zm.688-2.147V1.07h-1v10.716h1zm0-10.715c0-.426-.163-.803-.464-1.105l-.707.706c.122.123.17.248.17.4h1.002zM10.75-.034C10.448-.338 10.072-.5 9.644-.5v1c.152 0 .277.05.4.172l.706-.707z"/><path id="b" d="M.16 19.127l-.355.353.354-.353zm4.125.16h.5v-.5h-.5v.5zm.637 10.077l.353-.354-.353.354zM10.714 1.07h.5-.5zm.036-1.105C10.447-.338 10.07-.5 9.643-.5v1c.152 0 .278.05.4.172l.707-.707zM9.643-.5H5.357v1h4.286v-1zm-4.286 0C3.75-.5 2.362.078 1.22 1.22l.707.707C2.883.97 4.017.5 5.357.5v-1zM1.22 1.22C.078 2.362-.5 3.75-.5 5.357h1c0-1.34.47-2.474 1.427-3.43L1.22 1.22zM-.5 5.357V18.75h1V5.357h-1zm0 13.393c0 .283.11.534.305.73l.708-.706C.5 18.762.5 18.756.5 18.758v-.008h-1zm.305.73c.197.197.449.306.73.306v-1h-.01.002l-.002-.002c-.002 0-.006-.005-.012-.01l-.708.706zm.73.306h3.75v-1H.535v1zm3.25-.5v8.57h1v-8.57h-1zm0 8.57c0 .72.27 1.347.783 1.86l.707-.706c-.334-.334-.49-.71-.49-1.153h-1zm.783 1.86c.514.516 1.143.784 1.86.784v-1c-.442 0-.82-.156-1.153-.49l-.707.707zm1.86.784h2.143v-1H6.43v1zm2.143 0c.72 0 1.347-.268 1.862-.783l-.708-.707c-.333.334-.71.49-1.153.49v1zm1.862-.783c.514-.514.782-1.142.782-1.86h-1c0 .443-.155.82-.49 1.153l.708.707zm.782-1.86V1.07h-1v26.787h1zm0-26.786c0-.426-.162-.803-.464-1.105l-.707.707c.12.12.17.247.17.4h1.002z"/></defs></svg>