<svg id="Слой_1" xmlns="http://www.w3.org/2000/svg" viewBox="0 0 107 42"><style>.st0{fill:#2375DF;}</style><path class="st0" d="M31.4 18.9l.5 3.2 1.4-3.1c.2-.3.3-.8.1-1.1-.1-.2-.2-.3-.3-.4-.3-.3-.9-.3-1.2-.1-.4.2-.6.6-.6.9h.5s.1 0 .1.1c-.2.1-.5.2-.5.5zM30.3 17.2c-.4-.2-.9-.1-1.2.2-.3.3-.4.7-.3 1.1l1.4 3.2.1.3.6-3.6c0-.3 0-.5-.1-.7 0-.2-.2-.4-.5-.5zM34.7 18.7c-.5-.1-.9.1-1.2.6L32 22.7v.1l2.9-2c.2-.1.4-.2.5-.5.2-.3.3-.8.1-1.1-.2-.3-.5-.5-.8-.5zM30.4 22.8l-1.6-3.6c-.3-.5-.9-.7-1.4-.5-.3.1-.6.4-.7.7-.1.4 0 .8.4 1.1l3.3 2.3zM36.2 22.9c.2-.3.3-.8.1-1.1-.1-.2-.3-.5-.6-.6-.3-.1-.7-.1-1 .1l-2.9 2h3.5c.4 0 .7-.1.9-.4zM26.6 21.2c-.2.1-.5.3-.6.6-.2.3-.1.8.1 1.1.2.3.5.4.9.4h3.5l-2.9-2c-.3-.2-.7-.2-1-.1zM5 17.8c.2 0 .2.1.2.2v3.1c-.8-.9-2.8-3-2.8-3.1 0-.1.1-.1.3-.2v-.1H0v.1c.3 0 .3.1.3.2v5.4c0 .1 0 .2-.3.2v.1h2.2v-.1c-.3 0-.3-.1-.3-.2v-3.6c3 3.4 3.3 3.6 3.3 3.7 0 .1-.1.1-.3.1v.1h2.2v-.1c-.3 0-.3-.1-.3-.2V18c0-.1 0-.2.3-.2v-.1H5v.1zM13.8 20.6c.6-.2 1.1-.6 1.1-1.3 0-1.1-.9-1.6-2.2-1.6H8.4v.1c.3 0 .3.1.3.2v5.4c0 .1 0 .2-.3.2v.1h4.5c1.6 0 2.3-.8 2.3-1.7-.1-.8-.6-1.2-1.4-1.4zm-3.4-1.7H12c1 0 1.2.1 1.2.5 0 .5-.3.5-1.2.5h-1.6v-1zm2 3.6h-2v-1.4h2c.8 0 1.1.2 1.1.7 0 .5-.3.7-1.1.7zM21.7 21.5c0 .1.1.1.1.2 0 .3-1.5.6-1.9.6-.9 0-2.1-.4-2.1-1.6 0-1.2 1.2-1.6 2.1-1.6 1 0 1.9.3 1.9.5v.2l.1.1 1-1.9h-.1c0 .1-.1.1-.2.1s-.3-.1-.8-.2-1.1-.2-2-.2c-1.8 0-3.8 1-3.8 3.1s2 3.1 3.8 3.1c1.7 0 2.8-.6 3-.6.1 0 .1 0 .2.1l.1-.1-1.2-1.8h-.2zM41.5 23.8c1.8 0 3.2-.7 3.2-2.7V18c0-.1 0-.2.3-.2v-.1h-2.4v.1c.3 0 .3.1.3.2v3.1c0 .9-.5 1.2-1.5 1.2-.9 0-1.5-.4-1.5-1.2V18c0-.1 0-.2.3-.2v-.1H38v.1c.3 0 .3.1.3.2v3.1c.1 2.1 1.5 2.7 3.2 2.7zM54.1 17.8v-.1H52v.1c.2 0 .2.1.2.2v3.1c-.8-.9-2.8-3-2.8-3.1 0-.1.1-.1.3-.2v-.1H47v.1c.3 0 .3.1.3.2v5.4c0 .1 0 .2-.3.2v.1h2.2v-.1c-.3 0-.3-.1-.3-.2v-3.6c3 3.4 3.3 3.6 3.3 3.7 0 .1-.1.1-.3.1v.1h2.2v-.1c-.3 0-.3-.1-.3-.2V18c0-.1 0-.2.3-.2zM58.4 17.8v-.1H56v.1c.3 0 .3.1.3.2v5.4c0 .1 0 .2-.3.2v.1h2.4v-.1c-.3 0-.3-.1-.3-.2V18c0-.1.1-.2.3-.2zM67.1 17.8v-.1h-2v.1c.1 0 .2 0 .2.1s-.2.5-1.6 3.5c-1.4-3.1-1.6-3.4-1.6-3.5 0-.1 0-.1.2-.1v-.1H60v.1c.1 0 .2.1.3.3.3.6 2.3 5.3 2.3 5.4 0 0 0 .1-.2.1v.1h2.4v-.2c-.1 0-.2 0-.2-.1 0-.2 2.2-5.2 2.3-5.5.1 0 .1-.1.2-.1zM74.1 17.7h-5.8v.1c.3 0 .3.1.3.2v5.4c0 .1 0 .2-.3.2v.1h5.8c.1 0 .2.1.2.3h.1v-2h-.1c0 .3-.1.3-.2.3h-3.7v-1.1h2.1c.2 0 .3.1.3.3h.2v-1.8h-.1c0 .2-.1.3-.3.3h-2.1v-1h3.7c.1 0 .2.1.2.3h.1v-2h-.1c-.1.3-.2.4-.3.4zM82.7 23.4l-1.4-1.9c1-.3 1.7-.8 1.7-1.9 0-1.3-.7-1.9-2.4-1.9h-4.2v.1c.3 0 .3.1.3.2v5.4c0 .1 0 .2-.3.2v.1h2.4v-.1c-.3 0-.3-.1-.3-.2v-1.9h1.1c.2.2 1.4 1.8 1.4 1.9 0 .1-.1.2-.3.2v.1H83v-.1c-.1 0-.2 0-.3-.2zm-2.4-3.2h-1.9V19h1.9c.7 0 .9.3.9.6s-.2.6-.9.6zM86 19.3c0-.3.3-.5 1.4-.5 1.1 0 2.4.3 2.4.6v.1l.1.1.8-1.6h-.1c-.1.1-.2.2-.3.2-.3 0-1.5-.5-3-.5-1.7 0-2.8.8-2.8 2 0 2.2 4.8 1.3 4.8 2.1 0 .5-.5.8-1.7.8s-2.4-.5-2.4-.8v-.2l-.2-.2-.9 2.1h.1c.1-.1.1-.1.2-.1.3 0 1.1.5 3 .5 2.5 0 3.3-1.1 3.3-2.1.1-2.7-4.7-1.5-4.7-2.5zM98.5 23.3c-.7-1.8-2.1-5.2-2.1-5.3 0-.1.1-.1.2-.2v-.1h-3v.1c.1 0 .2 0 .2.1s-2 5.1-2.1 5.4c-.1.2-.1.2-.3.3v.1h2v-.1c-.2 0-.2 0-.2-.1s.1-.2.4-1.1h2.7c0 .2.4 1 .4 1 0 .1-.1.1-.2.1v.1h2.3v-.1c-.2.1-.2 0-.3-.2zm-4.6-1.8l1-2.7 1.1 2.7h-2.1zM106.4 22c0 .3-.1.3-.2.3h-4V18c0-.1 0-.2.3-.2v-.1h-2.4v.1c.3 0 .3.1.3.2v5.4c0 .1 0 .2-.3.2v.1h6c.1 0 .2.1.2.3h.1v-2zM33.7 14.9C36.5 7.2 44.1 1.7 53 1.7s16.5 5.5 19.3 13.2c.2.5.3.6.2 0C70.2 6.5 62.3 0 53 0c-9.4 0-17.3 6.3-19.5 14.9-.1.6 0 .6.2 0zM72.3 26.5C69.5 34.2 61.9 39.7 53 39.7s-16.5-5.5-19.3-13.2c-.2-.6-.4-.6-.2 0C35.7 35 43.6 41.4 53 41.4c9.3 0 17.2-6.5 19.5-14.9.1-.5 0-.4-.2 0z"/></svg>