<svg width="32" height="30" viewBox="0 0 32 30" xmlns="http://www.w3.org/2000/svg" xmlns:xlink="http://www.w3.org/1999/xlink" xmlns:figma="http://www.figma.com/figma/ns"><title>trophy3</title><desc>Created using Figma</desc><use xlink:href="#a" transform="translate(1 1.09)" fill="#7A7F85" style="mix-blend-mode:normal" figma:type="vector-operation"/><defs><path id="a" d="M29.402 5.104l.354-.354-.354.354zM23.004 4.6h-.5v.5h.5v-.5zM22.16.845l.354-.353-.354.354zm-14.414 0L7.392.49l.354.354zM6.902 4.6v.5h.5v-.5h-.5zm-6.398.504l.353.354-.353-.354zm.242 6.092l-.433.25.433-.25zm2.014 2.337l.318-.386-.318.386zm3.11 1.752l.18-.467-.18.467zm3.872.8l.395-.307-.142-.183-.23-.01-.023.5zm1.707 1.707l.333-.373-.014-.013-.015-.01-.306.395zm.943 1.303l-.468.176.468-.175zm-.29 3.243l-.384-.32-.003.003.386.318zm-5.04 5.105l-.354.353v.003l.353-.357zm15.78 0l.352.356.003-.004-.354-.353zm-.89-3.622l.307-.393-.307.395zM17.8 22.34l.387-.317-.386.318zm-.286-3.243l.468.176-.468-.175zm.943-1.303l-.306-.395-.013.01-.013.012.333.372zm1.707-1.708l-.022-.5-.23.01-.143.184.394.306zm3.875-.8l.18.467-.18-.465zm3.107-1.752l-.318-.386.317.386zm2.013-2.336l.433.25-.433-.25zM4 11.538l.332-.374-.332.374zM2.3 6.9v-.5h-.5v.5h.5zm4.602 0h.5v-.5h-.5v.5zm1.33 6.67l-.1.488.964.2-.41-.897-.454.21zm17.676-2.032l.332.374-.332-.374zM27.605 6.9h.5v-.5h-.5v.5zm-4.6 0v-.5h-.5v.5h.5zm-1.33 6.67l-.456-.21-.41.897.965-.198-.1-.49zM28.18 5.1c.347 0 .626.116.867.358l.706-.708c-.43-.43-.964-.65-1.574-.65v1zm-5.178 0h5.178v-1h-5.178v1zm-.5-2.225V4.6h1V2.876h-1zm-.698-1.677c.47.47.698 1.02.698 1.677h1c0-.924-.335-1.728-.99-2.384l-.708.708zM20.13.5c.657 0 1.207.228 1.676.698l.708-.707c-.656-.655-1.46-.99-2.385-.99v1zM9.776.5H20.13v-1H9.776v1zM8.1 1.198C8.57.728 9.12.5 9.777.5v-1c-.924 0-1.73.335-2.385.99L8.1 1.2zm-.698 1.677c0-.657.228-1.207.698-1.677L7.392.49c-.655.657-.99 1.46-.99 2.385h1zm0 1.726V2.876h-1V4.6h1zm-5.677.5h5.177v-1H1.725v1zm-.868.357c.242-.24.52-.356.868-.356v-1c-.61 0-1.144.22-1.575.65l.707.707zm-.357.87c0-.35.116-.63.357-.87L.15 4.75c-.43.43-.65.965-.65 1.576h1zm0 2.3v-2.3h-1v2.3h1zm.68 2.32c-.472-.81-.685-1.54-.68-2.32h-1c.005.92.288 1.902.813 2.82l.866-.5zm1.897 2.2c-.813-.667-1.425-1.377-1.898-2.2l-.867.5c.523.9 1.252 1.748 2.13 2.472l.634-.774zm2.972 1.67c-1.196-.458-2.164-1.002-2.972-1.67l-.636.77c.88.723 1.985 1.347 3.247 1.835l.36-.934zm3.714.768c-1.316-.057-2.527-.306-3.715-.767l-.36.933c1.265.488 2.635.77 4.03.834l.044-1zm1.99 1.812c-.61-.472-1.135-.996-1.617-1.62l-.79.614c.522.672 1.137 1.286 1.796 1.797l.612-.79zm1.107 1.522c-.2-.524-.584-1.056-1.077-1.5l-.667.745c.417.37.662.705.81 1.106l.934-.35zm.292 1.783c0-.65-.102-1.275-.292-1.784l-.935.35c.158.415.23.862.227 1.433h1zm-.664 1.954c.42-.52.658-1.227.664-1.954h-1c.007.567-.118.95-.433 1.316l.768.637zm-2.136.847c.89 0 1.644-.248 2.137-.848l-.773-.635c-.236.288-.65.484-1.365.484v1zm-2.092.712c.632-.5 1.275-.72 2.092-.712v-1c-.98.006-1.935.332-2.706.923l.614.79zm-.858 1.663c0-.66.27-1.205.858-1.664l-.614-.79c-.813.633-1.244 1.46-1.244 2.453h1zm0 1.15v-1.15h-1v1.15h1zm.014.06l-.007-.01c-.003-.005-.008-.02-.008-.05h-1c0 .282.094.553.307.766l.706-.706zm.06.015c-.03 0-.043-.005-.046-.006-.003-.003-.008-.005-.016-.013l-.703.712c.213.207.48.305.767.305v-1zm14.954 0H7.477v1H22.43v-1zm.063-.018c-.01.01-.014.01-.016.012-.004 0-.017.005-.047.005v1c.287 0 .554-.098.765-.306l-.702-.713zm.01-.058c0 .03-.004.045-.005.05l-.008.01.708.706c.212-.213.306-.484.306-.767h-1zm0-1.15v1.15h1v-1.15h-1zm-.857-1.664c.59.46.858 1.003.858 1.663h1c0-.994-.43-1.82-1.244-2.453l-.614.79zm-2.093-.712c.818-.007 1.462.212 2.093.712l.614-.79c-.77-.59-1.725-.916-2.707-.922v1zm-2.138-.848c.494.6 1.25.848 2.138.848v-1c-.714 0-1.13-.196-1.366-.483l-.772.636zm-.66-1.953c.005.727.243 1.435.66 1.954l.77-.637c-.312-.367-.438-.75-.43-1.317h-1zm.29-1.784c-.188.508-.29 1.132-.29 1.783h1c-.003-.57.068-1.018.227-1.432l-.936-.35zm1.08-1.5c-.494.444-.878.976-1.08 1.5l.937.35c.146-.4.39-.736.81-1.105l-.668-.746zm1.644-1.642c-.483.623-1.008 1.147-1.62 1.62l.613.79c.66-.512 1.274-1.126 1.796-1.797l-.79-.612zm4.09-.96c-1.19.46-2.402.71-3.718.767l.044 1c1.395-.064 2.765-.347 4.033-.834l-.36-.932zm2.97-1.671c-.81.668-1.778 1.213-2.97 1.67l.36.934c1.26-.486 2.366-1.11 3.244-1.832l-.635-.77zm1.897-2.2c-.473.823-1.084 1.533-1.898 2.2l.634.772c.878-.725 1.606-1.572 2.13-2.474l-.867-.5zm.68-2.32c.004.78-.21 1.51-.68 2.32l.866.5c.525-.918.808-1.9.813-2.82h-1zm0-2.3v2.3h1v-2.3h-1zm-.358-.87c.24.24.356.52.356.87h1c0-.61-.22-1.147-.65-1.577l-.707.707zM1.8 8.627c0 1.145.693 2.24 1.868 3.284l.664-.746c-1.09-.97-1.53-1.815-1.53-2.538h-1zm0-1.726v1.726h1V6.9h-1zm5.102-.5h-4.6v1h4.6v-1zm1.785 6.96C7.82 11.475 7.4 9.357 7.402 6.9h-1c.003 2.554.468 4.88 1.376 6.876l.91-.415zm-5.02-1.45c1.187 1.05 2.716 1.785 4.465 2.148l.2-.98c-1.63-.33-2.924-.95-4-1.914l-.664.747zm23.438-3.284c0 .724-.44 1.57-1.53 2.54l.666.746c1.174-1.044 1.866-2.14 1.866-3.286h-1zm0-1.725v1.726h1V6.9h-1zm-4.1.5h4.6v-1h-4.6v1zm-.876 6.377c.906-1.995 1.372-4.323 1.374-6.876h-1c.002 2.456-.42 4.574-1.285 6.46l.91.417zm3.446-2.613c-1.077.964-2.372 1.583-4.003 1.915l.202.98c1.748-.365 3.277-1.1 4.465-2.148l-.664-.748z"/></defs></svg>