<svg height="237" width="460" xmlns="http://www.w3.org/2000/svg" viewBox="0 0 460 237"><path fill="#fefefe" fill-rule="evenodd" d="M240.92 129.21h.02-.02zm35.15 22.74h-.01.01zm0 0"/><path stroke-width=".271" stroke="#cdcbcb" fill="none" fill-rule="evenodd" d="M240.92 129.21h.02-.02zm35.15 22.74h-.01.01zm0 0"/><path fill="#2375df" fill-rule="evenodd" d="M250.89 131.7c-.63 1.01-.9 4.2-.68 6.31.08.7.21 1.28.39 1.63.25.48.68.76 1.16.78.31.02.5-.04 6.33-1.91 0 0 2.59-.83 2.61-.83.64-.17 1.08-.76 1.12-1.52.04-.78-.36-1.47-1.02-1.71l-1.83-.75c-6.27-2.58-6.55-2.69-6.87-2.69-.48-.02-.91.23-1.21.69M264.91 150.96c.1-.29.11-.5.13-6.62 0 0 .01-2.71.02-2.74.04-.66-.39-1.26-1.09-1.53-.73-.28-1.51-.11-1.95.43 0 0-1.27 1.52-1.28 1.52-4.39 5.16-4.57 5.4-4.68 5.7-.06.18-.09.37-.07.56.03.28.15.55.36.8 1.01 1.21 5.9 3 7.46 2.74.54-.1.93-.4 1.1-.86"/><path fill="none" fill-rule="evenodd" d="M279.74 148.95v-10.81h-11.57v10.81h11.57zm0 0"/><path fill="#2375df" fill-rule="evenodd" d="M274.81 148.83c1.47-.59 4.69-4.67 4.91-6.25.08-.54-.09-1.01-.47-1.31-.25-.19-.44-.26-6.26-2.17 0 0-2.56-.85-2.59-.87-.62-.24-1.32-.01-1.8.57-.49.6-.57 1.4-.18 2l1.03 1.67c3.46 5.62 3.73 6.02 3.98 6.21.38.3.87.35 1.38.15M271.8 134.36c6.62-1.6 6.88-1.69 7.14-1.85.4-.28.6-.73.57-1.28v-.06c-.17-1.62-3.02-5.85-4.42-6.54-.5-.24-1-.22-1.41.06-.26.16-.44.41-3.99 5.26 0 0-1.6 2.19-1.62 2.21-.43.51-.43 1.25-.02 1.88.43.65 1.15.97 1.81.79 0 0-.02.04-.03.05.32-.12.91-.26 1.97-.52M265.15 128.9c-.11-2.63-.9-14.32-1-14.86-.13-.49-.51-.84-1.06-.98-1.69-.42-8.15 1.39-9.35 2.63-.39.4-.53.89-.41 1.33.18.39 8.19 12.98 8.19 12.98 1.18 1.92 2.15 1.63 2.47 1.53.31-.1 1.27-.4 1.16-2.63M183.14 156.6c.84.77 2.42.99 4.34.6 1.8-.36 2.91-1.16 3.99-4.57l5.35-16.81c.27-.9.25-1.67-.06-2.25-.26-.46-.69-.77-1.3-.93-.95-.26-2.14-.24-2.89 2.32l-2.81 9.54-5.72-10.8c-.36-.73-1.42-1.24-2.5-.81-1.4.53-1.87 1.79-1.31 3.42 0 0 6.96 14.15 6.97 14.2 0 0 .19.5.19.58 0 0 .07.39.07.4-.02.54-.2 1-.53 1.31-.32.3-.76.46-1.28.43 0 0-1.09-.02-1.17-.02-1.12.14-1.82.78-1.93 1.77-.08.63.13 1.19.59 1.62M210.55 140.66h-7.45c-.2-.14-.3-.39-.15-1.13.1-.39.2-.74.49-1.24.1-.14.2-.29.3-.44.54-.69 1.28-1.13 2.12-1.33 2.62-.64 4.44.69 4.74 2.96.14.99.05 1.18-.05 1.18m4.57-1.29c-.24-2.43-1.17-4.33-2.71-5.49-1.64-1.24-3.95-1.64-6.7-1.15-3.44.6-5.5 3.06-5.97 7.12-.58 4.85.21 8.51 2.32 10.58 1.58 1.57 3.92 2.19 6.77 1.8 4.07-.57 5.89-2.8 5.89-4.21 0-1.04-.63-1.85-1.55-1.98-.52-.1-.97 0-1.95.88-1.42 1.24-3.07 1.74-4.53 1.37-1.11-.28-1.97-1.05-2.37-2.1 0 0-.17-.7-.16-.62-.12-.62-.17-1.24.21-1.49l.1-.08h8.93c.82 0 1.24-.1 1.48-.36.49-.55.45-2.1.24-4.27M223.21 126.52c-.71-.29-1.5-.21-2.2.21-.67.4-.95 1-.95 2.1v21.28s.12.76.13.8c.15.53.54.98 1.08 1.23.61.28 1.31.27 1.93-.02.78-.34 1.24-1.11 1.24-2.08v-21.32s-.14-1.03-.14-1.05c-.13-.5-.53-.92-1.09-1.15M240.06 148.14c-2.95 0-3.42-2.62-3.51-4.59-.01 0-.04-1.16-.04-1.16s.03-.85.03-.89c.19-3.41.9-4.76 2.7-5.14 1.21-.28 2.14-.14 2.83.42 1.05.84 1.51 2.62 1.46 5.58-.03 3.47-.63 5.78-3.47 5.78m.22-15.63c-1.98-.4-3.67-.06-5.29 1.04 0 0-.18.15-.26.19l-.14.07-.45.2-.12-.5-.11-.18-.03-.11-.02-.03s-.1-.15-.12-.17c-.47-.73-1.73-1.06-2.88-.41-.56.32-.88.77-.88 2.1v20.89c0 1.14.36 1.85 1.15 2.23.66.33 1.41.36 2.04.08.55-.23.95-.66 1.1-1.17l.13-.89v-3.62l-.04-.58.01-.17.03-.08.21-.69.66.43s.16.11.23.18l.2.14.22.13c.01 0 .21.1.21.1 1.76.83 4.11.73 5.99-.24 2.38-1.24 3.55-3.44 3.82-7.14.57-7.38-1.13-10.91-5.66-11.8M249.43 149.77h.25c.2 0 .38 0 .38-.23 0-.2-.17-.22-.32-.22h-.31v.45zm-.2-.63h.53c.34 0 .5.13.5.41 0 .26-.17.36-.38.39l.41.63h-.21l-.39-.62h-.26v.62h-.2v-1.43zm.46 1.75c.58 0 1.04-.45 1.04-1.05 0-.59-.46-1.04-1.04-1.04-.57 0-1.04.45-1.04 1.05 0 .59.47 1.04 1.04 1.04zm0-2.27c.68 0 1.24.52 1.24 1.22s-.56 1.23-1.24 1.23c-.67 0-1.23-.53-1.23-1.22 0-.71.56-1.23 1.23-1.23zm0 0M196.59 38.35l4.77 13.94 3.1-9.25c.55-1.6 1.03-3.18 1.46-4.51h6.41l-6.38 15.61c-1.03 2.54-1.64 4.03-2.22 5.78l-4.8.28-6.35-15.4c-.76-1.91-1.73-4.33-2.58-6.18l6.59-.27zm0 0M234.56 49.29c0-4.06-2.06-6.55-4.95-6.55-3.07 0-5.07 2.88-5.07 6.37 0 4.06 2.09 6.54 4.98 6.54 3.07 0 5.04-2.88 5.04-6.36m-15.92.45c0-6.76 4.5-11.73 11.21-11.73 6.41 0 10.64 4.7 10.64 10.64 0 6.76-4.53 11.73-11.21 11.73-6.41 0-10.64-4.73-10.64-10.64"/><path fill="none" fill-rule="evenodd" d="M269.19 60.08v-21.7h-22.3v21.7h22.3zm0 0"/><path fill="#2375df" fill-rule="evenodd" d="M246.89 59.83l7.39-10.91-2.89-4.21-4.16-6.09 6.71-.24 4.38 6.82 1.49-2.55c.75-1.24 1.82-2.94 2.58-4.12h6.62l-7.05 10.55 2.61 3.81c1.22 1.82 3.29 4.97 4.62 6.94l-6.77.25-4.5-7.25-1.4 2.28c-.66 1.12-2.12 3.45-2.94 4.72h-6.69zm0 0"/><path fill="#f5a11d" fill-rule="evenodd" d="M245.66 0v18.3l-16.28-9.15L245.66 0zm0 0"/><path fill="#fee954" fill-rule="evenodd" d="M213.1 0v18.3l16.28-9.15L213.1 0zm0 0"/><path fill="#f37b21" fill-rule="evenodd" d="M229.38 9.15v18.3l16.28-9.15-16.28-9.15zm0 0"/><path fill="#ffe504" fill-rule="evenodd" d="M229.38 9.15v18.3l-16.27-9.15 16.27-9.15zm0 0"/><path fill="#f3a01f" fill-rule="evenodd" d="M219.29 72.33l-.1-4.7-2.2 3.85h-.07l-2.21-3.86-.09 4.71h-.46l.2-5.96.11-.01 2.5 4.45 2.47-4.45.11.01.2 5.96h-.46zm0 0"/><path fill="#2375df" fill-rule="evenodd" d="M219.97 72.54h-.89l-.09-4.13-1.87 3.29h-.33l-1.87-3.29-.09 4.13h-.89l.21-6.35.43-.07 2.39 4.25 2.36-4.25.43.07.21 6.35zm0 0"/><path fill="#f3a01f" fill-rule="evenodd" d="M222.67 72.33v-5.88H226v.4h-2.88v2.29h2.6v.4h-2.6v2.38H226v.41h-3.33zm0 0"/><path fill="#2375df" fill-rule="evenodd" d="M226.21 72.54h-3.76v-6.31h3.76v.83h-2.88v1.87h2.6v.83h-2.6v1.94h2.88v.84zm0 0"/><path fill="#f3a01f" fill-rule="evenodd" d="M230.24 66.78c-.37 0-.75.03-.99.07v5.08c.25.04.6.06 1.03.06 1.88 0 2.83-1.16 2.83-2.66 0-1.4-1.01-2.55-2.87-2.55m.03 5.6c-.57 0-1.1-.04-1.47-.09v-5.8c.37-.05.88-.1 1.44-.1 2.19 0 3.35 1.44 3.35 2.94 0 1.63-1.13 3.05-3.32 3.05"/><path fill="#2375df" fill-rule="evenodd" d="M229.47 71.74c.23.02.5.03.81.03 1.61 0 2.61-.93 2.61-2.44 0-.65-.24-1.23-.67-1.64-.47-.45-1.15-.69-1.98-.69-.28 0-.56.01-.77.04v4.7zm.8.86c-.69 0-1.28-.07-1.5-.1l-.18-.02V66.3l.18-.03c.34-.04.87-.1 1.46-.1 2.35 0 3.58 1.59 3.58 3.16 0 1.63-1.1 3.27-3.54 3.27zm0 0"/><path fill="none" fill-rule="evenodd" d="M190 72.6h79.19V0H190v72.6zm0 0"/><path fill="#f3a01f" fill-rule="evenodd" d="M236.39 72.33h.46v-5.88h-.46v5.88zm0 0"/><path fill="#2375df" fill-rule="evenodd" d="M236.18 72.54h.88v-6.31h-.88v6.31zm0 0"/><path fill="#f3a01f" fill-rule="evenodd" d="M241.98 67.26l-1.22 2.88h2.43l-1.21-2.88zm2.14 5.07l-.76-1.8h-2.77l-.75 1.8h-.48l2.58-5.98h.08l2.59 5.98h-.49zm0 0"/><path fill="#2375df" fill-rule="evenodd" d="M241.09 69.93h1.77l-.88-2.11-.89 2.11zm3.85 2.61h-.96l-.76-1.79h-2.48l-.76 1.79h-.95l2.77-6.41h.37l2.77 6.41zm0 0"/><path fill="none" fill-rule="evenodd" d="M229.38 9.15v18.3l16.28-9.15-16.28-9.15zm0 0M229.38 9.15v18.3l-16.27-9.15 16.27-9.15zm0 0"/><path fill="#2375df" fill-rule="evenodd" d="M245.57 0v18.29L229.3 9.14 245.57 0zm0 0M213.03 0v18.29l16.27-9.15L213.03 0zm0 0"/><path fill="#2375df" fill-rule="evenodd" d="M229.3 9.14v18.29l16.27-9.14-16.27-9.15zm0 0M229.3 9.14v18.29l-16.27-9.14 16.27-9.15zm0 0M97.31 143.05v.86c.16.49.54.81 1.23.92.38-.06.65-.17.97-.43.59-.86.43-1.62-.48-2.15-.86-.32-1.51.16-1.72.8"/><path fill="#3e71b8" fill-rule="evenodd" d="M97.31 140.58v.49c.07 0 .07-.07.07-.14 0-.14 0-.28-.07-.35"/><path fill="#2375df" fill-rule="evenodd" d="M97.31 140.96v-.38c-.06-.16-.22-.16-.43.06-.43.85-1.02 1.66-1.83 2.2-1.66.8-3.17.48-4.67-.49-1.4-1.12-2.04-3-2.1-4.72 0-.49.06-.92.06-1.4.32-1.72.85-3.01 2.41-3.76 1.19-.38 3.6-.22 3.6 1.5-.05.22-.21.54-.21.81 0 1.07.64 2.04 1.88 1.56.64-.38.81-1.02.75-1.72-.86-1.99-3.01-3.17-5.1-3.28-2.37 0-4.19.97-5.59 2.96-.65 1.02-1.02 1.93-1.18 3.17-.11 2.36.53 4.24 2.2 5.91.91.86 1.88 1.34 3.17 1.5.27.05.54.05.86.11.7 0 1.29-.06 2.04-.22 1.99-.59 3.39-1.82 4.14-3.81"/><path fill="#3e71b8" fill-rule="evenodd" d="M97.33 143.91v-.86c-.07.27-.14.59 0 .86"/><path fill="#2375df" fill-rule="evenodd" d="M51.42 143.32v1.78h.54c1.72-.11 3.11-.49 4.35-1.72.59-.7 1.02-1.4 1.4-2.21.16-.53-.17-.75-.54-.43-.48.81-.86 1.4-1.56 1.99-1.29.97-2.85 1.08-4.19.59M51.42 136.87v.97l6.39-.05c.43-.22-.32-2.15-.48-2.53-1.24-2.31-3.06-3.6-5.7-3.87h-.21v.97c.21 0 .43.05.7.11 1.88.43 2.47 2.58 2.42 4.35 0 0-.06 0-.06.05h-3.06zm0 0M61.2 144.77s-.8.16-.21-.43c.53-.16 1.02-.21 1.39-.64.33-.54.33-1.08.43-1.61l-.05-14.46c-.11-.91-.16-1.66-1.02-2.04-.43-.11-.81-.05-.91-.43.05-.11.1-.11.21-.16h7.15c.32.05.32.21.05.43-.54.11-.59.05-1.18.32-.65.27-.59 1.99-.59 1.99 0 2.04 0 12.47.05 14.51.22 1.45.38 1.72 1.77 2.04.33.16.22.38-.1.48H61.2zm0 0M69.74 144.77c-.32 0-1.02-.1-.32-.48.97-.27 1.18-.32 1.45-1.34v-7.58c-.16-1.13-.7-1.4-1.77-1.56-.27-.21-.16-.43.16-.48 1.13 0 2.04-.06 3.12-.59.43-.33 1.07-.76 1.45-1.24.37-.27.32.11.32.43 0 .48-.11 1.29.05 1.77.76-1.12 1.56-1.82 2.85-2.14 1.35-.27 2.31-.17 3.6.37 1.02.65 1.56 1.08 1.99 2.26.05.54.16 1.07.16 1.61v7.15c.27 1.02.49 1.07 1.51 1.39.37.27.05.38-.22.43h-6.02c-.48-.1-.53-.32-.1-.48.8-.22 1.29-.32 1.45-1.18v-8.12c-.11-1.02-.49-1.55-1.35-1.98-.48-.17-.8-.17-1.29-.06-1.29.38-2.36 1.61-2.63 2.9v5.7c.05.91 0 2.09.91 2.58.06 0 1.4.27.76.59-.11 0-.22 0-.27.05h-5.81zm0 0"/><path fill="none" fill-rule="evenodd" d="M44.57 145.1h6.85v-13.71h-6.85v13.71zm0 0"/><path fill="#2375df" fill-rule="evenodd" d="M51.42 132.36v-.97c-2.53.06-4.3 1.08-5.75 3.07-1.29 2.2-1.5 4.56-.32 6.87 1.18 2.15 2.9 3.28 5.32 3.71.27 0 .27 0 .48.06h.27v-1.78c-.59-.21-1.13-.48-1.56-.91-.8-.92-1.23-1.77-1.45-2.9-.05-.43-.27-1.29-.16-1.62 0-.05.05-.05.05-.05h3.12v-.97h-3.06c-.27 0 .1-1.66.16-1.88.37-1.45 1.4-2.58 2.9-2.63M17.09 133.11v11.66l4.19-.05c.48-.32-.59-.54-.7-.54-.97-.48-.81-1.61-.91-2.58v-9.08c0-.27.05-.64-.06-.86-.32 0-.59.32-.8.54-.54.43-1.13.7-1.72.91M17.09 125.05v2.26c.86.65 1.5 1.5 1.93 2.74.11.32.05.97.43 1.13.22-.11.16-.22.16-.43v-5.7h-2.52zm0 0M21.98 144.77c-.81-.32.69-.64.91-.75.48-.43.54-1.13.59-1.72v-6.82c-.11-1.24-.75-1.51-1.83-1.67-.43-.21-.05-.43.22-.48 1.61 0 3.01-.59 4.24-1.67.22-.1.22-.21.49-.21.37.37 0 1.72.16 2.25.11-.1.27-.37.37-.53.27-.38.65-.65 1.02-.97.7-.48 1.29-.7 2.15-.75 1.35 0 2.74.32 3.66 1.45.05.05.59 1.02.64 1.07 0-.05 0-.05.06-.05.86-1.51 1.93-2.31 3.65-2.53 2.04 0 3.87.86 4.46 2.96v8.6c.21 1.02.54 1.07 1.5 1.34.49.32.06.43-.27.48h-5.91c-.42-.05-.59-.16-.21-.48.86-.22 1.18-.22 1.4-1.18.05-.33.1-.7.16-1.08v-6.93c-.16-1.07-.38-1.56-1.35-2.09-1.77-.38-2.9.69-3.27 2.36l-.06 6.72c.06.64.06 1.45.59 1.88.17.1 1.67.48.92.8h-6.4c-.75-.32.81-.7.92-.75.59-.43.59-1.4.64-2.04l-.05-7.09c-.22-1.88-1.72-2.37-3.28-1.62-.32.22-.59.49-.81.81-.32.59-.48 1.02-.53 1.72v6.45c.11.8.11 1.5.86 1.88.16.05 1.45.32.64.64h-6.28zm0 0M17.09 127.31v-2.26L0 125.11v5.85c.38.6.54-.32.59-.64.22-.75.59-1.88 1.29-2.36 1.34-1.51 3.92-2.32 5.91-1.99v.1l.05 14.19c-.05.97.22 3.22-.91 3.81-.27.11-.54.17-.8.22-.17.11-.38.16-.22.43l7.74.05c.75-.32-.81-.7-.92-.75-.91-.54-.86-1.83-.91-2.69v-15.2c.05-.06.05-.11.05-.16.76-.11 1.51 0 2.26.05 1.13.27 2.15.65 2.96 1.29"/><path fill="#2375df" fill-rule="evenodd" d="M17.09 144.77v-11.66c-.43.11-.86.22-1.29.22-.33 0-.65.05-.97.05-.22.06-.48.22-.11.38 1.24.11 1.61 1.02 1.67 2.15v7.04c-.22 1.02-.43 1.12-1.45 1.34-.38.21-.38.43.1.54l2.05-.06zm0 0"/><path fill="none" fill-rule="evenodd" d="M366.55 214.08H360v17.32h13.1v-17.32h-6.55zm0 0"/><path fill="#2375df" fill-rule="evenodd" d="M369.32 226.18c0-1.09-.78-1.97-2.21-1.97h-3.41v3.95h3.41c1.38 0 2.21-.73 2.21-1.98zm-.34-7.04c0-1.06-.78-1.81-2.03-1.81h-3.25v3.63h3.25c1.25 0 2.03-.7 2.03-1.82zM360 231.4v-17.32h7.76c3.31 0 5 2.1 5 4.41 0 2.16-1.35 3.64-3 3.98 1.88.28 3.34 2.08 3.34 4.23 0 2.62-1.72 4.7-5.06 4.7H360zm0 0M386.74 231.4v-2.47l5.68-7.19h-5.68v-2.88h10.19v2.36l-5.78 7.3h5.89v2.88h-10.3zm0 0M397.88 231.4v-2.47l5.69-7.19h-5.69v-2.88h10.19v2.36l-5.78 7.3h5.89v2.88h-10.3zm0 0M410.12 231.4v-17.32h12.07v3.25h-8.37v3.63h6.3v3.25h-6.3v7.19h-3.7zm0 0M427.4 221.25c-2.06 0-2.94 1.43-3.07 2.67h6.2c-.11-1.19-.94-2.67-3.13-2.67m-6.51 3.87c0-3.64 2.71-6.57 6.51-6.57 3.78 0 6.31 2.8 6.31 6.88v.78h-9.36c.24 1.53 1.49 2.8 3.63 2.8 1.06 0 2.52-.44 3.33-1.22l1.49 2.18c-1.25 1.15-3.23 1.74-5.19 1.74-3.83 0-6.72-2.57-6.72-6.59M440.87 221.25c-2.05 0-2.94 1.43-3.07 2.67h6.2c-.1-1.19-.94-2.67-3.13-2.67m-6.51 3.87c0-3.64 2.71-6.57 6.51-6.57 3.78 0 6.31 2.8 6.31 6.88v.78h-9.35c.23 1.53 1.48 2.8 3.62 2.8 1.07 0 2.53-.44 3.33-1.22l1.49 2.18c-1.25 1.15-3.23 1.74-5.19 1.74-3.83 0-6.72-2.57-6.72-6.59M456.7 225.12c0-1.95-1.18-3.57-3.49-3.57h-2.06v7.16h2.04c2.22 0 3.51-1.72 3.51-3.59zm-8.7 6.31v-12.6h5.08c3.98 0 6.84 2.38 6.84 6.29s-2.86 6.31-6.82 6.31H448zm0 0"/><path fill="none" fill-rule="evenodd" d="M373.76 231.73h11.99v-12.87h-11.99v12.87zm0 0"/><path fill="#2375df" fill-rule="evenodd" d="M373.76 226.39v-7.53h3.33v7.41c0 1.5.91 2.58 2.68 2.58 1.75 0 2.67-1.08 2.67-2.58v-7.41h3.31v7.51c0 3.15-1.9 5.36-5.98 5.36-4.07 0-6.01-2.23-6.01-5.34"/><path fill="none" fill-rule="evenodd" d="M99.99 63.29H0v-46.1h99.99v46.1zm0 0"/><path fill="#2375df" fill-rule="evenodd" d="M31.67 17.21c0-.02-8.61 0-8.61 0C10.33 17.21 0 27.52 0 40.24s10.33 23.03 23.06 23.03l16.18-.02c4.07 0 7.36-3.26 7.36-7.32l.01-14.05L57.79 59.5c1.51 2.28 4.11 3.79 7.06 3.79 4.67 0 8.45-3.78 8.45-8.44V41.88L84.48 59.5c1.51 2.28 4.11 3.79 7.06 3.79 4.67 0 8.45-3.78 8.45-8.44V17.19h-5.76v37.66c0 1.49-1.2 2.69-2.69 2.69-.93 0-1.75-.47-2.24-1.19l-19.9-31.3c-.19-.27-.49-.44-.84-.44-.57 0-1.02.45-1.02 1.01v29.23c0 1.49-1.2 2.69-2.69 2.69-.93 0-1.75-.47-2.24-1.19l-19.9-31.3c-.18-.27-.49-.44-.84-.44-.56 0-1.02.45-1.02 1.01l-.01 30.31c0 .88-.71 1.6-1.6 1.6l-16.18-.01c-9.56 0-17.3-7.74-17.3-17.28 0-9.55 7.74-17.28 17.3-17.28l8.61-.01v-5.74zm0 0"/><path fill="#2375df" fill-rule="evenodd" d="M32.59 50.14c.46 0 .82-.37.82-.82l.01-23.7c0-4.66 3.78-8.44 8.45-8.44 2.96 0 5.56 1.52 7.07 3.82l11.15 17.46.02-12.84c0-4.66 3.78-8.44 8.45-8.44 2.96 0 5.56 1.52 7.07 3.82l11.15 17.46V17.19h5.79l-.01 37.66c0 .56-.46 1.02-1.02 1.02-.34 0-.63-.16-.82-.41L70.79 24.12c-.48-.72-1.3-1.19-2.23-1.19-1.49 0-2.7 1.21-2.7 2.69l.01 29.23c0 .56-.46 1.02-1.02 1.02-.34 0-.63-.16-.82-.41L44.1 24.12c-.48-.72-1.3-1.19-2.23-1.19-1.49 0-2.7 1.21-2.7 2.69l.01 29.46c0 .45-.36.82-.82.82h-15.3c-8.63 0-15.63-7.04-15.63-15.66 0-8.62 7-15.66 15.63-15.66 0 0 8.61-.04 8.61 0v5.8h-8.61c-5.45 0-9.87 4.41-9.87 9.86 0 5.44 4.42 9.91 9.87 9.91l9.53-.01zm0 0"/><path fill="none" fill-rule="evenodd" d="M12.03 218.3H0V231h12.03v-12.7zm0 0"/><path fill="#2375df" fill-rule="evenodd" d="M5.18 227.44c.75.13 3.15-.42 3.96-3.27.83-2.93.41-2.35-2 .15-1.3 1.35-2.33 3.06-1.96 3.12m2.11 1.86c2.6-.93 2.57-4.32 2.15-3.37-.43.93-.7 1.68-1.62 2.2-.71.41-1.22.45-2.1.44-.73-.02-1.4-.62-1.61.29-.23 1.01 2.22.78 3.18.44m-2.2-4.4c2-2.77 4.98-3.76 4.64-4.1-.41-.41-2.2.14-2.2.14-2.79.98-5.82 2.8-6.01 5.09-.07.66.13 1.92.98 2.44.58.36 1.59-2.2 2.59-3.57m-1.96-2.44c1.11-.82 3.24-1.49 2.79-1.47-1.55.05-4.69 1.32-4.84 3.28-.05.62.94-1 2.05-1.81m-2.74 7.36c-.18-.26.54-.4.67-.7.65-1.24-.5-.73-.99-3.57-.95-5.36 8.23-5.36 9.45-5.57 1.12-.19-.02-1.68.86-1.68.3 0 0 .77.3.88.3.13.48-.7.79-.44.43.36-.4.69-.18.92.17.16.56-.15.69.06.23.34-.39.57-.95.67-2.02.34 2.32 9.17-4.72 10.39-1.86.35-2.72-1.28-4.11-.48-.34.19-.58.94-.8.63-.13-.19.22-.5 0-.63-.14-.09-.35.27-.5.14-.12-.11.05-.29-.07-.44-.09-.14-.32-.01-.44-.18M19.1 231.3c-2.17 0-2.57-1.65-2.57-3.28v-1.76l-1.17.05v-2.12l1.17.03v-2.74l2.66-.27v3.03l1.73-.05v2.12l-1.73-.06v1.72c0 .77.23 1.05.78 1.05.29 0 .68-.05.85-.18l.58 1.84c-.27.19-.72.62-2.3.62M24.99 224.65s1.09-.69 2.79-.69c1.29 0 1.93 1.15 1.93 2.42v4.77h-2.66v-3.23c0-1.17 0-1.97-.96-1.97-.5 0-1.1.37-1.1.37v4.83h-2.67v-11.13l2.67-.22v4.85zm0 0M34.77 225.74c-.66 0-1.52.4-1.63.82h2.18c.25 0 .55 0 .55-.21 0-.5-.49-.61-1.1-.61m-.33 5.66c-2.4 0-3.79-1.6-3.79-4.02 0-2.16 1.82-3.56 4.1-3.56 2.02 0 3.59 1.39 3.59 3.6v.57h-5.22c0 .83.98 1.22 1.69 1.22.84 0 1.3-.22 1.57-.44l1.29 1.4c-.33.28-1.36 1.23-3.23 1.23"/><path fill="none" fill-rule="evenodd" d="M43.44 231.5h11.35v-11.64H43.44v11.64zm0 0"/><path fill="#2375df" fill-rule="evenodd" d="M49.12 227.67c1.04 0 2-.9 2-2.18 0-1.03-.96-1.9-2-1.9-1.06 0-2.02.87-2.02 1.9 0 1.28.96 2.18 2.02 2.18m0 3.83c-3.23 0-5.68-2.51-5.68-6.01 0-3.28 2.78-5.63 5.68-5.63 2.88 0 5.67 2.35 5.67 5.63 0 3.5-2.44 6.01-5.67 6.01M62.95 224.75v-4.49l3.63-.24v11.38l-7.03-4.85v4.56h-3.64V219.7l7.04 5.05zm0 0"/><path fill="none" fill-rule="evenodd" d="M0 231.5h99.74v-13.2H0v13.2zm0 0"/><path fill="#2375df" fill-rule="evenodd" d="M68.1 231.11h3.66v-10.85H68.1v10.85zm0 0M78.57 227.67c1.05 0 2.01-.9 2.01-2.18 0-1.03-.96-1.9-2.01-1.9-1.05 0-2.01.87-2.01 1.9 0 1.28.96 2.18 2.01 2.18m0 3.83c-3.23 0-5.67-2.51-5.67-6.01 0-3.28 2.77-5.63 5.67-5.63 2.89 0 5.68 2.35 5.68 5.63 0 3.5-2.44 6.01-5.68 6.01M92.41 224.75v-4.49l3.63-.24v11.38l-7.03-4.85v4.56h-3.65V219.7l7.05 5.05zm0 0M98.61 221.05c.17 0 .45.03.45-.23 0-.19-.18-.21-.32-.21h-.36v.44h.23zm.59.68h-.19l-.35-.57h-.28v.57h-.15v-1.23h.54c.1 0 .22 0 .3.06.1.06.14.16.14.27 0 .25-.17.33-.38.33l.37.57zm.41-.61c0-.54-.42-.97-.97-.97-.53 0-.97.43-.97.97s.44.97.97.97c.55 0 .97-.43.97-.97zm-2.07 0c0-.62.49-1.1 1.1-1.1.62 0 1.1.48 1.1 1.1 0 .61-.48 1.1-1.1 1.1-.61 0-1.1-.49-1.1-1.1zm0 0M387.25 132.65c.16.32.07.75-.1 1.04l-1.3 2.92-.01.02-.47-2.97c-.04-.28.26-.41.44-.54-.01-.04-.05-.04-.08-.06l-.44-.01-.01-.01c0-.37.2-.71.53-.89.35-.2.85-.15 1.15.11.13.12.23.24.29.39M384.86 132.55c.1.19.16.41.12.66l-.52 3.4-.01.01-.14-.27-1.33-2.97c-.12-.38-.01-.78.27-1.06s.74-.36 1.11-.2c.2.08.38.23.5.43M389.17 133.98c.18.3.14.76-.06 1.04-.12.2-.32.3-.5.43l-2.75 1.89h-.01l.04-.09 1.46-3.29c.21-.39.63-.59 1.07-.53.3.06.61.25.75.55M382.92 133.96l1.52 3.38h-.03l-3.06-2.11c-.31-.26-.44-.65-.33-1.05.08-.3.33-.58.62-.69.48-.17 1.02.01 1.28.47M389.97 136.36c.15.33.09.77-.12 1.04-.22.26-.51.41-.85.4h-3.26l2.73-1.9c.27-.17.67-.2.97-.07.22.09.43.31.53.53M380.31 136.36c-.16.33-.1.77.12 1.04.22.26.51.41.85.4h3.26l-2.73-1.9c-.27-.17-.68-.2-.97-.07-.22.09-.44.31-.53.53M356.3 132.85c0-.1-.03-.17-.3-.19v-.13h2.6v.13c-.25.01-.3.07-.3.14 0 .12 1.86 2.1 2.62 2.93v-2.88c0-.13-.09-.18-.23-.19v-.13h1.98v.13c-.27.02-.31.09-.31.19v5.03c0 .09.04.17.31.19v.13h-2.05v-.13c.19 0 .24-.04.24-.12 0-.14-.27-.28-3.11-3.46v3.39c0 .09.03.17.3.19v.13H356v-.13c.27-.02.3-.1.3-.19v-5.03zm0 0M365.73 137.06h1.83c.76 0 1.06-.18 1.06-.65 0-.47-.3-.65-1.06-.65h-1.83v1.3zm0-2.4h1.46c.93 0 1.17-.06 1.17-.49s-.24-.5-1.17-.5h-1.46v.99zm-1.62-1.81c0-.1-.03-.17-.3-.19v-.13h4.11c1.16 0 2.01.43 2.01 1.5 0 .64-.43 1.04-1.03 1.17v.02c.72.2 1.25.59 1.25 1.38 0 .87-.65 1.6-2.18 1.6h-4.16v-.13c.27-.02.3-.1.3-.19v-5.03zm0 0M376.37 134.62l-.11-.08c.02-.04.03-.08.03-.16 0-.21-.83-.49-1.75-.49-.87 0-2.01.37-2.01 1.47s1.14 1.48 2.01 1.48c.38 0 1.81-.29 1.81-.6 0-.07-.04-.11-.06-.16l.11-.08 1.12 1.69-.13.08c-.04-.08-.08-.09-.15-.09-.22 0-1.22.59-2.83.59-1.73 0-3.56-.98-3.56-2.91 0-1.93 1.83-2.9 3.56-2.9.86 0 1.48.11 1.91.23.42.12.63.2.74.2.07 0 .12-.03.16-.08l.12.03-.97 1.78zm0 0M396.18 132.85c0-.1-.03-.17-.3-.19v-.13h2.22v.13c-.27.02-.3.09-.3.19v2.89c0 1.9-1.33 2.53-2.98 2.53s-2.97-.63-2.97-2.53v-2.89c0-.1-.04-.17-.31-.19v-.13h2.23v.13c-.27.02-.31.09-.31.19v2.89c0 .83.5 1.17 1.36 1.17.87 0 1.36-.34 1.36-1.17v-2.89zm0 0M400.19 132.85c0-.1-.03-.17-.3-.19v-.13h2.6v.13c-.25.01-.3.07-.3.14 0 .12 1.87 2.1 2.62 2.93v-2.88c0-.13-.09-.18-.23-.19v-.13h1.98v.13c-.27.02-.3.09-.3.19v5.03c0 .09.03.17.3.19v.13h-2.05v-.13c.19 0 .25-.04.25-.12 0-.14-.27-.28-3.12-3.46v3.39c0 .09.03.17.3.19v.13h-2.05v-.13c.27-.02.3-.1.3-.19v-5.03zm0 0M408.4 138.2v-.13c.27-.02.3-.1.3-.19v-5.03c0-.1-.03-.17-.3-.19v-.13h2.22v.13c-.27.02-.3.09-.3.19v5.03c0 .09.03.17.3.19v.13h-2.22zm0 0M414.34 138.2v-.13c.13-.02.16-.05.16-.1 0-.09-1.93-4.45-2.16-5.01-.1-.24-.14-.29-.25-.3v-.13h2.21v.13c-.17.01-.22.05-.22.13s.17.34 1.51 3.28c1.29-2.85 1.46-3.17 1.46-3.29 0-.08-.03-.11-.16-.12v-.13h1.85v.13c-.08.02-.13.04-.16.14-.11.34-2.17 5.01-2.17 5.16 0 .06.06.1.16.1v.14h-2.23zm0 0M424.27 136.13h-.13c-.04-.14-.11-.25-.33-.25h-2v1.01h3.46c.12 0 .16-.06.19-.33h.13v1.88h-.13c-.03-.18-.07-.24-.19-.24h-5.38v-.13c.27-.02.3-.1.3-.19v-5.03c0-.1-.03-.17-.3-.19v-.13h5.38c.12 0 .16-.06.19-.3h.13v1.87h-.13c-.03-.25-.07-.3-.19-.3h-3.46v.9h2c.22 0 .29-.11.33-.25h.13v1.68zm0 0M429.21 134.92h1.82c.63 0 .83-.28.83-.59 0-.31-.2-.59-.83-.59h-1.82v1.18zm0 2.96c0 .09.04.17.31.19v.13h-2.23v-.13c.27-.02.31-.1.31-.19v-5.03c0-.1-.04-.17-.31-.19v-.13h3.95c1.6 0 2.28.56 2.28 1.79 0 .99-.65 1.52-1.54 1.77l1.27 1.79c.1.14.19.19.31.19v.13h-2.24v-.13c.15-.01.24-.06.24-.19 0-.1-1.15-1.59-1.29-1.81h-1.06v1.81zm0 0M435.45 135.96l.11.05c-.03.06-.03.13-.03.23 0 .29 1.16.77 2.28.77 1.08 0 1.56-.25 1.56-.73 0-.8-4.44.09-4.44-1.99 0-1.08 1.04-1.83 2.62-1.83 1.48 0 2.55.46 2.84.46.14 0 .21-.08.29-.17l.12.05-.75 1.5-.13-.07v-.12c0-.27-1.23-.57-2.24-.57-.94 0-1.26.26-1.26.51 0 .96 4.46-.22 4.46 2.26 0 .93-.7 1.96-3.04 1.96-1.8 0-2.6-.5-2.85-.5-.08 0-.15.08-.21.14l-.13-.03.8-1.92zm0 0M443.74 136.11h2.01l-1.05-2.57-.96 2.57zm-.27.86c-.28.79-.34.93-.34.99 0 .07.04.11.19.11v.13h-1.91v-.13c.15-.03.22-.07.28-.25.1-.24 1.92-4.99 1.92-5.06 0-.07-.12-.09-.21-.1v-.13h2.81v.13c-.12.01-.19.03-.19.14 0 .08 1.32 3.31 1.99 4.95.11.26.17.32.3.32v.13h-2.12v-.13c.15-.01.2-.06.2-.13 0-.04-.32-.83-.36-.97h-2.56zm0 0"/><path fill="none" fill-rule="evenodd" d="M455.58 138.48v-5.95h-5.95v5.95h5.95zm0 0"/><path fill="#2375df" fill-rule="evenodd" d="M451.55 136.89h3.71c.12 0 .16-.06.19-.31h.13v1.9h-.13c-.03-.22-.07-.28-.19-.28h-5.63v-.13c.27-.02.3-.1.3-.19v-5.03c0-.1-.03-.17-.3-.19v-.13h2.22v.13c-.27.02-.3.09-.3.19v4.04zm0 0M387.52 129.92c2.6-7.18 9.69-12.34 18.04-12.34 8.33 0 15.42 5.15 18.03 12.32.16.43.3.52.16.01-2.16-7.85-9.55-13.91-18.22-13.91-8.77 0-16.14 5.91-18.2 13.9-.15.61-.03.63.19.02M387.52 140.79c2.6 7.18 9.69 12.34 18.04 12.34 8.33 0 15.42-5.15 18.03-12.32.16-.43.3-.52.16 0-2.16 7.84-9.55 13.9-18.22 13.9-8.77 0-16.14-5.91-18.2-13.89-.15-.62-.03-.63.19-.03M225.94 209v26.9h6.05v-4.81l2.08-1.99 4.1 6.8h7.86l-7.56-10.83 7.16-6.99H237l-3.4 4-1.61 2.02V209h-6.05zm0 0M203.68 218.14l-2.26 12.07-2.94-12.07h-7l-2.93 12.07-2.27-12.07H180l4.61 17.69h8.1l2.27-9.32 2.27 9.32h8.1l4.62-17.69h-6.29zm0 0M273.13 229.21c-.77 1-1.98 1.67-3.56 1.67-1.81 0-3.25-1.17-3.25-3.95 0-2.79 1.44-3.96 3.25-3.96 1.58 0 2.78.67 3.56 1.67v4.57zm6.04-6.01l.34-5.17h-5.54l-.41 1.91c-1.27-1.34-2.85-2.45-5.63-2.45-5.03 0-7.78 3.25-7.78 9.42 0 6.19 2.75 9.43 7.78 9.43 2.78 0 4.36-1.1 5.63-2.44l.41 1.91h5.54l-.34-5.17v-7.44zm0 0M216.46 209.1c-1.91 0-3.45 1.55-3.45 3.46s1.54 3.46 3.45 3.46c1.91 0 3.45-1.55 3.45-3.46s-1.54-3.46-3.45-3.46M221.67 221.76v-3.79h-8.66v17.97h8.66v-3.78h-2.72v-10.4h2.72zm0 0M253.68 209.1c1.9 0 3.45 1.55 3.45 3.46s-1.55 3.46-3.45 3.46c-1.91 0-3.46-1.55-3.46-3.46-.01-1.91 1.54-3.46 3.46-3.46M248.46 221.76v-3.79h8.67v17.97h-8.67v-3.78h2.71v-10.4h-2.71zm0 0M417.58 21.9c.02-2.48-1.92-4.53-4.31-4.57-2.39-.04-4.43 2.05-4.43 4.54 0 2.45 1.93 4.47 4.28 4.49 2.49.02 4.44-1.94 4.46-4.46m12.98-.09c-.34 7.27-3.38 12.88-9.96 16.19-7.2 3.62-15.63 1.57-20.76-4.8-5.98-7.41-5.01-18.68 2.14-24.94 9.08-7.93 23.05-4.34 27.33 7.06.38 1.03.69 2.1.89 3.18.21 1.11.25 2.25.36 3.31M371.38 56.2c.01-2.45-1.99-4.54-4.35-4.55-2.33 0-4.29 2.03-4.33 4.48-.03 2.4 1.96 4.49 4.31 4.5 2.38.01 4.35-2 4.37-4.43m-4.33 7.25c-3.95.01-7.04-3.15-7.05-7.21-.01-4.14 3.09-7.4 7.04-7.4 3.91.01 7.09 3.29 7.09 7.32 0 4.07-3.1 7.27-7.08 7.29"/><path fill="none" fill-rule="evenodd" d="M376.07 67.29h9.94V52.76h-9.94v14.53zm0 0"/><path fill="#2375df" fill-rule="evenodd" d="M383.24 57.7c-.01-.51-.24-1.32-.92-1.92-.72-.63-1.55-.69-2.4-.31-.78.36-1.27.93-1.23 1.86.04.83-.02 1.65.03 2.47.02.25.21.59.43.7 2.08 1.1 4.09-.11 4.09-2.8m-5.11-3.86c.88-.34 1.79-.9 2.76-1.04 2.04-.28 3.86.93 4.65 2.89.53 1.33.61 2.7.22 4.08-.75 2.61-2.95 3.99-5.64 3.54-.43-.08-.86-.16-1.42-.26 0 1.12-.04 2.19.01 3.26.04.72-.17 1-.95.98-1.85-.05-1.69.17-1.69-1.65V53.99c0-.94.85-1.45 1.66-.94.26.16.32.62.4.79M430.95 57.72c0 .35.02.72-.01 1.07-.07.89.36 1.48 1.13 1.85.83.4 1.66.36 2.4-.23 1.02-.8 1.3-2.62.63-3.89-.59-1.1-1.72-1.5-3.14-1.13-.71.18-1.16.5-1.02 1.33.05.32.01.66.01 1m-.65 4.33c-.09.55-.03 1.1-.81 1.1-1.09 0-1.21-.06-1.21-1.14V49.89c0-1.01.03-1.05 1.04-1.05 1.8.01 1.62-.16 1.63 1.63 0 .77 0 1.54.01 2.31 0 .08.04.15.08.3.42-.08.84-.17 1.26-.25 3.01-.54 5.49 1.33 5.78 4.36.15 1.56-.05 3.03-1 4.33-1.56 2.13-4.27 2.49-6.36.85-.11-.1-.24-.18-.42-.32M394.28 56.74c-.06-1.03-.73-1.66-1.74-1.73-.98-.06-2.13.67-2.09 1.73h3.83zm-4.02 1.86c.19 2.08 2.24 2.98 4.1 1.9.3-.17.82-.46.91-.37.44.43.78.96 1.09 1.49.05.09-.17.41-.34.54-1.61 1.25-3.42 1.63-5.33.86-1.91-.77-2.89-2.31-3.08-4.3-.28-2.96 1.31-5.3 3.9-5.86 3.13-.69 5.93 1.88 5.54 5.03-.08.57-.37.72-.89.72-1.95-.02-3.89-.01-5.9-.01zm0 0M451.62 56.75c-.11-1.1-.8-1.73-1.85-1.73-1.13-.01-1.88.63-2 1.73h3.85zm-4.01 1.85c.01 1.53 1.34 2.59 2.87 2.31.49-.09 1-.31 1.41-.59.46-.31.72-.33 1.07.15.99 1.32.97 1.49-.5 2.28-3.35 1.81-7.23-.3-7.54-4.08-.24-2.94 1.35-5.27 3.95-5.83 3.02-.64 5.77 1.8 5.5 4.85-.07.68-.3.94-1.01.92-1.66-.04-3.32-.01-4.98-.01h-.77zm0 0M401.21 54.04c1.18-1.16 2.58-1.51 4.16-1.18 1.54.32 2.57 1.29 2.71 2.97.18 2.23.13 4.47.17 6.71 0 .08 0 .17-.04.22-.59.74-1.39.27-2.1.36-.48.05-.55-.36-.55-.75 0-1.72.01-3.45-.01-5.17-.01-1.13-.45-1.73-1.32-1.91-1.26-.27-2.48.7-2.48 1.98-.01 1.68-.02 3.35.01 5.02.01.64-.22.87-.86.86-2.07-.03-1.81.17-1.82-1.76-.01-2.42-.01-4.84.01-7.26 0-.49-.23-1.14.67-1.18 1.15-.07 1.26-.01 1.45 1.09M414.65 51.46v.99c0 3.24-.02 6.48.01 9.72.01.72-.19 1.01-.96.98-2.1-.06-1.83.24-1.84-1.79-.01-3.01-.03-6.02.02-9.03.01-.73-.23-.93-.93-.89-.83.06-1.66.01-2.49.02-.41 0-.63-.14-.62-.58.05-2.47-.34-2.01 1.88-2.03 2.69-.03 5.39.01 8.09-.02.65-.01.85.21.84.84-.06 2.12.26 1.75-1.83 1.79-.69.01-1.39 0-2.17 0M423.39 59.49c.21-.67-.26-.89-.9-1-1.22-.22-2.19.28-2.32 1.21-.13.87.44 1.58 1.32 1.65 1.02.07 1.9-.73 1.9-1.86m-.01-2.72c.15-1.16-.36-1.77-1.62-1.69-.75.04-1.5.15-2.23.31-.49.11-.69.02-.81-.49-.38-1.56-.39-1.66 1.22-1.9 1.09-.16 2.23-.26 3.32-.15 1.5.16 2.29.96 2.48 2.45.17 1.29.14 2.61.18 3.92.02.98 0 1.96 0 2.93 0 .46.11.99-.63.99-.6-.01-1.35.2-1.27-.76-.76.31-1.49.73-2.27.91-2.02.48-3.78-.67-4.07-2.55-.34-2.19.86-3.77 3.07-3.95.86-.08 1.74-.02 2.63-.02M387.06 26.28c-2.38 0-4.29-2-4.26-4.47.02-2.41 1.97-4.41 4.29-4.41 2.39.01 4.3 2 4.28 4.48-.01 2.51-1.87 4.41-4.31 4.4M442.64 54.66c0 1.62 0 3.24-.01 4.86 0 .44.02.82.58.94.14.03.27.26.34.43.06.13.02.3.02.46.02 1.78.02 1.78-.89 1.79-1.98.03-2.71-.5-2.71-2-.01-3.78.01-7.57-.02-11.35 0-.73.26-.94.96-.92 1.8.06 1.73-.28 1.73 1.7-.01 1.36 0 2.73 0 4.09M459.32 54.78c.01-.95-.61-1.66-1.45-1.68-.83-.01-1.5.72-1.51 1.65-.02.92.63 1.65 1.47 1.66.86.01 1.49-.68 1.49-1.63m-3.32-.06c.01-1.18.79-1.99 1.9-1.97 1.08.02 1.84.87 1.82 2.06-.02 1.17-.79 1.97-1.91 1.95-1.1-.01-1.82-.82-1.81-2.04"/><path fill="#fff" fill-rule="evenodd" d="M417.58 21.9c-.02 2.52-1.97 4.48-4.46 4.46-2.35-.02-4.28-2.04-4.28-4.49 0-2.49 2.04-4.58 4.43-4.54 2.39.04 4.33 2.09 4.31 4.57M371.38 56.2c-.02 2.43-1.99 4.44-4.37 4.43-2.35-.01-4.34-2.1-4.31-4.5.04-2.45 2-4.48 4.33-4.48 2.36.01 4.36 2.1 4.35 4.55M383.24 57.7c0 2.69-2.01 3.9-4.09 2.8-.22-.11-.41-.45-.43-.7-.05-.82.01-1.64-.03-2.47-.04-.93.45-1.5 1.23-1.86.85-.38 1.68-.32 2.4.31.68.6.91 1.41.92 1.92M430.95 57.72c0-.34.04-.68-.01-1-.14-.83.31-1.15 1.02-1.33 1.42-.37 2.55.03 3.14 1.13.67 1.27.39 3.09-.63 3.89-.74.59-1.57.63-2.4.23-.77-.37-1.2-.96-1.13-1.85.03-.35.01-.72.01-1.07M394.28 56.74h-3.83c-.04-1.06 1.11-1.79 2.09-1.73 1.01.07 1.68.7 1.74 1.73M451.62 56.75h-3.85c.12-1.1.87-1.74 2-1.73 1.05 0 1.74.63 1.85 1.73M423.39 59.49c0 1.13-.88 1.93-1.9 1.86-.88-.07-1.45-.78-1.32-1.65.13-.93 1.1-1.43 2.32-1.21.64.11 1.11.33.9 1M457.11 53.71c.04.74.08 1.39.11 2.04.08 0 .16-.01.25-.01.05-.23.1-.46.2-.85.33.38.56.65.79.92.07-.53.2-.96.15-1.38-.03-.26-.29-.56-.53-.69-.21-.12-.55-.03-.97-.03m2.21 1.07c0 .95-.63 1.64-1.49 1.63-.84-.01-1.49-.74-1.47-1.66.01-.93.68-1.66 1.51-1.65.84.02 1.46.73 1.45 1.68"/><path fill="#2375df" fill-rule="evenodd" d="M457.11 53.71c.42 0 .76-.09.97.03.24.13.5.43.53.69.05.42-.08.85-.15 1.38-.23-.27-.46-.54-.79-.92-.1.39-.15.62-.2.85-.09 0-.17.01-.25.01-.03-.65-.07-1.3-.11-2.04"/></svg>