<svg id="Слой_1" xmlns="http://www.w3.org/2000/svg" viewBox="0 0 100 28"><style>.st0{fill:#2375DF;}</style><path id="Fill-1" class="st0" d="M45.9 0v26.9H52v-4.8l2.1-2 4.1 6.8H66l-7.5-10.8 7.1-7H57l-3.4 4-1.6 2V0z"/><path id="Fill-2" class="st0" d="M23.7 9.1l-2.3 12.1-2.9-12.1H11.5l-3 12.1L6.3 9.1H0l4.6 17.7h8.1l2.3-9.3 2.2 9.3h8.2L30 9.1z"/><path id="Fill-3" class="st0" d="M93.1 20.2c-.8 1-2 1.7-3.6 1.7-1.8 0-3.3-1.2-3.3-4s1.4-4 3.3-4c1.6 0 2.8.7 3.6 1.7v4.6zm6.1-6l.3-5.2H94l-.4 1.9c-1.3-1.3-2.8-2.5-5.6-2.5-5 0-7.8 3.3-7.8 9.4 0 6.2 2.7 9.4 7.8 9.4 2.8 0 4.4-1.1 5.6-2.4l.4 1.9h5.5l-.3-5.2v-7.3z"/><path id="Fill-5" class="st0" d="M36.5.1C34.6.1 33 1.6 33 3.6S34.6 7 36.5 7 40 5.5 40 3.5 38.4.1 36.5.1"/><path id="Fill-7" class="st0" d="M41.7 12.8V9H33V26.9h8.7v-3.7h-2.8V12.8z"/><path id="Fill-9" class="st0" d="M73.7.1c1.9 0 3.5 1.5 3.5 3.5S75.6 7 73.7 7s-3.5-1.5-3.5-3.5c0-1.8 1.6-3.4 3.5-3.4"/><path id="Fill-11" class="st0" d="M68.5 12.8V9h8.6V26.9h-8.6v-3.7h2.7V12.8z"/></svg>