<svg width="32" height="32" viewBox="0 0 32 32" xmlns="http://www.w3.org/2000/svg" xmlns:xlink="http://www.w3.org/1999/xlink" xmlns:figma="http://www.figma.com/figma/ns"><title>screenshot</title><desc>Created using Figma</desc><g style="mix-blend-mode:normal" figma:type="vector-operation" transform="translate(1.1 1.1)"><use xlink:href="#a" fill="#979797" style="mix-blend-mode:normal"/><use xlink:href="#a" fill="#7A7F85" style="mix-blend-mode:normal"/></g><defs><path id="a" d="M29.427 12.783l-.354.354.354-.354zm0 4.23l.353.353-.353-.354zm-3.647.368v-.5h-.398l-.09.39.488.11zm-2.997 5.403l.354.354-.354-.354zM17.38 25.78l-.11-.487-.39.09v.397h.5zm-.368 3.647l-.354-.354.354.354zm-4.23 0l-.352.354.353-.353zm-.367-3.647h.5v-.398l-.388-.09-.112.488zm-5.402-2.997l.353-.353-.353.353zM4.015 17.38l.487-.11-.09-.39h-.397v.5zm-3.647-.367l.353-.355-.352.354zm0-4.23l.353.354h.002l-.354-.354zm3.647-.368v.5h.398l.09-.388-.488-.112zm2.998-5.403l.353.354-.353-.354zm5.402-2.997l.112.488.388-.09v-.398h-.5zM17.012.37l-.354.352.354-.353zm.37 3.645h-.5v.4l.387.088.11-.488zm5.4 2.997l.355-.353-.354.352zm2.998 5.403l-.487.112.09.388h.397v-.5zm-5.55 4.598l-.352.353.353-.354zm0-4.23l-.352-.353.353.353zm2.99-.368v.5h.67l-.19-.642-.48.142zM21.037 8.76l-.354.352.354-.353zM17.38 6.575l.143-.48-.642-.19v.67h.5zm-.368 2.987l-.354-.353.354.353zm-4.23 0l-.352.354.353-.354zm-.367-2.987h.5v-.67l-.642.19.142.48zM8.758 8.76l.353.352-.352-.353zm-2.183 3.655l-.48-.142-.19.642h.67v-.5zm2.987.368l-.354.354.354-.354zm0 4.23l-.353-.355.352.354zm-2.987.368v-.5h-.67l.19.643.48-.142zm2.183 3.657l.353-.353-.352.353zm3.657 2.183l-.142.48.642.19v-.67h-.5zm.368-2.988l-.353-.354.353.354zm4.23 0l-.355.354.354-.354zm.368 2.988h-.5v.67l.643-.19-.142-.48zm3.657-2.183l-.353-.353.353.353zm2.183-3.656l.48.143.19-.642h-.67v.5zm6.56-4.95c-.336-.336-.753-.515-1.226-.515v1c.198 0 .363.066.52.222l.706-.707zm.515 1.226c0-.473-.178-.89-.515-1.226l-.706.707c.154.155.22.32.22.52h1zm0 2.483v-2.484h-1v2.483h1zm-.515 1.226c.336-.336.515-.753.515-1.227h-1c0 .198-.067.364-.222.52l.707.706zm-1.226.515c.473 0 .89-.178 1.226-.514l-.706-.707c-.157.154-.322.22-.52.22v1zm-2.774 0h2.774v-1H25.78v1zm-2.643 5.257c1.565-1.572 2.63-3.495 3.13-5.644l-.974-.224c-.46 2.014-1.39 3.693-2.863 5.16l.707.707zm-5.644 3.13c2.15-.5 4.072-1.565 5.644-3.13l-.707-.707c-1.467 1.474-3.146 2.405-5.16 2.863l.223.975zm.388 2.287V25.78h-1v2.774h1zm-.515 1.227c.336-.335.516-.752.516-1.226h-1c0 .2-.066.364-.22.52l.705.707zm-1.226.516c.473 0 .89-.18 1.225-.515l-.707-.706c-.155.155-.32.222-.52.222v1zm-2.484 0h2.483v-1h-2.484v1zm-1.226-.515c.336.336.753.516 1.226.516v-1c-.198 0-.364-.067-.52-.223l-.706.708zm-.515-1.226c0 .473.178.89.515 1.227l.706-.707c-.154-.154-.22-.32-.22-.52h-1zm0-2.774v2.774h1V25.78h-1zM6.66 23.137c1.57 1.565 3.493 2.63 5.643 3.13l.224-.974c-2.016-.458-3.695-1.39-5.16-2.863l-.708.707zm-3.133-5.644c.5 2.15 1.567 4.072 3.132 5.644l.706-.707c-1.474-1.467-2.406-3.146-2.864-5.16l-.975.223zm-2.286.388h2.775v-1H1.24v1zm-1.225-.514c.336.336.753.515 1.226.515v-1c-.197 0-.362-.066-.52-.22l-.705.706zM-.5 16.14c0 .472.178.89.515 1.226l.706-.708c-.153-.154-.22-.32-.22-.52h-1zm0-2.484v2.483h1v-2.484h-1zm.515-1.226c-.337.336-.515.753-.515 1.226h1c0-.2.066-.364.22-.52l-.705-.706zm1.226-.515c-.472 0-.89.18-1.225.515l.707.707c.156-.156.32-.222.52-.222v-1zm2.775 0H1.24v1h2.775v-1zM6.66 6.66c-1.566 1.57-2.634 3.494-3.133 5.643l.975.224c.458-2.015 1.39-3.694 2.864-5.16l-.707-.708zm5.643-3.132c-2.15.5-4.072 1.566-5.644 3.13l.706.708c1.467-1.474 3.145-2.405 5.16-2.863l-.223-.975zm-.388-2.287v2.775h1V1.24h-1zM12.43.016c-.337.336-.515.754-.515 1.226h1c0-.198.067-.363.22-.517L12.43.015zM13.656-.5c-.474 0-.89.18-1.226.515l.706.708c.157-.156.322-.223.52-.223v-1zm2.483 0h-2.484v1h2.483v-1zm1.226.515C17.03-.32 16.613-.5 16.14-.5v1c.198 0 .363.067.518.222l.708-.707zm.515 1.226c0-.472-.18-.89-.515-1.225l-.706.708c.154.155.22.32.22.518h1zm0 2.775V1.24h-1v2.775h1zm5.257 2.644c-1.572-1.566-3.495-2.633-5.644-3.132l-.224.975c2.014.458 3.693 1.39 5.16 2.863l.707-.707zm3.13 5.643c-.5-2.15-1.566-4.072-3.13-5.644l-.707.706c1.472 1.467 2.404 3.146 2.863 5.16l.974-.223zm2.287-.388H25.78v1h2.774v-1zm-8.676 5.45c.336.337.753.516 1.227.516v-1c-.2 0-.364-.066-.52-.22l-.707.706zm-.515-1.226c0 .473.18.89.515 1.226l.707-.707c-.155-.156-.222-.322-.222-.52h-1zm0-2.484v2.483h1v-2.484h-1zm.515-1.226c-.335.336-.515.752-.515 1.226h1c0-.198.067-.364.222-.52l-.707-.706zm1.227-.515c-.474 0-.89.18-1.227.515l.707.707c.156-.156.32-.222.52-.222v-1zm2.115 0h-2.115v1h2.115v-1zm-2.536-2.803c1 .995 1.664 2.107 2.056 3.445l.96-.284c-.436-1.456-1.227-2.78-2.31-3.868l-.706.707zM17.24 7.055c1.337.393 2.45 1.057 3.444 2.057l.707-.707c-1.087-1.082-2.412-1.873-3.867-2.308l-.284.958zm.64 1.636V6.577h-1V8.69h1zm-.515 1.227c.336-.336.516-.752.516-1.226h-1c0 .2-.066.364-.222.52l.707.707zm-1.226.515c.473 0 .89-.18 1.226-.515l-.708-.707c-.155.155-.32.222-.52.222v1zm-2.484 0h2.483v-1h-2.484v1zm-1.226-.515c.336.336.753.515 1.226.515v-1c-.198 0-.364-.067-.52-.222l-.706.707zm-.515-1.226c0 .474.178.89.515 1.227l.707-.707c-.156-.155-.222-.32-.222-.52h-1zm0-2.114V8.69h1V6.577h-1zM9.11 9.112c.996-1 2.108-1.664 3.447-2.057l-.284-.958c-1.456.435-2.78 1.226-3.87 2.308l.708.707zm-2.055 3.445c.392-1.338 1.056-2.45 2.056-3.445l-.706-.707c-1.082 1.087-1.873 2.412-2.308 3.868l.96.284zm1.634-.642H6.574v1H8.69v-1zm1.227.515c-.336-.336-.753-.515-1.228-.515v1c.2 0 .364.067.518.222l.71-.707zm.515 1.226c0-.474-.18-.89-.516-1.226l-.707.707c.155.156.222.32.222.52h1zm0 2.483v-2.484h-1v2.483h1zm-.516 1.226c.336-.335.516-.753.516-1.227h-1c0 .198-.067.363-.223.518l.706.708zm-1.227.515c.474 0 .89-.178 1.226-.514l-.707-.707c-.156.154-.32.22-.52.22v1zm-2.115 0H8.69v-1H6.574v1zm2.536 2.804c-1-.995-1.663-2.107-2.055-3.445l-.96.283c.436 1.456 1.227 2.78 2.31 3.868l.706-.706zm3.447 2.056c-1.34-.392-2.45-1.056-3.446-2.056l-.706.707c1.088 1.083 2.413 1.874 3.87 2.31l.283-.96zm-.642-1.635v2.115h1v-2.115h-1zm.515-1.226c-.337.335-.515.752-.515 1.225h1c0-.2.066-.364.222-.52l-.707-.706zm1.226-.516c-.473 0-.89.18-1.226.514l.706.708c.156-.155.322-.222.52-.222v-1zm2.483 0h-2.484v1h2.483v-1zm1.226.515c-.336-.337-.753-.516-1.227-.516v1c.198 0 .363.067.518.222l.708-.707zm.515 1.225c0-.474-.18-.89-.515-1.226l-.707.706c.156.156.223.32.223.52h1zm0 2.115v-2.115h-1v2.115h1zm2.804-2.536c-.995 1-2.107 1.664-3.445 2.057l.283.96c1.455-.436 2.78-1.227 3.868-2.31l-.706-.706zm2.056-3.445c-.392 1.337-1.056 2.45-2.056 3.444l.707.707c1.083-1.086 1.874-2.41 2.31-3.867l-.96-.284zm-1.635.64h2.115v-1h-2.115v1z"/></defs></svg>