<svg width="265" height="74" viewBox="0 0 265 74" xmlns="http://www.w3.org/2000/svg" xmlns:xlink="http://www.w3.org/1999/xlink" xmlns:figma="http://www.figma.com/figma/ns"><title>Group 10</title><desc>Created using Figma</desc><g style="mix-blend-mode:normal" figma:type="frame"><use xlink:href="#a" transform="translate(22 14)" fill="#FFF" style="mix-blend-mode:normal" figma:type="text"/><use xlink:href="#b" transform="translate(163 8)" fill="#FFF" style="mix-blend-mode:normal" figma:type="vector"/><g style="mix-blend-mode:normal" figma:type="vector" transform="translate(-2703 -2349)"><mask id="d"><use xlink:href="#c" fill="#fff" transform="translate(2703 2349)"/></mask><use xlink:href="#e" transform="translate(2703 2349)" fill="#FFF" style="mix-blend-mode:normal" mask="url(#d)"/></g><use xlink:href="#f" transform="rotate(-90 149.365 -76.125)" fill="#FFF" style="mix-blend-mode:normal" figma:type="vector-operation"/></g><defs><path id="a" d="M9.694 11.207l1.32-5.25h1.175l-2 6.87h-.953L7.567 7.62l-1.624 5.206H4.99L3 5.958h1.168L5.518 11.1l1.6-5.142h.945l1.63 5.25zm9.776 0l1.32-5.25h1.174l-2 6.87h-.95l-1.67-5.206-1.626 5.206h-.952l-1.993-6.868h1.168l1.353 5.142 1.6-5.142h.945l1.632 5.25zm9.775 0l1.32-5.25h1.175l-2 6.87h-.952l-1.67-5.206-1.624 5.206h-.953L22.55 5.958h1.168l1.352 5.142 1.6-5.142h.946l1.63 5.25zm2.933 1.003c0-.203.06-.372.178-.507.122-.136.304-.204.545-.204.243 0 .425.067.547.203.127.135.19.304.19.507 0 .195-.063.358-.19.49-.123.13-.304.196-.546.196-.24 0-.422-.066-.544-.197-.12-.132-.178-.295-.178-.49zm4.507-6.252l.03.762c.505-.593 1.184-.89 2.04-.89.96 0 1.613.37 1.96 1.106.23-.33.525-.597.89-.8.367-.203.8-.305 1.3-.305 1.507 0 2.273.8 2.298 2.394v4.602H44.03V8.294c0-.49-.113-.857-.338-1.098-.224-.246-.6-.368-1.13-.368-.435 0-.797.13-1.085.393-.288.26-.455.608-.5 1.05v4.556h-1.182v-4.5c0-1-.49-1.498-1.466-1.498-.772 0-1.298.328-1.582.984v5.014h-1.174V5.958h1.11zm12.542 5.148l1.6-5.148h1.257l-2.76 7.928c-.43 1.143-1.108 1.714-2.04 1.714l-.22-.02-.44-.082v-.952l.318.026c.398 0 .707-.08.927-.24.223-.162.408-.456.55-.884l.262-.698-2.45-6.792h1.282l1.713 5.148zm9.992.1l1.32-5.248h1.173l-2 6.868h-.95l-1.67-5.205-1.626 5.206h-.952l-1.993-6.868h1.168l1.352 5.142 1.6-5.142h.945l1.632 5.25zm6.543 1.747c-.93 0-1.688-.305-2.272-.914-.583-.614-.875-1.433-.875-2.457v-.216c0-.682.13-1.29.387-1.822.262-.538.626-.956 1.092-1.257.47-.305.977-.457 1.523-.457.893 0 1.587.295 2.082.883.494.59.742 1.43.742 2.527v.49H63.79c.016.676.213 1.224.59 1.643.38.414.863.622 1.447.622.414 0 .766-.085 1.053-.254.288-.168.54-.393.756-.672l.717.56c-.575.883-1.44 1.325-2.59 1.325zm-.146-6.157c-.474 0-.872.173-1.193.52-.322.343-.52.826-.597 1.448h3.44v-.09c-.033-.596-.194-1.057-.482-1.383-.288-.33-.677-.494-1.168-.494zM75.62 9.468c0 1.05-.24 1.894-.723 2.533-.482.636-1.13.953-1.942.953-.867 0-1.538-.307-2.012-.92l-.057.793h-1.08v-9.75h1.175v3.637c.475-.588 1.13-.882 1.962-.882.834 0 1.488.316 1.962.947.478.63.717 1.494.717 2.59v.1zm-1.173-.133c0-.8-.155-1.418-.464-1.854-.31-.434-.753-.652-1.333-.652-.774 0-1.33.36-1.67 1.08v2.97c.36.72.92 1.079 1.683 1.079.563 0 1-.218 1.314-.654.313-.436.47-1.092.47-1.968zm6.66 1.67c0-.318-.122-.563-.363-.737-.237-.178-.654-.33-1.25-.457-.593-.126-1.065-.278-1.416-.456-.347-.178-.606-.39-.775-.635-.165-.246-.247-.538-.247-.877 0-.563.237-1.04.71-1.428.48-.39 1.088-.584 1.83-.584.777 0 1.408.202 1.89.604.487.402.73.916.73 1.543h-1.18c0-.322-.138-.6-.413-.832-.27-.233-.614-.35-1.028-.35-.428 0-.762.094-1.003.28-.24.186-.362.43-.362.73 0 .284.112.497.336.64.225.145.63.283 1.213.414.587.13 1.063.287 1.427.47.364.18.633.4.806.66.178.253.267.564.267.932 0 .614-.246 1.106-.737 1.48-.49.367-1.127.55-1.91.55-.55 0-1.037-.096-1.46-.29-.423-.196-.755-.466-.997-.813-.237-.353-.355-.73-.355-1.138h1.175c.02.394.178.707.47.94.296.228.685.343 1.168.343.444 0 .8-.09 1.066-.267.27-.182.406-.423.406-.724zm3.978 1.82H83.91V5.96h1.175v6.868zm-1.27-8.69c0-.19.058-.35.172-.48.12-.132.292-.198.52-.198.23 0 .403.066.52.197.12.13.18.292.18.482s-.06.35-.18.476c-.117.127-.29.19-.52.19-.228 0-.4-.063-.52-.19-.114-.127-.17-.285-.17-.476zm4.75.16v1.663h1.28v.908h-1.28v4.26c0 .274.056.48.17.62.115.136.31.204.584.204.135 0 .32-.025.558-.076v.952c-.31.085-.61.127-.9.127-.526 0-.922-.16-1.188-.476-.267-.317-.4-.768-.4-1.352v-4.26h-1.25V5.96h1.25V4.295h1.174zm5.51 8.658c-.932 0-1.69-.305-2.274-.914-.583-.614-.875-1.433-.875-2.457v-.216c0-.682.13-1.29.388-1.822.262-.538.626-.956 1.09-1.257.47-.305.98-.457 1.525-.457.893 0 1.587.295 2.082.883.495.59.742 1.43.742 2.527v.49H92.1c.017.676.213 1.224.59 1.643.38.414.863.622 1.447.622.415 0 .766-.085 1.054-.254.29-.168.54-.393.756-.672l.718.56c-.576.883-1.44 1.325-2.59 1.325zm-.147-6.157c-.474 0-.872.173-1.194.52-.32.343-.52.826-.596 1.448h3.44v-.09c-.034-.596-.195-1.057-.482-1.383-.288-.33-.677-.494-1.168-.494zm4.215 5.414c0-.203.06-.372.177-.507.123-.136.305-.204.546-.204.24 0 .423.067.546.203.127.135.19.304.19.507 0 .195-.063.358-.19.49-.123.13-.305.196-.546.196-.24 0-.423-.066-.546-.197-.118-.132-.177-.295-.177-.49zm6.157-.215c.42 0 .785-.127 1.098-.38.313-.255.487-.572.52-.953h1.11c-.02.393-.155.768-.405 1.123-.25.356-.584.64-1.003.85-.415.212-.855.318-1.32.318-.935 0-1.68-.31-2.235-.933-.55-.626-.825-1.48-.825-2.564V9.26c0-.67.123-1.264.368-1.785.246-.52.597-.925 1.054-1.212.46-.288 1.005-.432 1.63-.432.772 0 1.41.232 1.918.693.512.46.785 1.06.82 1.796h-1.112c-.033-.445-.203-.81-.507-1.092-.3-.288-.672-.432-1.117-.432-.596 0-1.06.216-1.39.647-.326.428-.488 1.048-.488 1.86v.222c0 .792.162 1.4.488 1.829.326.427.792.64 1.397.64zm3.74-2.666c0-.674.13-1.28.392-1.817.267-.537.635-.952 1.105-1.244.474-.293 1.013-.44 1.618-.44.935 0 1.69.325 2.266.972.58.648.87 1.51.87 2.584v.082c0 .67-.128 1.27-.386 1.803-.254.53-.62.943-1.098 1.24-.474.295-1.02.443-1.638.443-.93 0-1.686-.324-2.266-.97-.576-.65-.863-1.506-.863-2.572v-.08zm1.18.138c0 .762.175 1.373.526 1.835.356.46.83.692 1.422.692.597 0 1.07-.233 1.422-.7.35-.468.527-1.124.527-1.966 0-.755-.18-1.364-.54-1.83-.355-.47-.83-.704-1.422-.704-.58 0-1.047.23-1.403.692-.355.46-.533 1.12-.533 1.98zm7.648-3.51l.032.762c.503-.593 1.183-.89 2.038-.89.96 0 1.614.37 1.96 1.106.23-.33.526-.597.89-.8.368-.203.802-.305 1.3-.305 1.507 0 2.273.8 2.3 2.394v4.602h-1.176V8.294c0-.49-.112-.857-.336-1.098-.224-.246-.6-.368-1.13-.368-.436 0-.798.13-1.085.393-.287.26-.454.608-.5 1.05v4.556h-1.18v-4.5c0-1-.49-1.498-1.468-1.498-.77 0-1.297.328-1.58.984v5.014h-1.175V5.958h1.11z"/><path id="b" d="M3 .5V-1H0V.5h3zM0 27.518v1.5h3v-1.5H0zM0 .5v27.018h3V.5H0z"/><path id="c" fill-rule="evenodd" d="M0 0h238v45H0V0z"/><path id="e" d="M0 0v-3h-3v3h3zm238 0h3v-3h-3v3zm0 45v3h3v-3h-3zM0 45h-3v3h3v-3zM0 3h238v-6H0v6zm235-3v45h6V0h-6zm3 42H0v6h238v-6zM3 45V0h-6v45h6z"/><path id="f" fill-rule="evenodd" d="M44.143 11.833c-1.303-1.303-2.847-1.955-4.63-1.955h-9.62c.376-1.03.565-2.127.565-3.293 0-2.092-.7-3.712-2.097-4.862S25.194 0 23.05 0c-.653 0-1.25.15-1.79.45-.54.3-1.01.725-1.414 1.273-.403.55-.75 1.09-1.042 1.62-.29.533-.608 1.15-.95 1.853-.344.704-.627 1.235-.85 1.595-.6.945-1.458 2.05-2.572 3.32-.035.05-.155.197-.36.437-.206.24-.37.425-.49.553-.12.13-.295.313-.527.553-.232.24-.437.433-.617.58-.18.145-.373.3-.58.462-.205.163-.406.283-.604.36-.197.078-.38.116-.553.116H3.294c-.91 0-1.685.323-2.328.966C.322 14.78 0 15.556 0 16.464v16.464c0 .908.322 1.684.965 2.328.643.643 1.42.965 2.328.965H10.7c1.013 0 2.925.507 5.738 1.52 3.24 1.182 6.002 1.773 8.283 1.773 2.42 0 4.365-.69 5.84-2.07 1.475-1.38 2.204-3.263 2.187-5.647 1.03-1.32 1.544-2.848 1.544-4.58 0-.376-.025-.745-.076-1.105.566-.977.883-1.997.952-3.06h4.347c1.8 0 3.35-.652 4.644-1.955s1.94-2.855 1.94-4.656c0-1.768-.65-3.303-1.954-4.607zM6.097 32.44c-.326.325-.712.488-1.158.488-.447 0-.833-.163-1.16-.49-.324-.325-.487-.71-.487-1.157 0-.444.163-.83.488-1.156.327-.326.713-.49 1.16-.49.445 0 .83.164 1.157.49.326.326.488.712.488 1.158 0 .445-.162.83-.488 1.157zm33.415-12.682c.892 0 1.664-.326 2.316-.977.65-.652.977-1.424.977-2.316 0-.875-.334-1.642-1.003-2.302-.67-.66-1.432-.99-2.29-.99H24.696c0-.344.13-.76.386-1.248.258-.49.54-.96.85-1.415.308-.456.59-1.04.85-1.75.256-.712.384-1.437.384-2.174 0-1.15-.38-1.985-1.144-2.508-.763-.523-1.754-.785-2.97-.785-.413 0-1.185 1.192-2.317 3.576-.41.754-.73 1.31-.95 1.67-.687 1.1-1.648 2.342-2.883 3.73-1.217 1.39-2.083 2.3-2.598 2.728-1.183.978-2.384 1.467-3.6 1.467h-.824v16.463h.823c1.236 0 2.667.274 4.297.823 1.63.55 3.288 1.1 4.977 1.647 1.69.55 3.23.823 4.618.823 3.24 0 4.862-1.432 4.862-4.295 0-.447-.043-.927-.13-1.44.516-.275.923-.725 1.223-1.35.3-.627.45-1.257.45-1.892 0-.634-.154-1.226-.463-1.775.91-.857 1.364-1.877 1.364-3.06 0-.43-.086-.905-.258-1.428-.17-.523-.386-.93-.643-1.222h8.515z"/></defs></svg>