<svg height="39" width="100" xmlns="http://www.w3.org/2000/svg" viewBox="0 0 100 39"><path fill="#2375df" fill-rule="evenodd" d="M31.25 16.65c.16.32.07.75-.1 1.04l-1.3 2.92-.01.02-.47-2.97c-.04-.28.26-.41.44-.54-.01-.04-.05-.04-.08-.06l-.44-.01-.01-.01c0-.37.2-.71.53-.89.35-.2.85-.15 1.15.11.13.12.23.24.29.39M28.86 16.55c.1.19.16.41.12.66l-.52 3.4-.01.01-.14-.27-1.33-2.97c-.12-.38-.01-.78.27-1.06s.74-.36 1.11-.2c.2.08.38.23.5.43M33.17 17.98c.18.3.14.76-.06 1.04-.12.2-.32.3-.5.43l-2.75 1.89h-.01l.04-.09 1.46-3.29c.21-.39.63-.59 1.07-.53.3.06.61.25.75.55M26.92 17.96l1.52 3.38h-.03l-3.06-2.11c-.31-.26-.44-.65-.33-1.05.08-.3.33-.58.62-.69.48-.17 1.02.01 1.28.47M33.97 20.36c.15.33.09.77-.12 1.04-.22.26-.51.41-.85.4h-3.26l2.73-1.9c.27-.17.67-.2.97-.07.22.09.43.31.53.53M24.31 20.36c-.16.33-.1.77.12 1.04.22.26.51.41.85.4h3.26l-2.73-1.9c-.27-.17-.68-.2-.97-.07-.22.09-.44.31-.53.53M.3 16.85c0-.1-.03-.17-.3-.19v-.13h2.6v.13c-.25.01-.3.07-.3.14 0 .12 1.86 2.1 2.62 2.93v-2.88c0-.13-.09-.18-.23-.19v-.13h1.98v.13c-.27.02-.31.09-.31.19v5.03c0 .09.04.17.31.19v.13H4.62v-.13c.19 0 .24-.04.24-.12 0-.14-.27-.28-3.11-3.46v3.39c0 .09.03.17.3.19v.13H0v-.13c.27-.02.3-.1.3-.19v-5.03zm0 0M9.73 21.06h1.83c.76 0 1.06-.18 1.06-.65 0-.47-.3-.65-1.06-.65H9.73v1.3zm0-2.4h1.46c.93 0 1.17-.06 1.17-.49s-.24-.5-1.17-.5H9.73v.99zm-1.62-1.81c0-.1-.03-.17-.3-.19v-.13h4.11c1.16 0 2.01.43 2.01 1.5 0 .64-.43 1.04-1.03 1.17v.02c.72.2 1.25.59 1.25 1.38 0 .87-.65 1.6-2.18 1.6H7.81v-.13c.27-.02.3-.1.3-.19v-5.03zm0 0M20.37 18.62l-.11-.08c.02-.04.03-.08.03-.16 0-.21-.83-.49-1.75-.49-.88 0-2.01.37-2.01 1.47s1.13 1.48 2.01 1.48c.38 0 1.81-.29 1.81-.6 0-.07-.04-.11-.06-.16l.11-.08 1.12 1.69-.13.08c-.04-.08-.08-.09-.15-.09-.22 0-1.22.59-2.83.59-1.73 0-3.56-.98-3.56-2.91 0-1.93 1.83-2.9 3.56-2.9.86 0 1.48.11 1.91.23.42.12.63.2.74.2.07 0 .12-.03.16-.08l.12.03-.97 1.78zm0 0M40.18 16.85c0-.1-.03-.17-.3-.19v-.13h2.22v.13c-.27.02-.3.09-.3.19v2.89c0 1.9-1.33 2.53-2.98 2.53s-2.97-.63-2.97-2.53v-2.89c0-.1-.04-.17-.31-.19v-.13h2.23v.13c-.27.02-.31.09-.31.19v2.89c0 .83.5 1.17 1.36 1.17.87 0 1.36-.34 1.36-1.17v-2.89zm0 0M44.19 16.85c0-.1-.03-.17-.3-.19v-.13h2.6v.13c-.25.01-.3.07-.3.14 0 .12 1.87 2.1 2.62 2.93v-2.88c0-.13-.09-.18-.23-.19v-.13h1.98v.13c-.27.02-.3.09-.3.19v5.03c0 .09.03.17.3.19v.13h-2.05v-.13c.19 0 .25-.04.25-.12 0-.14-.27-.28-3.12-3.46v3.39c0 .09.03.17.3.19v.13h-2.05v-.13c.27-.02.3-.1.3-.19v-5.03zm0 0M52.4 22.2v-.13c.27-.02.3-.1.3-.19v-5.03c0-.1-.03-.17-.3-.19v-.13h2.22v.13c-.27.02-.3.09-.3.19v5.03c0 .09.03.17.3.19v.13H52.4zm0 0M58.34 22.2v-.13c.13-.02.16-.05.16-.1 0-.09-1.93-4.45-2.16-5.01-.1-.24-.14-.29-.25-.3v-.13h2.21v.13c-.17.01-.22.05-.22.13s.17.34 1.51 3.28c1.29-2.85 1.46-3.17 1.46-3.29 0-.08-.03-.11-.16-.12v-.13h1.85v.13c-.08.02-.13.04-.16.14-.11.34-2.17 5.01-2.17 5.16 0 .06.06.1.16.1v.14h-2.23zm0 0M68.27 20.13h-.13c-.04-.14-.11-.25-.33-.25h-2v1.01h3.46c.12 0 .16-.06.19-.33h.13v1.88h-.13c-.03-.18-.07-.24-.19-.24h-5.38v-.13c.27-.02.3-.1.3-.19v-5.03c0-.1-.03-.17-.3-.19v-.13h5.38c.12 0 .16-.06.19-.3h.13v1.87h-.13c-.03-.25-.07-.3-.19-.3h-3.46v.9h2c.22 0 .29-.11.33-.25h.13v1.68zm0 0M73.21 18.92h1.82c.63 0 .83-.28.83-.59 0-.31-.2-.59-.83-.59h-1.82v1.18zm0 2.96c0 .09.04.17.31.19v.13h-2.23v-.13c.27-.02.31-.1.31-.19v-5.03c0-.1-.04-.17-.31-.19v-.13h3.95c1.6 0 2.28.56 2.28 1.79 0 .99-.65 1.52-1.54 1.77l1.27 1.79c.1.14.19.19.31.19v.13h-2.24v-.13c.15-.01.24-.06.24-.19 0-.1-1.15-1.59-1.29-1.81h-1.06v1.81zm0 0M79.45 19.96l.11.05c-.03.06-.03.13-.03.23 0 .29 1.16.77 2.28.77 1.08 0 1.56-.25 1.56-.73 0-.8-4.44.09-4.44-1.99 0-1.08 1.04-1.83 2.62-1.83 1.48 0 2.55.46 2.84.46.14 0 .21-.08.29-.17l.12.05-.75 1.5-.13-.07v-.12c0-.27-1.23-.57-2.24-.57-.94 0-1.26.26-1.26.51 0 .96 4.46-.22 4.46 2.26 0 .93-.7 1.96-3.04 1.96-1.8 0-2.6-.5-2.85-.5-.08 0-.15.08-.21.14l-.13-.03.8-1.92zm0 0M87.74 20.11h2.01l-1.05-2.57-.96 2.57zm-.27.86c-.28.79-.34.93-.34.99 0 .07.04.11.19.11v.13h-1.91v-.13c.15-.03.22-.07.28-.25.1-.24 1.92-4.99 1.92-5.06 0-.07-.12-.09-.21-.1v-.13h2.81v.13c-.12.01-.19.03-.19.14 0 .08 1.32 3.31 1.99 4.95.11.26.17.32.3.32v.13h-2.12v-.13c.15-.01.2-.06.2-.13 0-.04-.32-.83-.36-.97h-2.56zm0 0"/><path fill="none" fill-rule="evenodd" d="M99.58 22.48v-5.95h-5.95v5.95h5.95zm0 0"/><path fill="#2375df" fill-rule="evenodd" d="M95.55 20.89h3.71c.12 0 .16-.06.19-.31h.13v1.9h-.13c-.03-.22-.07-.28-.19-.28h-5.63v-.13c.27-.02.3-.1.3-.19v-5.03c0-.1-.03-.17-.3-.19v-.13h2.22v.13c-.27.02-.3.09-.3.19v4.04zm0 0M31.52 13.92c2.6-7.18 9.69-12.34 18.04-12.34 8.33 0 15.42 5.15 18.03 12.32.16.43.3.52.16.01C65.59 6.06 58.2 0 49.53 0c-8.77 0-16.14 5.91-18.2 13.9-.15.61-.03.63.19.02M31.52 24.79c2.6 7.18 9.69 12.34 18.04 12.34 8.33 0 15.42-5.15 18.03-12.32.16-.43.3-.52.16 0-2.16 7.84-9.55 13.9-18.22 13.9-8.77 0-16.14-5.91-18.2-13.89-.15-.62-.03-.63.19-.03"/></svg>