<svg height="65" width="140" xmlns="http://www.w3.org/2000/svg" viewBox="0 0 140 65"><path fill="none" fill-rule="evenodd" d="M139.99 64.81H0V.26h139.99v64.55zm0 0"/><path fill="#85939e" fill-rule="evenodd" d="M44.33.29c0-.03-12.04 0-12.04 0C14.46.29 0 14.73 0 32.53c0 17.81 14.46 32.24 32.29 32.24l22.65-.02c5.69 0 10.3-4.57 10.3-10.25l.01-19.66 15.66 24.65c2.11 3.2 5.75 5.32 9.88 5.32 6.53 0 11.83-5.29 11.83-11.82V34.84l15.65 24.65c2.12 3.2 5.75 5.32 9.88 5.32 6.54 0 11.84-5.29 11.84-11.82L139.98.26h-8.05v52.73c0 2.08-1.69 3.77-3.78 3.77-1.3 0-2.45-.66-3.13-1.66L97.16 11.27c-.26-.38-.69-.62-1.18-.62-.79 0-1.43.64-1.43 1.42l.01 40.92c0 2.08-1.69 3.77-3.77 3.77-1.31 0-2.45-.66-3.13-1.66L59.79 11.27c-.25-.38-.69-.62-1.17-.62-.79 0-1.43.64-1.43 1.42l-.01 42.43c0 1.24-1 2.24-2.24 2.24l-22.65-.01c-13.38 0-24.23-10.84-24.23-24.2S18.91 8.34 32.29 8.34l12.04-.01V.29zm0 0"/><path fill="#85939e" fill-rule="evenodd" d="M45.63 46.39c.64 0 1.15-.51 1.15-1.14V12.07c0-6.52 5.3-11.81 11.84-11.81 4.14 0 7.78 2.12 9.9 5.34l15.6 24.44.03-17.97c0-6.52 5.3-11.81 11.83-11.81 4.14 0 7.79 2.12 9.9 5.34l15.61 24.44V.26h8.11l-.02 52.73c0 .79-.64 1.43-1.43 1.43-.46 0-.88-.23-1.14-.58L99.11 9.97c-.68-1.01-1.83-1.66-3.13-1.66-2.08 0-3.77 1.68-3.77 3.76l.01 40.92c0 .79-.64 1.43-1.43 1.43-.47 0-.88-.23-1.14-.58L61.75 9.97c-.68-1.01-1.83-1.66-3.13-1.66-2.09 0-3.78 1.68-3.78 3.76l.02 41.24c0 .64-.52 1.15-1.15 1.15l-21.42-.01c-12.09 0-21.88-9.85-21.88-21.92 0-12.07 9.79-21.92 21.88-21.92 0 0 12.04-.05 12.04 0v8.13l-12.04-.01c-7.64 0-13.83 6.18-13.83 13.8 0 7.62 6.19 13.88 13.83 13.88l13.34-.02zm0 0"/></svg>