<svg xmlns="http://www.w3.org/2000/svg" width="100" height="27"><path d="M46 0v26.9h6.05v-4.81l2.08-1.99 4.1 6.8h7.87l-7.56-10.83 7.15-6.99h-8.63l-3.4 4-1.61 2.02V0zM23.68 9l-2.26 12.07L18.48 9h-7L8.55 21.07 6.28 9H0l4.61 17.69h8.1l2.27-9.32 2.27 9.32h8.1L29.97 9zM92.98 19.72c-.77 1-1.98 1.68-3.56 1.68-1.81 0-3.26-1.18-3.26-3.96 0-2.78 1.45-3.96 3.26-3.96 1.58 0 2.78.68 3.56 1.68zm6.37-11.17h-5.53l-.41 1.91C92.14 9.12 90.56 8 87.78 8 82.74 8 80 11.26 80 17.43c0 6.18 2.74 9.43 7.78 9.43 2.78 0 4.36-1.11 5.63-2.45l.41 1.91h5.53l-.34-5.17v-7.43zM36.45 0C34.55 0 33 1.55 33 3.46s1.55 3.45 3.45 3.45c1.91 0 3.46-1.54 3.46-3.45 0-1.91-1.55-3.46-3.46-3.46M41.66 12.78V9H33v17.96h8.66v-3.77h-2.72V12.78zM73.45 0c1.91 0 3.46 1.55 3.46 3.46s-1.55 3.45-3.46 3.45c-1.9 0-3.45-1.54-3.45-3.45C69.99 1.55 71.54 0 73.45 0M68 12.78V9h8.66v17.96H68v-3.77h2.71V12.78z" fill="#2375df"/></svg>