<svg height="18" width="100" xmlns="http://www.w3.org/2000/svg" viewBox="0 0 100 18"><path fill="none" fill-rule="evenodd" d="M6.55.08H0V17.4h13.1V.08H6.55zm0 0"/><path fill="#2375df" fill-rule="evenodd" d="M9.32 12.18c0-1.09-.78-1.97-2.21-1.97H3.7v3.95h3.41c1.38 0 2.21-.73 2.21-1.98zm-.34-7.04c0-1.06-.78-1.81-2.03-1.81H3.7v3.63h3.25c1.25 0 2.03-.7 2.03-1.82zM0 17.4V.08h7.76c3.31 0 5 2.1 5 4.41 0 2.16-1.35 3.64-3 3.98 1.88.28 3.34 2.08 3.34 4.23 0 2.62-1.72 4.7-5.06 4.7H0zm0 0M26.74 17.4v-2.47l5.68-7.19h-5.68V4.86h10.19v2.36l-5.78 7.3h5.89v2.88h-10.3zm0 0M37.88 17.4v-2.47l5.69-7.19h-5.69V4.86h10.19v2.36l-5.78 7.3h5.89v2.88h-10.3zm0 0M50.12 17.4V.08h12.07v3.25h-8.37v3.63h6.3v3.25h-6.3v7.19h-3.7zm0 0M67.4 7.25c-2.06 0-2.94 1.43-3.07 2.67h6.2c-.11-1.19-.94-2.67-3.13-2.67m-6.51 3.87c0-3.64 2.71-6.57 6.51-6.57 3.78 0 6.31 2.8 6.31 6.88v.78h-9.36c.24 1.53 1.49 2.8 3.63 2.8 1.06 0 2.52-.44 3.33-1.22l1.49 2.18c-1.25 1.15-3.23 1.74-5.19 1.74-3.83 0-6.72-2.57-6.72-6.59M80.87 7.25c-2.05 0-2.94 1.43-3.07 2.67H84c-.1-1.19-.94-2.67-3.13-2.67m-6.51 3.87c0-3.64 2.71-6.57 6.51-6.57 3.78 0 6.31 2.8 6.31 6.88v.78h-9.35c.23 1.53 1.48 2.8 3.62 2.8 1.07 0 2.53-.44 3.33-1.22l1.49 2.18c-1.25 1.15-3.23 1.74-5.19 1.74-3.83 0-6.72-2.57-6.72-6.59M96.7 11.12c0-1.95-1.18-3.57-3.49-3.57h-2.06v7.16h2.04c2.22 0 3.51-1.72 3.51-3.59zM88 17.43V4.83h5.08c3.98 0 6.84 2.38 6.84 6.29s-2.86 6.31-6.82 6.31H88zm0 0"/><path fill="none" fill-rule="evenodd" d="M13.76 17.73h11.99V4.86H13.76v12.87zm0 0"/><path fill="#2375df" fill-rule="evenodd" d="M13.76 12.39V4.86h3.33v7.41c0 1.5.91 2.58 2.68 2.58 1.75 0 2.67-1.08 2.67-2.58V4.86h3.31v7.51c0 3.15-1.9 5.36-5.98 5.36-4.07 0-6.01-2.23-6.01-5.34"/></svg>