<svg height="73" width="80" xmlns="http://www.w3.org/2000/svg" viewBox="0 0 80 73"><path fill="#2375df" fill-rule="evenodd" d="M6.59 38.35l4.77 13.94 3.1-9.25c.55-1.6 1.03-3.18 1.46-4.51h6.41l-6.38 15.61c-1.03 2.54-1.64 4.03-2.22 5.78l-4.8.28-6.35-15.4C1.82 42.89.85 40.47 0 38.62l6.59-.27zm0 0M44.56 49.29c0-4.06-2.06-6.55-4.95-6.55-3.07 0-5.07 2.88-5.07 6.37 0 4.06 2.09 6.54 4.98 6.54 3.07 0 5.04-2.88 5.04-6.36m-15.92.45c0-6.76 4.5-11.73 11.21-11.73 6.41 0 10.64 4.7 10.64 10.64 0 6.76-4.53 11.73-11.21 11.73-6.41 0-10.64-4.73-10.64-10.64"/><path fill="none" fill-rule="evenodd" d="M79.19 60.08v-21.7h-22.3v21.7h22.3zm0 0"/><path fill="#2375df" fill-rule="evenodd" d="M56.89 59.83l7.39-10.91-2.89-4.21-4.16-6.09 6.71-.24 4.38 6.82 1.49-2.55c.75-1.24 1.82-2.94 2.58-4.12h6.62l-7.05 10.55 2.61 3.81c1.22 1.82 3.29 4.97 4.62 6.94l-6.77.25-4.5-7.25-1.4 2.28c-.66 1.12-2.12 3.45-2.94 4.72h-6.69zm0 0"/><path fill="#f5a11d" fill-rule="evenodd" d="M55.66 0v18.3L39.38 9.15 55.66 0zm0 0"/><path fill="#fee954" fill-rule="evenodd" d="M23.1 0v18.3l16.28-9.15L23.1 0zm0 0"/><path fill="#f37b21" fill-rule="evenodd" d="M39.38 9.15v18.3l16.28-9.15-16.28-9.15zm0 0"/><path fill="#ffe504" fill-rule="evenodd" d="M39.38 9.15v18.3L23.11 18.3l16.27-9.15zm0 0"/><path fill="#f3a01f" fill-rule="evenodd" d="M29.29 72.33l-.1-4.7-2.2 3.85h-.07l-2.21-3.86-.09 4.71h-.46l.2-5.96.11-.01 2.5 4.45 2.47-4.45.11.01.2 5.96h-.46zm0 0"/><path fill="#2375df" fill-rule="evenodd" d="M29.97 72.54h-.89l-.09-4.13-1.87 3.29h-.33l-1.87-3.29-.09 4.13h-.89l.21-6.35.43-.07 2.39 4.25 2.36-4.25.43.07.21 6.35zm0 0"/><path fill="#f3a01f" fill-rule="evenodd" d="M32.67 72.33v-5.88H36v.4h-2.88v2.29h2.6v.4h-2.6v2.38H36v.41h-3.33zm0 0"/><path fill="#2375df" fill-rule="evenodd" d="M36.21 72.54h-3.76v-6.31h3.76v.83h-2.88v1.87h2.6v.83h-2.6v1.94h2.88v.84zm0 0"/><path fill="#f3a01f" fill-rule="evenodd" d="M40.24 66.78c-.37 0-.75.03-.99.07v5.08c.25.04.6.06 1.03.06 1.88 0 2.83-1.16 2.83-2.66 0-1.4-1.01-2.55-2.87-2.55m.03 5.6c-.57 0-1.1-.04-1.47-.09v-5.8c.37-.05.88-.1 1.44-.1 2.19 0 3.35 1.44 3.35 2.94 0 1.63-1.13 3.05-3.32 3.05"/><path fill="#2375df" fill-rule="evenodd" d="M39.47 71.74c.23.02.5.03.81.03 1.61 0 2.61-.93 2.61-2.44 0-.65-.24-1.23-.67-1.64-.47-.45-1.15-.69-1.98-.69-.28 0-.56.01-.77.04v4.7zm.8.86c-.69 0-1.28-.07-1.5-.1l-.18-.02V66.3l.18-.03c.34-.04.87-.1 1.46-.1 2.35 0 3.58 1.59 3.58 3.16 0 1.63-1.1 3.27-3.54 3.27zm0 0"/><path fill="none" fill-rule="evenodd" d="M0 72.6h79.19V0H0v72.6zm0 0"/><path fill="#f3a01f" fill-rule="evenodd" d="M46.39 72.33h.46v-5.88h-.46v5.88zm0 0"/><path fill="#2375df" fill-rule="evenodd" d="M46.18 72.54h.88v-6.31h-.88v6.31zm0 0"/><path fill="#f3a01f" fill-rule="evenodd" d="M51.98 67.26l-1.22 2.88h2.43l-1.21-2.88zm2.14 5.07l-.76-1.8h-2.77l-.75 1.8h-.48l2.58-5.98h.08l2.59 5.98h-.49zm0 0"/><path fill="#2375df" fill-rule="evenodd" d="M51.09 69.93h1.77l-.88-2.11-.89 2.11zm3.85 2.61h-.96l-.76-1.79h-2.48l-.76 1.79h-.95l2.77-6.41h.37l2.77 6.41zm0 0"/><path fill="none" fill-rule="evenodd" d="M39.38 9.15v18.3l16.28-9.15-16.28-9.15zm0 0M39.38 9.15v18.3L23.11 18.3l16.27-9.15zm0 0"/><path fill="#2375df" fill-rule="evenodd" d="M55.57 0v18.29L39.3 9.14 55.57 0zm0 0M23.03 0v18.29L39.3 9.14 23.03 0zm0 0M39.3 9.14v18.29l16.27-9.14L39.3 9.14zm0 0"/><path fill="#2375df" fill-rule="evenodd" d="M39.3 9.14v18.29l-16.27-9.14L39.3 9.14zm0 0"/></svg>