<svg height="47" width="100" xmlns="http://www.w3.org/2000/svg" viewBox="0 0 100 47"><path fill="none" fill-rule="evenodd" d="M99.99 46.29H0V.19h99.99v46.1zm0 0"/><path fill="#2375df" fill-rule="evenodd" d="M31.67.21c0-.02-8.61 0-8.61 0C10.33.21 0 10.52 0 23.24s10.33 23.03 23.06 23.03l16.18-.02c4.07 0 7.36-3.26 7.36-7.32l.01-14.05L57.79 42.5c1.51 2.28 4.11 3.79 7.06 3.79 4.67 0 8.45-3.78 8.45-8.44V24.88L84.48 42.5c1.51 2.28 4.11 3.79 7.06 3.79 4.67 0 8.45-3.78 8.45-8.44V.19h-5.76v37.66c0 1.49-1.2 2.69-2.69 2.69-.93 0-1.75-.47-2.24-1.19L69.4 8.05c-.19-.27-.49-.44-.84-.44-.57 0-1.02.45-1.02 1.01v29.23c0 1.49-1.2 2.69-2.69 2.69-.93 0-1.75-.47-2.24-1.19l-19.9-31.3c-.18-.27-.49-.44-.84-.44-.56 0-1.02.45-1.02 1.01l-.01 30.31c0 .88-.71 1.6-1.6 1.6l-16.18-.01c-9.56 0-17.3-7.74-17.3-17.28 0-9.55 7.74-17.28 17.3-17.28l8.61-.01V.21zm0 0"/><path fill="#2375df" fill-rule="evenodd" d="M32.59 33.14c.46 0 .82-.37.82-.82l.01-23.7c0-4.66 3.78-8.44 8.45-8.44 2.96 0 5.56 1.52 7.07 3.82l11.15 17.46.02-12.84c0-4.66 3.78-8.44 8.45-8.44 2.96 0 5.56 1.52 7.07 3.82l11.15 17.46V.19h5.79l-.01 37.66c0 .56-.46 1.02-1.02 1.02-.34 0-.63-.16-.82-.41L70.79 7.12c-.48-.72-1.3-1.19-2.23-1.19-1.49 0-2.7 1.21-2.7 2.69l.01 29.23c0 .56-.46 1.02-1.02 1.02-.34 0-.63-.16-.82-.41L44.1 7.12c-.48-.72-1.3-1.19-2.23-1.19-1.49 0-2.7 1.21-2.7 2.69l.01 29.46c0 .45-.36.82-.82.82h-15.3c-8.63 0-15.63-7.04-15.63-15.66 0-8.62 7-15.66 15.63-15.66 0 0 8.61-.04 8.61 0v5.8h-8.61c-5.45 0-9.87 4.41-9.87 9.86 0 5.44 4.42 9.91 9.87 9.91l9.53-.01zm0 0"/></svg>