<svg width="50" height="39" viewBox="0 0 50 39" xmlns="http://www.w3.org/2000/svg" xmlns:xlink="http://www.w3.org/1999/xlink" xmlns:figma="http://www.figma.com/figma/ns"><title>occupation</title><desc>Created using Figma</desc><g style="mix-blend-mode:normal" figma:type="frame"><use xlink:href="#a" transform="translate(18.4 .7)" fill="#212934" style="mix-blend-mode:normal" figma:type="vector"/><use xlink:href="#b" transform="translate(0 6.9)" fill="#212934" style="mix-blend-mode:normal" figma:type="vector-operation"/></g><defs><path id="a" fill-rule="evenodd" d="M.9 5.5c.5 0 .9-.4.9-.9V3.1c0-.7.6-1.3 1.3-1.3h7.1c.7 0 1.3.6 1.3 1.3v1.5c0 .5.4.9.9.9s.9-.4.9-.9V3.1c0-1.7-1.4-3.1-3.1-3.1H3.1C1.4 0 0 1.4 0 3.1v1.5c0 .5.4.9.9.9z"/><path id="b" fill-rule="evenodd" d="M50 15.1V.9c0-.5-.4-.9-.9-.9H.9C.4 0 0 .4 0 .9V30.7c0 .5.4.9.9.9h48.2c.5 0 .9-.4.9-.9V15.1zM48.2 1.8v12.6l-19.3 3.8v-1.4c0-1-.6-1.9-1.4-2.3V1.8h20.7zm-21.1 15c0-.4-.3-.7-.7-.7h-2.8c-.4 0-.7.3-.7.7v1.7h4.2v-1.7zm-4.2 3.5h4.2v1.5c0 .4-.3.7-.7.7h-2.8c-.4 0-.7-.3-.7-.7v-1.5zm1.4-6h1.3V1.8h-1.3v12.5zM1.8 1.8h20.8v12.8c-.9.4-1.4 1.3-1.4 2.3v1.4L1.8 14.4V1.8zm19.3 20.1V20L1.7 16.1v7.7l5.8 5.8c0 .05.025.075.05.1.025.025.05.05.05.1h34.8c0-.1.1-.2.1-.2l5.7-5.7v-7.7L28.9 20v1.9c0 1.4-1.1 2.5-2.5 2.5h-2.8c-1.4 0-2.5-1.1-2.5-2.5zM1.8 26.4l3.4 3.4H1.8v-3.4zm46.4 0l-3.3 3.3h3.3v-3.3z"/></defs></svg>