<svg id="Слой_1" xmlns="http://www.w3.org/2000/svg" viewBox="0 0 50 50"><style>.st0{fill:#221F20;}</style><path class="st0" d="M24.6.6C11 .6 0 11.7 0 25.2c0 11.7 8.2 21.5 19.1 24 .1 0 .2.1.3.1l2.2.4H21.9c.9.1 1.8.2 2.7.2 13.6 0 24.6-11 24.6-24.6C49.2 11.7 38.1.6 24.6.6zm19.4 13l-1.6.1-2.5-1.4c-.2-.1-.5-.2-.7-.1l-2.5.7c-.2 0-.3.1-.5.3L35 14.5h-2.4l-.6-1.3 1.6-.1c.1 0 .3-.1.4-.1l2-1.1.3-.3 2-2.9c.1-.1.1-.2.1-.3l.2-.9c2.2 1.7 4 3.8 5.4 6.1zM13.4 5.5l1.4 1.3c.3.1.6.2.9.2l3.3-.6h.1l4.1-1.1 1.9 1.2-.7.5c-.3.1-.4.4-.4.7l.1 2.8-.2 1.5-4.4 1c-.2 0-.4.1-.5.3l-2.4 2.5-2.1.9c-.4.2-.6.6-.6 1l.1 1.5-2.5-1.3c-.3-.1-.5-.1-.8 0l-2.2.9c-.3.1-.4.3-.5.6l-.5 1.3c0 .1-.1.2-.1.3v.9c0 .5.3.9.8.9l1.5.3 1.1.5c.1 0 .2.1.3.1h.4l.9 1.7c.2.3.5.5.9.5l2.5-.2 3.2 1h.1l2.6.4 1 2c.1.2.3.4.6.5l3.5 1.1.5 1.2-.8 1.8c0 .1 0 .1-.1.2l-.2 1.4-2.2 1.1c-.3.2-.5.5-.5.8l-.1 2.1-1.9 2.7c-.1.1-.2.3-.2.4l-.3 1.5v.2l.1 1.9c0 .2.1.5.3.6l.7.7-.5.3c-.5-.1-.9-.1-1.4-.2l-1.3-3.3-.4-2.8v-2.8l.2-2.8c0-.4-.2-.7-.5-.9l-2.9-1.5-1.3-1.1-.5-3.6c0-.1-.1-.2-.1-.4l-.8-1.2v-.1l-1.2-1.6c-.1-.2-.3-.3-.5-.4L7 24l-3-1.8-1.1-3.5C4.6 13.1 8.4 8.4 13.4 5.5zM1.9 25.2c0-.9.1-1.7.2-2.6l.1.5c.1.2.2.4.4.5l3.5 2c.1 0 .1.1.2.1l3.7 1 1 1.3.6 1 .6 3.7c0 .2.2.4.3.6l1.7 1.4s.1.1.2.1l2.4 1.3-.2 2.2v3.1l.4 2.9c0 .1 0 .2.1.2l.9 2.1C8.7 44 1.9 35.4 1.9 25.2zm22.7 22.7c0-.1.1-.1.1-.2 0-.3-.1-.6-.3-.8L23 45.6v-1.5l.2-1.2 2.3-2.7c.1-.2.2-.3.2-.5l.1-1.9 2.1-1c.3-.1.5-.4.5-.7l.3-1.8.9-2.1c.1-.2.1-.5 0-.7l-.8-2c-.1-.3-.3-.5-.6-.6l-3.6-1.1-1-2c-.1-.3-.4-.5-.7-.5l-3-.4-3.3-1H14l-.8-1.6c-.2-.3-.5-.5-.8-.5h-.8l-1-.4c-.1 0-.1 0-.2-.1l-.8-.1.2-.7 1.4-.6 3.6 1.9c.3.2.7.1 1-.1s.4-.5.4-.9l-.3-2.5 1.6-.7c.1-.1.2-.1.3-.2l2.3-2.4 4.8-1.1c.4-.1.7-.4.7-.8l.3-2.3v-.2l-.1-2.4 1.4-1.1c.3-.2.4-.5.4-.8s-.2-.6-.5-.8l-3.5-2.1c-.2-.1-.5-.2-.8-.1l-4.4 1.2-2.6.5-.5-.4c2.8-1.3 6-2 9.3-2 4.6 0 8.8 1.4 12.4 3.7l-.4 1.5-1.7 2.5-1.6.9-2.7.2c-.3 0-.6.2-.8.5-.2.3-.2.6 0 .9l1.5 3.1c.2.3.5.6.9.6h3.5c.3 0 .5-.1.7-.3l1.3-1.5 1.8-.5 2.4 1.3c.2.1.3.1.5.1l2.2-.1c.2 0 .4-.1.5-.2.4.8.8 1.7 1.1 2.6l-1.8-.4h-.3l-4.5.2h-.1l-5 .9c-.2 0-.4.1-.5.3l-2.9 3c-.2.2-.3.5-.3.8l.5 4.3c0 .3.2.6.5.7l3.6 1.9c.2.1.5.1.7.1l2.7-.9.9 1.4.9 2.1v1.8l.1 2.2c0 .1 0 .2.1.3l1 2.6c.1.2.2.4.4.5-4.3 5-10.6 8.2-17.6 8.2zm18.9-10.2s-.1 0 0 0l-.3.1-.7-1.8-.1-2 .1-2c0-.1 0-.3-.1-.4l-1.1-2.3s0-.1-.1-.1l-1.4-2c-.2-.4-.7-.5-1.1-.4l-3 1-2.7-1.5-.4-3.4 2.3-2.5 4.6-.8 4.3-.2 2.7.7c.4 1.7.6 3.4.6 5.2.1 4.5-1.3 8.8-3.6 12.4z"/></svg>