<svg id="Слой_1" xmlns="http://www.w3.org/2000/svg" viewBox="0 0 50 48"><style>.st0{fill:#221F20;}</style><path class="st0" d="M24.8 7.3c-9.3 0-16.9 7.6-16.9 16.9s7.6 16.9 16.9 16.9 16.9-7.6 16.9-16.9S34.1 7.3 24.8 7.3zm4.3 2.4c2 .6 3.8 1.6 5.4 2.9v7h-5.4V9.7zM22 9.3c.9-.2 1.8-.3 2.7-.3.9 0 1.8.1 2.6.2v10.3H22V9.3zm-7 3.4c1.6-1.3 3.4-2.4 5.4-3v9.9H15v-6.9zm-1.8 1.8v5.1h-2.9c.7-1.9 1.7-3.6 2.9-5.1zM40 24.2c0 1.1-.1 2.2-.3 3.2l-1.2-.2-.6-1.2c-.1-.3-.4-.5-.8-.5-.3 0-.6.2-.8.5l-.6 1.2-1.3.2c-.3 0-.6.3-.7.6-.1.3 0 .7.2.9l1 .9-.2 1.3c-.1.3.1.7.3.8.2.1.3.2.5.2.1 0 .3 0 .4-.1l1.2-.6.8.4c-2.6 4.5-7.5 7.5-13.1 7.5s-10.5-3.1-13.1-7.6l.7-.4 1.2.6c.1.1.3.1.4.1.2 0 .4-.1.5-.2.3-.2.4-.5.3-.8l-.2-1.3 1-.9c.2-.2.3-.6.2-.9-.1-.3-.4-.5-.7-.6l-1.3-.2-.6-1.2c-.1-.3-.4-.5-.8-.5-.3 0-.6.2-.8.5l-.6 1.4-1 .2c-.2-1-.3-2.1-.3-3.2 0-1 .1-2 .3-2.9h29.7c.1.9.3 1.8.3 2.8zm-3.8-4.6v-5.3c1.3 1.5 2.4 3.3 3 5.3h-3z"/><path class="st0" d="M21.3 30.5l-.5 3c-.1.3.1.7.3.8.3.2.6.2.9.1l2.7-1.4 2.7 1.4c.1.1.3.1.4.1.2 0 .4-.1.5-.2.3-.2.4-.5.3-.8l-.5-3 2.2-2.2c.2-.2.3-.6.2-.9-.1-.3-.4-.5-.7-.6l-3-.4-1.4-2.8c-.1-.3-.4-.5-.8-.5-.3 0-.6.2-.8.5l-1.4 2.8-3 .4c-.3 0-.6.3-.7.6-.1.3 0 .7.2.9l2.4 2.2zm2-2.4c.3 0 .5-.2.6-.5l.8-1.6.8 1.6c.1.3.4.4.6.5l1.8.3-1.3 1.2c-.2.2-.3.5-.2.8l.3 1.8-1.6-.8c-.1-.1-.3-.1-.4-.1-.1 0-.3 0-.4.1l-1.6.8.3-1.8c0-.3 0-.6-.2-.8l-1.3-1.2 1.8-.3z"/><path class="st0" d="M46.9 20c-.8-.8-1.7-1.6-1.9-2.4-.3-.8-.1-2 .1-3.1.3-1.7.6-3.5-.4-4.8-1-1.3-2.8-1.6-4.5-1.8-1.1-.2-2.3-.3-3-.8-.7-.5-1.2-1.5-1.7-2.6-.8-1.6-1.6-3.2-3.2-3.7-.3-.1-.6-.1-1-.1-1.2 0-2.5.6-3.7 1.3-1.1.5-2.1 1.1-3 1.1-.9 0-2-.6-3-1.1-1.2-.6-2.4-1.3-3.7-1.3-.3 0-.7 0-1 .1-1.6.5-2.4 2.1-3.2 3.7-.5 1-1 2.1-1.7 2.6s-1.9.7-3 .8c-1.4.2-3.2.5-4.2 1.8s-.7 3.1-.4 4.8c.2 1.2.4 2.3.1 3.1-.2.7-1.1 1.6-1.9 2.4C1.3 21.2 0 22.5 0 24.2c0 1.7 1.3 3 2.6 4.2.8.8 1.7 1.6 1.9 2.4.3.8.1 2-.1 3.1-.3 1.7-.6 3.5.4 4.8 1 1.3 2.8 1.6 4.5 1.8 1.1.2 2.3.3 3 .8.7.5 1.2 1.5 1.7 2.6.8 1.6 1.6 3.2 3.2 3.7.3.1.6.1 1 .1 1.2 0 2.5-.6 3.7-1.3 1.1-.5 2.1-1.1 3-1.1.9 0 2 .6 3 1.1 1.2.6 2.4 1.3 3.7 1.3.3 0 .7 0 1-.1 1.6-.5 2.4-2.2 3.2-3.7.5-1 1-2.1 1.7-2.6s1.9-.7 3-.8c1.7-.3 3.5-.5 4.5-1.8s.7-3.1.4-4.8c-.2-1.2-.4-2.3-.1-3.1.2-.7 1.1-1.6 1.9-2.4 1.3-1.2 2.6-2.5 2.6-4.2-.3-1.7-1.6-3-2.9-4.2zm-1.2 7.2c-1 .9-2 1.9-2.3 3.1-.4 1.2-.2 2.6.1 4 .2 1.4.5 2.8-.1 3.5-.5.7-2 1-3.3 1.2-1.4.2-2.8.4-3.8 1.1-1 .7-1.6 2-2.2 3.2-.6 1.3-1.3 2.6-2.2 2.9-.8.3-2.1-.4-3.3-1-1.2-.6-2.5-1.3-3.8-1.3-1.3 0-2.6.7-3.8 1.3-1.2.6-2.5 1.3-3.3 1-.9-.3-1.5-1.6-2.2-2.9-.6-1.2-1.2-2.5-2.2-3.2-1-.7-2.4-.9-3.8-1.1-1.4-.2-2.8-.4-3.3-1.2-.5-.7-.3-2.1-.1-3.5.2-1.4.5-2.8.1-4-.4-1.2-1.4-2.1-2.3-3.1-1-1-2.1-2-2.1-3s1.1-2 2.1-3c1-.9 2-1.9 2.3-3.1.4-1.2.2-2.6-.1-4-.2-1.4-.5-2.8.1-3.5.5-.7 2-1 3.3-1.2 1.4-.2 2.8-.4 3.8-1.1 1-.7 1.6-2 2.2-3.2.6-1.3 1.3-2.6 2.2-2.9.8-.3 2.1.4 3.3 1 1.2.6 2.5 1.3 3.8 1.3 1.3 0 2.6-.7 3.8-1.3 1.2-.6 2.5-1.3 3.3-1 .9.3 1.5 1.6 2.2 2.9.6 1.2 1.2 2.5 2.2 3.2 1 .7 2.4.9 3.8 1.1 1.4.2 2.8.4 3.3 1.2.5.7.3 2.1.1 3.5-.2 1.4-.5 2.8-.1 4 .4 1.2 1.4 2.1 2.3 3.1 1 1 2.1 2 2.1 3s-1.1 2-2.1 3z"/></svg>