<svg width="887" height="348" viewBox="0 0 887 348" xmlns="http://www.w3.org/2000/svg" xmlns:xlink="http://www.w3.org/1999/xlink" xmlns:figma="http://www.figma.com/figma/ns"><title>Page 1</title><desc>Created using Figma</desc><g style="mix-blend-mode:normal" figma:type="frame"><g style="mix-blend-mode:normal" figma:type="frame" transform="translate(-2813 -1726)"><mask id="b"><use xlink:href="#a" transform="translate(3552.33 1797.41)" style="mix-blend-mode:normal" figma:type="vector"/></mask><use xlink:href="#c" transform="translate(3552.33 1797.41)" fill="#0D97C1" style="mix-blend-mode:normal" mask="url(#b)" figma:type="vector-operation"/></g><use xlink:href="#d" transform="translate(798.74 112.59)" fill="#0D97C1" style="mix-blend-mode:normal" figma:type="vector-operation"/><use xlink:href="#e" transform="translate(781.26 154.37)" fill="#0D97C1" style="mix-blend-mode:normal" figma:type="vector"/><use xlink:href="#f" transform="translate(799.99 146.47)" fill="#0D97C1" style="mix-blend-mode:normal" figma:type="vector"/><use xlink:href="#g" transform="translate(812.79 124.93)" fill="#0D97C1" style="mix-blend-mode:normal" figma:type="vector"/><use xlink:href="#h" transform="translate(393.25 167.32)" fill="#0D97C1" style="mix-blend-mode:normal" figma:type="vector-operation"/><use xlink:href="#i" transform="translate(475.43 251.28)" fill="#0D97C1" style="mix-blend-mode:normal" figma:type="vector"/><use xlink:href="#j" transform="translate(461 236.85)" fill="#0D97C1" style="mix-blend-mode:normal" figma:type="vector-operation"/><use xlink:href="#k" transform="translate(447.12 222.99)" fill="#0D97C1" style="mix-blend-mode:normal" figma:type="vector-operation"/><use xlink:href="#l" transform="translate(481.47 212.19)" fill="#0D97C1" style="mix-blend-mode:normal" figma:type="vector"/><use xlink:href="#m" transform="translate(567.88 28.3)" fill="#0D97C1" style="mix-blend-mode:normal" figma:type="vector-operation"/><use xlink:href="#n" transform="translate(621.11 90.28)" fill="#0D97C1" style="mix-blend-mode:normal" figma:type="vector-operation"/><use xlink:href="#o" transform="translate(214.73 21.09)" fill="#0D97C1" style="mix-blend-mode:normal" figma:type="vector-operation"/><use xlink:href="#p" transform="translate(269.99 96.23)" fill="#0D97C1" style="mix-blend-mode:normal" figma:type="vector"/><use xlink:href="#q" transform="translate(294.69 87.69)" fill="#0D97C1" style="mix-blend-mode:normal" figma:type="vector"/><use xlink:href="#r" transform="translate(124.19 166.21)" fill="#0D97C1" style="mix-blend-mode:normal" figma:type="vector-operation"/><use xlink:href="#s" transform="translate(166.74 219.26)" fill="#0D97C1" style="mix-blend-mode:normal" figma:type="vector"/><use xlink:href="#s" transform="translate(166.74 229.82)" fill="#0D97C1" style="mix-blend-mode:normal" figma:type="vector"/><use xlink:href="#t" transform="translate(166.74 240.37)" fill="#0D97C1" style="mix-blend-mode:normal" figma:type="vector"/><use xlink:href="#u" transform="translate(170.67 209.81)" fill="#0D97C1" style="mix-blend-mode:normal" figma:type="vector-operation"/><use xlink:href="#v" transform="translate(0 92.38)" fill="#0D97C1" style="mix-blend-mode:normal" figma:type="vector-operation"/><use xlink:href="#w" transform="translate(42.96 158.05)" fill="#0D97C1" style="mix-blend-mode:normal" figma:type="vector"/><use xlink:href="#x" transform="translate(98.56 152.56)" fill="#0D97C1" style="mix-blend-mode:normal" figma:type="vector"/><use xlink:href="#y" transform="translate(43.66 141.79)" fill="#0D97C1" style="mix-blend-mode:normal" figma:type="vector-operation"/><use xlink:href="#z" transform="translate(644.37 191.91)" fill="#1EBFF0" style="mix-blend-mode:normal" figma:type="vector-operation"/><use xlink:href="#A" transform="translate(688.4 235.98)" fill="#1EBFF0" style="mix-blend-mode:normal" figma:type="vector-operation"/><use xlink:href="#B" transform="translate(694.91 242.49)" fill="#1EBFF0" style="mix-blend-mode:normal" figma:type="vector"/><use xlink:href="#C" transform="translate(715.87 247.17)" fill="#1EBFF0" style="mix-blend-mode:normal" figma:type="vector"/><use xlink:href="#D" transform="translate(694.91 262.31)" fill="#1EBFF0" style="mix-blend-mode:normal" figma:type="vector-operation"/><use xlink:href="#E" transform="translate(715.85 263.42)" fill="#1EBFF0" style="mix-blend-mode:normal" figma:type="vector"/><use xlink:href="#F" transform="translate(420.68 .14)" fill="#1EBFF0" style="mix-blend-mode:normal" figma:type="vector-operation"/><use xlink:href="#G" transform="translate(463.17 41.96)" fill="#1EBFF0" style="mix-blend-mode:normal" figma:type="vector-operation"/><use xlink:href="#H" transform="translate(462.72 62.65)" fill="#1EBFF0" style="mix-blend-mode:normal" figma:type="vector"/><use xlink:href="#I" transform="translate(462.63 53.83)" fill="#1EBFF0" style="mix-blend-mode:normal" figma:type="vector"/><use xlink:href="#J" transform="translate(312.85 233.99)" fill="#1EBFF0" style="mix-blend-mode:normal" figma:type="vector-operation"/><use xlink:href="#K" transform="translate(347 262.01)" fill="#1EBFF0" style="mix-blend-mode:normal" figma:type="vector-operation"/><use xlink:href="#L" transform="translate(129.74 61.41)" fill="#1EBFF0" style="mix-blend-mode:normal" figma:type="vector-operation"/><use xlink:href="#M" transform="translate(175.77 108.9)" fill="#31B197" style="mix-blend-mode:normal" figma:type="vector"/><use xlink:href="#N" transform="translate(164.49 109.71)" fill="#1EBFF0" style="mix-blend-mode:normal" figma:type="vector"/><use xlink:href="#O" transform="translate(164.49 96.76)" fill="#1EBFF0" style="mix-blend-mode:normal" figma:type="vector-operation"/><use xlink:href="#P" transform="translate(775.56 211.06)" fill="#0B7B9E" style="mix-blend-mode:normal" figma:type="vector-operation"/><use xlink:href="#Q" transform="translate(562.32 188.54)" fill="#0B7B9E" style="mix-blend-mode:normal" figma:type="vector-operation"/><use xlink:href="#R" transform="translate(505.14 109.51)" fill="#0B7B9E" style="mix-blend-mode:normal" figma:type="vector-operation"/><use xlink:href="#S" transform="translate(223.89 257.54)" fill="#0B7B9E" style="mix-blend-mode:normal" figma:type="vector-operation"/></g><defs><path id="a" fill-rule="evenodd" d="M147.26 147.18V0H0v147.18h147.26z"/><path id="c" fill-rule="evenodd" d="M147.234 71.394l.022.515c.005.11.005.215.004.318V73.582c-.002.815-.627.953-.835.982-.952.133-2.643.36-4.357.566-1.71.208-3.458.394-4.51.5-.09.01-.172.026-.25.05-.11 3.353-.487 6.72-1.142 10.074.068.038.142.07.222.1.998.335 2.654.906 4.283 1.493 1.63.585 3.233 1.185 4.135 1.53.195.073.782.35.61 1.145l-.81 3.17c-.06.25-.136.496-.21.736l-.1.32-.29.945-.356 1.144c-.123.388-.34.568-.558.644-.22.075-.432.05-.536.03-.95-.17-2.636-.482-4.336-.82-1.7-.337-3.417-.7-4.446-.926-.083-.018-.162-.027-.24-.03-.573 1.578-1.21 3.146-1.918 4.7-.707 1.554-1.47 3.066-2.282 4.535.053.056.112.11.18.16.846.627 2.248 1.68 3.62 2.74 1.374 1.057 2.717 2.12 3.47 2.725.083.065.242.208.33.423.087.214.094.496-.12.843l-.62 1.01-.52.838-.285.46-.15.236-.157.23-1.867 2.708c-.487.654-1.08.394-1.265.295-.85-.453-2.357-1.266-3.87-2.108-1.513-.842-3.032-1.714-3.942-2.243-.074-.043-.147-.076-.22-.103-2.097 2.698-4.39 5.196-6.846 7.483.035.075.077.15.128.222.612.86 1.62 2.3 2.588 3.724.972 1.426 1.913 2.85 2.44 3.653.114.176.42.737-.193 1.274l-.893.78-.12.105c-.076.067-.155.136-.24.204l-.4.32-.86.685c-.19.148-.38.3-.565.446-.387.31-.757.603-1.082.844l-.972.7c-.663.475-1.14.05-1.286-.1-.667-.694-1.843-1.93-3.016-3.198-1.173-1.266-2.342-2.56-3.047-3.352-.06-.067-.124-.125-.19-.176-2.81 1.9-5.765 3.57-8.827 4.994.01.078.026.158.05.24.315 1.003.827 2.678 1.31 4.34.486 1.662.944 3.31 1.197 4.24.028.103.072.31.016.536-.03.113-.082.23-.174.34-.092.11-.224.212-.413.287l-3.033 1.22-3.103 1.08c-.19.068-.357.078-.5.054-.14-.023-.258-.076-.353-.143-.19-.133-.294-.32-.34-.414-.422-.867-1.162-2.41-1.89-3.98-.728-1.57-1.444-3.17-1.868-4.133-.034-.078-.074-.148-.118-.214-3.245.94-6.568 1.623-9.937 2.04-.015.08-.025.166-.026.256-.01 1.06-.04 2.803-.09 4.53-.052 1.724-.124 3.428-.17 4.39-.01.21-.09.843-.903.92l-1.18.11c-.4.033-.87.054-1.36.076-.238.01-.48.022-.723.035l-1.1.05-.516.022c-.106.005-.21.004-.313.004H73.637c-.815-.003-.953-.627-.98-.835-.135-.952-.36-2.643-.568-4.356-.21-1.71-.395-3.457-.5-4.508-.01-.088-.028-.172-.05-.25-3.356-.11-6.727-.486-10.08-1.14-.04.067-.072.14-.1.22-.337.998-.908 2.653-1.495 4.282-.585 1.628-1.186 3.23-1.53 4.13-.073.196-.35.783-1.146.61l-3.173-.808c-.25-.06-.496-.136-.735-.21l-.32-.1-.947-.29-1.144-.356c-.388-.122-.568-.34-.644-.557-.074-.22-.05-.432-.03-.536.17-.95.483-2.634.822-4.333.337-1.7.7-3.415.926-4.444.018-.082.027-.162.03-.24-1.58-.572-3.148-1.21-4.703-1.917-1.554-.706-3.067-1.468-4.536-2.28-.057.053-.11.112-.16.18-.63.846-1.683 2.247-2.742 3.62-1.06 1.37-2.123 2.713-2.727 3.467-.066.082-.208.24-.424.33-.213.086-.495.092-.842-.12l-1.01-.62-.84-.52-.46-.286-.235-.147-.23-.158-2.71-1.868c-.653-.486-.393-1.08-.294-1.264.452-.85 1.265-2.356 2.108-3.868.842-1.513 1.714-3.03 2.243-3.94.044-.074.078-.147.104-.22-2.7-2.096-5.2-4.386-7.487-6.842-.075.034-.15.076-.222.128-.862.61-2.302 1.62-3.727 2.586-1.427.97-2.85 1.912-3.656 2.437-.175.115-.736.42-1.274-.192l-.78-.893-.103-.118c-.067-.076-.137-.156-.206-.24l-.322-.402-.684-.86-.447-.563c-.308-.387-.603-.757-.844-1.082l-.7-.972c-.476-.662-.05-1.14.1-1.285.695-.666 1.932-1.842 3.2-3.014 1.266-1.175 2.56-2.343 3.353-3.047.067-.06.125-.124.176-.19-1.9-2.81-3.57-5.762-4.996-8.823-.078.01-.158.027-.24.052-1.004.313-2.68.825-4.343 1.31-1.662.484-3.312.94-4.243 1.194-.102.028-.31.072-.535.016-.113-.027-.23-.08-.34-.173-.11-.092-.213-.224-.287-.413l-1.22-3.03-1.08-3.103c-.07-.19-.08-.357-.056-.5.022-.14.076-.258.142-.353.133-.19.32-.293.414-.34.868-.42 2.412-1.16 3.984-1.886 1.57-.73 3.17-1.444 4.134-1.868.077-.035.148-.075.214-.118-.94-3.244-1.624-6.565-2.04-9.932-.082-.016-.168-.025-.257-.027-1.06-.01-2.805-.04-4.53-.092-1.727-.05-3.433-.123-4.394-.17-.21-.01-.845-.09-.923-.9l-.11-1.18c-.032-.398-.053-.864-.076-1.352-.01-.24-.02-.486-.033-.73l-.05-1.1-.023-.516C0 75.163 0 75.06 0 74.958V73.598c.002-.816.627-.954.835-.982.953-.133 2.644-.36 4.358-.566 1.71-.208 3.458-.395 4.51-.5.088-.01.172-.027.25-.05.11-3.354.486-6.722 1.142-10.075-.07-.037-.143-.07-.223-.098-.997-.337-2.653-.908-4.282-1.495-1.63-.585-3.233-1.185-4.135-1.528-.195-.074-.78-.35-.61-1.147l.81-3.17c.06-.25.135-.493.21-.73l.1-.326.29-.944.356-1.143c.123-.388.34-.57.558-.644.22-.076.433-.05.536-.032.95.17 2.636.483 4.337.822 1.7.337 3.417.7 4.447.925.082.018.162.028.24.03.572-1.577 1.21-3.145 1.918-4.7.707-1.554 1.47-3.066 2.282-4.535-.053-.056-.113-.11-.18-.16-.847-.628-2.25-1.68-3.62-2.74-1.375-1.058-2.718-2.122-3.472-2.725-.082-.066-.24-.21-.33-.424-.086-.213-.093-.495.12-.842l.62-1.01.52-.837.287-.46.147-.235.157-.23 1.867-2.708c.488-.654 1.082-.393 1.266-.295.85.453 2.357 1.266 3.87 2.108 1.513.842 3.033 1.713 3.942 2.242.074.043.148.076.22.103 2.097-2.697 4.39-5.196 6.846-7.483-.035-.075-.076-.15-.127-.22-.612-.863-1.62-2.302-2.588-3.726-.97-1.427-1.912-2.85-2.438-3.654-.115-.176-.422-.737.19-1.274l.895-.78.118-.104c.076-.067.155-.136.24-.204l.4-.32.862-.685.573-.454c.384-.304.75-.596 1.072-.835l.973-.7c.662-.475 1.14-.05 1.285.1.667.695 1.844 1.93 3.016 3.198 1.174 1.266 2.343 2.56 3.047 3.352.06.067.124.125.19.176 2.812-1.9 5.765-3.568 8.828-4.993-.01-.078-.026-.157-.052-.24-.313-1.003-.825-2.678-1.31-4.34-.485-1.66-.943-3.31-1.196-4.24-.027-.102-.072-.31-.016-.536.03-.112.082-.228.174-.338.092-.11.224-.213.413-.287l3.033-1.22 3.103-1.08c.19-.068.358-.078.5-.055.142.022.26.076.353.142.19.133.294.32.34.414.422.867 1.162 2.41 1.89 3.98.728 1.572 1.444 3.17 1.868 4.133.035.077.075.147.12.213 3.243-.94 6.566-1.623 9.935-2.04.015-.08.025-.166.026-.256.01-1.06.04-2.803.092-4.528.05-1.727.123-3.43.17-4.392.01-.21.09-.844.9-.92l1.18-.11c.402-.034.87-.055 1.363-.077.238-.01.48-.02.724-.033l1.1-.05.515-.023C72.057 0 72.163 0 72.265 0h1.357c.815.002.953.627.98.835.135.952.362 2.642.568 4.355.21 1.708.396 3.456.5 4.507.01.09.028.172.05.25 3.357.11 6.727.486 10.08 1.142.04-.07.073-.144.1-.224.337-.997.908-2.652 1.495-4.28.586-1.63 1.186-3.23 1.53-4.132.074-.195.35-.78 1.147-.61l3.172.81c.25.058.494.135.733.21.108.033.216.067.323.098l.945.292 1.144.355c.388.12.57.338.644.556.075.22.05.432.03.536-.17.95-.483 2.634-.822 4.333-.337 1.7-.7 3.415-.926 4.444-.017.08-.027.16-.03.24 1.58.57 3.148 1.21 4.703 1.916 1.554.707 3.067 1.47 4.537 2.28.056-.052.11-.112.16-.18.628-.845 1.682-2.247 2.742-3.618 1.057-1.373 2.12-2.715 2.725-3.47.066-.08.21-.24.424-.328.213-.086.495-.093.843.12l1.01.62.838.52.462.285.235.147.23.158 2.71 1.867c.654.487.393 1.08.295 1.264-.454.852-1.267 2.358-2.11 3.87-.84 1.512-1.714 3.03-2.243 3.94-.044.073-.077.147-.104.22 2.7 2.095 5.2 4.386 7.487 6.84.075-.033.15-.075.222-.126.862-.612 2.302-1.62 3.727-2.587 1.427-.97 2.85-1.91 3.656-2.437.175-.115.736-.422 1.274.192l.78.892.106.12c.066.076.135.155.203.238l.322.402.685.86.448.566c.307.386.6.755.842 1.08l.7.97c.476.663.05 1.14-.1 1.286-.694.667-1.932 1.842-3.2 3.014-1.266 1.174-2.56 2.342-3.353 3.046-.067.06-.125.124-.176.19 1.9 2.81 3.57 5.762 4.996 8.823.078-.01.158-.027.24-.053 1.004-.313 2.68-.825 4.343-1.308 1.663-.487 3.312-.944 4.243-1.197.102-.028.31-.072.536-.016.112.028.23.08.34.173.11.092.212.224.286.413l1.22 3.03 1.08 3.102c.07.19.08.358.056.5-.022.14-.075.258-.142.353-.133.19-.32.294-.414.34-.868.42-2.412 1.16-3.984 1.887-1.57.73-3.17 1.444-4.133 1.87-.078.033-.15.073-.214.117.94 3.243 1.624 6.564 2.04 9.93.082.017.168.027.258.028 1.06.01 2.804.04 4.53.09 1.727.052 3.432.124 4.393.17.21.01.846.09.923.902l.11 1.18c.033.4.054.87.076 1.363.01.236.02.478.034.72l.05 1.1zM21.41 73.59c0 28.825 23.38 52.192 52.22 52.192s52.22-23.367 52.22-52.192-23.38-52.193-52.22-52.193S21.41 44.765 21.41 73.59z"/><path id="d" fill-rule="evenodd" d="M0 22.948C0 35.6 10.3 45.894 22.96 45.894S45.92 35.6 45.92 22.948C45.92 10.294 35.62 0 22.96 0S0 10.294 0 22.948zm8.226 0c0-8.12 6.61-14.726 14.733-14.726 8.124 0 14.733 6.605 14.733 14.726 0 8.12-6.61 14.724-14.734 14.724-8.125 0-14.734-6.605-14.734-14.724z"/><path id="e" fill-rule="evenodd" d="M16.643 0L1.326 15.31c-1.768 1.766-1.768 4.632 0 6.4 1.768 1.766 4.636 1.766 6.404 0L23.047 6.4 16.643 0z"/><path id="f" fill-rule="evenodd" d="M4.154 12.22L0 8.07 8.074 0l4.154 4.15-8.074 8.07z"/><path id="g" fill-rule="evenodd" d="M8.403 4.554C9.54 2.04 8.695 0 6.515 0c-2.18 0-4.87 2.038-6.01 4.553-1.137 2.515-.29 4.554 1.89 4.555 2.18 0 4.87-2.04 6.008-4.554z"/><path id="h" fill-rule="evenodd" d="M178.947 76.4c.212 0 .854.05.963.878.015.175.095.776.198 1.55.245 1.847.623 4.684.573 5.123.027.834-.598 1.02-.806 1.064-1.912.42-6.795 1.39-8.897 1.76-.61.114-.974.577-.96 1.092l.117 4.305-.32 4.296c-.038.514.304.994.908 1.135 2.082.47 6.913 1.67 8.803 2.18.207.053.822.27.757 1.1.032.424-.476 3.226-.81 5.065-.14.776-.25 1.38-.275 1.563-.147.822-.792.843-1.003.833-1.94-.08-6.87-.388-8.98-.566-.627-.05-1.025.32-1.187.81l-1.172 4.144-.475 1.684c-.225.917-.573 1.934-.8 2.425-.19.48 0 1.026.545 1.317 1.878.99 6.208 3.392 7.89 4.373.185.105.72.47.413 1.25l-1.236 3.118c-.4.97-.89 1.902-1.194 2.483-.14.265-.24.457-.276.547-.38.744-1.01.595-1.213.53-1.863-.587-6.563-2.18-8.562-2.905-.582-.206-1.12.02-1.354.478-.09.16-.198.378-.323.63-.242.488-.546 1.098-.873 1.627l-.944 1.473-2.323 3.627c-.278.435-.21 1.03.242 1.455 1.582 1.46 5.1 4.876 6.473 6.26.15.15.567.638.053 1.296l-.275.35c-.907 1.16-3.534 4.516-3.895 4.916-.573.607-1.148.296-1.326.18-1.65-1.053-5.793-3.817-7.543-5.04-.51-.352-1.098-.282-1.454.09l-2.972 3.12-3.256 2.82c-.39.337-.487.92-.16 1.445 1.14 1.804 3.708 6.07 4.683 7.768.11.184.392.77-.24 1.315-.397.327-3.807 2.744-5.053 3.627l-.408.29c-.683.48-1.152.04-1.294-.116-1.318-1.433-4.567-5.108-5.952-6.756-.404-.473-.995-.567-1.442-.31l-3.734 2.148-1.516.874c-.546.302-1.17.577-1.672.797-.255.113-.48.21-.642.29-.47.214-.72.74-.54 1.33.63 2.03 2 6.798 2.5 8.684.055.205.175.843-.588 1.186-.087.03-.28.12-.55.246-.59.273-1.543.715-2.53 1.073l-3.192 1.092c-.792.27-1.132-.28-1.23-.47-.9-1.726-3.098-6.162-3.998-8.084-.265-.555-.803-.77-1.29-.605-.502.204-1.535.504-2.462.685l-1.705.395-4.197.975c-.498.138-.887.518-.867 1.146.08 2.115.155 7.05.144 8.992 0 .212-.05.854-.88.962-.174.016-.774.095-1.55.198-1.846.246-4.686.623-5.125.574-.835.026-1.02-.6-1.065-.808-.42-1.91-1.39-6.79-1.763-8.89-.112-.61-.576-.974-1.09-.96l-4.31.116-4.296-.32c-.514-.037-.995.305-1.135.908-.47 2.08-1.668 6.91-2.18 8.8-.053.205-.268.82-1.1.755-.423.03-3.223-.475-5.063-.81-.78-.14-1.387-.25-1.57-.275-.82-.147-.842-.79-.832-1.002.08-1.94.39-6.867.568-8.975.05-.626-.32-1.024-.812-1.186l-4.145-1.17-1.684-.476c-.917-.224-1.935-.572-2.426-.8-.48-.188-1.026.002-1.318.545-.99 1.877-3.393 6.205-4.375 7.887-.105.184-.47.718-1.25.412l-3.12-1.235c-.968-.4-1.9-.888-2.48-1.193-.268-.14-.46-.24-.55-.277-.746-.38-.596-1.01-.53-1.212.587-1.86 2.178-6.558 2.905-8.556.206-.583-.018-1.12-.477-1.355-.16-.088-.38-.197-.63-.32-.488-.245-1.1-.55-1.63-.876l-1.474-.944-3.63-2.322c-.432-.278-1.028-.21-1.453.242-1.46 1.58-4.878 5.098-6.263 6.47-.15.15-.64.566-1.297.053l-.437-.343c-1.23-.963-4.44-3.474-4.832-3.827-.606-.572-.296-1.146-.18-1.325 1.055-1.65 3.82-5.79 5.044-7.538.352-.51.282-1.097-.09-1.452l-3.12-2.97-2.823-3.255c-.336-.39-.92-.487-1.446-.16-1.805 1.14-6.072 3.706-7.77 4.68-.185.108-.773.39-1.317-.242-.323-.39-2.683-3.716-3.594-5l-.324-.456c-.484-.682-.043-1.15.113-1.293 1.436-1.32 5.112-4.565 6.76-5.95.474-.403.57-.994.31-1.44l-2.148-3.732-.874-1.517c-.3-.54-.574-1.164-.794-1.663-.114-.258-.213-.483-.294-.647-.212-.47-.74-.72-1.33-.54-2.032.63-6.8 2-8.688 2.497-.206.056-.843.176-1.187-.586-.03-.087-.12-.28-.246-.55-.273-.59-.716-1.54-1.074-2.528l-1.092-3.19c-.27-.79.28-1.132.47-1.228 1.727-.9 6.166-3.097 8.088-3.997.557-.265.773-.802.606-1.29-.203-.5-.503-1.534-.684-2.46l-.396-1.704-.975-4.194c-.138-.5-.518-.888-1.147-.867-2.116.08-7.055.154-8.997.143-.213 0-.856-.05-.964-.878-.015-.175-.095-.776-.198-1.55-.246-1.846-.623-4.684-.574-5.123-.026-.833.6-1.02.808-1.063 1.912-.42 6.795-1.39 8.896-1.76.61-.114.974-.577.96-1.092l-.116-4.305.32-4.295c.037-.514-.305-.994-.908-1.135-2.082-.47-6.914-1.668-8.804-2.178-.207-.055-.822-.27-.756-1.1-.032-.425.478-3.24.81-5.078.14-.772.25-1.37.275-1.552.146-.822.79-.843 1.002-.833 1.94.08 6.87.39 8.98.568.627.05 1.025-.32 1.187-.81l1.17-4.145.476-1.684c.224-.917.573-1.934.8-2.425.188-.48-.002-1.027-.545-1.32-1.878-.987-6.208-3.39-7.89-4.37-.185-.106-.72-.473-.412-1.25l1.235-3.118c.402-.97.89-1.904 1.195-2.485.14-.264.24-.456.276-.546.38-.743 1.01-.594 1.213-.528 1.86.587 6.56 2.178 8.56 2.904.582.206 1.12-.02 1.355-.477.088-.16.197-.38.322-.63.244-.49.547-1.1.875-1.63l.943-1.472 2.323-3.628c.278-.433.21-1.028-.242-1.454-1.582-1.46-5.102-4.876-6.473-6.26-.15-.15-.567-.638-.053-1.296l.338-.43c.96-1.227 3.48-4.445 3.833-4.836.573-.607 1.147-.296 1.326-.18 1.65 1.053 5.793 3.818 7.542 5.04.51.352 1.098.283 1.453-.09l2.97-3.12 3.258-2.82c.39-.336.486-.92.16-1.445-1.14-1.805-3.71-6.07-4.684-7.768-.108-.185-.39-.772.243-1.316.392-.323 3.73-2.69 5.01-3.596l.45-.32c.68-.48 1.15-.042 1.293.115 1.318 1.434 4.567 5.11 5.95 6.757.405.473.996.567 1.443.31l3.734-2.148 1.517-.874c.544-.3 1.167-.575 1.667-.795.258-.113.483-.212.647-.293.47-.213.72-.74.54-1.33-.63-2.03-2-6.797-2.498-8.683-.057-.206-.177-.843.585-1.187.088-.03.282-.12.55-.246.592-.274 1.544-.716 2.53-1.074l3.192-1.092c.792-.268 1.133.282 1.23.47.9 1.727 3.098 6.163 3.998 8.085.266.556.803.77 1.29.606.502-.203 1.536-.503 2.463-.684l1.705-.395 4.196-.973c.497-.14.886-.52.866-1.147-.08-2.115-.155-7.05-.144-8.992 0-.212.05-.854.88-.962.174-.015.773-.095 1.546-.198 1.847-.246 4.69-.623 5.13-.574.832-.026 1.018.6 1.063.807.422 1.913 1.392 6.793 1.763 8.893.112.61.577.974 1.092.96l4.307-.117 4.298.32c.514.037.995-.305 1.135-.908.47-2.08 1.67-6.91 2.18-8.8.053-.205.27-.82 1.1-.755.425-.032 3.24.478 5.08.812.77.14 1.372.248 1.552.273.823.147.844.79.833 1.002-.08 1.94-.39 6.867-.567 8.975-.05.627.32 1.025.81 1.187l4.147 1.17 1.685.476c.917.224 1.935.572 2.426.8.48.188 1.028-.002 1.32-.545.99-1.877 3.393-6.205 4.374-7.887.106-.184.472-.718 1.25-.412l3.12 1.235c.97.4 1.904.89 2.485 1.193.264.14.457.24.546.276.745.378.596 1.01.53 1.21-.587 1.862-2.18 6.56-2.905 8.557-.206.582.02 1.12.478 1.354.16.09.378.197.628.322.49.243 1.1.547 1.63.875l1.475.944 3.63 2.322c.434.278 1.03.21 1.455-.242 1.46-1.58 4.88-5.098 6.263-6.47.15-.15.64-.566 1.297-.053l.393.308c1.197.936 4.48 3.504 4.876 3.86.607.573.297 1.147.18 1.326-1.053 1.65-3.82 5.79-5.043 7.54-.35.51-.28 1.096.092 1.45l3.12 2.97 2.822 3.257c.338.39.92.486 1.447.16 1.807-1.14 6.074-3.707 7.773-4.68.184-.11.772-.392 1.316.24.326.396 2.738 3.796 3.624 5.045l.293.413c.482.68.042 1.15-.115 1.292-1.435 1.318-5.112 4.564-6.76 5.948-.474.404-.568.995-.31 1.442l2.15 3.732.872 1.515c.302.544.577 1.167.797 1.667.114.256.213.48.293.644.213.47.74.72 1.33.54 2.032-.63 6.802-2 8.69-2.497.204-.057.842-.177 1.185.585.032.088.122.28.246.55.275.59.717 1.542 1.075 2.53l1.092 3.19c.27.79-.28 1.13-.47 1.227-1.727.9-6.166 3.097-8.09 3.997-.555.264-.77.8-.605 1.29.204.5.504 1.533.685 2.46l.395 1.703.975 4.195c.14.497.52.886 1.148.865 2.116-.078 7.054-.154 8.997-.143zM24.58 90.293c0 36.3 29.444 65.725 65.763 65.725 36.32 0 65.76-29.426 65.76-65.725 0-36.3-29.44-65.725-65.76-65.725-36.32 0-65.762 29.426-65.762 65.725z"/><path id="i" fill-rule="evenodd" d="M16.567 8.28c0 4.57-3.71 8.278-8.284 8.278C3.71 16.558 0 12.85 0 8.278 0 3.71 3.71 0 8.283 0c4.575 0 8.284 3.707 8.284 8.28z"/><path id="j" fill-rule="evenodd" d="M0 22.706c0 12.52 10.192 22.706 22.718 22.706 12.53 0 22.72-10.186 22.72-22.706S35.25 0 22.72 0C10.192 0 0 10.186 0 22.706zm7.503 0C7.503 14.32 14.33 7.5 22.718 7.5c8.392 0 15.22 6.82 15.22 15.206-.002 8.384-6.828 15.207-15.22 15.207-8.39 0-15.215-6.823-15.215-15.207z"/><path id="k" fill-rule="evenodd" d="M0 36.57c0 20.165 16.415 36.57 36.59 36.57 20.177 0 36.59-16.405 36.59-36.57C73.18 16.406 56.768 0 36.59 0 16.416 0 0 16.406 0 36.57zm7.503 0c0-16.03 13.05-29.07 29.088-29.07 16.04 0 29.09 13.04 29.09 29.07S52.63 65.642 36.59 65.642C20.553 65.642 7.504 52.6 7.504 36.57z"/><path id="l" fill-rule="evenodd" d="M4.44 49.486L0 45.266l28.842-29.99 1.47-6.654L38.514 0l.236 9.304 9.31-.234-8.203 8.622-6.574 1.802L4.44 49.486z"/><path id="m" fill-rule="evenodd" d="M178.94 105.423c.2.066.794.32.633 1.138-.04.172-.156.766-.305 1.533-.354 1.828-.898 4.64-1.085 5.04-.24.798-.89.776-1.103.752-1.947-.208-6.885-.84-8.996-1.155-.613-.087-1.106.237-1.257.73l-1.258 4.12-1.67 3.97c-.2.475-.027 1.04.5 1.364 1.826 1.106 6.026 3.777 7.656 4.86.178.117.694.517.368 1.284-.105.412-1.478 2.908-2.38 4.546-.38.69-.675 1.23-.757 1.395-.4.73-1.018.547-1.215.47-1.815-.693-6.39-2.55-8.335-3.39-.58-.247-1.074-.022-1.383.392l-2.428 3.557-.986 1.445c-.505.798-1.158 1.652-1.53 2.045-.33.395-.325.973.098 1.422 1.467 1.534 4.81 5.188 6.093 6.652.142.16.532.675-.006 1.315l-2.163 2.564c-.688.79-1.447 1.52-1.92 1.975-.217.206-.374.357-.437.43-.596.586-1.147.243-1.318.117-1.578-1.147-5.53-4.15-7.194-5.472-.486-.38-1.067-.338-1.435.022-.134.124-.307.296-.505.494-.386.388-.87.87-1.348 1.268l-1.363 1.097-3.357 2.702c-.4.323-.527.908-.232 1.455 1.036 1.887 3.288 6.244 4.148 7.99.095.19.335.787-.36 1.247l-.422.277c-1.27.84-4.744 3.13-5.208 3.39-.736.395-1.182-.082-1.314-.25-1.23-1.522-4.28-5.458-5.55-7.173-.372-.496-.95-.616-1.406-.376l-3.81 2.014-3.984 1.64c-.476.196-.753.717-.61 1.32.507 2.073 1.586 6.932 1.97 8.852.044.21.126.856-.647 1.17-.48.185-4.498 1.398-5.953 1.838l-.47.142c-.8.24-1.104-.326-1.19-.52-.793-1.78-2.705-6.294-3.494-8.296-.233-.577-.764-.854-1.27-.753l-4.222.852-1.716.346c-.613.113-1.293.176-1.837.225-.28.026-.522.048-.703.072-.512.053-.916.472-.935 1.09-.046 2.125-.264 7.08-.39 9.027-.012.212-.102.855-.934.938-.093.002-.305.026-.6.058-.646.073-1.69.19-2.74.215l-3.374.022c-.837.004-.985-.626-1.017-.836-.305-1.922-.98-6.827-1.22-8.935-.076-.612-.517-.987-1.033-.985-.54.034-1.615-.01-2.55-.133l-1.744-.166-4.29-.41c-.515-.026-1.005.21-1.185.813-.596 2.03-2.093 6.734-2.72 8.57-.067.202-.32.795-1.14.634-.17-.04-.765-.156-1.532-.304-1.83-.354-4.643-.898-5.043-1.084-.8-.24-.777-.892-.753-1.103.21-1.946.84-6.882 1.156-8.99.087-.614-.237-1.107-.73-1.258l-4.12-1.257-3.974-1.667c-.476-.198-1.04-.027-1.366.5-1.106 1.825-3.778 6.022-4.863 7.65-.117.18-.517.695-1.284.37-.412-.106-2.907-1.477-4.546-2.377-.693-.38-1.232-.677-1.397-.76-.733-.4-.548-1.016-.47-1.213.692-1.814 2.55-6.388 3.39-8.33.248-.58.022-1.074-.392-1.383l-3.56-2.427-1.445-.985c-.8-.504-1.654-1.158-2.047-1.53-.395-.33-.974-.323-1.423.1-1.535 1.465-5.19 4.805-6.656 6.088-.158.14-.675.53-1.315-.006l-2.567-2.162c-.792-.69-1.52-1.447-1.976-1.92-.207-.216-.358-.373-.432-.437-.585-.595-.243-1.147-.117-1.318 1.148-1.577 4.15-5.525 5.475-7.19.38-.486.34-1.067-.022-1.435-.123-.134-.296-.307-.494-.505-.387-.386-.87-.868-1.267-1.346l-1.098-1.363-2.703-3.353c-.325-.4-.91-.527-1.458-.232-1.888 1.035-6.247 3.285-7.995 4.145-.19.095-.787.335-1.247-.36l-.328-.498c-.877-1.327-3.087-4.674-3.343-5.13-.395-.734.082-1.18.25-1.313 1.523-1.23 5.462-4.277 7.178-5.546.495-.373.616-.95.375-1.406l-2.014-3.808-1.642-3.982c-.196-.476-.718-.753-1.322-.61-2.074.507-6.936 1.585-8.856 1.97-.21.043-.856.125-1.17-.648-.184-.475-1.372-4.405-1.824-5.9l-.157-.518c-.242-.8.325-1.105.518-1.19 1.78-.793 6.298-2.704 8.3-3.492.58-.233.856-.763.754-1.268L12 104.47l-.346-1.714c-.114-.613-.176-1.292-.226-1.836-.025-.28-.048-.522-.072-.702-.052-.513-.473-.917-1.09-.935-2.127-.047-7.084-.264-9.03-.39-.214-.013-.857-.102-.94-.933-.002-.093-.026-.304-.06-.598-.07-.646-.188-1.69-.214-2.74L0 91.248c-.004-.836.626-.985.836-1.016 1.924-.306 6.83-.98 8.94-1.22.612-.076.987-.517.985-1.032-.033-.54.01-1.614.134-2.55l.167-1.74.41-4.288c.027-.516-.21-1.005-.813-1.185-2.03-.598-6.738-2.095-8.577-2.722-.2-.067-.794-.32-.633-1.14.04-.17.157-.764.305-1.53.354-1.83.897-4.64 1.084-5.04.24-.8.892-.776 1.104-.752 1.947.208 6.885.84 8.995 1.155.614.088 1.107-.236 1.258-.73l1.258-4.118 1.67-3.97c.198-.476.026-1.04-.5-1.365-1.826-1.106-6.026-3.777-7.656-4.86-.18-.118-.694-.517-.368-1.284.105-.413 1.48-2.915 2.382-4.553.38-.69.673-1.224.754-1.388.4-.733 1.02-.548 1.216-.47 1.815.692 6.39 2.55 8.334 3.39.58.245 1.075.02 1.384-.393l2.428-3.558.986-1.446c.504-.798 1.158-1.652 1.53-2.046.33-.394.324-.973-.098-1.422-1.467-1.534-4.81-5.187-6.093-6.652-.142-.158-.532-.675.006-1.315l2.162-2.563c.69-.792 1.45-1.52 1.922-1.975.216-.208.373-.358.437-.43.596-.587 1.147-.245 1.318-.118 1.578 1.147 5.53 4.148 7.194 5.47.485.382 1.067.34 1.435-.02.134-.124.306-.297.504-.494.386-.387.87-.87 1.347-1.268l1.364-1.097 3.357-2.7c.4-.324.527-.91.232-1.457-1.037-1.887-3.288-6.243-4.15-7.99-.093-.19-.333-.786.363-1.247l.435-.286c1.283-.846 4.73-3.122 5.194-3.382.736-.393 1.18.083 1.314.25 1.23 1.523 4.28 5.46 5.55 7.175.372.495.95.616 1.406.375l3.81-2.013 3.984-1.64c.476-.197.753-.72.61-1.322-.507-2.072-1.586-6.932-1.97-8.85-.044-.21-.126-.857.647-1.17.477-.184 4.422-1.376 5.91-1.826l.512-.155c.8-.24 1.105.326 1.19.52C68.3 5.574 70.21 10.09 71 12.092c.233.577.763.854 1.27.752l4.222-.85 1.716-.347c.612-.113 1.29-.176 1.835-.226.28-.025.523-.048.704-.072.513-.052.917-.472.936-1.09.046-2.125.263-7.08.39-9.026.012-.212.102-.855.933-.938.093-.002.306-.026.602-.06.647-.07 1.69-.188 2.74-.214L89.72 0c.837-.004.985.626 1.017.836.305 1.923.98 6.827 1.22 8.935.076.613.517.988 1.033.986.54-.034 1.615.01 2.55.132l1.743.167 4.29.41c.516.026 1.006-.21 1.186-.814.596-2.03 2.093-6.733 2.72-8.57.067-.202.32-.794 1.14-.634.17.04.766.156 1.534.305 1.83.355 4.64.898 5.04 1.085.8.24.778.89.753 1.103-.208 1.946-.84 6.88-1.155 8.99-.087.614.237 1.107.73 1.257l4.12 1.257 3.974 1.668c.476.2 1.04.027 1.365-.5 1.108-1.824 3.78-6.022 4.865-7.65.117-.18.516-.694 1.284-.368.412.105 2.917 1.48 4.556 2.38.688.38 1.223.673 1.387.754.733.4.548 1.018.47 1.215-.692 1.815-2.55 6.388-3.39 8.33-.248.58-.022 1.075.392 1.384l3.56 2.427 1.445.986c.8.504 1.653 1.157 2.047 1.528.395.33.973.325 1.423-.097 1.535-1.466 5.19-4.806 6.655-6.09.16-.14.676-.53 1.316.007l2.567 2.162c.79.688 1.52 1.446 1.975 1.92.208.216.36.373.433.436.585.596.243 1.147.116 1.318-1.147 1.578-4.15 5.526-5.473 7.19-.38.486-.34 1.067.022 1.435.122.135.295.307.494.505.386.386.868.87 1.267 1.347l1.1 1.363 2.7 3.353c.325.4.91.527 1.458.233 1.888-1.035 6.247-3.285 7.995-4.146.19-.094.786-.334 1.247.36l.305.463c.86 1.303 3.108 4.705 3.366 5.164.395.736-.082 1.18-.25 1.314-1.523 1.23-5.462 4.278-7.178 5.547-.496.372-.616.95-.375 1.406l2.014 3.807 1.642 3.982c.196.477.718.754 1.32.61 2.075-.506 6.937-1.585 8.858-1.97.21-.043.856-.124 1.17.65.186.48 1.41 4.526 1.844 5.965l.137.452c.242.798-.324 1.103-.52 1.188-1.78.794-6.296 2.704-8.3 3.493-.577.234-.854.764-.752 1.27l.85 4.22.348 1.715c.113.61.175 1.286.225 1.83.027.28.05.526.074.708.052.513.472.916 1.09.935 2.126.046 7.084.264 9.03.39.213.012.857.102.94.933.002.094.026.306.058.6.073.646.19 1.69.215 2.74l.023 3.37c.003.837-.627.985-.837 1.017-1.924.305-6.83.978-8.94 1.22-.612.076-.986.517-.984 1.032.032.538-.01 1.612-.134 2.55l-.167 1.74-.41 4.287c-.027.516.21 1.005.813 1.185 2.03.597 6.738 2.093 8.576 2.72zM28.155 69.578c-11.54 34.418 7.023 71.67 41.46 83.202 34.437 11.533 71.71-7.02 83.248-41.437 11.54-34.42-7.023-71.67-41.46-83.203-34.438-11.532-71.71 7.02-83.248 41.438z"/><path id="n" fill-rule="evenodd" d="M69.055 41.69h1.62c2.15 0 3.89 1.742 3.89 3.89 0 2.147-1.74 3.888-3.89 3.888H52.024l9.09 19.44h-5.404l-9.09-19.44h-6.635v19.44H34.58l.002-19.44h-6.635l-9.09 19.44h-5.403l9.09-19.44H3.89c-2.148 0-3.89-1.74-3.89-3.888 0-2.148 1.742-3.89 3.89-3.89h1.62V7.778H3.89C1.743 7.777 0 6.037 0 3.887 0 1.742 1.742 0 3.89 0h66.786c2.15 0 3.89 1.74 3.89 3.888 0 2.148-1.74 3.89-3.89 3.89h-1.62V41.69zm-49.19-4.566h6.917V11.202h-6.916v25.922zm16.223 0h-6.916v-19.91h6.916v19.91zm2.39 0h6.916v-14.36h-6.916v14.36zm9.306 0H54.7v-9.017h-6.916v9.017z"/><path id="o" fill-rule="evenodd" d="M222.508 119.475c.228.05.91.257.863 1.14.125.644-.677 6.426-.823 7.072-.133.875-.84.927-1.074.926-2.138.003-7.575-.087-9.905-.17-.677-.02-1.158.39-1.242.94-.033.192-.07.452-.115.75-.083.583-.19 1.31-.326 1.966l-.47 1.823-1.156 4.493c-.138.537.14 1.12.763 1.395 2.15.938 7.122 3.217 9.06 4.147.2.096.863.463.58 1.303l-2.443 6.703c-.306.832-1.004.726-1.23.673-2.077-.473-7.338-1.77-9.583-2.37-.665-.173-1.176.137-1.418.637l-2.014 4.178-2.014 4.18c-.26.49-.17 1.092.377 1.5 1.867 1.385 6.16 4.692 7.823 6.023.182.143.7.623.24 1.38l-3.712 6.088c-.52.717-1.19.45-1.398.346-1.935-.935-6.813-3.4-8.885-4.496-.604-.314-1.23-.167-1.563.278l-2.78 3.715s-.5.712-1.147 1.493l-1.854 2.038c-.375.41-.39 1.044.046 1.56 1.52 1.77 4.99 5.964 6.323 7.636.146.182.548.767-.05 1.422l-2.398 2.622-2.637 2.41c-.654.597-1.24.195-1.422.048-1.673-1.333-5.868-4.8-7.64-6.318-.517-.438-1.15-.422-1.56-.048l-2.04 1.853c-.782.645-1.495 1.146-1.495 1.146l-3.717 2.778c-.443.332-.59.958-.276 1.562 1.096 2.07 3.563 6.947 4.498 8.88.103.21.37.878-.345 1.398l-6.09 3.71c-.76.46-1.24-.06-1.383-.24-1.33-1.664-4.64-5.953-6.025-7.82-.41-.545-1.012-.635-1.502-.376l-4.18 2.013-4.182 2.015c-.5.24-.81.752-.636 1.416.6 2.245 1.897 7.503 2.37 9.58.052.225.16.922-.673 1.228l-6.707 2.443c-.84.282-1.207-.38-1.304-.58-.93-1.936-3.21-6.905-4.148-9.055-.276-.622-.86-.9-1.396-.76l-4.495 1.154-1.825.47c-.655.135-1.38.24-1.96.325-.3.044-.564.082-.76.116-.548.084-.957.565-.938 1.24.082 2.33.173 7.764.17 9.9 0 .234-.05.942-.927 1.075-.622.14-6.407.946-7.076.823-.882.047-1.09-.634-1.14-.862-.474-2.09-1.586-7.424-2.022-9.72-.13-.667-.636-1.055-1.19-1.027l-4.636.234-4.636-.235c-.554-.03-1.06.36-1.19 1.025-.436 2.297-1.548 7.632-2.023 9.72-.05.23-.257.91-1.14.863-.645.124-6.43-.677-7.076-.823-.876-.133-.928-.84-.927-1.074-.003-2.136.087-7.57.17-9.9.02-.675-.39-1.156-.94-1.24-.194-.033-.456-.07-.757-.115-.582-.085-1.306-.19-1.96-.326l-1.826-.47-4.495-1.156c-.538-.138-1.12.14-1.396.76-.938 2.15-3.217 7.12-4.15 9.057-.094.2-.462.862-1.302.58l-6.707-2.442c-.832-.306-.725-1.003-.673-1.23.473-2.075 1.77-7.333 2.37-9.577.175-.663-.136-1.174-.636-1.415l-4.18-2.014-4.182-2.012c-.49-.26-1.092-.17-1.5.376-1.386 1.867-4.695 6.156-6.026 7.82-.144.18-.624.7-1.382.24l-6.09-3.71c-.717-.52-.45-1.19-.346-1.398.935-1.933 3.4-6.81 4.498-8.88.314-.604.167-1.23-.277-1.562l-3.717-2.778s-.713-.5-1.495-1.147l-2.038-1.854c-.41-.374-1.044-.39-1.562.048-1.77 1.52-5.966 4.985-7.64 6.318-.18.147-.767.55-1.42-.047l-2.624-2.398-2.413-2.635c-.597-.655-.195-1.24-.048-1.422 1.334-1.672 4.802-5.865 6.323-7.635.438-.517.42-1.15.047-1.56l-1.854-2.04c-.645-.78-1.147-1.492-1.147-1.492l-2.78-3.715c-.33-.445-.958-.592-1.562-.278-2.07 1.096-6.95 3.56-8.884 4.496-.208.103-.88.37-1.398-.345-.33-.54-3.37-5.526-3.713-6.086-.46-.758.06-1.238.24-1.38 1.665-1.332 5.957-4.64 7.824-6.023.545-.408.635-1.01.376-1.5l-2.014-4.18-2.014-4.177c-.243-.5-.753-.81-1.418-.636-2.245.6-7.506 1.896-9.583 2.37-.226.052-.924.158-1.23-.674l-.845-2.317-1.6-4.386c-.28-.84.382-1.207.58-1.303 1.94-.93 6.91-3.21 9.062-4.146.622-.275.9-.857.76-1.394l-1.155-4.493-.47-1.824c-.137-.66-.243-1.388-.328-1.97-.043-.297-.08-.556-.114-.748-.084-.55-.565-.958-1.242-.938-2.33.082-7.767.172-9.905.17-.232 0-.94-.052-1.073-.927-.14-.622-.947-6.403-.824-7.072-.047-.883.635-1.09.863-1.14 2.09-.474 7.428-1.587 9.726-2.02.666-.132 1.055-.637 1.027-1.19l-.236-4.634.235-4.632c.027-.555-.362-1.06-1.028-1.19-2.298-.435-7.636-1.547-9.726-2.022-.228-.05-.91-.257-.863-1.14-.124-.644.678-6.426.824-7.07.133-.877.84-.93 1.074-.928 2.14-.003 7.576.087 9.906.17.677.02 1.158-.39 1.242-.938.033-.193.07-.45.114-.748.085-.583.19-1.312.328-1.97l.47-1.824 1.155-4.492c.14-.538-.14-1.12-.76-1.396-2.152-.937-7.123-3.215-9.062-4.146-.2-.096-.86-.463-.58-1.303l2.392-6.56.052-.142c.306-.832 1.004-.725 1.23-.672 2.077.472 7.338 1.77 9.583 2.37.665.173 1.175-.138 1.418-.637l2.014-4.18L23.426 64c.26-.49.17-1.09-.377-1.5-1.868-1.383-6.16-4.69-7.824-6.02-.182-.145-.7-.625-.242-1.382l3.714-6.088c.52-.716 1.19-.447 1.398-.345 1.934.935 6.813 3.4 8.885 4.496.605.315 1.232.168 1.564-.276l2.78-3.715s.5-.714 1.147-1.495l1.855-2.038c.374-.41.39-1.044-.047-1.56-1.52-1.77-4.99-5.964-6.323-7.636-.146-.18-.55-.766.048-1.42l2.4-2.622 2.636-2.412c.653-.596 1.24-.194 1.42-.047 1.674 1.332 5.87 4.798 7.64 6.317.518.44 1.15.422 1.562.05.43-.392 1.288-1.172 2.04-1.854.78-.646 1.494-1.148 1.494-1.148l3.717-2.778c.444-.332.59-.958.277-1.562-1.097-2.07-3.563-6.947-4.498-8.88-.103-.208-.37-.878.345-1.397l6.09-3.712c.76-.458 1.24.06 1.383.242 1.33 1.663 4.64 5.953 6.025 7.82.41.544 1.01.635 1.5.375l4.182-2.013 4.18-2.013c.5-.242.812-.752.638-1.417-.6-2.243-1.898-7.5-2.37-9.577-.053-.226-.16-.924.672-1.23l6.707-2.443c.84-.28 1.208.38 1.303.58.932 1.937 3.21 6.907 4.15 9.056.275.622.857.9 1.395.76l4.495-1.154 1.826-.47c.654-.136 1.38-.24 1.96-.326.302-.043.564-.082.758-.116.55-.083.96-.564.94-1.24-.083-2.33-.173-7.763-.17-9.9 0-.233.05-.94.927-1.073.622-.14 6.406-.947 7.076-.824.883-.047 1.09.634 1.14.862.475 2.09 1.587 7.424 2.023 9.72.13.667.636 1.055 1.19 1.027l4.636-.235 4.636.235c.554.028 1.06-.36 1.19-1.026.436-2.297 1.548-7.63 2.022-9.72.05-.23.258-.91 1.14-.863.646-.124 6.43.677 7.077.824.876.133.928.84.926 1.073.004 2.137-.087 7.57-.17 9.9-.018.676.39 1.157.94 1.24.194.034.457.072.758.116.582.085 1.307.19 1.962.326l1.825.47 4.495 1.155c.537.138 1.12-.14 1.396-.76.938-2.15 3.217-7.12 4.148-9.056.097-.2.464-.86 1.304-.58l6.707 2.443c.832.306.725 1.004.673 1.23-.473 2.076-1.77 7.334-2.37 9.577-.175.665.136 1.175.636 1.417l4.18 2.013 4.182 2.013c.49.26 1.092.17 1.5-.376 1.386-1.866 4.695-6.156 6.026-7.82.144-.18.624-.7 1.382-.24l6.09 3.71c.717.52.45 1.19.346 1.398-.935 1.933-3.402 6.81-4.498 8.88-.315.604-.167 1.23.277 1.562l3.718 2.778s.713.502 1.495 1.148l2.04 1.853c.41.373 1.043.39 1.56-.048 1.772-1.52 5.967-4.986 7.64-6.32.18-.146.768-.548 1.422.048l2.623 2.4 2.413 2.634c.598.654.196 1.24.05 1.42-1.335 1.673-4.803 5.866-6.324 7.636-.437.517-.42 1.15-.047 1.56l1.853 2.04c.646.78 1.148 1.493 1.148 1.493l2.78 3.714c.333.444.96.59 1.563.277 2.072-1.095 6.95-3.56 8.885-4.495.21-.102.878-.37 1.398.345l3.713 6.088c.458.757-.06 1.237-.242 1.38-1.664 1.33-5.956 4.64-7.823 6.023-.546.41-.636 1.01-.377 1.5l2.014 4.18 2.014 4.18c.242.498.753.81 1.418.635 2.245-.6 7.506-1.897 9.583-2.37.226-.052.924-.16 1.23.673L218.66 78c.283.84-.38 1.208-.58 1.304-1.938.93-6.91 3.21-9.06 4.146-.622.276-.9.858-.762 1.396l1.156 4.492.47 1.825c.137.656.243 1.382.327 1.965.045.298.083.558.116.752.084.55.565.957 1.242.938 2.33-.083 7.767-.173 9.905-.17.233 0 .94.05 1.074.927.14.62.948 6.403.824 7.07.048.884-.634 1.09-.862 1.14-2.09.476-7.428 1.588-9.725 2.023-.667.13-1.056.635-1.027 1.19l.234 4.633-.234 4.634c-.03.554.36 1.06 1.027 1.19 2.297.434 7.635 1.547 9.725 2.02zM25.315 111.63c0 47.68 38.672 86.33 86.377 86.33s86.377-38.65 86.377-86.33c0-47.678-38.673-86.33-86.378-86.33s-86.377 38.652-86.377 86.33z"/><path id="p" fill-rule="evenodd" d="M109.94 63.566h-6.945V3.42c0-1.89-1.53-3.42-3.42-3.42H91.59c-1.89 0-3.422 1.53-3.422 3.42v60.146H83.42V14.82c0-1.89-1.532-3.42-3.422-3.42h-7.984c-1.89 0-3.42 1.53-3.42 3.42v48.746h-4.75V26.22c0-1.89-1.53-3.42-3.42-3.42h-7.985c-1.89 0-3.423 1.53-3.423 3.42v37.346H44.27V37.618c0-1.888-1.533-3.42-3.422-3.42h-7.985c-1.89 0-3.42 1.532-3.42 3.42l-.002 25.948h-4.746V49.018c0-1.89-1.532-3.42-3.422-3.42h-7.984c-1.89 0-3.422 1.53-3.422 3.42v14.548H2.923C1.308 63.566 0 64.874 0 66.488v1.967c0 1.613 1.308 2.92 2.923 2.92H109.94c1.613 0 2.922-1.307 2.922-2.92v-1.967c0-1.614-1.31-2.922-2.923-2.922z"/><path id="q" fill-rule="evenodd" d="M1.072 26.787l.817 1.375c.51.86 1.623 1.143 2.483.632l28.74-17.07c.987-.586 2.037-1.064 2.762.156l.843 1.417c.818 1.377 2.308.252 2.555-.717l2.084-8.185c.123-.484.033-.97-.203-1.367l-.02-.033-.02-.034c-.237-.397-.62-.708-1.104-.83L31.82.045c-.97-.247-2.67.523-1.852 1.9l.843 1.417c.726 1.22-.196 1.912-1.184 2.5C28.05 6.797.886 22.93.886 22.93c-.86.512-1.143 1.623-.63 2.483l.816 1.374z"/><path id="r" fill-rule="evenodd" d="M120.655 70.516c2.14.467 6.975 1.697 8.865 2.238.207.057.82.28.694 1.124-.05.61-.95 6.15-1.255 6.732-.212.826-.87.814-1.083.793-1.97-.177-6.953-.773-9.078-1.095-.066-.01-.12.007-.17.024-.037.01-.073.023-.113.026-.94 3.308-2.185 6.48-3.695 9.502.028.03.047.063.066.096.03.048.058.096.113.134 1.798 1.198 5.905 4.126 7.488 5.325.163.123.696.578.27 1.316-.084.133-.34.558-.677 1.124-.963 1.61-2.606 4.355-2.947 4.686-.507.684-1.117.433-1.31.335-1.774-.88-6.212-3.25-8.08-4.324-.058-.03-.114-.035-.17-.04-.037 0-.075-.004-.114-.016-2.06 2.72-4.357 5.237-6.874 7.53.015.04.02.077.027.114.01.055.018.11.056.165 1.24 1.762 4.01 5.963 5.052 7.65.115.18.422.765-.21 1.334-.318.352-3.104 2.41-4.583 3.5-.434.32-.756.558-.87.645-.717.457-1.202-.005-1.344-.164-1.34-1.464-4.635-5.28-5.995-6.955-.04-.05-.09-.075-.142-.1-.035-.015-.07-.032-.1-.057-2.88 1.786-5.926 3.316-9.126 4.555 0 .042-.008.078-.016.115-.01.054-.023.108-.008.173.52 2.086 1.578 6.994 1.937 8.938.042.21.115.865-.687 1.156-.526.357-5.98 1.733-6.594 1.88-.827.207-1.107-.38-1.183-.582-.708-1.807-2.398-6.592-3.056-8.65-.02-.062-.06-.103-.098-.145-.026-.028-.052-.056-.073-.09-3.296.612-6.68.97-10.155.97h-.012c-.013.038-.034.07-.054.102-.03.046-.058.092-.067.153-.27 2.124-1.055 7.062-1.42 8.996-.038.212-.206.843-1.055.802l-3.408-.18c-1.073-.074-2.14-.247-2.8-.354-.294-.048-.507-.083-.604-.09-.843-.127-.892-.78-.89-.996-.007-1.974.125-6.984.248-9.127.003-.064-.02-.115-.04-.165-.015-.035-.03-.07-.037-.11-3.394-.63-6.666-1.58-9.81-2.8-.027.03-.058.054-.09.076-.045.035-.09.067-.122.126-1.028 1.9-3.565 6.263-4.614 7.95-.108.177-.512.75-1.277.373-.15-.08-.65-.317-1.307-.627-1.712-.81-4.482-2.116-4.82-2.445-.73-.44-.538-1.07-.458-1.27.714-1.846 2.665-6.48 3.56-8.437.028-.06.026-.115.025-.17 0-.038-.002-.076.006-.115-2.904-1.8-5.62-3.86-8.134-6.15-.038.02-.074.028-.11.038-.055.014-.11.028-.16.07-1.642 1.398-5.575 4.542-7.16 5.735-.17.13-.726.49-1.352-.086-.46-.395-4.22-4.565-4.62-5.05-.514-.678-.105-1.197.042-1.355 1.334-1.468 4.83-5.095 6.374-6.602.047-.047.066-.1.085-.152.012-.036.025-.072.047-.106-2.05-2.706-3.85-5.598-5.38-8.66-.04.004-.078 0-.115-.005-.055-.007-.11-.013-.172.008-2.032.71-6.826 2.22-8.73 2.76-.208.06-.853.195-1.22-.575-.32-.377-1.51-3.684-2.132-5.406-.176-.49-.306-.85-.357-.98-.286-.803.27-1.135.467-1.23 1.78-.888 6.366-3.007 8.357-3.854.06-.027.098-.07.135-.11.025-.03.05-.06.083-.083-.92-3.233-1.574-6.575-1.89-10.022-.037-.01-.07-.027-.102-.045-.047-.026-.094-.053-.162-.055-2.144-.076-7.142-.406-9.105-.593-.214-.02-.86-.127-.904-.976L0 65.275l.16-3.424c.042-.85.69-.958.903-.976 1.963-.188 6.96-.517 9.105-.593.068-.002.115-.028.164-.055.03-.017.063-.035.102-.046.315-3.447.97-6.79 1.89-10.023-.034-.024-.06-.053-.085-.082-.038-.042-.075-.084-.136-.11-1.99-.847-6.576-2.967-8.357-3.854-.197-.095-.753-.427-.466-1.23.052-.127.187-.5.37-1.01.62-1.722 1.795-4.985 2.12-5.375.367-.77 1.012-.635 1.22-.574 1.904.54 6.698 2.05 8.73 2.76.062.022.117.015.172.01.037-.006.075-.01.116-.006 1.528-3.063 3.33-5.954 5.38-8.66-.023-.035-.036-.07-.05-.106-.018-.053-.037-.105-.084-.152-1.545-1.507-5.04-5.135-6.374-6.603-.147-.158-.556-.677-.042-1.355.385-.467 4.143-4.637 4.62-5.05.627-.575 1.18-.217 1.352-.085 1.585 1.192 5.518 4.337 7.16 5.734.05.043.105.057.16.07.036.01.072.02.11.04 2.512-2.293 5.23-4.35 8.133-6.15-.008-.04-.007-.08-.006-.116 0-.055.003-.11-.024-.17-.896-1.958-2.847-6.592-3.56-8.438-.08-.2-.274-.83.456-1.27.323-.32 3.09-1.627 4.808-2.438.66-.312 1.164-.55 1.32-.632.764-.377 1.168.196 1.276.372 1.05 1.688 3.586 6.05 4.614 7.95.032.06.077.092.123.125.03.02.062.044.09.075 3.144-1.22 6.417-2.17 9.81-2.8.006-.04.02-.075.036-.11.02-.05.043-.1.04-.166-.123-2.144-.255-7.154-.248-9.127-.002-.215.047-.87.89-.997.093-.007.302-.04.592-.088.654-.106 1.72-.28 2.794-.355l3.426-.18c.85-.042 1.017.59 1.054.8.366 1.935 1.15 6.873 1.42 8.997.01.062.04.107.068.154.02.032.04.063.054.1h.012c3.474 0 6.86.36 10.155.973.02-.036.047-.064.073-.092.04-.04.077-.083.098-.146.658-2.058 2.348-6.843 3.057-8.65.077-.2.357-.79 1.184-.58.592.142 6.047 1.513 6.594 1.88.802.29.73.943.687 1.154-.36 1.945-1.418 6.852-1.937 8.94-.015.063-.004.117.008.17.008.038.016.075.016.115 3.2 1.24 6.245 2.768 9.124 4.554.032-.025.067-.04.1-.057.052-.024.103-.048.145-.1 1.36-1.676 4.655-5.49 5.996-6.954.142-.16.627-.62 1.345-.164.11.082.424.315.852.63 1.47 1.085 4.267 3.15 4.6 3.514.632.568.325 1.153.21 1.335-1.042 1.684-3.813 5.886-5.053 7.648-.04.054-.048.11-.057.164-.006.038-.012.075-.027.113 2.517 2.294 4.815 4.81 6.873 7.53.038-.01.076-.013.113-.016.056-.005.11-.01.17-.04 1.868-1.074 6.306-3.443 8.08-4.325.193-.098.803-.35 1.31.335.332.318 1.98 3.07 2.948 4.686.337.563.592.987.68 1.124.424.737-.11 1.193-.272 1.315-1.583 1.2-5.69 4.127-7.487 5.325-.054.038-.083.086-.112.135-.02.032-.038.065-.066.095 1.51 3.023 2.755 6.194 3.695 9.502.04.004.076.015.11.027.054.015.106.032.172.022 2.124-.32 7.108-.918 9.077-1.095.214-.02.87-.033 1.082.793.298.56 1.2 6.1 1.254 6.733.126.842-.487 1.066-.694 1.123-1.89.54-6.725 1.77-8.865 2.24-.065.014-.11.048-.155.083-.03.022-.06.046-.098.064.154 1.682.257 3.38.257 5.1 0 1.724-.104 3.42-.258 5.103.037.017.067.04.098.065.045.034.09.07.155.084zm-98.108-5.25c0 23.496 19.06 42.544 42.569 42.544 23.51 0 42.568-19.048 42.568-42.545 0-23.497-19.06-42.544-42.569-42.544-23.51 0-42.568 19.048-42.568 42.545z"/><path id="s" fill-rule="evenodd" d="M8.474 1.657c0 .915-.742 1.657-1.658 1.657H1.658C.742 3.314 0 2.572 0 1.657S.742 0 1.658 0h5.158c.916 0 1.658.742 1.658 1.657z"/><path id="t" fill-rule="evenodd" d="M8.474 1.657c0 .915-.742 1.657-1.658 1.657H1.658C.742 3.314 0 2.572 0 1.657S.742 0 1.658 0h5.158c.916 0 1.658.742 1.658 1.657z"/><path id="u" fill-rule="evenodd" d="M3.434 0h29.85c1.898 0 3.436 1.537 3.436 3.432v36.463c0 1.896-1.538 3.432-3.435 3.432H3.435C1.537 43.328 0 41.791 0 39.895v-5.16h1.21c.51.366 1.13.586 1.805.586 1.714 0 3.103-1.387 3.103-3.1 0-1.714-1.39-3.103-3.103-3.103-.675 0-1.295.22-1.804.587H0V24.18h1.21c.51.365 1.13.586 1.805.586 1.714 0 3.103-1.39 3.103-3.102 0-1.714-1.39-3.102-3.103-3.102-.675 0-1.296.22-1.805.587H0v-5.526h1.21c.51.365 1.13.586 1.805.586 1.714 0 3.103-1.39 3.103-3.102 0-1.713-1.39-3.102-3.103-3.102-.675 0-1.295.22-1.804.586H0v-5.16C0 1.537 1.538 0 3.434 0zm5.96 28.112c-.12.552-.352 1.622-.64 3.08h21.922c-.194-1.142-.386-2.108-.572-2.806-.2-.913-.482-1.396-1.166-1.704-.684-.308-5.98-3.465-5.98-3.465-.007.016-.018.033-.03.05-.01.012-.017.024-.024.036l-.06-1.06.06-.2.017.01c.012.007.023.014.03.022.222-.6.404-1.095.555-1.55.11-.037.2-.095.26-.413.05-.274.102-.69.143-1.09.096-.522.15-1.07.165-1.747.01-.477.072-1.015.133-1.557.187-1.64.378-3.322-.803-3.48-.217-3.1-6.742-1.772-6.898-.767-1.713-.015-1.513 2.336-1.377 3.924.025.294.048.562.056.784.05 1.368.2 2.38.384 3.167.033.29.07.567.107.767.052.28.138.36.24.4.114.314.23.585.334.835.108.258.207.493.286.728l.047-.002c.03.102.052.17.052.17l-.148.763-6.126 3.59s-.78.527-.88 1.105c-.007.044-.037.184-.086.412z"/><path id="v" fill-rule="evenodd" d="M141.348 80.37c1.68.424 3.333.864 4.264 1.117.202.055.812.272.72 1.082l-.496 3.233c-.034.254-.086.504-.136.75-.024.11-.047.222-.068.33l-.197.97-.242 1.173c-.083.398-.282.6-.49.695-.214.097-.427.092-.532.084-.962-.077-2.67-.223-4.395-.394-1.725-.168-3.47-.362-4.515-.485-.084-.01-.164-.01-.242-.007-.415 1.627-.897 3.25-1.448 4.866-.55 1.616-1.162 3.195-1.827 4.736.058.05.123.1.195.142.904.542 2.403 1.453 3.872 2.373 1.47.918 2.91 1.845 3.72 2.372.09.057.26.184.37.39.107.204.142.484-.036.85l-.52 1.065-.434.885-.24.486-.123.25-.135.244-1.593 2.877c-.422.698-1.038.497-1.23.417-.893-.367-2.472-1.028-4.06-1.718-1.588-.69-3.186-1.408-4.143-1.846-.077-.035-.154-.06-.23-.08-1.82 2.89-3.857 5.6-6.078 8.117.04.07.09.14.148.208.693.798 1.838 2.132 2.94 3.455 1.107 1.324 2.183 2.648 2.785 3.397.132.163.492.692-.066 1.287l-.812.862-.112.118c-.068.073-.14.15-.215.224l-.37.36-.788.764c-.175.167-.348.335-.518.5-.355.344-.694.673-.993.944l-.9.792c-.613.538-1.13.162-1.29.025-.732-.625-2.023-1.74-3.315-2.887-1.292-1.145-2.582-2.318-3.36-3.037-.067-.06-.137-.113-.207-.157-2.612 2.166-5.388 4.115-8.296 5.833.017.076.04.154.074.232.41.97 1.084 2.586 1.73 4.193.645 1.606 1.262 3.202 1.605 4.103.04.1.103.303.07.532-.017.115-.058.237-.14.355-.08.12-.2.234-.382.326l-2.9 1.51-2.98 1.38c-.185.086-.35.112-.494.103-.143-.008-.264-.05-.365-.107-.203-.115-.325-.29-.38-.38-.505-.822-1.392-2.285-2.27-3.777-.88-1.492-1.748-3.012-2.265-3.93-.042-.073-.088-.14-.14-.2-3.136 1.252-6.376 2.258-9.688 3-.007.084-.01.17 0 .26.093 1.056.234 2.793.35 4.515.12 1.722.215 3.426.263 4.386.01.21-.007.85-.807 1.005l-1.164.225c-.395.07-.86.138-1.346.208l-.72.105-1.088.158-.51.073c-.108.014-.213.024-.314.033l-.16.016-1.192.116c-.812.078-1.01-.53-1.06-.734-.225-.934-.617-2.595-.99-4.28-.374-1.68-.73-3.4-.94-4.436-.017-.087-.042-.168-.073-.245-3.35.222-6.74.177-10.144-.147-.03.072-.057.15-.076.23-.238 1.026-.645 2.73-1.07 4.407-.422 1.678-.863 3.332-1.116 4.262-.054.2-.27.812-1.08.718l-3.237-.494c-.254-.034-.504-.086-.75-.137-.11-.024-.222-.047-.33-.068l-.97-.198-1.174-.24c-.4-.084-.6-.283-.698-.492-.095-.212-.09-.425-.082-.53.077-.963.223-2.67.393-4.394.17-1.725.363-3.467.486-4.513.01-.083.01-.164.006-.24-1.627-.416-3.25-.898-4.868-1.45-1.617-.55-3.197-1.16-4.74-1.825-.05.06-.098.123-.142.195-.54.904-1.453 2.402-2.373 3.87-.92 1.47-1.846 2.91-2.374 3.72-.058.087-.185.26-.39.368-.205.107-.485.14-.852-.036l-1.065-.52-.886-.434-.486-.24-.248-.123-.245-.134-2.878-1.592c-.7-.42-.5-1.037-.42-1.23.37-.89 1.03-2.47 1.72-4.056.69-1.588 1.41-3.184 1.848-4.14.035-.078.06-.155.08-.23-2.89-1.82-5.603-3.856-8.122-6.076-.07.042-.14.09-.207.15-.8.692-2.133 1.836-3.457 2.938-1.325 1.106-2.65 2.18-3.4 2.783-.163.132-.692.492-1.287-.066l-.864-.812-.116-.11c-.074-.07-.15-.14-.226-.216l-.358-.37-.766-.79-.507-.523c-.343-.352-.67-.69-.94-.986l-.792-.898c-.538-.612-.162-1.13-.025-1.29.625-.73 1.74-2.02 2.888-3.31 1.146-1.294 2.32-2.583 3.04-3.36.06-.067.113-.137.157-.207-2.168-2.61-4.12-5.385-5.837-8.292-.077.018-.155.042-.233.075-.97.41-2.587 1.083-4.195 1.728-1.606.645-3.203 1.262-4.105 1.605-.1.038-.302.103-.53.07-.116-.018-.238-.06-.356-.14-.12-.08-.233-.2-.326-.382l-1.51-2.897-1.38-2.98c-.087-.184-.113-.348-.104-.492.008-.143.05-.264.107-.365.114-.203.29-.324.378-.38.823-.504 2.287-1.39 3.78-2.267 1.492-.88 3.014-1.748 3.93-2.264.075-.042.142-.09.203-.14-1.253-3.135-2.26-6.373-3.004-9.683-.083-.01-.17-.01-.26-.002-1.055.094-2.793.235-4.517.352-1.722.12-3.427.214-4.388.262-.21.01-.85-.008-1.006-.807L.718 85.78c-.07-.394-.138-.86-.21-1.346-.033-.235-.067-.475-.103-.715l-.158-1.09-.073-.51C.16 82.01.15 81.906.14 81.803l-.016-.156-.117-1.192c-.078-.812.53-1.01.734-1.06.936-.225 2.597-.616 4.282-.99 1.68-.373 3.403-.73 4.44-.938.087-.018.168-.043.244-.074-.22-3.348-.175-6.737.15-10.138-.073-.03-.15-.057-.232-.076-1.026-.238-2.73-.644-4.41-1.07-1.678-.42-3.332-.862-4.263-1.115-.2-.055-.81-.272-.718-1.082l.495-3.233c.034-.255.086-.506.137-.752.023-.11.046-.22.067-.33l.2-.968.24-1.173c.084-.398.282-.6.492-.696.212-.095.425-.09.53-.08.963.076 2.67.22 4.396.392 1.726.17 3.47.362 4.515.486.084.01.165.01.242.006.415-1.626.897-3.25 1.448-4.865.552-1.617 1.162-3.197 1.828-4.738-.058-.05-.123-.1-.195-.142-.903-.542-2.402-1.453-3.872-2.372-1.47-.92-2.91-1.846-3.72-2.373-.09-.057-.26-.183-.37-.39-.107-.204-.14-.484.036-.85l.52-1.065.433-.885.24-.486.123-.25.135-.244 1.594-2.877c.42-.7 1.037-.5 1.23-.42.892.37 2.47 1.03 4.06 1.72 1.587.69 3.185 1.408 4.142 1.846.077.035.154.06.23.08 1.822-2.89 3.857-5.6 6.078-8.117-.04-.072-.09-.14-.15-.21-.692-.796-1.837-2.13-2.94-3.452-1.106-1.325-2.18-2.648-2.784-3.398-.13-.163-.492-.69.066-1.286l.813-.864c.035-.037.07-.076.108-.115.07-.074.14-.15.217-.226l.37-.36.788-.766c.177-.168.352-.338.523-.504.353-.343.69-.67.99-.94l.898-.792c.612-.538 1.13-.162 1.29-.025.73.625 2.023 1.74 3.314 2.886 1.293 1.144 2.583 2.317 3.36 3.037.068.06.137.112.207.156 2.612-2.166 5.388-4.116 8.297-5.833-.018-.077-.042-.155-.075-.233-.41-.97-1.084-2.586-1.73-4.192-.645-1.606-1.262-3.202-1.605-4.104-.037-.097-.1-.3-.068-.53.016-.115.058-.236.14-.354.08-.12.2-.234.382-.326l2.898-1.51 2.983-1.38c.183-.087.348-.113.492-.103.142.008.263.05.365.106.202.114.323.29.38.38.503.82 1.39 2.284 2.268 3.776.88 1.49 1.748 3.01 2.265 3.928.042.074.09.14.14.2 3.136-1.25 6.376-2.256 9.688-3 .008-.083.01-.17.002-.26-.095-1.054-.236-2.792-.353-4.514-.12-1.722-.214-3.425-.262-4.386-.01-.21.008-.85.808-1.005l1.165-.225c.393-.07.857-.138 1.342-.208l.72-.106 1.09-.157.51-.073c.107-.015.21-.025.31-.034.056-.006.11-.01.163-.017l1.193-.116c.812-.078 1.01.53 1.06.733.225.935.617 2.595.99 4.28.375 1.68.73 3.4.94 4.436.017.087.043.168.073.245 3.35-.22 6.742-.175 10.144.15.03-.073.057-.15.077-.232.237-1.025.644-2.728 1.07-4.406.42-1.678.862-3.33 1.115-4.262.055-.2.272-.81 1.083-.718l3.235.494c.255.035.506.087.75.138.113.023.223.046.332.066l.97.198 1.173.24c.398.085.6.283.696.493.097.213.092.426.083.53-.077.963-.223 2.67-.393 4.394-.17 1.725-.363 3.467-.486 4.513-.01.084-.01.164-.007.242 1.627.414 3.252.895 4.868 1.446 1.617.55 3.198 1.16 4.74 1.826.05-.058.098-.123.142-.195.542-.903 1.453-2.4 2.374-3.87.92-1.47 1.847-2.91 2.374-3.718.058-.09.184-.26.39-.37.204-.108.484-.142.85.035l1.066.52.886.434.487.238.248.124.246.134 2.88 1.593c.697.42.496 1.035.416 1.228-.367.892-1.03 2.47-1.72 4.056-.69 1.588-1.408 3.185-1.846 4.14-.035.078-.062.155-.08.23 2.89 1.822 5.603 3.857 8.12 6.076.072-.04.14-.09.21-.148.797-.694 2.13-1.838 3.454-2.94 1.325-1.105 2.65-2.18 3.4-2.783.163-.132.692-.492 1.287.065l.864.812c.04.036.077.072.116.11.074.068.15.14.227.216l.36.37.764.788c.166.174.333.346.497.514.345.357.676.697.95.998l.79.898c.54.613.163 1.13.026 1.29-.625.73-1.74 2.02-2.888 3.312-1.145 1.292-2.32 2.58-3.04 3.36-.06.066-.11.135-.155.205 2.167 2.61 4.118 5.385 5.836 8.292.077-.018.155-.043.233-.076.97-.41 2.587-1.083 4.195-1.727 1.608-.646 3.205-1.263 4.107-1.605.098-.038.3-.102.53-.07.116.018.237.06.356.14.12.08.234.202.326.383l1.51 2.897 1.38 2.98c.086.184.113.35.103.492-.008.144-.05.265-.106.366-.114.202-.29.323-.38.38-.822.503-2.286 1.39-3.78 2.267-1.49.88-3.012 1.747-3.93 2.264-.074.042-.14.09-.2.14 1.252 3.135 2.258 6.373 3.002 9.683.082.008.168.01.258.002 1.056-.094 2.794-.236 4.518-.353 1.723-.12 3.427-.213 4.388-.26.21-.012.85.006 1.005.806l.225 1.163c.072.396.14.86.21 1.348.033.235.068.475.104.715l.156 1.09.073.51c.014.106.024.21.034.31l.016.16.116 1.194c.08.81-.53 1.01-.734 1.058-.935.226-2.596.618-4.28.99-1.682.375-3.404.732-4.44.94-.087.017-.17.043-.245.073.22 3.35.176 6.738-.148 10.138.07.03.147.057.23.077 1.025.237 2.73.644 4.408 1.068zM21.942 73.24c0 28.34 22.986 51.312 51.34 51.312 28.354 0 51.34-22.972 51.34-51.31 0-28.34-22.986-51.312-51.34-51.312-28.354 0-51.34 22.973-51.34 51.31z"/><path id="w" fill-rule="evenodd" d="M8.986 31.4H54.55L45.668 2.22C45.294.994 43.997 0 42.77 0H1.647C.42 0-.273.994.1 2.22L8.987 31.4z"/><path id="x" fill-rule="evenodd" d="M0 25.352L.07 0h1.88c1.225 0 2.066.994 1.877 2.22L0 25.352z"/><path id="y" fill-rule="evenodd" d="M1.21 13.12L.742 9.11.02 2.907C-.164 1.3.894 0 2.386 0h9.473c1.493 0 2.853 1.3 3.04 2.906l.384 3.3h33.374c1.492 0 2.853 1.3 3.04 2.905l.364 21.91-4.098-13.46c-.77-2.532-3.305-4.44-5.896-4.44h-4.3l-.134-1.05c-.068-.537-.557-.97-1.092-.97-.536 0-.915.433-.847.97l.133 1.05h-1.662l-.133-1.05c-.067-.537-.556-.97-1.09-.97-.537 0-.916.433-.848.97l.133 1.05h-1.662l-.133-1.05c-.068-.537-.557-.97-1.092-.97-.536 0-.915.433-.847.97l.134 1.05h-1.662l-.133-1.05c-.07-.537-.558-.97-1.093-.97-.535 0-.915.433-.847.97l.133 1.05H23.36l-.132-1.05c-.068-.537-.557-.97-1.092-.97-.536 0-.915.433-.847.97l.132 1.05H19.76l-.133-1.05c-.068-.537-.557-.97-1.092-.97s-.915.433-.847.97l.133 1.05H1.21zm9.35-9.772H4.468c-.56 0-1.016.454-1.016 1.015 0 .56.456 1.015 1.017 1.015h6.094c.56 0 1.016-.454 1.016-1.015 0-.56-.455-1.015-1.015-1.015z"/><path id="z" fill-rule="evenodd" d="M132.723 65.025l.012 1.26.006 1.05-.044 1.168-.024.578c-.024.593-.047 1.163-.074 1.642l-.113 1.268c-.08.863-.715.953-.924.965-.96.056-2.667.145-4.393.208-1.72.066-3.49.1-4.545.116-.088 0-.172.01-.252.027-.218 1.738-.518 3.48-.904 5.224-.386 1.745-.85 3.452-1.384 5.12.065.048.137.093.216.13.95.46 2.54 1.237 4.072 2.02 1.54.786 3.05 1.586 3.897 2.042.185.1.723.45.43 1.264l-.427 1.185c-.172.435-.386.947-.608 1.48l-.238.57-.452 1.08-.448.952-.55 1.15c-.374.782-.995.64-1.198.575-.92-.295-2.553-.828-4.194-1.393-1.642-.564-3.294-1.16-4.283-1.526-.08-.03-.16-.05-.237-.063-1.692 3.147-3.663 6.096-5.876 8.82.042.068.092.133.15.197.718.77 1.904 2.06 3.056 3.356 1.153 1.293 2.273 2.59 2.9 3.325.068.08.197.25.24.485.038.23.002.538-.293.854l-.848.932-.707.774-.39.424-.42.42-1.574 1.565c-.222.227-.43.413-.59.56l-.34.307c-.643.58-1.174.22-1.337.088-.75-.607-2.072-1.69-3.39-2.806-1.323-1.116-2.638-2.26-3.432-2.966-.067-.06-.137-.11-.21-.152-2.692 2.3-5.592 4.34-8.66 6.1.017.08.04.165.073.25.39.975 1.03 2.603 1.637 4.222.608 1.618 1.184 3.228 1.503 4.138.07.198.232.82-.53 1.23-.262.167-1.688.85-3.118 1.534-.256.128-.52.24-.776.348-.1.04-.198.083-.294.124l-.968.41-1.173.494c-.81.308-1.178-.226-1.282-.407-.482-.836-1.328-2.326-2.158-3.845-.833-1.52-1.65-3.067-2.135-4-.04-.078-.086-.148-.136-.21-3.318 1.17-6.76 2.034-10.284 2.57-.014.077-.02.16-.02.245.012 1.055.02 2.81 0 4.548-.008.867-.023 1.733-.04 2.496l-.054 1.91c-.007.208-.08.844-.944.94l-1.254.135-.5.052c-.11.01-.226.018-.343.025l-.203.013-1.168.07-1.17.068-.203.01c-.116.008-.23.015-.343.017l-.504.006-1.275.014c-.868.008-1.017-.615-1.048-.823-.145-.95-.393-2.633-.614-4.36-.224-1.723-.424-3.468-.535-4.517-.01-.085-.026-.166-.05-.242-3.452-.11-6.944-.542-10.44-1.314l-.072-.017c-.044.07-.084.147-.115.23-.37.985-.994 2.618-1.638 4.223-.64 1.606-1.3 3.183-1.678 4.07-.08.194-.38.763-1.22.554l-.436-.11c-.035-.01-.073-.018-.112-.028-.075-.02-.156-.04-.24-.064l-.424-.126-2.12-.64-.567-.173c-.122-.04-.242-.082-.36-.124l-.185-.066-.99-.353-1.2-.43c-.203-.074-.35-.17-.456-.273-.105-.108-.168-.225-.204-.34-.073-.225-.04-.436-.017-.54.208-.943.587-2.615.998-4.3.408-1.684.848-3.38 1.12-4.398.022-.083.035-.163.04-.242-3.3-1.395-6.42-3.083-9.332-5.027-.062.048-.122.103-.18.167-.7.786-1.877 2.086-3.06 3.354-1.183 1.27-2.372 2.504-3.047 3.197-.144.148-.643.588-1.335.065l-1.01-.754-.84-.63-.227-.17-.224-.186-.457-.376-1.713-1.418c-.33-.29-.6-.537-.774-.696l-.172-.156c-.64-.584-.33-1.145-.213-1.32.535-.8 1.49-2.216 2.48-3.632.987-1.413 2.02-2.843 2.645-3.693.052-.072.095-.145.13-.22-2.543-2.472-4.842-5.173-6.872-8.06-.08.023-.16.053-.24.094-.936.48-2.5 1.264-4.058 2.017-1.557.754-3.11 1.476-3.987 1.877-.19.09-.796.307-1.277-.412l-.25-.375-.42-.69-1.144-1.896c-.28-.5-.553-1.003-.798-1.455l-.266-.492-.288-.534c-.155-.287-.268-.494-.31-.59-.376-.78.117-1.192.29-1.312.788-.557 2.194-1.534 3.63-2.5 1.436-.968 2.903-1.924 3.788-2.492.074-.048.14-.1.2-.158-1.474-3.2-2.654-6.545-3.512-9.994-.08-.007-.164-.007-.25.002-1.05.11-2.8.282-4.533.424-1.722.142-3.425.255-4.387.313-.21.01-.85-.004-1.03-.852l-.256-1.234c-.034-.154-.063-.32-.09-.493l-.087-.54-.185-1.154-.182-1.157c-.033-.25-.06-.492-.084-.718l-.036-.328-.14-1.267c-.09-.863.514-1.07.72-1.12.94-.233 2.608-.636 4.3-1.017 1.695-.383 3.413-.743 4.447-.952.083-.017.16-.04.234-.07-.212-3.484-.1-7.025.357-10.59-.072-.035-.148-.066-.232-.09-1.016-.276-2.702-.75-4.362-1.245-1.66-.493-3.295-1.006-4.214-1.3-.202-.065-.797-.312-.672-1.168.052-.304.353-1.853.66-3.404.375-1.535.758-3.072.842-3.38.247-.83.89-.803 1.1-.776.958.12 2.657.343 4.37.596 1.714.25 3.443.532 4.48.708.086.015.17.02.25.018 1.087-3.425 2.48-6.684 4.142-9.754-.055-.057-.115-.112-.183-.163-.85-.626-2.256-1.676-3.63-2.737-1.375-1.06-2.718-2.128-3.47-2.736-.167-.132-.627-.574-.18-1.317l.652-1.08.167-.273c.118-.197.245-.406.38-.62l.652-.972c.14-.204.278-.41.413-.61.3-.445.585-.87.84-1.226l.763-1.022c.52-.694 1.107-.438 1.292-.338.847.458 2.344 1.277 3.846 2.132 1.51.86 3.025 1.752 3.93 2.295.076.044.15.08.227.107 2.233-2.765 4.714-5.3 7.4-7.582-.03-.076-.067-.152-.114-.227-.564-.888-1.49-2.373-2.385-3.856-.895-1.482-1.756-2.96-2.237-3.798-.105-.182-.38-.765.293-1.312.075-.067.266-.21.53-.405.14-.103.3-.222.474-.354l.46-.34c.408-.304.863-.643 1.323-.974l1.84-1.24.678-.45c.125-.08.228-.142.303-.187l.088-.055c.74-.45 1.196.004 1.332.164.627.733 1.73 2.04 2.823 3.38 1.097 1.34 2.184 2.712 2.83 3.54.056.072.116.133.178.187 3.06-1.763 6.283-3.243 9.633-4.413 0-.082-.008-.167-.025-.254-.207-1.034-.542-2.767-.84-4.463-.3-1.7-.57-3.387-.717-4.34-.032-.206-.077-.847.75-1.106l.212-.065c.22-.07.57-.18.992-.304L50.1 1.81l.572-.15c.19-.05.377-.097.562-.133l1.03-.218 1.248-.26c.848-.183 1.114.426 1.183.62.32.912.876 2.534 1.413 4.183.54 1.648 1.057 3.322 1.36 4.33.026.083.058.158.094.23 3.46-.537 7.002-.754 10.584-.627.028-.074.05-.153.065-.237.184-1.037.5-2.76.84-4.46.34-1.7.7-3.376.91-4.32.023-.103.082-.308.244-.483.08-.087.187-.167.327-.222.142-.05.316-.073.53-.053l1.256.113 1.044.097.195.018c.125.012.25.023.378.04l.586.08 2.197.314.44.064c.087.013.17.03.246.044L77.52.8l.45.086c.848.164.88.806.872 1.016-.032.963-.1 2.672-.196 4.398-.094 1.726-.216 3.47-.297 4.518-.007.09-.004.176.006.26l.072.015c3.496.773 6.844 1.854 10.023 3.207.054-.06.103-.125.148-.2.544-.903 1.46-2.4 2.39-3.868.93-1.473 1.864-2.896 2.398-3.697.115-.175.513-.677 1.297-.305l1.138.543.454.218c.103.05.207.106.312.163l.172.092 1.03.554 1.032.556.174.094c.105.057.208.112.306.17l.433.26 1.092.658c.742.45.54 1.058.458 1.25l-.756 1.754c-.306.7-.658 1.49-1.016 2.28-.714 1.584-1.462 3.173-1.92 4.124-.035.077-.063.155-.084.232 2.97 1.97 5.725 4.205 8.24 6.664.073-.036.144-.08.213-.133.832-.644 2.227-1.703 3.623-2.73 1.394-1.027 2.788-2.02 3.578-2.577.172-.12.732-.45 1.336.17l.847.933.702.777.227.252c.182.2.37.408.543.626 1.008 1.223 2.018 2.448 2.192 2.72.518.692.108 1.188-.04 1.338-.672.69-1.873 1.907-3.108 3.12-1.234 1.21-2.5 2.418-3.266 3.137-.066.063-.122.13-.17.198 2.04 2.886 3.807 5.96 5.278 9.18.084-.01.17-.025.255-.05 1.017-.304 2.693-.79 4.362-1.243 1.667-.457 3.323-.882 4.258-1.116.204-.05.838-.155 1.175.643l.174.415.017.04c.082.192.184.432.283.71l.766 2.08.203.557.176.548.316 1.004.38 1.215c.134.41.037.704-.097.897-.135.195-.324.295-.42.34-.878.402-2.44 1.106-4.033 1.793-1.59.688-3.21 1.36-4.185 1.755-.08.033-.152.072-.22.116.857 3.403 1.4 6.907 1.607 10.472.075.02.155.036.24.043 1.05.086 2.8.24 4.527.422 1.727.178 3.43.383 4.39.504.212.025.836.158.846 1.025zM23.14 66.402c0 23.863 19.354 43.208 43.23 43.208 23.876 0 43.232-19.345 43.232-43.208S90.246 23.195 66.37 23.195c-23.876 0-43.23 19.344-43.23 43.207z"/><path id="A" fill-rule="evenodd" d="M3.884 0h36.922c2.145 0 3.884 1.738 3.884 3.882v36.902c0 2.144-1.74 3.88-3.884 3.88H3.884C1.74 44.665 0 42.93 0 40.785V3.882C0 1.738 1.74 0 3.884 0zm14.25 20.067c1.074 0 1.944-.87 1.944-1.942V6.473c0-1.072-.87-1.942-1.943-1.942H6.477c-1.073 0-1.943.87-1.943 1.943v11.652c0 1.073.87 1.942 1.943 1.942h11.658zm22.022-1.942c0 1.073-.87 1.942-1.943 1.942H26.555c-1.073 0-1.943-.87-1.943-1.942V6.473c0-1.072.87-1.942 1.943-1.942h11.658c1.073 0 1.943.87 1.943 1.943v11.652zm0 20.067c0 1.073-.87 1.942-1.943 1.942H26.555c-1.073 0-1.943-.87-1.943-1.942V26.54c0-1.072.87-1.942 1.943-1.942h11.658c1.073 0 1.943.87 1.943 1.942v11.652zm-20.078 0c0 1.073-.87 1.942-1.943 1.942H6.477c-1.073 0-1.943-.87-1.943-1.942V26.54c0-1.072.87-1.942 1.943-1.942h11.658c1.073 0 1.943.87 1.943 1.942v11.652z"/><path id="B" fill-rule="evenodd" d="M4.56 1.43c0-.42.11-.765.328-1.03.22-.267.52-.4.9-.4.382 0 .683.133.9.4.22.265.328.61.328 1.03v3.13h3.13c.437 0 .784.112 1.043.337.258.224.388.52.388.89 0 .367-.13.664-.39.888-.258.225-.605.338-1.042.338h-3.13v3.128c0 .423-.11.767-.327 1.033-.22.266-.52.4-.9.4-.383 0-.683-.134-.902-.4-.218-.266-.327-.61-.327-1.032V7.014H1.433c-.437 0-.785-.127-1.043-.38C.13 6.384 0 6.1 0 5.787c0-.368.13-.665.39-.89.257-.224.605-.337 1.042-.337h3.13V1.43z"/><path id="C" fill-rule="evenodd" d="M8.612 0c.328 0 .61.085.85.255.237.17.357.454.357.85 0 .394-.12.677-.36.847-.237.17-.52.256-.848.256H1.207c-.328 0-.61-.085-.85-.256C.118 1.782 0 1.5 0 1.104 0 .71.118.426.358.254.596.085.878 0 1.208 0H8.61z"/><path id="D" fill-rule="evenodd" d="M3.99 1.8c0-.505.174-.93.52-1.278C4.858.174 5.284 0 5.788 0c.505 0 .932.174 1.28.522.347.347.522.773.522 1.277 0 .503-.175.93-.523 1.277-.347.348-.774.52-1.28.52-.503 0-.93-.172-1.277-.52-.346-.348-.52-.774-.52-1.278zm0 8.463c0-.504.174-.93.52-1.278.348-.347.774-.52 1.278-.52.505 0 .932.173 1.28.52.347.348.522.774.522 1.278 0 .505-.175.93-.523 1.278-.347.35-.774.523-1.28.523-.503 0-.93-.174-1.277-.522-.346-.347-.52-.772-.52-1.277zm7.2-5.12c-.26-.226-.607-.34-1.043-.34H1.43c-.436 0-.785.114-1.044.34C.13 5.366 0 5.662 0 6.03c0 .315.13.598.388.85.26.252.608.378 1.044.378h8.714c.437 0 .785-.113 1.043-.337.258-.224.388-.52.388-.89 0-.366-.13-.663-.39-.888z"/><path id="E" fill-rule="evenodd" d="M9.47 7.748c.26.26.39.532.39.82 0 .38-.126.69-.38.93-.25.238-.57.357-.95.357-.15 0-.29-.038-.42-.113-.13-.074-.247-.167-.357-.276l-2.824-2.8-2.822 2.8c-.11.11-.23.202-.358.276-.13.075-.27.113-.42.113-.383 0-.7-.12-.952-.358-.252-.24-.378-.55-.378-.93 0-.287.13-.56.388-.82l2.803-2.82L.39 2.107C.13 1.846 0 1.574 0 1.286c0-.38.126-.69.378-.93C.63.12.948 0 1.33 0c.15 0 .29.037.42.112.128.076.248.168.358.276l2.82 2.802L7.754.388c.11-.108.228-.2.358-.276C8.24.037 8.38 0 8.53 0c.38 0 .7.12.95.358.254.24.38.55.38.93 0 .287-.13.56-.39.818l-2.8 2.82 2.8 2.822z"/><path id="F" fill-rule="evenodd" d="M117.484 68.662c2.084.456 6.79 1.653 8.632 2.18.2.055.798.274.676 1.094-.05.593-.925 5.987-1.222 6.555-.205.806-.845.794-1.054.773-1.917-.172-6.77-.752-8.84-1.066-.063-.01-.114.007-.165.024-.034.012-.07.023-.108.026-.915 3.22-2.128 6.31-3.598 9.253.027.028.046.06.065.09.027.05.055.096.11.132 1.748 1.167 5.748 4.017 7.29 5.185.158.12.677.564.263 1.282-.083.127-.33.542-.66 1.092-.94 1.568-2.54 4.24-2.872 4.563-.49.666-1.085.422-1.272.326-1.728-.857-6.05-3.164-7.87-4.21-.056-.03-.11-.034-.164-.038-.037-.002-.074-.005-.112-.016-2.004 2.65-4.24 5.1-6.692 7.333.014.036.02.072.026.11.01.052.018.105.055.16 1.21 1.714 3.906 5.805 4.92 7.447.113.177.412.746-.204 1.3-.31.343-3.02 2.345-4.46 3.408-.424.312-.737.543-.847.628-.7.445-1.172-.005-1.31-.16-1.307-1.425-4.514-5.14-5.838-6.772-.04-.05-.09-.072-.14-.095-.033-.016-.067-.032-.098-.056-2.804 1.738-5.77 3.227-8.885 4.434 0 .04-.01.075-.016.11-.012.053-.023.106-.008.17.505 2.03 1.536 6.81 1.886 8.702.04.206.112.842-.67 1.125-.51.35-5.82 1.69-6.42 1.83-.806.204-1.078-.37-1.152-.564-.69-1.76-2.336-6.42-2.976-8.422-.02-.06-.058-.1-.096-.142-.025-.027-.05-.055-.07-.09-3.21.598-6.507.948-9.89.948h-.01c-.014.036-.034.067-.053.098-.03.045-.057.09-.066.15-.265 2.067-1.028 6.875-1.384 8.76-.037.205-.2.82-1.027.78l-3.32-.175c-1.045-.072-2.085-.24-2.727-.346-.286-.046-.493-.08-.587-.086-.82-.124-.868-.76-.866-.97-.007-1.922.12-6.8.24-8.887.004-.064-.017-.113-.038-.162-.014-.032-.03-.066-.036-.105-3.303-.613-6.49-1.54-9.55-2.727-.028.03-.058.052-.088.074-.044.033-.088.065-.12.12-1 1.852-3.47 6.1-4.492 7.743-.105.172-.5.73-1.244.363-.145-.078-.634-.31-1.275-.612-1.667-.787-4.362-2.06-4.692-2.38-.71-.426-.522-1.04-.444-1.234.696-1.798 2.595-6.31 3.468-8.216.026-.06.025-.113.023-.167 0-.038 0-.075.007-.113-2.828-1.754-5.474-3.757-7.92-5.988-.036.017-.072.026-.107.036-.053.013-.105.027-.155.068-1.6 1.36-5.43 4.423-6.972 5.584-.166.128-.706.477-1.316-.083-.45-.385-4.108-4.446-4.498-4.917-.502-.66-.104-1.166.04-1.32 1.298-1.43 4.702-4.962 6.205-6.43.046-.044.065-.096.083-.147.013-.034.026-.07.047-.102-1.995-2.635-3.75-5.45-5.238-8.433-.04.004-.076 0-.112-.005-.054-.006-.107-.012-.17.008-1.977.692-6.645 2.163-8.5 2.688-.2.06-.83.19-1.186-.56-.313-.367-1.477-3.6-2.08-5.273-.17-.47-.295-.82-.345-.945-.28-.78.262-1.104.454-1.197 1.732-.863 6.197-2.927 8.135-3.752.06-.025.096-.066.133-.108.025-.028.05-.056.082-.08-.896-3.148-1.533-6.402-1.84-9.758-.038-.01-.07-.027-.1-.045-.047-.025-.093-.05-.16-.054-2.087-.074-6.953-.395-8.865-.577-.21-.018-.838-.124-.88-.95L0 63.558l.155-3.334c.042-.827.67-.932.88-.95 1.912-.183 6.778-.504 8.865-.577.067-.003.113-.03.16-.055.03-.017.062-.034.1-.045.307-3.355.944-6.61 1.84-9.758-.033-.025-.057-.053-.082-.08-.037-.042-.073-.083-.133-.11-1.938-.823-6.403-2.887-8.136-3.752-.193-.092-.734-.415-.455-1.197.05-.123.18-.482.355-.97.603-1.676 1.75-4.866 2.07-5.247.356-.75.984-.618 1.186-.56 1.854.526 6.522 1.997 8.5 2.688.062.022.115.016.17.01.035-.005.072-.01.11-.005 1.49-2.982 3.244-5.798 5.239-8.433-.022-.034-.034-.07-.047-.103-.018-.053-.037-.104-.083-.15-1.503-1.466-4.907-5-6.206-6.428-.144-.154-.542-.66-.04-1.32.373-.454 4.032-4.515 4.497-4.917.61-.56 1.15-.21 1.316-.083 1.543 1.16 5.373 4.223 6.972 5.584.05.04.102.055.155.068.035.01.07.02.107.037 2.446-2.23 5.092-4.234 7.92-5.987-.007-.04-.006-.075-.006-.112.003-.053.004-.107-.022-.166-.873-1.906-2.772-6.418-3.467-8.216-.077-.195-.265-.808.445-1.236.316-.312 3.01-1.584 4.683-2.375.642-.303 1.134-.535 1.284-.615.745-.366 1.14.19 1.244.363 1.022 1.643 3.49 5.89 4.492 7.74.032.058.076.09.12.122.03.022.06.044.087.074 3.062-1.186 6.248-2.112 9.55-2.726.008-.038.023-.072.037-.105.02-.05.042-.1.04-.164-.12-2.086-.25-6.965-.242-8.886-.002-.21.046-.846.866-.97.09-.007.294-.04.577-.086.636-.103 1.675-.272 2.72-.346L61.16.002c.827-.04.99.575 1.026.78.356 1.884 1.12 6.693 1.383 8.76.008.06.036.105.065.15.02.03.04.062.053.1l.01-.002c3.383 0 6.68.35 9.89.947.02-.035.045-.062.07-.09.038-.04.075-.08.096-.142.64-2.003 2.286-6.662 2.976-8.422.074-.194.346-.767 1.152-.564.576.137 5.888 1.472 6.42 1.828.78.283.71.92.67 1.125-.35 1.894-1.38 6.672-1.886 8.704-.015.063-.004.115.008.168.007.036.015.072.015.11 3.114 1.208 6.08 2.697 8.883 4.436.032-.023.065-.04.1-.055.048-.023.098-.046.14-.097 1.323-1.632 4.53-5.346 5.836-6.772.138-.154.61-.604 1.31-.16.105.083.416.313.84.624 1.43 1.058 4.143 3.06 4.466 3.413.616.553.317 1.123.205 1.3-1.014 1.64-3.71 5.732-4.92 7.448-.036.054-.045.108-.054.16-.006.038-.012.074-.026.11 2.45 2.235 4.688 4.685 6.692 7.334.038-.01.075-.014.112-.016.054-.004.108-.008.164-.04 1.82-1.044 6.142-3.35 7.87-4.21.187-.095.78-.34 1.273.327.325.308 1.923 2.977 2.866 4.552.33.552.58.97.667 1.104.414.72-.105 1.163-.264 1.282-1.542 1.168-5.542 4.02-7.29 5.185-.055.037-.083.084-.11.13-.02.033-.04.065-.066.094 1.47 2.945 2.683 6.033 3.598 9.253.04.004.074.015.108.026.052.015.103.032.167.023 2.07-.314 6.922-.895 8.84-1.066.208-.022.848-.033 1.053.77.29.547 1.17 5.94 1.222 6.557.122.82-.475 1.038-.676 1.093-1.84.527-6.548 1.725-8.632 2.18-.063.015-.107.05-.15.083-.03.022-.06.045-.097.062.15 1.638.25 3.29.25 4.968 0 1.677-.1 3.33-.25 4.967.036.018.066.04.096.064.044.034.088.068.15.082zm-95.53-5.112c0 22.88 18.56 41.426 41.45 41.426 22.892 0 41.45-18.547 41.45-41.426 0-22.88-18.558-41.427-41.45-41.427-22.892 0-41.45 18.548-41.45 41.427z"/><path id="G" fill-rule="evenodd" d="M5.82 12.97v.97c-1.958.03-4.462.71-5.82 1.126.478-1.378 1.205-2.978 2.384-5.13 2.01-3.1 4.787-5.656 8.064-7.4-.44.72-.722 1.61.245 1.95 1.73.608 2.66 2.21 2.692 3.043.032.832.513 2.658 1.314 3.074l.142.075c.7.37 1.048.554 2.1-.588.232-.25.507-.54.802-.85 1.135-1.192 2.564-2.693 2.904-3.507.19-.455.14-.935.093-1.367-.058-.542-.108-1.01.338-1.26.8-.448 1.41-1.09 0-1.345-.487-.09-1.058-.143-1.614-.196-1.055-.1-2.056-.195-2.33-.51L17.04.946c-.2-.233-.362-.425-.633-.53C17.78.143 19.197 0 20.648 0c3.606 0 7.005.877 9.998 2.43-.14.037-.258.058-.338.048-.406-.05-1.295.126-1.295.126s.076 1.55.508 1.752c.43.203 1.143.254 1.625-.28.218-.24.476-.618.713-.97 2.433 1.467 4.555 3.395 6.245 5.665-.095-.016-.184-.025-.26-.024-1.444.032-2.406-.096-2.502-.512-.095-.417-1.633-1.025-2.627-.96-.41.025-.785-.043-1.11-.1-.46-.085-.82-.15-1.038.1 0 0-2.115 2.433-2.66 2.818-.545.384-.8 1.28 0 1.313h.023c.78.032.906.037.874.545-.032.512.802.705 1.25 0 .238-.373.206-.7.18-.965-.022-.236-.04-.42.14-.54.112-.074.262-.217.42-.367.39-.373.83-.79.83-.31 0 .117.01.277.022.465.053.91.146 2.48-.598 2.918-.897.53-2.788.626-2.788.177v-.118c.006-.407.01-.755-.545-.17l-.104.108c-.662.694-2.027 2.127-2.067 2.582l-.005.063c-.04.477-.095 1.12-.678 1.058-.06-.005-.117-.012-.174-.02-.534-.064-.966-.116-.836.694.145.897.55 1.057 1.693.993.567-.032.568-.512.552-.93-.017-.415.945-.864 1.36-.96.045-.01.09-.022.137-.034.412-.105.972-.25 1.403.354.48.673.93 1.09 1.314.77.242-.178-.003-.4-.252-.626-.112-.1-.224-.203-.294-.303-.224-.32.16-.448.513-.128.17.154.355.28.512.384.167.113.303.205.352.288.026.042.04.12.06.208.048.247.118.593.477.593.488 0 .84.217.937.397.096.18 1.346.18 1.666.18.32 0 .578.224 0 .768-.576.545-1.506.577-1.858.513-.1-.017-.436-.012-.87-.006-1.102.016-2.834.04-2.88-.282l-.015-.114c-.04-.378-.064-.59-1.524-.59-.348 0-.634-.01-.874-.017-.87-.027-1.157-.035-1.66.466l-.156.157c-.406.402-1.078 1.068-1.615 1.718.003-.042.01-.084.014-.126.007-.054.014-.107.014-.163 0-1.385-.536-2.685-1.508-3.657l-7.34-7.335c-.95-.95-2.36-1.518-3.767-1.518-2.563 0-4.424 1.872-4.424 4.45zm16.178-4.16c-.425-.096-1.35 0-1.35 0s-.115 1.218 0 1.314c.092.076.267.092.82.142l.53.05c.614.06.603-.005.57-.2-.02-.12-.048-.287.048-.505.257-.575-.192-.704-.618-.8zm2.19 4.23c.32.736.095 1.024-.61.896s.61-.897.61-.897zm.832-1.09s.45.32.866.737c.416.416.128 1.665-.16 1.665-.578-.03-.642-.352-.706-1.057-.064-.704 0-1.345 0-1.345z"/><path id="H" fill-rule="evenodd" d="M42.834 1.84c-.474-.683-.89-.746-1.555-.71-.674.035-1.187-.07-1.27-.485-.08-.417-.526-.577-1.038-.64-.513-.065-.13.608.608 1.124.738.516.385 1.117 0 1.533-.384.417-.897 1.314-1.794 1.25-.898-.064-1.218-.897-1.283-1.48-.064-.585-.705-1.468-1.185-1.852-.48-.383-.802-.095-.578.065.225.16.834.865.93 1.28.096.418.128 1.38.45 1.7.32.32.928.8 1.762.832.833.032.93-.096.96.48.033.573-1.217 2.02-2.018 2.627-.8.61-.577 1.827-.673 2.788-.095.96-.288 4.39-.704 4.485-.417.096-2.116.93-2.885.833-.768-.097-1.826-.64-1.858-1.282-.032-.64-.45-1.73-.866-2.435-.416-.704-.32-4.42-.32-5.35 0-.928-1.635-.608-3.516-.672-2.767 0-3.385-1.513-3.512-2.69-.196.305-.42.594-.68.855l-7.34 7.336c-.95.95-2.36 1.518-3.768 1.518-2.563 0-4.424-1.872-4.424-4.45l-.002-.97C4.09 7.496 1.22 6.653 0 6.26c1.346 5.453 4.743 10.098 9.336 13.058.43.34 1.052.695 1.664.97 3.02 1.588 6.457 2.487 10.105 2.487 11.742 0 21.31-9.302 21.73-20.934z"/><path id="I" fill-rule="evenodd" d="M10.792 18.43c.508 0 1.084-.22 1.4-.537l7.34-7.335c.34-.34.53-.8.53-1.294-.002-.59-.19-1.05-.53-1.39L12.192.537C11.876.22 11.3 0 10.792 0c-.492 0-1.08.192-1.08 1.107V3.13c0 2.288-2.17 2.288-3.21 2.288-2.163 0-5.806 1.248-5.843 1.26-.283.07-.66.863-.66 2.538 0 1.675.377 2.467.534 2.515.162.035 3.808 1.283 5.967 1.283 1.043 0 3.213 0 3.213 2.287v2.024c0 .915.587 1.107 1.08 1.107z"/><path id="J" fill-rule="evenodd" d="M88.86 40.587l.173 3.63c.037 1.165-.04 2.334-.086 3.038-.02.295-.033.51-.03.608-.053.905-.666 1.01-.868 1.024-1.835.175-6.642.386-8.68.38-.594.01-1.016.38-1.09.86-.055 1.028-.86 3.98-.86 3.98.078.023-.74 2.294-1.166 3.472l-.14.384c-.204.44-.057.97.444 1.285 1.737 1.054 5.682 3.713 7.19 4.833.166.118.64.53.25 1.344-.076.228-.57 1.055-1.16 2.044l-.65 1.094c-.567 1.005-1.264 1.928-1.69 2.492-.185.244-.32.42-.37.51-.535.727-1.108.484-1.286.388-1.644-.847-5.77-3.234-7.5-4.35-.506-.315-1.064-.23-1.388.132-.61.828-2.874 2.883-2.874 2.883.056.066-2.36 1.935-3.186 2.535-.38.303-.57.79-.31 1.335.888 1.823 2.763 6.188 3.423 7.944.075.19.25.79-.525 1.26-.5.43-5.903 2.978-6.58 3.074-.848.308-1.198-.208-1.296-.386-.93-1.624-3.096-5.84-3.935-7.68-.247-.517-.768-.774-1.24-.65l-2.347.592c-.872.18-1.633.266-1.633.266l-1.64.242c-.58.082-1.222.104-1.738.12-.268.01-.5.018-.675.032-.486.023-.904.403-.983.993-.237 2.055-1.016 6.718-1.408 8.54-.04.2-.216.796-1.122.75-.66.108-6.577-.683-7.214-.93-.878-.215-.893-.843-.88-1.046.1-1.874.562-6.605.856-8.615.077-.59-.24-1.027-.706-1.165-.963-.337-3.84-1.37-3.807-1.45 0 0-2.785-1.268-3.617-1.873-.418-.248-.974-.158-1.36.295-1.3 1.585-4.506 5.134-5.81 6.44-.14.147-.612.554-1.343.023-.073-.065-.25-.19-.494-.363-.572-.405-1.516-1.074-2.375-1.852l-.69-.612c-.98-.867-1.837-1.626-2.012-1.836-.62-.66-.294-1.196-.172-1.36 1.096-1.528 4.042-5.265 5.375-6.8.38-.453.362-1.003.03-1.36l-.278-.36c-.773-1.002-2.213-2.865-2.146-2.91l-.864-1.412c-.497-.742-.95-1.655-1.156-2.12-.21-.44-.722-.668-1.29-.496-1.944.624-6.56 1.866-8.403 2.274-.204.05-.824.138-1.134-.71l-1.227-3.403c-.408-1.598-.816-3.2-.9-3.523-.217-.876.345-1.15.542-1.224 1.755-.695 6.274-2.252 8.233-2.825.568-.176.863-.652.792-1.133-.09-.502-.228-1.51-.232-2.405l-.076-1.653c-.08 0 .065-2.34.144-3.602l.03-.465c.073-.48-.22-.947-.79-1.11-1.965-.522-6.5-1.966-8.265-2.617-.192-.068-.764-.33-.62-1.223.025-.262.308-1.368.632-2.633l.227-.89c.273-1.125.68-2.21.928-2.87.107-.285.184-.49.21-.59.307-.85.925-.776 1.123-.734 1.813.352 6.46 1.494 8.425 2.077.573.16 1.084-.077 1.29-.518.35-.966 1.947-3.576 1.947-3.576-.074-.048 1.73-2.516 2.337-3.334.31-.376.326-.916-.07-1.36-1.37-1.5-4.407-5.158-5.54-6.656-.126-.16-.466-.688.14-1.36.372-.54 4.826-4.516 5.453-4.81.723-.547 1.204-.15 1.35-.01 1.346 1.29 4.607 4.714 5.955 6.283.397.445.957.525 1.372.27.15-.083.35-.207.575-.35.437-.275.98-.617 1.51-.875l1.49-.718c.002 0 .68-.356 1.504-.695l2.277-.825c.46-.162.746-.667.662-1.233-.34-1.996-.91-6.7-1.05-8.565-.02-.203-.02-.827.856-1.046.59-.294 6.49-1.217 7.172-1.142.906-.046 1.097.55 1.142.75.438 1.823 1.335 6.488 1.62 8.496.094.596.522.893 1.008.93 1.02.035 4.07.228 4.06.315 0 0 3.03.433 3.998.777.47.12.98-.124 1.223-.667.805-1.895 2.883-6.184 3.768-7.807.094-.18.432-.702 1.284-.398.087.042.294.113.58.21.664.227 1.757.6 2.792 1.112.39.185.78.368 1.15.54 1.048.49 1.926.9 2.125 1.05.78.457.618 1.063.547 1.255-.62 1.772-2.396 6.185-3.242 8.032-.237.54-.063 1.06.354 1.31l.328.24c1.012.737 2.967 2.16 2.917 2.222 0 0 2.32 1.994 2.943 2.813.33.357.888.428 1.385.102 1.684-1.146 5.783-3.666 7.4-4.55.176-.1.742-.356 1.292.364.052.08.18.247.36.478.43.553 1.147 1.476 1.773 2.46l1.903 3.118c.413.805-.062 1.232-.223 1.354-1.485 1.155-5.377 3.908-7.093 5.003-.493.327-.636.862-.424 1.3.175.298.367.84.57 1.417.1.28.2.566.305.837l.566 1.556.405 1.606c.066.28.143.575.218.86.155.593.3 1.15.322 1.496.07.48.49.844 1.08.838 2.036-.055 6.803.044 8.68.168.203.01.835.098.945.995zm-66.87 4.21c0 12.44 10.087 22.522 22.53 22.522 12.446 0 22.534-10.084 22.534-22.522 0-12.437-10.088-22.52-22.533-22.52-12.443 0-22.53 10.083-22.53 22.52z"/><path id="K" fill-rule="evenodd" d="M17.733 10.046h.148c1.585 0 2.87 1.283 2.87 2.866l-.002 11.802c0 1.582-1.283 2.865-2.867 2.865H2.868C1.284 27.58 0 26.295 0 24.713V12.912c0-1.583 1.284-2.866 2.867-2.866h.14V7.36C3.006 3.3 6.308 0 10.37 0c4.06 0 7.363 3.3 7.363 7.36v2.686zm-3.112 0H6.12V7.36c0-2.343 1.907-4.25 4.252-4.25 2.344 0 4.25 1.907 4.25 4.25v2.686zm-2.96 9.666v1.91c0 .712-.578 1.29-1.29 1.29-.714 0-1.292-.578-1.292-1.29v-1.91c-.797-.452-1.34-1.298-1.34-2.28 0-1.45 1.178-2.63 2.632-2.63 1.453 0 2.63 1.18 2.63 2.63 0 .982-.543 1.828-1.34 2.28z"/><path id="L" fill-rule="evenodd" d="M95.04 43.41l.184 3.88c.04 1.25-.042 2.5-.092 3.253-.02.314-.035.543-.033.648-.057.97-.712 1.08-.928 1.097-1.96.187-7.103.412-9.283.407-.636.01-1.087.406-1.166.92-.06 1.098-.92 4.255-.92 4.255.083.025-.79 2.445-1.245 3.707l-.152.418c-.22.47-.06 1.036.474 1.374 1.857 1.127 6.077 3.972 7.69 5.17.177.126.685.566.267 1.437-.083.244-.61 1.127-1.242 2.186-.223.374-.46.77-.694 1.17-.606 1.073-1.352 2.06-1.808 2.663-.198.262-.34.452-.395.545-.572.78-1.184.52-1.376.417-1.757-.906-6.17-3.46-8.022-4.653-.54-.336-1.137-.247-1.483.142-.653.885-3.075 3.084-3.075 3.084.06.07-2.525 2.07-3.407 2.712-.408.325-.61.844-.334 1.427.95 1.95 2.956 6.618 3.662 8.496.08.202.27.846-.56 1.347-.536.462-6.315 3.186-7.037 3.288-.91.332-1.283-.22-1.388-.412-.994-1.736-3.312-6.244-4.21-8.214-.264-.552-.822-.827-1.326-.695l-2.51.633c-.934.193-1.748.284-1.748.284l-1.752.26c-.622.087-1.31.11-1.86.13-.287.008-.537.016-.722.032-.52.023-.967.43-1.052 1.06-.253 2.2-1.086 7.186-1.506 9.135-.042.213-.23.85-1.2.8-.704.117-7.034-.728-7.715-.992-.94-.23-.954-.902-.94-1.12.106-2.005.6-7.066.915-9.215.082-.63-.257-1.098-.755-1.246-1.03-.36-4.107-1.465-4.07-1.552 0 0-2.98-1.355-3.87-2.002-.447-.265-1.042-.17-1.454.316-1.39 1.695-4.82 5.49-6.215 6.89-.15.155-.652.59-1.435.022-.077-.07-.266-.203-.527-.388-.61-.433-1.622-1.148-2.54-1.98l-.742-.658c-1.045-.926-1.96-1.737-2.15-1.96-.662-.707-.313-1.28-.183-1.456 1.172-1.633 4.323-5.63 5.75-7.273.405-.483.386-1.072.032-1.453l-.296-.384c-.828-1.07-2.37-3.066-2.3-3.114l-.924-1.51c-.532-.795-1.016-1.77-1.237-2.27-.227-.47-.773-.712-1.38-.53-2.08.668-7.016 1.997-8.987 2.433-.22.053-.88.148-1.214-.758l-1.313-3.64-.96-3.77c-.235-.936.367-1.23.578-1.307 1.876-.744 6.71-2.41 8.805-3.023.607-.188.922-.696.846-1.21-.097-.538-.244-1.617-.25-2.573l-.08-1.768c-.086 0 .07-2.51.155-3.86l.03-.49c.08-.514-.234-1.013-.842-1.186-2.102-.56-6.954-2.104-8.84-2.8-.206-.073-.817-.352-.663-1.308.027-.28.33-1.467.678-2.824l.24-.944c.292-1.205.73-2.367.994-3.074.114-.302.196-.52.223-.626.33-.91.99-.83 1.202-.785 1.94.376 6.908 1.597 9.01 2.22.614.17 1.16-.082 1.382-.553.374-1.034 2.08-3.825 2.08-3.825-.08-.053 1.85-2.693 2.5-3.568.33-.402.35-.98-.074-1.456-1.465-1.603-4.715-5.516-5.926-7.117-.135-.173-.498-.737.15-1.455.397-.58 5.16-4.83 5.832-5.146.774-.586 1.288-.162 1.442-.01 1.44 1.38 4.93 5.04 6.372 6.72.423.474 1.023.56 1.466.29.162-.092.374-.225.616-.378.467-.293 1.05-.66 1.614-.935l1.596-.768s.725-.382 1.606-.744l2.434-.883c.49-.173.8-.713.71-1.318-.363-2.134-.973-7.165-1.124-9.16-.02-.217-.02-.885.916-1.12.63-.313 6.942-1.3 7.67-1.22.97-.05 1.175.588 1.222.8.47 1.95 1.428 6.94 1.734 9.088.1.638.558.955 1.077.996 1.09.035 4.352.242 4.343.335 0 0 3.24.463 4.275.83.505.128 1.05-.132 1.308-.713.862-2.026 3.085-6.614 4.032-8.35.1-.19.462-.75 1.373-.426.093.046.315.12.622.226.71.242 1.878.64 2.985 1.19.417.197.836.392 1.232.578 1.12.523 2.057.962 2.27 1.123.836.487.662 1.135.586 1.34-.664 1.895-2.562 6.615-3.467 8.59-.254.58-.068 1.136.38 1.404l.377.275c1.09.793 3.146 2.29 3.093 2.358 0 0 2.483 2.132 3.148 3.008.353.382.95.458 1.48.11 1.803-1.227 6.186-3.92 7.916-4.866.188-.107.793-.382 1.382.388.055.085.194.264.386.512.46.59 1.226 1.577 1.895 2.63l2.035 3.335c.44.86-.067 1.317-.24 1.447-1.588 1.236-5.75 4.18-7.585 5.35-.528.35-.68.923-.454 1.392.187.318.392.9.61 1.515.105.3.213.606.325.896l.605 1.665.433 1.718c.07.303.153.618.233.924.165.633.32 1.228.344 1.597.075.513.522.9 1.156.895 2.177-.06 7.275.047 9.284.18.215.01.892.105 1.01 1.065zm-71.522 4.503c0 13.303 10.79 24.087 24.1 24.087 13.31 0 24.1-10.784 24.1-24.087 0-13.302-10.79-24.085-24.1-24.085-13.31 0-24.1 10.783-24.1 24.085z"/><path id="M" fill-rule="evenodd" d="M3.185 1.592c0 .88-.713 1.59-1.593 1.59S0 2.473 0 1.593C0 .712.713 0 1.592 0c.88 0 1.593.713 1.593 1.592z"/><path id="N" fill-rule="evenodd" d="M15.874 1.35c-.265 1.418-1.505 2.493-3 2.493-1.496 0-2.736-1.075-3-2.492C6.293 1.18 2.953.714 0 0v8.214c0 .89.722 1.612 1.613 1.612h22.52c.892 0 1.614-.722 1.614-1.612V0c-2.955.713-6.293 1.18-9.873 1.35z"/><path id="O" fill-rule="evenodd" d="M18.38 3.41h5.754c.89 0 1.613.72 1.613 1.612v6.438c-2.97.745-6.355 1.242-9.953 1.42-.374-1.266-1.532-2.196-2.92-2.196s-2.547.93-2.92 2.197c-3.6-.178-6.985-.675-9.954-1.42V5.022c0-.89.722-1.612 1.613-1.612h5.754C8.207 1.42 10.355 0 12.873 0c2.52 0 4.667 1.42 5.507 3.41zm-2.117.03c-.66-1.025-1.93-1.72-3.39-1.72-1.458 0-2.73.695-3.39 1.72h6.78z"/><path id="P" fill-rule="evenodd" d="M67.393 40.965c1.595.5 3.153 1.04 4.03 1.355.192.068.76.33.593 1.212l-.294 1.27-.037.155c-.026.113-.053.23-.085.35l-.153.543-.067.235c-.087.303-.176.615-.27.926l-.388 1.148-.053.155c-.046.13-.09.258-.135.38l-.19.486-.063.158c-.21.532-.366.926-.428 1.064-.368.82-.983.71-1.178.657-.902-.245-2.487-.69-4.083-1.196-1.6-.502-3.2-1.057-4.157-1.404-.08-.03-.16-.05-.236-.062-.716 1.382-1.562 2.72-2.542 4-.98 1.277-2.052 2.442-3.2 3.493.032.072.072.142.12.212.585.832 1.538 2.232 2.44 3.646.904 1.41 1.748 2.822 2.217 3.63.103.173.37.738-.327 1.306-.11.092-.44.337-.888.67l-.154.115-.418.307c-.098.07-.202.14-.307.212l-.16.107-1.005.672c-.265.166-.534.327-.795.484l-.24.144-.487.29c-.104.06-.208.117-.308.17l-.148.08-1.163.622c-.808.39-1.21-.09-1.324-.255-.534-.765-1.462-2.128-2.36-3.537-.903-1.414-1.772-2.867-2.282-3.747-.043-.073-.09-.138-.142-.197-2.933 1.222-6.056 1.91-9.213 2.044-.02.078-.038.16-.047.247-.088 1.02-.26 2.69-.477 4.35-.216 1.655-.478 3.29-.637 4.21-.034.196-.193.82-1.09.784-.046-.003-.122-.005-.222-.008-.238-.008-.616-.02-1.075-.05-.137-.013-.28-.024-.43-.036-.564-.045-1.208-.097-1.85-.19-1.627-.197-3.232-.564-3.554-.643-.436-.1-.656-.31-.763-.514-.106-.21-.1-.418-.09-.52.08-.93.246-2.58.463-4.236.214-1.66.48-3.326.653-4.324.014-.087.018-.17.018-.25-2.925-.912-5.742-2.344-8.316-4.315l-.05-.038c-.067.046-.133.096-.195.158-.72.716-1.93 1.892-3.164 3.022-1.23 1.132-2.483 2.218-3.197 2.82-.08.067-.245.19-.478.227-.23.03-.525-.03-.858-.327l-.346-.31-.105-.094c-.147-.133-.322-.29-.506-.476-.095-.095-.196-.194-.302-.297-.404-.397-.867-.852-1.3-1.34-.08-.09-.163-.18-.245-.27-.194-.21-.386-.42-.563-.63l-.694-.838c-.313-.37-.55-.69-.692-.883-.05-.07-.09-.123-.117-.157-.536-.72-.14-1.196.008-1.34.663-.66 1.85-1.818 3.084-2.95 1.23-1.133 2.508-2.24 3.283-2.892.066-.057.123-.118.174-.18-1.728-2.693-2.938-5.65-3.61-8.713-.08-.008-.162-.01-.248-.002-1.012.087-2.698.21-4.373.28-1.674.077-3.335.102-4.262.103-.202.002-.823-.05-.96-.936l-.07-.46-.09-.828c-.01-.102-.023-.208-.035-.317-.026-.24-.055-.494-.07-.76l-.074-1.202c-.022-.285-.025-.57-.027-.848 0-.12-.003-.24-.005-.358 0-.127-.003-.25-.004-.372-.004-.252-.007-.492.002-.713l.047-1.313c.053-.895.68-1.003.88-1.02.928-.08 2.578-.206 4.244-.28 1.668-.08 3.37-.108 4.385-.11.087-.002.168-.01.245-.026.394-3.09 1.33-6.137 2.83-8.997-.055-.056-.116-.11-.186-.16-.83-.584-2.21-1.58-3.532-2.6-1.323-1.015-2.604-2.06-3.32-2.658-.154-.13-.602-.575-.138-1.34l.708-1.09.088-.133c.063-.097.13-.197.2-.296l.33-.455.708-.97.753-.94c.243-.3.475-.586.697-.827l.876-.978c.62-.647 1.166-.33 1.33-.215.765.535 2.108 1.498 3.433 2.51 1.33 1.01 2.65 2.083 3.43 2.733.067.054.135.1.204.14 2.372-2.194 5.074-3.892 7.956-5.077-.006-.077-.02-.158-.04-.242-.262-.98-.68-2.63-1.037-4.26-.36-1.628-.67-3.25-.834-4.17-.035-.195-.095-.828.755-1.113l1.243-.383c.21-.067.44-.126.684-.187.118-.03.24-.06.36-.094l.578-.145.296-.075.3-.063 1.18-.243c.26-.054.514-.093.75-.13.11-.017.218-.033.32-.05l.832-.128c.158-.02.286-.035.377-.045l.093-.01c.89-.097 1.103.488 1.154.684.24.895.648 2.504 1.01 4.138.368 1.634.69 3.294.87 4.292.014.086.038.165.066.24 3.136-.15 6.306.248 9.357 1.215.047-.066.09-.137.128-.216.43-.918 1.165-2.438 1.94-3.92.77-1.486 1.58-2.933 2.045-3.744.1-.18.457-.687 1.293-.357.04.017.1.04.18.07.22.088.586.23 1.022.435l.987.45c.244.113.49.24.74.37.112.058.226.117.34.174.594.296 1.166.63 1.663.923l.34.198c.235.134.437.265.608.376l.105.067.397.258c.374.244.51.513.538.743.026.234-.05.427-.093.52-.398.845-1.12 2.336-1.893 3.818-.77 1.485-1.592 2.96-2.096 3.84-.042.075-.075.15-.102.227l.053.04c2.575 1.97 4.692 4.317 6.334 6.903.078-.02.157-.047.237-.083.92-.428 2.46-1.118 4.008-1.756 1.545-.642 3.094-1.23 3.972-1.553.095-.035.296-.095.525-.046.227.05.485.208.697.602.154.28.924 1.727 1.538 3.246.264.606.487 1.227.68 1.768l.135.376c.152.436.262.8.332 1.033l.068.22c.267.854-.293 1.17-.474 1.254-.846.393-2.357 1.07-3.9 1.71-1.547.643-3.116 1.243-4.077 1.594-.082.03-.157.068-.227.11.693 3.08.842 6.274.424 9.423.072.033.147.063.23.086.982.26 2.612.72 4.213 1.225zM19.87 36.058c0 9.092 7.375 16.463 16.473 16.463 9.097 0 16.471-7.37 16.471-16.462 0-9.092-7.374-16.463-16.47-16.463-9.1 0-16.474 7.37-16.474 16.463z"/><path id="Q" fill-rule="evenodd" d="M81.273 35.559c.013.1.022.18.03.228.057.45-.06.732-.215.906-.16.175-.357.243-.455.27-.9.25-2.504.678-4.133 1.065-1.63.39-3.284.74-4.28.938-.086.017-.164.043-.238.074.098 1.638.07 3.304-.097 4.99-.167 1.684-.467 3.324-.883 4.91.066.045.138.087.22.12.937.39 2.49 1.057 4.01 1.76 1.522.698 3.01 1.43 3.845 1.853.09.046.27.152.393.355.118.2.178.5.033.93l-.073.215c-.077.23-.2.595-.36 1.032l-.402 1.024-.224.563c-.05.125-.105.25-.16.373l-.09.195-.505 1.118-.123.266-.128.252-.24.47-.232.45c-.187.363-.324.63-.387.734-.45.79-1.053.624-1.243.552-.874-.324-2.417-.917-3.958-1.557-1.553-.643-3.102-1.333-4.027-1.76-.078-.035-.155-.06-.23-.08-1.808 2.826-4.05 5.333-6.624 7.433.027.076.063.15.108.226.528.866 1.39 2.32 2.206 3.78.818 1.46 1.59 2.927 2.016 3.76.094.18.334.767-.408 1.287l-.183.13c-.2.14-.512.364-.9.623l-.924.59-.51.323c-.116.073-.237.142-.357.21l-.178.103-1.064.605c-.23.132-.458.247-.672.356l-.303.156-.24.122c-.47.24-.82.417-.953.47-.828.377-1.22-.11-1.33-.28-.518-.776-1.418-2.154-2.293-3.583-.88-1.43-1.73-2.897-2.227-3.784-.042-.073-.09-.138-.14-.198-3.054 1.203-6.33 1.938-9.726 2.125-.022.08-.04.162-.047.25-.083 1.01-.242 2.69-.444 4.35-.2 1.66-.44 3.3-.586 4.222-.016.1-.06.302-.217.48-.077.09-.182.175-.325.237-.143.058-.322.092-.548.088l-1.317-.032c-.506-.02-1.108-.067-1.734-.115l-.574-.044-.49-.06c-.65-.077-1.283-.153-1.81-.235l-1.31-.23c-.222-.04-.392-.11-.52-.194-.127-.09-.214-.192-.273-.296-.118-.206-.122-.413-.118-.515.038-.933.122-2.587.253-4.254.128-1.666.3-3.345.418-4.352.01-.088.01-.172.004-.254-3.295-.85-6.363-2.212-9.122-3.99-.06.048-.12.104-.176.168-.664.772-1.784 2.044-2.927 3.274-1.138 1.23-2.29 2.405-2.95 3.066-.144.144-.623.544-1.36.014-.12-.08-.438-.33-.87-.67l-.173-.137c-.083-.068-.17-.136-.26-.207-.19-.15-.392-.308-.594-.483l-.923-.803-.153-.134c-.105-.09-.21-.183-.31-.276l-.438-.417-.793-.762c-.335-.335-.603-.62-.77-.798-.07-.072-.12-.127-.154-.16-.627-.657-.275-1.186-.148-1.345.58-.733 1.626-2.02 2.714-3.29 1.087-1.274 2.217-2.53 2.905-3.275.06-.065.108-.132.15-.2-2.11-2.565-3.818-5.462-5.035-8.587-.08.004-.16.014-.243.034-.99.236-2.646.61-4.293.936-1.637.326-3.267.605-4.188.752-.2.033-.824.076-1.112-.786-.04-.11-.12-.392-.23-.78l-.14-.49-.142-.505c-.052-.177-.1-.362-.144-.555l-.277-1.193c-.015-.068-.03-.136-.047-.203-.03-.135-.062-.27-.087-.404l-.108-.595-.194-1.086c-.074-.46-.122-.842-.152-1.087l-.03-.236c-.06-.45.058-.732.214-.906.16-.174.356-.242.454-.27.902-.25 2.505-.677 4.134-1.064 1.63-.39 3.283-.742 4.28-.94.085-.016.163-.043.237-.073-.097-1.638-.07-3.305.098-4.99.167-1.684.466-3.324.883-4.91-.067-.046-.138-.087-.22-.12-.937-.39-2.49-1.057-4.01-1.76-1.523-.698-3.01-1.43-3.846-1.854-.09-.047-.27-.152-.393-.355-.118-.2-.177-.5-.032-.93l.073-.217c.077-.23.198-.594.36-1.03l.402-1.024.223-.562c.05-.126.106-.25.163-.375.03-.064.058-.13.086-.193l.507-1.117.12-.266.13-.25.24-.47.22-.434c.193-.373.332-.644.397-.75.45-.79 1.054-.625 1.244-.553.875.324 2.418.916 3.96 1.557 1.55.643 3.1 1.333 4.024 1.76.078.035.155.06.232.08 1.806-2.827 4.048-5.333 6.622-7.433-.028-.076-.063-.152-.108-.226-.528-.865-1.39-2.318-2.207-3.78-.818-1.46-1.59-2.926-2.016-3.758-.093-.18-.334-.768.41-1.29.04-.026.102-.07.186-.13.197-.14.51-.362.895-.62l.924-.59.51-.323c.116-.074.236-.143.357-.212l.176-.102 1.063-.606c.23-.132.46-.25.675-.358l.3-.153.264-.135c.458-.234.796-.406.928-.46.827-.375 1.218.11 1.33.28.518.778 1.417 2.156 2.293 3.585.88 1.43 1.73 2.897 2.228 3.784.042.074.09.14.14.2 3.054-1.204 6.328-1.94 9.726-2.127.022-.08.04-.16.047-.25.084-1.01.243-2.69.445-4.35.2-1.66.44-3.298.586-4.22.017-.102.062-.304.217-.483.078-.09.183-.174.326-.236.142-.058.322-.092.548-.088l1.317.032c.508.02 1.113.067 1.74.115l.568.044.5.06c.65.08 1.277.155 1.8.236l1.31.23c.222.04.392.11.52.193.128.088.215.19.273.294.117.207.122.413.118.515-.038.933-.123 2.587-.254 4.253-.127 1.668-.3 3.347-.417 4.354-.01.087-.01.172-.005.253 3.296.85 6.364 2.212 9.123 3.99.06-.047.12-.103.176-.168.66-.77 1.782-2.043 2.924-3.273 1.14-1.23 2.292-2.406 2.952-3.067.143-.144.62-.544 1.36-.014.12.08.438.33.872.672l.17.134.263.21c.19.147.39.305.592.48l.923.8.16.142c.102.09.205.178.303.27l.438.417.792.762c.334.334.6.617.77.796.067.073.12.128.154.163.626.656.275 1.185.148 1.344-.582.732-1.626 2.02-2.715 3.29-1.086 1.274-2.217 2.53-2.905 3.275-.058.064-.108.132-.15.2 2.112 2.565 3.82 5.46 5.036 8.587.078-.004.16-.014.243-.034.99-.236 2.643-.61 4.29-.937 1.638-.324 3.267-.603 4.188-.75.2-.033.823-.076 1.11.786.042.11.12.39.23.777l.14.49.144.507c.05.177.1.362.144.555l.277 1.193c.015.07.03.138.047.207.03.134.062.266.087.4l.11.595.193 1.086c.074.464.122.848.153 1.093zM20.35 40.94c0 11.21 9.093 20.297 20.31 20.297 11.214 0 20.306-9.088 20.306-20.298 0-11.21-9.092-20.296-20.307-20.296-11.217 0-20.31 9.087-20.31 20.296z"/><path id="R" fill-rule="evenodd" d="M67.216 42.11c1.577.552 3.117 1.144 3.984 1.49.19.073.747.354.55 1.23l-.335 1.26-.045.166c-.03.107-.06.22-.094.332l-.17.54-.07.217c-.1.304-.2.62-.307.932l-.426 1.133-.067.176c-.046.12-.09.24-.137.354l-.206.48-.062.14c-.23.532-.403.927-.47 1.064-.395.807-1.006.677-1.2.617-.893-.272-2.46-.77-4.04-1.328-1.584-.555-3.165-1.163-4.11-1.54-.078-.033-.156-.055-.232-.07-.76 1.356-1.652 2.666-2.673 3.91-1.022 1.246-2.133 2.375-3.315 3.386.03.073.067.145.114.216.555.85 1.462 2.28 2.317 3.724.856 1.44 1.652 2.88 2.095 3.7.097.18.343.752-.37 1.297-.113.087-.44.314-.887.624l-.18.125-.428.294c-.1.067-.208.134-.317.202l-.16.1-1.028.64c-.267.155-.537.305-.8.45l-.255.144-.497.274c-.106.057-.212.11-.314.16l-.15.076-1.18.58c-.822.365-1.207-.128-1.317-.298-.508-.782-1.39-2.175-2.24-3.613-.857-1.443-1.677-2.925-2.157-3.82-.04-.076-.087-.142-.136-.204-2.972 1.126-6.117 1.71-9.277 1.74-.023.076-.042.158-.053.245-.122 1.015-.35 2.68-.622 4.33-.27 1.648-.586 3.273-.776 4.188-.04.195-.22.812-1.114.747-.047-.004-.122-.01-.222-.016-.24-.015-.616-.04-1.074-.086l-.43-.05c-.56-.063-1.203-.136-1.84-.252-1.622-.25-3.214-.67-3.533-.76-.433-.116-.647-.33-.747-.54-.1-.212-.086-.42-.074-.52.112-.93.333-2.572.605-4.22.268-1.65.59-3.31.796-4.3.018-.086.026-.17.028-.25-2.894-1.008-5.663-2.532-8.17-4.588l-.05-.04c-.068.042-.135.09-.2.15-.74.692-1.99 1.828-3.26 2.916-1.268 1.09-2.556 2.134-3.29 2.714-.08.063-.25.18-.484.21-.23.023-.524-.047-.846-.355l-.336-.32-.106-.103c-.142-.136-.31-.297-.486-.487l-.29-.307c-.392-.41-.84-.88-1.256-1.382l-.24-.28c-.185-.218-.37-.432-.538-.646l-.666-.86c-.3-.383-.527-.71-.664-.908l-.11-.16c-.513-.737-.1-1.2.05-1.338.685-.64 1.91-1.755 3.18-2.845 1.27-1.092 2.58-2.155 3.378-2.783.068-.054.126-.113.18-.174-1.638-2.748-2.75-5.74-3.32-8.826-.08-.01-.16-.016-.248-.012-1.013.054-2.704.12-4.38.136-1.674.02-3.335-.01-4.26-.04-.204-.005-.822-.078-.93-.966l-.053-.462-.065-.832-.023-.32c-.02-.24-.038-.494-.046-.76l-.034-1.203c-.01-.284-.005-.567.002-.844l.007-.362.008-.37c.005-.253.01-.493.026-.714l.09-1.31c.083-.893.713-.98.912-.99.932-.05 2.584-.12 4.252-.14 1.67-.023 3.372.005 4.386.036.087.002.168-.005.246-.017.496-3.074 1.534-6.09 3.128-8.898-.054-.06-.112-.115-.18-.167-.812-.61-2.158-1.653-3.446-2.715-1.29-1.06-2.534-2.146-3.23-2.767-.15-.134-.582-.593-.093-1.344l.744-1.064.096-.136c.064-.093.132-.19.205-.284l.345-.445.74-.946.784-.913c.253-.294.494-.57.723-.805l.91-.95c.64-.625 1.175-.29 1.335-.17.746.56 2.056 1.568 3.348 2.624 1.294 1.054 2.58 2.17 3.338 2.844.064.057.13.105.198.146 2.444-2.113 5.2-3.72 8.12-4.81-.003-.078-.013-.16-.032-.243-.23-.988-.59-2.65-.894-4.29-.307-1.64-.562-3.273-.695-4.196-.028-.197-.066-.83.792-1.088l1.256-.34c.212-.062.446-.113.693-.167.118-.027.24-.053.36-.082l.583-.127.297-.063.302-.054 1.19-.204c.26-.045.51-.076.748-.104l.327-.04.835-.1c.157-.017.285-.026.376-.033l.095-.007c.893-.07 1.086.523 1.13.72.21.903.565 2.524.874 4.17.312 1.645.578 3.315.724 4.32.014.085.035.164.06.24 3.14-.045 6.295.458 9.312 1.525.05-.063.095-.132.135-.21.46-.903 1.246-2.398 2.07-3.854.82-1.458 1.675-2.878 2.168-3.673.107-.177.48-.67 1.303-.314l.18.077c.218.094.578.25 1.005.466l.972.483c.24.122.485.258.73.396l.33.184c.585.315 1.146.67 1.633.978l.332.21c.233.14.433.28.6.398l.1.068.387.27c.365.257.49.53.513.762.018.234-.065.424-.11.515-.426.832-1.198 2.3-2.02 3.755-.818 1.458-1.688 2.905-2.222 3.767-.045.073-.08.148-.11.223l.05.04c2.51 2.057 4.547 4.472 6.102 7.11.08-.017.16-.04.24-.075.932-.396 2.495-1.035 4.062-1.622 1.566-.59 3.133-1.126 4.022-1.42.096-.03.3-.084.526-.028.225.057.478.224.676.625.145.284.867 1.756 1.43 3.295.244.615.446 1.244.622 1.792.042.13.082.258.122.378.137.443.235.812.298 1.047l.06.218c.238.863-.332 1.16-.515 1.238-.86.366-2.393.994-3.958 1.58-1.566.592-3.154 1.14-4.127 1.458-.083.028-.16.062-.23.1.59 3.103.633 6.3.11 9.434.07.036.146.068.228.093.973.295 2.586.81 4.17 1.365zm-47.474-5.848c0 8.917 7.233 16.145 16.154 16.145 8.922 0 16.154-7.228 16.154-16.145 0-8.916-7.232-16.145-16.154-16.145-8.92 0-16.154 7.23-16.154 16.145z"/><path id="S" fill-rule="evenodd" d="M67.216 42.11c1.577.552 3.117 1.144 3.984 1.49.19.073.747.354.55 1.23l-.335 1.26-.046.167c-.03.107-.06.218-.094.332l-.17.538-.062.188c-.1.313-.204.638-.314.96l-.426 1.135-.066.175c-.047.12-.092.24-.138.355l-.206.48-.08.183c-.222.51-.386.888-.452 1.02-.395.808-1.006.678-1.2.618-.893-.272-2.46-.77-4.04-1.328-1.584-.555-3.165-1.163-4.11-1.54-.078-.033-.156-.055-.232-.07-.76 1.356-1.652 2.666-2.674 3.91-1.02 1.246-2.132 2.375-3.314 3.387.03.07.067.143.114.214.555.85 1.462 2.282 2.317 3.724.856 1.44 1.652 2.88 2.095 3.7.097.18.343.752-.37 1.297-.114.088-.45.32-.906.637l-.162.113-.428.294c-.102.068-.21.135-.32.204l-.157.1-1.028.637c-.28.164-.562.32-.835.473l-.22.123-.497.274c-.106.057-.212.11-.313.16l-.152.076-1.182.58c-.82.365-1.205-.128-1.315-.298-.508-.782-1.39-2.175-2.24-3.613-.857-1.443-1.677-2.925-2.157-3.82-.04-.075-.087-.142-.136-.204-2.972 1.126-6.117 1.71-9.277 1.74-.024.076-.042.158-.053.245-.122 1.015-.35 2.68-.623 4.33-.27 1.648-.585 3.273-.774 4.188-.04.195-.22.812-1.115.747-.047-.004-.124-.01-.225-.016-.24-.015-.615-.04-1.07-.086l-.433-.05c-.56-.063-1.202-.136-1.84-.252-1.62-.25-3.212-.67-3.53-.76-.433-.116-.646-.33-.746-.54-.1-.212-.087-.42-.075-.52.112-.93.333-2.57.605-4.22.268-1.65.59-3.31.796-4.3.018-.086.026-.17.028-.25-2.894-1.008-5.663-2.532-8.17-4.588l-.05-.04c-.068.043-.135.09-.2.15-.74.692-1.99 1.828-3.26 2.916-1.27 1.09-2.556 2.134-3.29 2.714-.08.063-.25.18-.484.21-.23.023-.523-.047-.846-.355l-.336-.32-.103-.1c-.144-.137-.313-.3-.49-.49l-.293-.31c-.39-.41-.838-.878-1.253-1.38l-.233-.272c-.187-.22-.373-.436-.544-.652l-.667-.86c-.3-.382-.527-.71-.664-.907l-.11-.16c-.513-.737-.1-1.198.05-1.338.685-.64 1.91-1.755 3.18-2.844 1.27-1.093 2.582-2.156 3.378-2.784.068-.054.126-.113.18-.174-1.638-2.748-2.75-5.74-3.32-8.826-.08-.01-.16-.016-.248-.012-1.013.054-2.703.12-4.38.136-1.674.02-3.334-.01-4.26-.04-.204-.004-.822-.078-.93-.966l-.053-.462-.065-.832c-.006-.103-.015-.21-.023-.322-.02-.238-.038-.492-.046-.756l-.034-1.205c-.01-.284-.005-.57.002-.846l.006-.36.01-.37c.004-.254.008-.494.025-.716l.09-1.31c.083-.893.713-.98.912-.99.932-.05 2.584-.12 4.252-.14 1.67-.023 3.372.006 4.386.036.087.002.168-.005.247-.017.496-3.074 1.533-6.09 3.127-8.898-.053-.058-.112-.115-.18-.167-.812-.61-2.158-1.653-3.446-2.715-1.29-1.058-2.534-2.146-3.23-2.767-.15-.133-.582-.593-.093-1.344l.744-1.064.098-.14c.064-.092.13-.186.203-.28l.345-.445.74-.946.785-.913c.252-.293.494-.57.723-.805l.91-.95c.64-.625 1.175-.29 1.335-.17.746.56 2.057 1.568 3.348 2.624 1.294 1.054 2.58 2.17 3.338 2.844.064.057.13.105.198.146 2.444-2.113 5.2-3.72 8.12-4.81-.003-.078-.013-.16-.032-.243-.23-.987-.59-2.65-.894-4.29-.307-1.64-.562-3.273-.695-4.196-.028-.197-.066-.83.792-1.088l1.256-.34c.212-.062.446-.113.692-.167l.36-.08.583-.13.297-.063.302-.054 1.19-.203c.26-.045.512-.076.75-.104l.325-.04.835-.1c.15-.016.276-.025.366-.032l.105-.008c.893-.07 1.086.523 1.13.72.21.903.565 2.524.874 4.17.312 1.645.578 3.315.724 4.32.014.085.035.164.06.24 3.14-.045 6.295.458 9.312 1.526.05-.064.095-.134.135-.21.46-.905 1.246-2.4 2.07-3.856.82-1.458 1.675-2.878 2.167-3.673.108-.176.48-.67 1.305-.314l.178.078c.218.093.578.248 1.005.466l.972.482c.244.123.49.262.74.402l.32.18c.586.314 1.148.67 1.636.978l.33.207c.23.14.427.278.593.394l.106.073.387.27c.365.257.49.53.513.762.018.234-.065.424-.11.515-.426.832-1.198 2.3-2.02 3.755-.82 1.458-1.688 2.905-2.222 3.767-.045.073-.08.148-.11.223l.025.02.026.02c2.506 2.057 4.545 4.472 6.1 7.11.08-.016.16-.04.24-.074.932-.398 2.495-1.037 4.063-1.623 1.564-.59 3.132-1.127 4.02-1.42.097-.032.3-.085.527-.03.225.058.478.225.676.626.146.284.867 1.756 1.43 3.296.243.61.444 1.237.62 1.783l.124.386c.137.44.235.81.298 1.045l.06.218c.238.863-.332 1.16-.515 1.238-.86.366-2.393.994-3.958 1.58-1.566.592-3.154 1.14-4.127 1.46-.083.026-.16.06-.23.1.59 3.1.633 6.298.11 9.432.07.036.146.068.228.093.973.295 2.587.81 4.17 1.366zm-47.474-5.848c0 8.917 7.233 16.145 16.154 16.145 8.922 0 16.154-7.228 16.154-16.145 0-8.916-7.232-16.144-16.154-16.144-8.92 0-16.154 7.228-16.154 16.144z"/></defs></svg>