<svg width="50" height="38" viewBox="0 0 50 38" xmlns="http://www.w3.org/2000/svg" xmlns:xlink="http://www.w3.org/1999/xlink" xmlns:figma="http://www.figma.com/figma/ns"><title>shopping Interests</title><desc>Created using Figma</desc><g style="mix-blend-mode:normal" figma:type="frame"><use xlink:href="#a" transform="translate(.04 .96)" fill="#212934" style="mix-blend-mode:normal" figma:type="vector-operation"/><use xlink:href="#b" transform="translate(16.5 9.3)" fill="#212934" style="mix-blend-mode:normal" figma:type="vector-operation"/><use xlink:href="#c" transform="translate(25.68 20.28)" fill="#212934" style="mix-blend-mode:normal" figma:type="vector"/><use xlink:href="#d" transform="translate(33.68 18.08)" fill="#212934" style="mix-blend-mode:normal" figma:type="vector"/></g><defs><path id="a" fill-rule="evenodd" d="M49.264 8.64l-32.6-8.6c-.3-.1-.6 0-.8.2l-11.4 9.4c-.3.2-.4.6-.3 1l1 2.5.4 1.6c-.2.1-.375.224-.55.35-.175.124-.35.25-.55.35-3.8 2.8-5.2 6.1-4.1 9.5.6 1.8 1.7 3.1 3.3 3.7.8.3 1.7.5 2.7.5 3 0 6.2-1.4 7.5-2.1l24.8 9.9c.05 0 .1.024.15.05.05.024.1.05.15.05.3 0 .7-.2.8-.5l1.4-3.4 1.6.4h.2c.2 0 .3 0 .4-.1.2-.1.3-.3.4-.5l6.1-23.1c.1-.6-.2-1.1-.6-1.2zm-45 18.4c-1.1-.4-1.9-1.3-2.3-2.6-1.1-3.5 1.4-6.2 4-7.9l2 7.9c.1.3.3.5.5.6l3 1.2c-2.1.8-5.1 1.6-7.2.8zm14.4.1l19.7 7.9.9-2.5-20.6-5.4zm23.6 4.4l-31.3-8.2-3.1-8c1-.5 1.9-.9 2.5-1.1.3.4.8.7 1.3.8.2.1.5.1.7.1.5 0 .9-.1 1.4-.4.6-.4 1.1-1 1.3-1.7.4-1.5-.5-2.9-1.9-3.3-1.5-.4-2.9.5-3.3 1.9-.1.3-.1.6-.1.9-.6.2-1.4.6-2.4 1.1l-1.2-3.2 10.6-8.7 31.2 8.4-5.7 21.4zm-29.8-20.1c-.5 0-.9.3-1 .7-.1.2-.1.5.2.7.1.3.3.4.6.5.2.1.5 0 .7-.1.3-.1.4-.3.5-.6.1-.5-.2-1.1-.7-1.2h-.3z"/><path id="b" fill-rule="evenodd" d="M0 8.5c.4.7 1.1 1.7 2.6 2.2l-.2 1v.2c0 .1.1.1.2.1l.8.2h.1c.1 0 .2-.1.3-.2l.2-.9c2.1.3 3.2-.9 3.6-2.1.5-1.9-1-3-2.1-3.6l.6-2.3c.5.3 1 .7 1.2 1.2 0 .1.1.1.2.1h.2l.9-.6c.1-.1.2-.2.1-.4-.5-.9-1.2-1.5-2.2-1.9l.3-1V.3c0-.1-.1-.1-.2-.1L5.8 0c-.2 0-.3.1-.4.2l-.3 1c-1.7-.2-3.1.5-3.5 2-.5 1.8.9 2.7 2.1 3.4L3 9.3c-.9-.5-1.4-1.2-1.6-1.6 0-.062-.038-.085-.09-.118-.034-.02-.072-.044-.11-.082-.1 0-.2 0-.2.1l-.9.7c-.1-.1-.1.1-.1.2zm5.8.1c-.01.018-.02.04-.03.067-.114.256-.37.833-1.37.833L5 7.2c.7.5 1 .9.8 1.4zM4.6 2.7c-.6 0-1.1.3-1.2.8-.1.4.1.7.8 1.2l.5-2h-.1z"/><path id="c" fill-rule="evenodd" d="M15.02 3.72L1.12.02c-.5-.1-.9.2-1.1.6-.1.5.2.9.6 1.1l13.9 3.7h.2c.4 0 .7-.3.8-.6.3-.5 0-1-.5-1.1z"/><path id="d" fill-rule="evenodd" d="M8.12 1.82l-7-1.8c-.5-.1-.9.2-1.1.6-.1.5.2.9.6 1.1l7 1.8h.2c.4 0 .7-.3.8-.6.2-.5-.1-1-.5-1.1z"/></defs></svg>