<svg height="21" width="100" xmlns="http://www.w3.org/2000/svg" viewBox="0 0 100 21"><path fill="#2375df" fill-rule="evenodd" d="M97.31 18.05v.86c.16.49.54.81 1.23.92.38-.06.65-.17.97-.43.59-.86.43-1.62-.48-2.15-.86-.32-1.51.16-1.72.8"/><path fill="#3e71b8" fill-rule="evenodd" d="M97.31 15.58v.49c.07 0 .07-.07.07-.14 0-.14 0-.28-.07-.35"/><path fill="#2375df" fill-rule="evenodd" d="M97.31 15.96v-.38c-.06-.16-.22-.16-.43.06-.43.85-1.02 1.66-1.83 2.2-1.66.8-3.17.48-4.67-.49-1.4-1.12-2.04-3-2.1-4.72 0-.49.06-.92.06-1.4.32-1.72.85-3.01 2.41-3.76 1.19-.38 3.6-.22 3.6 1.5-.05.22-.21.54-.21.81 0 1.07.64 2.04 1.88 1.56.64-.38.81-1.02.75-1.72-.86-1.99-3.01-3.17-5.1-3.28-2.37 0-4.19.97-5.59 2.96-.65 1.02-1.02 1.93-1.18 3.17-.11 2.36.53 4.24 2.2 5.91.91.86 1.88 1.34 3.17 1.5.27.05.54.05.86.11.7 0 1.29-.06 2.04-.22 1.99-.59 3.39-1.82 4.14-3.81"/><path fill="#3e71b8" fill-rule="evenodd" d="M97.33 18.91v-.86c-.07.27-.14.59 0 .86"/><path fill="#2375df" fill-rule="evenodd" d="M51.42 18.32v1.78h.54c1.72-.11 3.11-.49 4.35-1.72.59-.7 1.02-1.4 1.4-2.21.16-.53-.17-.75-.54-.43-.48.81-.86 1.4-1.56 1.99-1.29.97-2.85 1.08-4.19.59M51.42 11.87v.97l6.39-.05c.43-.22-.32-2.15-.48-2.53-1.24-2.31-3.06-3.6-5.7-3.87h-.21v.97c.21 0 .43.05.7.11 1.88.43 2.47 2.58 2.42 4.35 0 0-.06 0-.06.05h-3.06zm0 0M61.2 19.77s-.8.16-.21-.43c.53-.16 1.02-.21 1.39-.64.33-.54.33-1.08.43-1.61l-.05-14.46c-.11-.91-.16-1.66-1.02-2.04-.43-.11-.81-.05-.91-.43.05-.11.1-.11.21-.16h7.15c.32.05.32.21.05.43-.54.11-.59.05-1.18.32-.65.27-.59 1.99-.59 1.99 0 2.04 0 12.47.05 14.51.22 1.45.38 1.72 1.77 2.04.33.16.22.38-.1.48H61.2zm0 0M69.74 19.77c-.32 0-1.02-.1-.32-.48.97-.27 1.18-.32 1.45-1.34v-7.58c-.16-1.13-.7-1.4-1.77-1.56-.27-.21-.16-.43.16-.48 1.13 0 2.04-.06 3.12-.59.43-.33 1.07-.76 1.45-1.24.37-.27.32.11.32.43 0 .48-.11 1.29.05 1.77.76-1.12 1.56-1.82 2.85-2.14 1.35-.27 2.31-.17 3.6.37 1.02.65 1.56 1.08 1.99 2.26.05.54.16 1.07.16 1.61v7.15c.27 1.02.49 1.07 1.51 1.39.37.27.05.38-.22.43h-6.02c-.48-.1-.53-.32-.1-.48.8-.22 1.29-.32 1.45-1.18V9.99c-.11-1.02-.49-1.55-1.35-1.98-.48-.17-.8-.17-1.29-.06-1.29.38-2.36 1.61-2.63 2.9v5.7c.05.91 0 2.09.91 2.58.06 0 1.4.27.76.59-.11 0-.22 0-.27.05h-5.81zm0 0"/><path fill="none" fill-rule="evenodd" d="M44.57 20.1h6.85V6.39h-6.85V20.1zm0 0"/><path fill="#2375df" fill-rule="evenodd" d="M51.42 7.36v-.97c-2.53.06-4.3 1.08-5.75 3.07-1.29 2.2-1.5 4.56-.32 6.87 1.18 2.15 2.9 3.28 5.32 3.71.27 0 .27 0 .48.06h.27v-1.78c-.59-.21-1.13-.48-1.56-.91-.8-.92-1.23-1.77-1.45-2.9-.05-.43-.27-1.29-.16-1.62 0-.05.05-.05.05-.05h3.12v-.97h-3.06c-.27 0 .1-1.66.16-1.88.37-1.45 1.4-2.58 2.9-2.63M17.09 8.11v11.66l4.19-.05c.48-.32-.59-.54-.7-.54-.97-.48-.81-1.61-.91-2.58V7.52c0-.27.05-.64-.06-.86-.32 0-.59.32-.8.54-.54.43-1.13.7-1.72.91M17.09.05v2.26c.86.65 1.5 1.5 1.93 2.74.11.32.05.97.43 1.13.22-.11.16-.22.16-.43V.05h-2.52zm0 0M21.98 19.77c-.81-.32.69-.64.91-.75.48-.43.54-1.13.59-1.72v-6.82c-.11-1.24-.75-1.51-1.83-1.67-.43-.21-.05-.43.22-.48 1.61 0 3.01-.59 4.24-1.67.22-.1.22-.21.49-.21.37.37 0 1.72.16 2.25.11-.1.27-.37.37-.53.27-.38.65-.65 1.02-.97.7-.48 1.29-.7 2.15-.75 1.35 0 2.74.32 3.66 1.45.05.05.59 1.02.64 1.07 0-.05 0-.05.06-.05.86-1.51 1.93-2.31 3.65-2.53 2.04 0 3.87.86 4.46 2.96v8.6c.21 1.02.54 1.07 1.5 1.34.49.32.06.43-.27.48h-5.91c-.42-.05-.59-.16-.21-.48.86-.22 1.18-.22 1.4-1.18.05-.33.1-.7.16-1.08V10.1c-.16-1.07-.38-1.56-1.35-2.09-1.77-.38-2.9.69-3.27 2.36l-.06 6.72c.06.64.06 1.45.59 1.88.17.1 1.67.48.92.8h-6.4c-.75-.32.81-.7.92-.75.59-.43.59-1.4.64-2.04l-.05-7.09c-.22-1.88-1.72-2.37-3.28-1.62-.32.22-.59.49-.81.81-.32.59-.48 1.02-.53 1.72v6.45c.11.8.11 1.5.86 1.88.16.05 1.45.32.64.64h-6.28zm0 0M17.09 2.31V.05L0 .11v5.85c.38.6.54-.32.59-.64.22-.75.59-1.88 1.29-2.36C3.22 1.45 5.8.64 7.79.97v.1l.05 14.19c-.05.97.22 3.22-.91 3.81-.27.11-.54.17-.8.22-.17.11-.38.16-.22.43l7.74.05c.75-.32-.81-.7-.92-.75-.91-.54-.86-1.83-.91-2.69V1.13c.05-.06.05-.11.05-.16.76-.11 1.51 0 2.26.05 1.13.27 2.15.65 2.96 1.29"/><path fill="#2375df" fill-rule="evenodd" d="M17.09 19.77V8.11c-.43.11-.86.22-1.29.22-.33 0-.65.05-.97.05-.22.06-.48.22-.11.38 1.24.11 1.61 1.02 1.67 2.15v7.04c-.22 1.02-.43 1.12-1.45 1.34-.38.21-.38.43.1.54l2.05-.06zm0 0"/></svg>