<svg height="46" width="100" xmlns="http://www.w3.org/2000/svg" viewBox="0 0 100 46"><path fill="#fefefe" fill-rule="evenodd" d="M60.92 16.21h.02-.02zm35.15 22.74h-.01.01zm0 0"/><path stroke-width=".271" stroke="#cdcbcb" fill="none" fill-rule="evenodd" d="M60.92 16.21h.02-.02zm35.15 22.74h-.01.01zm0 0"/><path fill="#2375df" fill-rule="evenodd" d="M70.89 18.7c-.63 1.01-.9 4.2-.68 6.31.08.7.21 1.28.39 1.63.25.48.68.76 1.16.78.31.02.5-.04 6.33-1.91 0 0 2.59-.83 2.61-.83.64-.17 1.08-.76 1.12-1.52.04-.78-.36-1.47-1.02-1.71l-1.83-.75c-6.27-2.58-6.55-2.69-6.87-2.69-.48-.02-.91.23-1.21.69M84.91 37.96c.1-.29.11-.5.13-6.62 0 0 .01-2.71.02-2.74.04-.66-.39-1.26-1.09-1.53-.73-.28-1.51-.11-1.95.43 0 0-1.27 1.52-1.28 1.52-4.39 5.16-4.57 5.4-4.68 5.7-.06.18-.09.37-.07.56.03.28.15.55.36.8 1.01 1.21 5.9 3 7.46 2.74.54-.1.93-.4 1.1-.86"/><path fill="none" fill-rule="evenodd" d="M99.74 35.95V25.14H88.17v10.81h11.57zm0 0"/><path fill="#2375df" fill-rule="evenodd" d="M94.81 35.83c1.47-.59 4.69-4.67 4.91-6.25.08-.54-.09-1.01-.47-1.31-.25-.19-.44-.26-6.26-2.17 0 0-2.56-.85-2.59-.87-.62-.24-1.32-.01-1.8.57-.49.6-.57 1.4-.18 2l1.03 1.67c3.46 5.62 3.73 6.02 3.98 6.21.38.3.87.35 1.38.15M91.8 21.36c6.62-1.6 6.88-1.69 7.14-1.85.4-.28.6-.73.57-1.28v-.06c-.17-1.62-3.02-5.85-4.42-6.54-.5-.24-1-.22-1.41.06-.26.16-.44.41-3.99 5.26 0 0-1.6 2.19-1.62 2.21-.43.51-.43 1.25-.02 1.88.43.65 1.15.97 1.81.79 0 0-.02.04-.03.05.32-.12.91-.26 1.97-.52M85.15 15.9c-.11-2.63-.9-14.32-1-14.86-.13-.49-.51-.84-1.06-.98-1.69-.42-8.15 1.39-9.35 2.63-.39.4-.53.89-.41 1.33.18.39 8.19 12.98 8.19 12.98 1.18 1.92 2.15 1.63 2.47 1.53.31-.1 1.27-.4 1.16-2.63M3.14 43.6c.84.77 2.42.99 4.34.6 1.8-.36 2.91-1.16 3.99-4.57l5.35-16.81c.27-.9.25-1.67-.06-2.25-.26-.46-.69-.77-1.3-.93-.95-.26-2.14-.24-2.89 2.32L9.76 31.5 4.04 20.7c-.36-.73-1.42-1.24-2.5-.81-1.4.53-1.87 1.79-1.31 3.42 0 0 6.96 14.15 6.97 14.2 0 0 .19.5.19.58 0 0 .07.39.07.4-.02.54-.2 1-.53 1.31-.32.3-.76.46-1.28.43 0 0-1.09-.02-1.17-.02-1.12.14-1.82.78-1.93 1.77-.08.63.13 1.19.59 1.62M30.55 27.66H23.1c-.2-.14-.3-.39-.15-1.13.1-.39.2-.74.49-1.24.1-.14.2-.29.3-.44.54-.69 1.28-1.13 2.12-1.33 2.62-.64 4.44.69 4.74 2.96.14.99.05 1.18-.05 1.18m4.57-1.29c-.24-2.43-1.17-4.33-2.71-5.49-1.64-1.24-3.95-1.64-6.7-1.15-3.44.6-5.5 3.06-5.97 7.12-.58 4.85.21 8.51 2.32 10.58 1.58 1.57 3.92 2.19 6.77 1.8 4.07-.57 5.89-2.8 5.89-4.21 0-1.04-.63-1.85-1.55-1.98-.52-.1-.97 0-1.95.88-1.42 1.24-3.07 1.74-4.53 1.37-1.11-.28-1.97-1.05-2.37-2.1 0 0-.17-.7-.16-.62-.12-.62-.17-1.24.21-1.49l.1-.08h8.93c.82 0 1.24-.1 1.48-.36.49-.55.45-2.1.24-4.27M43.21 13.52c-.71-.29-1.5-.21-2.2.21-.67.4-.95 1-.95 2.1v21.28s.12.76.13.8c.15.53.54.98 1.08 1.23.61.28 1.31.27 1.93-.02.78-.34 1.24-1.11 1.24-2.08V15.72s-.14-1.03-.14-1.05c-.13-.5-.53-.92-1.09-1.15M60.06 35.14c-2.95 0-3.42-2.62-3.51-4.59-.01 0-.04-1.16-.04-1.16s.03-.85.03-.89c.19-3.41.9-4.76 2.7-5.14 1.21-.28 2.14-.14 2.83.42 1.05.84 1.51 2.62 1.46 5.58-.03 3.47-.63 5.78-3.47 5.78m.22-15.63c-1.98-.4-3.67-.06-5.29 1.04 0 0-.18.15-.26.19l-.14.07-.45.2-.12-.5-.11-.18-.03-.11-.02-.03s-.1-.15-.12-.17c-.47-.73-1.73-1.06-2.88-.41-.56.32-.88.77-.88 2.1V42.6c0 1.14.36 1.85 1.15 2.23.66.33 1.41.36 2.04.08.55-.23.95-.66 1.1-1.17l.13-.89v-3.62l-.04-.58.01-.17.03-.08.21-.69.66.43s.16.11.23.18l.2.14.22.13c.01 0 .21.1.21.1 1.76.83 4.11.73 5.99-.24 2.38-1.24 3.55-3.44 3.82-7.14.57-7.38-1.13-10.91-5.66-11.8M69.43 36.77h.25c.2 0 .38 0 .38-.23 0-.2-.17-.22-.32-.22h-.31v.45zm-.2-.63h.53c.34 0 .5.13.5.41 0 .26-.17.36-.38.39l.41.63h-.21l-.39-.62h-.26v.62h-.2v-1.43zm.46 1.75c.58 0 1.04-.45 1.04-1.05 0-.59-.46-1.04-1.04-1.04-.57 0-1.04.45-1.04 1.05 0 .59.47 1.04 1.04 1.04zm0-2.27c.68 0 1.24.52 1.24 1.22s-.56 1.23-1.24 1.23c-.67 0-1.23-.53-1.23-1.22 0-.71.56-1.23 1.23-1.23zm0 0"/></svg>