<svg height="64" width="100" xmlns="http://www.w3.org/2000/svg" viewBox="0 0 100 64"><path fill="#2375df" fill-rule="evenodd" d="M57.58 17.9c.02-2.48-1.92-4.53-4.31-4.57-2.39-.04-4.43 2.05-4.43 4.54 0 2.45 1.93 4.47 4.28 4.49 2.49.02 4.44-1.94 4.46-4.46m12.98-.09c-.34 7.27-3.38 12.88-9.96 16.19-7.2 3.62-15.63 1.57-20.76-4.8-5.98-7.41-5.01-18.68 2.14-24.94 9.08-7.93 23.05-4.34 27.33 7.06.38 1.03.69 2.1.89 3.18.21 1.11.25 2.25.36 3.31M11.38 52.2c.01-2.45-1.99-4.54-4.35-4.55-2.33 0-4.29 2.03-4.33 4.48-.03 2.4 1.96 4.49 4.31 4.5 2.38.01 4.35-2 4.37-4.43m-4.33 7.25C3.1 59.46.01 56.3 0 52.24c-.01-4.14 3.09-7.4 7.04-7.4 3.91.01 7.09 3.29 7.09 7.32 0 4.07-3.1 7.27-7.08 7.29"/><path fill="none" fill-rule="evenodd" d="M16.07 63.29h9.94V48.76h-9.94v14.53zm0 0"/><path fill="#2375df" fill-rule="evenodd" d="M23.24 53.7c-.01-.51-.24-1.32-.92-1.92-.72-.63-1.55-.69-2.4-.31-.78.36-1.27.93-1.23 1.86.04.83-.02 1.65.03 2.47.02.25.21.59.43.7 2.08 1.1 4.09-.11 4.09-2.8m-5.11-3.86c.88-.34 1.79-.9 2.76-1.04 2.04-.28 3.86.93 4.65 2.89.53 1.33.61 2.7.22 4.08-.75 2.61-2.95 3.99-5.64 3.54-.43-.08-.86-.16-1.42-.26 0 1.12-.04 2.19.01 3.26.04.72-.17 1-.95.98-1.85-.05-1.69.17-1.69-1.65V49.99c0-.94.85-1.45 1.66-.94.26.16.32.62.4.79M70.95 53.72c0 .35.02.72-.01 1.07-.07.89.36 1.48 1.13 1.85.83.4 1.66.36 2.4-.23 1.02-.8 1.3-2.62.63-3.89-.59-1.1-1.72-1.5-3.14-1.13-.71.18-1.16.5-1.02 1.33.05.32.01.66.01 1m-.65 4.33c-.09.55-.03 1.1-.81 1.1-1.09 0-1.21-.06-1.21-1.14V45.89c0-1.01.03-1.05 1.04-1.05 1.8.01 1.62-.16 1.63 1.63 0 .77 0 1.54.01 2.31 0 .08.04.15.08.3.42-.08.84-.17 1.26-.25 3.01-.54 5.49 1.33 5.78 4.36.15 1.56-.05 3.03-1 4.33-1.56 2.13-4.27 2.49-6.36.85-.11-.1-.24-.18-.42-.32M34.28 52.74c-.06-1.03-.73-1.66-1.74-1.73-.98-.06-2.13.67-2.09 1.73h3.83zm-4.02 1.86c.19 2.08 2.24 2.98 4.1 1.9.3-.17.82-.46.91-.37.44.43.78.96 1.09 1.49.05.09-.17.41-.34.54-1.61 1.25-3.42 1.63-5.33.86-1.91-.77-2.89-2.31-3.08-4.3-.28-2.96 1.31-5.3 3.9-5.86 3.13-.69 5.93 1.88 5.54 5.03-.08.57-.37.72-.89.72-1.95-.02-3.89-.01-5.9-.01zm0 0M91.62 52.75c-.11-1.1-.8-1.73-1.85-1.73-1.13-.01-1.88.63-2 1.73h3.85zm-4.01 1.85c.01 1.53 1.34 2.59 2.87 2.31.49-.09 1-.31 1.41-.59.46-.31.72-.33 1.07.15.99 1.32.97 1.49-.5 2.28-3.35 1.81-7.23-.3-7.54-4.08-.24-2.94 1.35-5.27 3.95-5.83 3.02-.64 5.77 1.8 5.5 4.85-.07.68-.3.94-1.01.92-1.66-.04-3.32-.01-4.98-.01h-.77zm0 0M41.21 50.04c1.18-1.16 2.58-1.51 4.16-1.18 1.54.32 2.57 1.29 2.71 2.97.18 2.23.13 4.47.17 6.71 0 .08 0 .17-.04.22-.59.74-1.39.27-2.1.36-.48.05-.55-.36-.55-.75 0-1.72.01-3.45-.01-5.17-.01-1.13-.45-1.73-1.32-1.91-1.26-.27-2.48.7-2.48 1.98-.01 1.68-.02 3.35.01 5.02.01.64-.22.87-.86.86-2.07-.03-1.81.17-1.82-1.76-.01-2.42-.01-4.84.01-7.26 0-.49-.23-1.14.67-1.18 1.15-.07 1.26-.01 1.45 1.09M54.65 47.46v.99c0 3.24-.02 6.48.01 9.72.01.72-.19 1.01-.96.98-2.1-.06-1.83.24-1.84-1.79-.01-3.01-.03-6.02.02-9.03.01-.73-.23-.93-.93-.89-.83.06-1.66.01-2.49.02-.41 0-.63-.14-.62-.58.05-2.47-.34-2.01 1.88-2.03 2.69-.03 5.39.01 8.09-.02.65-.01.85.21.84.84-.06 2.12.26 1.75-1.83 1.79-.69.01-1.39 0-2.17 0M63.39 55.49c.21-.67-.26-.89-.9-1-1.22-.22-2.19.28-2.32 1.21-.13.87.44 1.58 1.32 1.65 1.02.07 1.9-.73 1.9-1.86m-.01-2.72c.15-1.16-.36-1.77-1.62-1.69-.75.04-1.5.15-2.23.31-.49.11-.69.02-.81-.49-.38-1.56-.39-1.66 1.22-1.9 1.09-.16 2.23-.26 3.32-.15 1.5.16 2.29.96 2.48 2.45.17 1.29.14 2.61.18 3.92.02.98 0 1.96 0 2.93 0 .46.11.99-.63.99-.6-.01-1.35.2-1.27-.76-.76.31-1.49.73-2.27.91-2.02.48-3.78-.67-4.07-2.55-.34-2.19.86-3.77 3.07-3.95.86-.08 1.74-.02 2.63-.02M27.06 22.28c-2.38 0-4.29-2-4.26-4.47.02-2.41 1.97-4.41 4.29-4.41 2.39.01 4.3 2 4.28 4.48-.01 2.51-1.87 4.41-4.31 4.4M82.64 50.66c0 1.62 0 3.24-.01 4.86 0 .44.02.82.58.94.14.03.27.26.34.43.06.13.02.3.02.46.02 1.78.02 1.78-.89 1.79-1.98.03-2.71-.5-2.71-2-.01-3.78.01-7.57-.02-11.35 0-.73.26-.94.96-.92 1.8.06 1.73-.28 1.73 1.7-.01 1.36 0 2.73 0 4.09M99.32 50.78c.01-.95-.61-1.66-1.45-1.68-.83-.01-1.5.72-1.51 1.65-.02.92.63 1.65 1.47 1.66.86.01 1.49-.68 1.49-1.63M96 50.72c.01-1.18.79-1.99 1.9-1.97 1.08.02 1.84.87 1.82 2.06-.02 1.17-.79 1.97-1.91 1.95-1.1-.01-1.82-.82-1.81-2.04"/><path fill="#fff" fill-rule="evenodd" d="M57.58 17.9c-.02 2.52-1.97 4.48-4.46 4.46-2.35-.02-4.28-2.04-4.28-4.49 0-2.49 2.04-4.58 4.43-4.54 2.39.04 4.33 2.09 4.31 4.57M11.38 52.2c-.02 2.43-1.99 4.44-4.37 4.43-2.35-.01-4.34-2.1-4.31-4.5.04-2.45 2-4.48 4.33-4.48 2.36.01 4.36 2.1 4.35 4.55M23.24 53.7c0 2.69-2.01 3.9-4.09 2.8-.22-.11-.41-.45-.43-.7-.05-.82.01-1.64-.03-2.47-.04-.93.45-1.5 1.23-1.86.85-.38 1.68-.32 2.4.31.68.6.91 1.41.92 1.92M70.95 53.72c0-.34.04-.68-.01-1-.14-.83.31-1.15 1.02-1.33 1.42-.37 2.55.03 3.14 1.13.67 1.27.39 3.09-.63 3.89-.74.59-1.57.63-2.4.23-.77-.37-1.2-.96-1.13-1.85.03-.35.01-.72.01-1.07M34.28 52.74h-3.83c-.04-1.06 1.11-1.79 2.09-1.73 1.01.07 1.68.7 1.74 1.73M91.62 52.75h-3.85c.12-1.1.87-1.74 2-1.73 1.05 0 1.74.63 1.85 1.73M63.39 55.49c0 1.13-.88 1.93-1.9 1.86-.88-.07-1.45-.78-1.32-1.65.13-.93 1.1-1.43 2.32-1.21.64.11 1.11.33.9 1M97.11 49.71c.04.74.08 1.39.11 2.04.08 0 .16-.01.25-.01.05-.23.1-.46.2-.85.33.38.56.65.79.92.07-.53.2-.96.15-1.38-.03-.26-.29-.56-.53-.69-.21-.12-.55-.03-.97-.03m2.21 1.07c0 .95-.63 1.64-1.49 1.63-.84-.01-1.49-.74-1.47-1.66.01-.93.68-1.66 1.51-1.65.84.02 1.46.73 1.45 1.68"/><path fill="#2375df" fill-rule="evenodd" d="M97.11 49.71c.42 0 .76-.09.97.03.24.13.5.43.53.69.05.42-.08.85-.15 1.38-.23-.27-.46-.54-.79-.92-.1.39-.15.62-.2.85-.09 0-.17.01-.25.01-.03-.65-.07-1.3-.11-2.04"/></svg>